<svg xmlns="http://www.w3.org/2000/svg" width="300" height="64" viewBox="0 0 300 64">
<polyline points="4.00,28.67 5.28,27.79 6.55,26.07 7.83,29.01 9.10,29.30 10.38,25.79 11.65,28.06 12.93,28.13 14.20,26.54 15.48,29.86 16.75,27.15 18.03,29.56 19.30,31.90 20.58,28.48 21.85,30.25 23.13,32.52 24.40,29.05 25.68,29.12 26.95,28.97 28.23,28.98 29.50,27.14 30.78,31.24 32.05,26.77 33.33,28.24 34.60,30.14 35.88,28.87 37.15,30.60 38.43,29.84 39.70,30.33 40.98,31.91 42.25,34.57 43.53,33.94 44.80,34.91 46.08,33.32 47.35,32.74 48.63,33.51 49.90,34.52 51.18,35.93 52.45,33.25 53.73,34.94 55.00,31.42 56.28,34.94 57.55,31.36 58.83,35.74 60.10,32.60 61.38,34.96 62.66,34.49 63.93,35.82 65.21,36.96 66.48,36.97 67.76,35.57 69.03,36.70 70.31,32.95 71.58,25.75 72.86,27.31 74.13,32.14 75.41,38.39 76.68,41.78 77.96,43.32 79.23,38.97 80.51,38.09 81.78,38.09 83.06,35.87 84.33,36.61 85.61,35.25 86.88,36.45 88.16,36.12 89.43,35.11 90.71,34.83 91.98,36.81 93.26,36.20 94.53,35.94 95.81,35.40 97.08,33.57 98.36,36.10 99.63,32.93 100.91,33.15 102.18,30.86 103.46,31.05 104.73,33.44 106.01,32.68 107.28,29.02 108.56,31.07 109.83,29.63 111.11,32.07 112.38,30.23 113.66,31.19 114.93,31.26 116.21,33.54 117.48,29.69 118.76,29.92 120.03,30.22 121.31,30.45 122.59,31.76 123.86,31.36 125.14,27.85 126.41,29.49 127.69,28.66 128.96,25.96 130.24,28.02 131.51,24.96 132.79,28.61 134.06,25.83 135.34,28.69 136.61,29.89 137.89,29.00 139.16,27.95 140.44,31.71 141.71,29.96 142.99,29.11 144.26,32.96 145.54,30.91 146.81,31.57 148.09,30.64 149.36,28.69 150.64,30.12 151.91,30.43 153.19,30.68 154.46,27.82 155.74,30.47 157.01,26.23 158.29,20.69 159.56,17.91 160.84,18.92 162.11,30.30 163.39,35.54 164.66,39.01 165.94,41.86 167.21,39.35 168.49,38.58 169.76,38.22 171.04,36.19 172.31,37.05 173.59,32.93 174.86,35.95 176.14,33.96 177.41,33.00 178.69,35.97 179.97,31.88 181.24,32.17 182.52,34.03 183.79,34.76 185.07,33.86 186.34,35.59 187.62,37.89 188.89,35.27 190.17,38.95 191.44,37.63 192.72,37.77 193.99,36.69 195.27,38.20 196.54,36.57 197.82,37.94 199.09,35.18 200.37,36.98 201.64,35.61 202.92,34.42 204.19,33.21 205.47,32.27 206.74,32.05 208.02,34.40 209.29,36.47 210.57,34.42 211.84,34.79 213.12,34.38 214.39,37.60 215.67,34.27 216.94,37.08 218.22,33.61 219.49,32.45 220.77,33.76 222.04,33.45 223.32,31.73 224.59,33.31 225.87,30.28 227.14,28.84 228.42,28.04 229.69,28.82 230.97,28.53 232.24,26.57 233.52,26.14 234.79,21.21 236.07,16.00 237.34,24.98 238.62,31.63 239.90,34.84 241.17,35.08 242.45,34.63 243.72,35.37 245.00,30.62 246.27,31.57 247.55,29.03 248.82,27.83 250.10,25.60 251.37,28.61 252.65,27.84 253.92,28.00 255.20,28.23 256.47,29.16 257.75,28.57 259.02,29.75 260.30,30.38 261.57,28.42 262.85,32.17 264.12,31.00 265.40,33.14 266.67,33.17 267.95,29.58 269.22,29.69 270.50,28.77 271.77,32.12 273.05,28.84 274.32,30.76 275.60,28.45 276.87,29.49 278.15,30.30 279.42,29.86 280.70,32.02 281.97,31.46 283.25,30.84 284.52,32.50 285.80,32.76 287.07,32.48 288.35,36.77 289.62,34.24 290.90,33.60 292.17,35.49 293.45,36.27 294.72,34.68 296.00,36.72" fill="none" stroke="#F97316" stroke-width="2.20" stroke-linecap="round" stroke-linejoin="round"/>
</svg>