<svg xmlns="http://www.w3.org/2000/svg" width="300" height="64" viewBox="0 0 300 64">
<polyline points="4.00,23.18 5.28,26.06 6.55,24.22 7.83,21.99 9.10,26.45 10.38,24.66 11.65,24.73 12.93,22.96 14.20,30.54 15.48,31.48 16.75,30.95 18.03,28.59 19.30,29.58 20.58,35.56 21.85,30.65 23.13,33.86 24.40,30.88 25.68,31.03 26.95,36.77 28.23,30.11 29.50,33.26 30.78,35.24 32.05,32.86 33.33,35.68 34.60,31.14 35.88,33.12 37.15,36.98 38.43,37.08 39.70,36.12 40.98,35.25 42.25,39.85 43.53,41.90 44.80,40.75 46.08,43.13 47.35,41.27 48.63,37.18 49.90,41.54 51.18,39.95 52.45,35.69 53.73,38.81 55.00,38.54 56.28,36.80 57.55,33.62 58.83,32.53 60.10,32.66 61.38,37.13 62.66,35.86 63.93,37.47 65.21,34.76 66.48,36.55 67.76,34.08 69.03,35.47 70.31,35.21 71.58,37.67 72.86,33.72 74.13,33.45 75.41,26.56 76.68,16.55 77.96,24.93 79.23,34.16 80.51,33.59 81.78,36.84 83.06,33.24 84.33,28.59 85.61,24.26 86.88,30.10 88.16,25.65 89.43,30.41 90.71,25.61 91.98,28.97 93.26,31.25 94.53,29.16 95.81,27.16 97.08,30.45 98.36,28.11 99.63,24.51 100.91,23.40 102.18,23.23 103.46,24.34 104.73,22.12 106.01,25.78 107.28,24.10 108.56,24.90 109.83,26.77 111.11,28.26 112.38,29.21 113.66,23.76 114.93,29.18 116.21,30.67 117.48,29.19 118.76,29.41 120.03,28.64 121.31,28.74 122.59,34.80 123.86,33.23 125.14,31.88 126.41,32.11 127.69,30.01 128.96,32.08 130.24,27.41 131.51,31.75 132.79,28.25 134.06,28.82 135.34,31.70 136.61,35.62 137.89,38.37 139.16,32.87 140.44,34.45 141.71,38.42 142.99,42.09 144.26,37.41 145.54,40.77 146.81,39.49 148.09,35.11 149.36,34.89 150.64,34.65 151.91,39.43 153.19,34.67 154.46,34.54 155.74,33.48 157.01,38.47 158.29,32.31 159.56,37.94 160.84,38.67 162.11,30.95 163.39,25.34 164.66,24.72 165.94,36.47 167.21,44.26 168.49,45.59 169.76,43.82 171.04,39.57 172.31,41.42 173.59,34.17 174.86,35.28 176.14,32.82 177.41,32.91 178.69,29.50 179.97,30.51 181.24,27.44 182.52,29.71 183.79,30.98 185.07,29.76 186.34,30.37 187.62,30.79 188.89,26.15 190.17,29.23 191.44,27.29 192.72,28.64 193.99,25.74 195.27,28.54 196.54,27.76 197.82,28.22 199.09,27.42 200.37,21.69 201.64,23.92 202.92,22.10 204.19,19.82 205.47,22.68 206.74,25.48 208.02,22.29 209.29,22.47 210.57,22.41 211.84,26.99 213.12,30.13 214.39,26.99 215.67,26.88 216.94,32.61 218.22,27.31 219.49,27.06 220.77,32.29 222.04,27.99 223.32,31.21 224.59,27.88 225.87,30.39 227.14,27.15 228.42,29.45 229.69,28.41 230.97,28.20 232.24,28.03 233.52,31.49 234.79,35.02 236.07,34.68 237.34,33.26 238.62,29.87 239.90,27.10 241.17,24.86 242.45,38.62 243.72,48.00 245.00,47.37 246.27,41.29 247.55,38.61 248.82,37.90 250.10,39.33 251.37,36.43 252.65,31.98 253.92,37.54 255.20,38.19 256.47,36.16 257.75,39.93 259.02,34.35 260.30,35.73 261.57,41.20 262.85,36.60 264.12,36.12 265.40,37.61 266.67,37.23 267.95,41.28 269.22,39.56 270.50,36.81 271.77,37.69 273.05,31.88 274.32,33.94 275.60,31.18 276.87,32.20 278.15,27.62 279.42,32.00 280.70,28.18 281.97,28.30 283.25,30.33 284.52,34.69 285.80,28.85 287.07,34.53 288.35,35.14 289.62,29.37 290.90,33.66 292.17,33.98 293.45,27.06 294.72,25.54 296.00,28.46" fill="none" stroke="#2563EB" stroke-width="2.20" stroke-linecap="round" stroke-linejoin="round"/>
</svg>