<svg xmlns="http://www.w3.org/2000/svg" width="300" height="64" viewBox="0 0 300 64">
<polyline points="4.00,33.45 5.28,29.89 6.55,32.59 7.83,29.80 9.10,31.87 10.38,31.00 11.65,27.95 12.93,31.14 14.20,29.62 15.48,30.60 16.75,30.92 18.03,31.04 19.30,32.45 20.58,30.04 21.85,32.95 23.13,32.22 24.40,32.77 25.68,31.37 26.95,30.31 28.23,27.81 29.50,29.33 30.78,29.90 32.05,28.94 33.33,25.79 34.60,29.36 35.88,27.23 37.15,28.41 38.43,27.63 39.70,29.34 40.98,28.42 42.25,29.65 43.53,29.46 44.80,28.79 46.08,30.24 47.35,32.03 48.63,32.25 49.90,28.57 51.18,30.08 52.45,30.90 53.73,27.59 55.00,28.74 56.28,27.95 57.55,27.29 58.83,29.72 60.10,29.68 61.38,28.01 62.66,31.37 63.93,28.84 65.21,29.45 66.48,21.96 67.76,17.28 69.03,18.41 70.31,26.62 71.58,34.84 72.86,39.38 74.13,40.38 75.41,38.19 76.68,36.72 77.96,36.73 79.23,32.06 80.51,32.78 81.78,31.65 83.06,33.53 84.33,33.64 85.61,34.93 86.88,34.12 88.16,35.00 89.43,35.00 90.71,35.77 91.98,34.49 93.26,34.68 94.53,37.79 95.81,37.03 97.08,37.90 98.36,35.75 99.63,34.22 100.91,36.90 102.18,34.27 103.46,35.73 104.73,36.55 106.01,33.37 107.28,34.96 108.56,35.71 109.83,34.85 111.11,35.97 112.38,35.65 113.66,35.92 114.93,36.44 116.21,36.10 117.48,37.51 118.76,38.36 120.03,38.32 121.31,38.01 122.59,35.99 123.86,36.13 125.14,33.80 126.41,34.39 127.69,33.01 128.96,31.42 130.24,34.64 131.51,34.55 132.79,33.94 134.06,32.99 135.34,32.39 136.61,31.94 137.89,33.76 139.16,31.60 140.44,35.61 141.71,32.43 142.99,34.89 144.26,32.11 145.54,35.12 146.81,30.99 148.09,31.25 149.36,29.69 150.64,30.50 151.91,30.42 153.19,23.13 154.46,18.52 155.74,16.00 157.01,17.76 158.29,26.07 159.56,32.01 160.84,35.97 162.11,36.83 163.39,34.55 164.66,33.94 165.94,34.05 167.21,31.90 168.49,30.17 169.76,29.78 171.04,30.35 172.31,30.22 173.59,29.87 174.86,29.91 176.14,29.55 177.41,28.19 178.69,29.26 179.97,26.71 181.24,26.82 182.52,27.41 183.79,30.08 185.07,29.19 186.34,29.44 187.62,31.32 188.89,28.37 190.17,29.63 191.44,30.95 192.72,30.32 193.99,32.35 195.27,32.14 196.54,30.76 197.82,29.62 199.09,29.70 200.37,31.94 201.64,29.34 202.92,28.07 204.19,28.76 205.47,28.23 206.74,28.36 208.02,31.83 209.29,32.13 210.57,31.78 211.84,30.74 213.12,33.75 214.39,32.02 215.67,32.79 216.94,34.38 218.22,34.06 219.49,32.71 220.77,33.24 222.04,34.92 223.32,32.47 224.59,34.75 225.87,33.79 227.14,30.92 228.42,29.35 229.69,26.49 230.97,20.87 232.24,19.70 233.52,25.94 234.79,34.46 236.07,38.09 237.34,40.79 238.62,40.62 239.90,40.61 241.17,40.25 242.45,38.72 243.72,37.51 245.00,36.65 246.27,34.86 247.55,36.60 248.82,36.92 250.10,33.88 251.37,35.38 252.65,34.59 253.92,35.72 255.20,32.98 256.47,35.37 257.75,35.59 259.02,33.92 260.30,35.46 261.57,36.67 262.85,34.49 264.12,36.48 265.40,36.64 266.67,34.06 267.95,34.40 269.22,34.08 270.50,35.47 271.77,32.61 273.05,32.84 274.32,31.34 275.60,32.67 276.87,30.68 278.15,30.41 279.42,31.94 280.70,30.95 281.97,30.63 283.25,30.03 284.52,30.59 285.80,31.36 287.07,34.09 288.35,32.29 289.62,31.91 290.90,34.05 292.17,32.20 293.45,30.11 294.72,29.40 296.00,28.70" fill="none" stroke="#4B5563" stroke-width="2.20" stroke-linecap="round" stroke-linejoin="round"/>
</svg>