<svg xmlns="http://www.w3.org/2000/svg" width="300" height="64" viewBox="0 0 300 64">
<polyline points="4.00,33.32 5.22,33.53 6.44,33.23 7.67,33.84 8.89,32.76 10.11,32.70 11.33,32.96 12.55,33.77 13.77,33.12 15.00,33.41 16.22,33.50 17.44,32.23 18.66,32.09 19.88,33.64 21.10,32.11 22.33,32.39 23.55,32.56 24.77,32.48 25.99,31.52 27.21,31.61 28.44,30.95 29.66,30.78 30.88,31.56 32.10,30.43 33.32,30.13 34.54,30.31 35.77,31.15 36.99,32.40 38.21,32.74 39.43,32.84 40.65,32.02 41.87,34.19 43.10,35.34 44.32,34.81 45.54,34.64 46.76,30.09 47.98,20.09 49.21,13.00 50.43,19.84 51.65,31.22 52.87,37.95 54.09,39.57 55.31,38.93 56.54,37.80 57.76,34.86 58.98,32.68 60.20,32.01 61.42,31.70 62.64,30.78 63.87,31.67 65.09,30.64 66.31,30.68 67.53,30.04 68.75,30.70 69.97,29.45 71.20,30.62 72.42,30.58 73.64,29.66 74.86,29.68 76.08,30.89 77.31,31.28 78.53,31.96 79.75,32.29 80.97,32.06 82.19,33.15 83.41,33.55 84.64,33.21 85.86,33.92 87.08,33.25 88.30,33.07 89.52,33.23 90.74,33.80 91.97,34.04 93.19,33.87 94.41,34.54 95.63,33.20 96.85,33.69 98.08,33.49 99.30,33.66 100.52,32.77 101.74,32.31 102.96,32.47 104.18,31.56 105.41,31.91 106.63,32.76 107.85,32.46 109.07,32.04 110.29,32.98 111.51,33.12 112.74,34.40 113.96,34.33 115.18,35.55 116.40,36.79 117.62,36.76 118.85,34.77 120.07,29.34 121.29,18.26 122.51,14.47 123.73,24.48 124.95,34.01 126.18,39.17 127.40,40.94 128.62,40.18 129.84,37.23 131.06,35.93 132.28,34.35 133.51,33.45 134.73,32.33 135.95,30.98 137.17,31.46 138.39,31.13 139.62,30.81 140.84,30.40 142.06,30.25 143.28,29.62 144.50,29.26 145.72,29.65 146.95,30.25 148.17,30.06 149.39,29.88 150.61,31.48 151.83,31.65 153.05,31.30 154.28,31.47 155.50,31.81 156.72,32.12 157.94,31.87 159.16,32.61 160.38,32.14 161.61,31.93 162.83,32.87 164.05,32.13 165.27,32.33 166.49,31.96 167.72,33.29 168.94,31.63 170.16,31.67 171.38,31.08 172.60,30.77 173.82,31.70 175.05,30.80 176.27,31.55 177.49,30.69 178.71,30.16 179.93,31.55 181.15,31.49 182.38,32.21 183.60,32.30 184.82,32.57 186.04,33.19 187.26,32.44 188.49,33.92 189.71,35.62 190.93,34.79 192.15,32.60 193.37,25.85 194.59,14.85 195.82,14.23 197.04,26.54 198.26,35.85 199.48,38.91 200.70,39.10 201.92,37.96 203.15,36.58 204.37,33.94 205.59,32.22 206.81,31.54 208.03,31.50 209.26,32.17 210.48,31.24 211.70,31.52 212.92,31.31 214.14,30.75 215.36,30.25 216.59,29.68 217.81,29.94 219.03,30.67 220.25,30.18 221.47,30.80 222.69,31.14 223.92,31.93 225.14,32.01 226.36,32.55 227.58,32.23 228.80,32.96 230.03,33.28 231.25,33.45 232.47,33.62 233.69,33.39 234.91,33.43 236.13,33.35 237.36,34.06 238.58,33.38 239.80,33.03 241.02,32.87 242.24,33.19 243.46,34.11 244.69,32.52 245.91,32.27 247.13,33.43 248.35,32.68 249.57,32.55 250.79,31.77 252.02,32.05 253.24,32.75 254.46,33.13 255.68,33.41 256.90,33.79 258.13,32.88 259.35,33.09 260.57,35.24 261.79,35.61 263.01,35.92 264.23,36.44 265.46,32.66 266.68,24.13 267.90,13.09 269.12,17.22 270.34,31.12 271.56,37.84 272.79,39.07 274.01,39.63 275.23,38.16 276.45,35.45 277.67,33.66 278.90,32.17 280.12,32.58 281.34,32.61 282.56,31.09 283.78,31.81 285.00,30.55 286.23,29.71 287.45,30.24 288.67,29.69 289.89,30.33 291.11,30.35 292.33,29.66 293.56,29.38 294.78,29.39 296.00,31.35" fill="none" stroke="#2F855A" stroke-width="2.20" stroke-linecap="round" stroke-linejoin="round"/>
</svg>