<svg xmlns="http://www.w3.org/2000/svg" width="300" height="64" viewBox="0 0 300 64">
<polyline points="4.00,33.05 5.28,33.01 6.55,33.19 7.83,33.14 9.10,32.92 10.38,32.90 11.65,32.88 12.93,32.93 14.20,32.82 15.48,32.78 16.75,32.76 18.03,32.82 19.30,32.73 20.58,32.70 21.85,32.59 23.13,32.50 24.40,32.49 25.68,32.56 26.95,32.56 28.23,32.58 29.50,32.62 30.78,32.59 32.05,32.45 33.33,32.44 34.60,32.36 35.88,32.13 37.15,32.08 38.43,31.87 39.70,31.71 40.98,31.48 42.25,31.12 43.53,30.89 44.80,30.59 46.08,30.36 47.35,30.45 48.63,30.69 49.90,30.74 51.18,31.05 52.45,31.39 53.73,31.68 55.00,32.17 56.28,33.03 57.55,34.54 58.83,35.46 60.10,35.01 61.38,32.38 62.66,23.46 63.93,12.00 65.21,16.03 66.48,29.69 67.76,37.10 69.03,39.33 70.31,39.30 71.58,37.35 72.86,35.11 74.13,33.22 75.41,32.23 76.68,31.80 77.96,31.38 79.23,30.94 80.51,30.65 81.78,30.40 83.06,30.21 84.33,30.01 85.61,29.85 86.88,30.01 88.16,29.97 89.43,30.37 90.71,30.53 91.98,31.05 93.26,31.30 94.53,31.77 95.81,32.21 97.08,32.57 98.36,32.84 99.63,33.12 100.91,33.39 102.18,33.58 103.46,33.62 104.73,33.61 106.01,33.74 107.28,33.92 108.56,33.76 109.83,33.79 111.11,33.75 112.38,33.93 113.66,33.79 114.93,33.94 116.21,33.79 117.48,33.86 118.76,33.86 120.03,33.68 121.31,33.85 122.59,33.72 123.86,33.61 125.14,33.73 126.41,33.71 127.69,33.51 128.96,33.57 130.24,33.44 131.51,33.52 132.79,33.32 134.06,33.20 135.34,32.87 136.61,32.74 137.89,32.22 139.16,32.11 140.44,31.61 141.71,31.50 142.99,31.25 144.26,31.02 145.54,31.21 146.81,31.33 148.09,31.42 149.36,31.75 150.64,32.10 151.91,32.19 153.19,33.02 154.46,34.25 155.74,35.45 157.01,35.44 158.29,33.52 159.56,27.30 160.84,14.85 162.11,12.41 163.39,25.14 164.66,34.98 165.94,38.47 167.21,38.97 168.49,37.54 169.76,35.11 171.04,33.07 172.31,31.86 173.59,31.22 174.86,30.65 176.14,30.33 177.41,30.00 178.69,29.55 179.97,29.14 181.24,29.09 182.52,28.84 183.79,28.86 185.07,28.91 186.34,29.20 187.62,29.28 188.89,29.80 190.17,30.11 191.44,30.56 192.72,31.06 193.99,31.30 195.27,31.74 196.54,32.05 197.82,32.29 199.09,32.46 200.37,32.63 201.64,32.62 202.92,32.75 204.19,32.71 205.47,32.79 206.74,32.83 208.02,33.07 209.29,33.06 210.57,33.15 211.84,33.11 213.12,33.15 214.39,33.15 215.67,33.21 216.94,33.36 218.22,33.36 219.49,33.37 220.77,33.54 222.04,33.57 223.32,33.51 224.59,33.61 225.87,33.48 227.14,33.61 228.42,33.63 229.69,33.57 230.97,33.48 232.24,33.35 233.52,33.09 234.79,32.87 236.07,32.64 237.34,32.28 238.62,32.14 239.90,31.80 241.17,31.71 242.45,31.80 243.72,32.02 245.00,32.24 246.27,32.51 247.55,32.94 248.82,33.18 250.10,33.67 251.37,34.79 252.65,36.22 253.92,36.65 255.20,35.63 256.47,31.27 257.75,20.01 259.02,12.00 260.30,21.53 261.57,33.69 262.85,38.97 264.12,40.40 265.40,39.35 266.67,37.23 267.95,34.87 269.22,33.18 270.50,32.35 271.77,31.97 273.05,31.42 274.32,31.00 275.60,30.57 276.87,30.27 278.15,29.87 279.42,29.78 280.70,29.61 281.97,29.59 283.25,29.55 284.52,29.96 285.80,30.07 287.07,30.52 288.35,30.78 289.62,31.16 290.90,31.46 292.17,31.68 293.45,32.00 294.72,32.26 296.00,32.41" fill="none" stroke="#2F855A" stroke-width="2.20" stroke-linecap="round" stroke-linejoin="round"/>
</svg>