<svg xmlns="http://www.w3.org/2000/svg" width="300" height="64" viewBox="0 0 300 64">
<polyline points="4.00,34.79 5.28,33.98 6.55,33.16 7.83,32.34 9.10,31.52 10.38,30.71 11.65,29.91 12.93,29.12 14.20,28.35 15.48,27.60 16.75,26.87 18.03,26.17 19.30,25.50 20.58,24.85 21.85,24.25 23.13,23.67 24.40,23.13 25.68,22.63 26.95,22.17 28.23,21.74 29.50,21.35 30.78,20.99 32.05,20.68 33.33,20.40 34.60,20.15 35.88,19.93 37.15,19.75 38.43,19.60 39.70,19.47 40.98,19.38 42.25,19.31 43.53,19.26 44.80,19.23 46.08,19.23 47.35,19.24 48.63,19.27 49.90,19.31 51.18,19.37 52.45,19.45 53.73,19.53 55.00,19.63 56.28,19.74 57.55,19.86 58.83,19.99 60.10,20.14 61.38,20.29 62.66,20.46 63.93,20.65 65.21,20.84 66.48,21.06 67.76,21.29 69.03,21.53 70.31,21.80 71.58,22.09 72.86,22.41 74.13,22.75 75.41,23.11 76.68,23.50 77.96,23.93 79.23,24.38 80.51,24.86 81.78,25.38 83.06,25.93 84.33,26.52 85.61,27.14 86.88,27.79 88.16,28.48 89.43,29.20 90.71,29.95 91.98,30.74 93.26,31.55 94.53,32.39 95.81,33.25 97.08,34.13 98.36,35.03 99.63,35.95 100.91,36.88 102.18,37.82 103.46,38.75 104.73,39.69 106.01,40.62 107.28,41.54 108.56,42.44 109.83,43.32 111.11,44.18 112.38,45.00 113.66,45.79 114.93,46.54 116.21,47.24 117.48,47.90 118.76,48.50 120.03,49.04 121.31,49.52 122.59,49.94 123.86,50.29 125.14,50.58 126.41,50.79 127.69,50.93 128.96,51.00 130.24,51.00 131.51,50.92 132.79,50.77 134.06,50.55 135.34,50.26 136.61,49.90 137.89,49.47 139.16,48.99 140.44,48.45 141.71,47.85 142.99,47.20 144.26,46.51 145.54,45.77 146.81,45.00 148.09,44.19 149.36,43.36 150.64,42.51 151.91,41.65 153.19,40.77 154.46,39.89 155.74,39.00 157.01,38.13 158.29,37.26 159.56,36.40 160.84,35.57 162.11,34.75 163.39,33.97 164.66,33.21 165.94,32.48 167.21,31.78 168.49,31.13 169.76,30.50 171.04,29.92 172.31,29.38 173.59,28.87 174.86,28.41 176.14,27.98 177.41,27.60 178.69,27.25 179.97,26.93 181.24,26.66 182.52,26.41 183.79,26.19 185.07,26.00 186.34,25.84 187.62,25.70 188.89,25.58 190.17,25.48 191.44,25.40 192.72,25.33 193.99,25.27 195.27,25.22 196.54,25.18 197.82,25.15 199.09,25.12 200.37,25.09 201.64,25.07 202.92,25.04 204.19,25.02 205.47,25.00 206.74,24.98 208.02,24.96 209.29,24.95 210.57,24.93 211.84,24.92 213.12,24.92 214.39,24.92 215.67,24.94 216.94,24.96 218.22,24.99 219.49,25.04 220.77,25.11 222.04,25.19 223.32,25.30 224.59,25.43 225.87,25.58 227.14,25.76 228.42,25.96 229.69,26.19 230.97,26.46 232.24,26.75 233.52,27.07 234.79,27.43 236.07,27.81 237.34,28.23 238.62,28.67 239.90,29.14 241.17,29.64 242.45,30.17 243.72,30.71 245.00,31.28 246.27,31.87 247.55,32.47 248.82,33.08 250.10,33.70 251.37,34.32 252.65,34.95 253.92,35.57 255.20,36.18 256.47,36.78 257.75,37.36 259.02,37.93 260.30,38.47 261.57,38.98 262.85,39.46 264.12,39.91 265.40,40.32 266.67,40.69 267.95,41.01 269.22,41.29 270.50,41.51 271.77,41.69 273.05,41.82 274.32,41.90 275.60,41.92 276.87,41.89 278.15,41.81 279.42,41.68 280.70,41.49 281.97,41.26 283.25,40.99 284.52,40.67 285.80,40.31 287.07,39.91 288.35,39.48 289.62,39.01 290.90,38.52 292.17,38.01 293.45,37.48 294.72,36.93 296.00,36.37" fill="none" stroke="#2F855A" stroke-width="2.20" stroke-linecap="round" stroke-linejoin="round"/>
</svg>