<svg xmlns="http://www.w3.org/2000/svg" width="300" height="64" viewBox="0 0 300 64">
<polyline points="4.00,32.92 5.22,34.10 6.44,33.14 7.67,33.83 8.89,32.74 10.11,33.94 11.33,32.80 12.55,33.02 13.77,32.76 15.00,32.53 16.22,33.45 17.44,33.27 18.66,32.73 19.88,33.18 21.10,33.07 22.33,32.95 23.55,31.93 24.77,31.65 25.99,31.46 27.21,31.89 28.44,30.72 29.66,31.02 30.88,31.24 32.10,30.92 33.32,31.04 34.54,31.64 35.77,31.26 36.99,31.79 38.21,31.81 39.43,31.69 40.65,32.64 41.87,34.06 43.10,34.78 44.32,35.01 45.54,34.43 46.76,29.55 47.98,20.17 49.21,12.00 50.43,19.98 51.65,31.26 52.87,37.33 54.09,39.09 55.31,39.31 56.54,37.21 57.76,34.48 58.98,33.80 60.20,32.80 61.42,32.34 62.64,31.43 63.87,30.62 65.09,30.65 66.31,30.55 67.53,30.16 68.75,30.38 69.97,29.30 71.20,30.05 72.42,30.29 73.64,30.38 74.86,30.00 76.08,30.97 77.31,30.61 78.53,31.73 79.75,31.99 80.97,32.83 82.19,32.12 83.41,32.56 84.64,33.23 85.86,33.90 87.08,33.58 88.30,33.86 89.52,33.36 90.74,33.30 91.97,33.56 93.19,34.11 94.41,34.35 95.63,33.14 96.85,32.90 98.08,33.68 99.30,32.99 100.52,32.75 101.74,31.88 102.96,32.89 104.18,32.78 105.41,31.79 106.63,32.25 107.85,32.59 109.07,32.44 110.29,32.95 111.51,33.11 112.74,34.03 113.96,34.95 115.18,36.26 116.40,37.01 117.62,36.62 118.85,35.20 120.07,29.52 121.29,17.60 122.51,12.98 123.73,24.00 124.95,35.18 126.18,38.89 127.40,40.07 128.62,39.11 129.84,37.00 131.06,35.91 132.28,33.51 133.51,33.02 134.73,32.42 135.95,31.82 137.17,31.89 138.39,31.36 139.62,30.05 140.84,30.57 142.06,29.59 143.28,29.72 144.50,30.13 145.72,30.16 146.95,29.93 148.17,30.02 149.39,30.75 150.61,31.42 151.83,31.60 153.05,31.05 154.28,31.51 155.50,32.57 156.72,31.87 157.94,32.38 159.16,32.82 160.38,32.21 161.61,33.24 162.83,33.31 164.05,32.99 165.27,32.45 166.49,32.61 167.72,32.57 168.94,31.86 170.16,32.29 171.38,31.52 172.60,32.23 173.82,30.96 175.05,31.52 176.27,30.71 177.49,30.40 178.71,30.67 179.93,30.90 181.15,31.15 182.38,31.17 183.60,31.94 184.82,32.43 186.04,32.45 187.26,33.35 188.49,35.19 189.71,35.66 190.93,35.39 192.15,33.43 193.37,25.42 194.59,13.75 195.82,14.09 197.04,25.99 198.26,34.97 199.48,38.73 200.70,39.73 201.92,38.71 203.15,36.72 204.37,34.52 205.59,32.28 206.81,32.76 208.03,31.24 209.26,31.17 210.48,30.73 211.70,31.29 212.92,30.32 214.14,30.65 215.36,29.90 216.59,29.70 217.81,29.83 219.03,30.21 220.25,29.99 221.47,31.12 222.69,31.57 223.92,31.06 225.14,32.48 226.36,32.41 227.58,32.76 228.80,32.50 230.03,33.41 231.25,33.39 232.47,33.65 233.69,33.82 234.91,33.93 236.13,34.00 237.36,33.86 238.58,34.06 239.80,34.01 241.02,33.26 242.24,33.04 243.46,33.75 244.69,32.61 245.91,33.51 247.13,32.85 248.35,31.91 249.57,32.69 250.79,32.00 252.02,31.63 253.24,32.27 254.46,32.68 255.68,33.48 256.90,33.21 258.13,33.50 259.35,33.56 260.57,35.02 261.79,35.80 263.01,37.00 264.23,35.90 265.46,32.50 266.68,24.18 267.90,12.68 269.12,17.42 270.34,30.26 271.56,36.93 272.79,39.88 274.01,40.04 275.23,38.81 276.45,36.50 277.67,33.88 278.90,33.00 280.12,32.11 281.34,31.59 282.56,31.19 283.78,31.24 285.00,30.17 286.23,30.35 287.45,30.42 288.67,29.34 289.89,29.19 291.11,30.17 292.33,29.29 293.56,29.72 294.78,30.50 296.00,30.41" fill="none" stroke="#2F855A" stroke-width="2.20" stroke-linecap="round" stroke-linejoin="round"/>
</svg>