<svg xmlns="http://www.w3.org/2000/svg" width="300" height="64" viewBox="0 0 300 64">
<polyline points="4.00,35.08 5.28,35.01 6.55,34.14 7.83,34.31 9.10,34.22 10.38,33.40 11.65,32.29 12.93,32.43 14.20,32.49 15.48,33.57 16.75,33.10 18.03,33.77 19.30,34.20 20.58,34.60 21.85,34.70 23.13,33.65 24.40,34.01 25.68,33.90 26.95,32.98 28.23,31.89 29.50,27.90 30.78,22.65 32.05,18.65 33.33,17.43 34.60,19.99 35.88,26.67 37.15,31.42 38.43,35.74 39.70,38.43 40.98,39.42 42.25,37.77 43.53,36.58 44.80,32.86 46.08,31.09 47.35,30.26 48.63,29.83 49.90,28.28 51.18,28.89 52.45,28.60 53.73,29.16 55.00,30.44 56.28,31.33 57.55,31.71 58.83,32.73 60.10,33.88 61.38,34.19 62.66,33.76 63.93,35.66 65.21,36.04 66.48,35.28 67.76,36.20 69.03,35.92 70.31,36.17 71.58,36.48 72.86,35.25 74.13,36.68 75.41,36.14 76.68,36.34 77.96,35.29 79.23,35.67 80.51,35.20 81.78,34.08 83.06,34.36 84.33,33.01 85.61,30.64 86.88,29.10 88.16,24.73 89.43,19.48 90.71,14.94 91.98,14.91 93.26,18.99 94.53,24.53 95.81,30.75 97.08,34.75 98.36,38.03 99.63,37.46 100.91,36.42 102.18,34.97 103.46,33.91 104.73,32.26 106.01,33.23 107.28,32.36 108.56,31.09 109.83,31.70 111.11,32.78 112.38,32.24 113.66,33.31 114.93,33.33 116.21,34.59 117.48,34.95 118.76,34.51 120.03,35.02 121.31,34.40 122.59,33.10 123.86,34.05 125.14,34.43 126.41,34.15 127.69,33.76 128.96,32.50 130.24,33.24 131.51,33.40 132.79,33.84 134.06,32.33 135.34,33.58 136.61,34.24 137.89,34.81 139.16,35.12 140.44,35.17 141.71,34.30 142.99,34.88 144.26,33.70 145.54,30.00 146.81,26.18 148.09,20.21 149.36,18.98 150.64,18.67 151.91,22.06 153.19,28.41 154.46,32.70 155.74,37.31 157.01,39.29 158.29,38.69 159.56,37.89 160.84,35.10 162.11,33.34 163.39,30.41 164.66,29.31 165.94,29.24 167.21,29.87 168.49,29.57 169.76,29.98 171.04,30.61 172.31,31.24 173.59,30.77 174.86,32.85 176.14,33.70 177.41,32.68 178.69,33.92 179.97,33.62 181.24,35.15 182.52,34.58 183.79,35.34 185.07,35.33 186.34,35.59 187.62,36.17 188.89,36.96 190.17,36.71 191.44,35.37 192.72,35.16 193.99,34.89 195.27,35.73 196.54,34.83 197.82,34.22 199.09,34.10 200.37,33.14 201.64,32.51 202.92,30.07 204.19,26.37 205.47,22.34 206.74,16.48 208.02,14.00 209.29,16.87 210.57,19.73 211.84,25.81 213.12,31.87 214.39,36.78 215.67,36.88 216.94,38.38 218.22,35.80 219.49,34.91 220.77,34.64 222.04,33.37 223.32,31.88 224.59,31.80 225.87,31.58 227.14,31.56 228.42,33.32 229.69,34.19 230.97,32.91 232.24,34.96 233.52,33.58 234.79,35.12 236.07,33.81 237.34,33.75 238.62,33.39 239.90,33.78 241.17,32.93 242.45,33.98 243.72,32.91 245.00,33.41 246.27,32.27 247.55,32.47 248.82,33.08 250.10,33.09 251.37,34.20 252.65,34.41 253.92,33.63 255.20,34.13 256.47,33.72 257.75,34.41 259.02,35.23 260.30,34.08 261.57,31.39 262.85,28.36 264.12,24.73 265.40,19.04 266.67,17.39 267.95,20.69 269.22,24.66 270.50,30.75 271.77,34.79 273.05,38.49 274.32,39.38 275.60,38.06 276.87,35.35 278.15,34.85 279.42,32.84 280.70,30.36 281.97,28.87 283.25,29.07 284.52,29.13 285.80,28.57 287.07,29.18 288.35,31.13 289.62,30.31 290.90,32.32 292.17,32.83 293.45,32.49 294.72,33.86 296.00,33.69" fill="none" stroke="#2563EB" stroke-width="2.20" stroke-linecap="round" stroke-linejoin="round"/>
</svg>