<svg xmlns="http://www.w3.org/2000/svg" width="300" height="64" viewBox="0 0 300 64">
<polyline points="4.00,47.30 5.28,46.24 6.55,45.00 7.83,43.54 9.10,41.86 10.38,39.95 11.65,37.83 12.93,35.56 14.20,33.21 15.48,30.90 16.75,28.74 18.03,26.80 19.30,25.14 20.58,23.80 21.85,22.74 23.13,21.94 24.40,21.36 25.68,20.93 26.95,20.62 28.23,20.39 29.50,20.19 30.78,20.00 32.05,19.81 33.33,19.59 34.60,19.36 35.88,19.09 37.15,18.80 38.43,18.50 39.70,18.19 40.98,17.88 42.25,17.59 43.53,17.34 44.80,17.12 46.08,16.97 47.35,16.88 48.63,16.87 49.90,16.94 51.18,17.11 52.45,17.38 53.73,17.75 55.00,18.22 56.28,18.82 57.55,19.54 58.83,20.40 60.10,21.41 61.38,22.61 62.66,24.01 63.93,25.64 65.21,27.49 66.48,29.55 67.76,31.78 69.03,34.10 70.31,36.41 71.58,38.60 72.86,40.58 74.13,42.28 75.41,43.69 76.68,44.80 77.96,45.65 79.23,46.27 80.51,46.74 81.78,47.08 83.06,47.34 84.33,47.56 85.61,47.77 86.88,47.97 88.16,48.20 89.43,48.45 90.71,48.72 91.98,49.01 93.26,49.32 94.53,49.64 95.81,49.95 97.08,50.24 98.36,50.50 99.63,50.71 100.91,50.87 102.18,50.95 103.46,50.97 104.73,50.89 106.01,50.73 107.28,50.46 108.56,50.10 109.83,49.64 111.11,49.06 112.38,48.36 113.66,47.53 114.93,46.55 116.21,45.39 117.48,44.05 118.76,42.48 120.03,40.69 121.31,38.69 122.59,36.50 123.86,34.21 125.14,31.91 126.41,29.70 127.69,27.68 128.96,25.93 130.24,24.47 131.51,23.30 132.79,22.40 134.06,21.73 135.34,21.23 136.61,20.85 137.89,20.56 139.16,20.32 140.44,20.10 141.71,19.88 142.99,19.64 144.26,19.38 145.54,19.10 146.81,18.80 148.09,18.48 149.36,18.16 150.64,17.85 151.91,17.56 153.19,17.30 154.46,17.09 155.74,16.93 157.01,16.84 158.29,16.83 159.56,16.90 160.84,17.07 162.11,17.32 163.39,17.68 164.66,18.13 165.94,18.70 167.21,19.37 168.49,20.18 169.76,21.13 171.04,22.24 172.31,23.53 173.59,25.04 174.86,26.77 176.14,28.71 177.41,30.85 178.69,33.11 179.97,35.40 181.24,37.62 182.52,39.67 183.79,41.48 185.07,42.99 186.34,44.22 187.62,45.17 188.89,45.89 190.17,46.43 191.44,46.84 192.72,47.16 193.99,47.42 195.27,47.66 196.54,47.90 197.82,48.15 199.09,48.42 200.37,48.71 201.64,49.02 202.92,49.34 204.19,49.66 205.47,49.98 206.74,50.27 208.02,50.53 209.29,50.75 210.57,50.90 211.84,50.99 213.12,51.00 214.39,50.93 215.67,50.77 216.94,50.51 218.22,50.17 219.49,49.72 220.77,49.17 222.04,48.51 223.32,47.74 224.59,46.82 225.87,45.75 227.14,44.51 228.42,43.06 229.69,41.39 230.97,39.50 232.24,37.42 233.52,35.20 234.79,32.92 236.07,30.69 237.34,28.61 238.62,26.76 239.90,25.19 241.17,23.91 242.45,22.90 243.72,22.13 245.00,21.55 246.27,21.10 247.55,20.76 248.82,20.47 250.10,20.21 251.37,19.95 252.65,19.69 253.92,19.41 255.20,19.11 256.47,18.79 257.75,18.47 259.02,18.14 260.30,17.82 261.57,17.53 262.85,17.27 264.12,17.05 265.40,16.90 266.67,16.81 267.95,16.80 269.22,16.87 270.50,17.03 271.77,17.28 273.05,17.62 274.32,18.06 275.60,18.59 276.87,19.23 278.15,19.98 279.42,20.87 280.70,21.89 281.97,23.09 283.25,24.48 284.52,26.09 285.80,27.92 287.07,29.95 288.35,32.13 289.62,34.39 290.90,36.62 292.17,38.73 293.45,40.62 294.72,42.25 296.00,43.59" fill="none" stroke="#2F855A" stroke-width="2.20" stroke-linecap="round" stroke-linejoin="round"/>
</svg>