<svg xmlns="http://www.w3.org/2000/svg" width="470" height="272" viewBox="0 0 470 272">

<text x="235.0" y="20" text-anchor="middle" font-family="Arial, Helvetica, sans-serif" font-size="15" font-weight="700" fill="#111827">Deployable watch sensors</text>
<text x="82.0" y="69.0" text-anchor="end" font-family="Arial, Helvetica, sans-serif" font-size="13" font-weight="700" fill="#111827">PPG/BVP</text>
<polyline points="92.00,65.23 92.56,64.76 93.13,64.46 93.69,64.46 94.25,64.52 94.82,64.40 95.38,64.09 95.94,63.85 96.51,63.90 97.07,64.18 97.63,64.43 98.20,64.52 98.76,64.56 99.32,64.71 99.89,65.00 100.45,65.30 101.01,65.58 101.58,65.87 102.14,66.16 102.70,66.30 103.27,66.18 103.83,65.83 104.39,65.36 104.96,64.94 105.52,64.74 106.08,64.78 106.65,64.93 107.21,65.00 107.77,64.99 108.34,64.96 108.90,64.88 109.46,64.79 110.03,64.75 110.59,64.80 111.15,64.91 111.72,65.09 112.28,65.31 112.85,65.47 113.41,65.52 113.97,65.58 114.54,65.78 115.10,66.02 115.66,66.16 116.23,66.20 116.79,66.23 117.35,66.34 117.92,66.48 118.48,66.46 119.04,66.14 119.61,65.56 120.17,65.02 120.73,64.76 121.30,64.78 121.86,64.94 122.42,65.12 122.99,65.25 123.55,65.24 124.11,65.13 124.68,65.01 125.24,64.95 125.80,64.96 126.37,64.99 126.93,64.99 127.49,64.97 128.06,64.96 128.62,65.05 129.18,65.25 129.75,65.45 130.31,65.57 130.87,65.59 131.44,65.62 132.00,65.68 132.56,65.74 133.13,65.70 133.69,65.48 134.25,65.10 134.82,64.70 135.38,64.42 135.94,64.30 136.51,64.32 137.07,64.42 137.63,64.52 138.20,64.55 138.76,64.52 139.32,64.55 139.89,64.62 140.45,64.65 141.01,64.59 141.58,64.50 142.14,64.51 142.70,64.67 143.27,64.97 143.83,65.30 144.39,65.53 144.96,65.65 145.52,65.80 146.08,66.10 146.65,66.45 147.21,66.63 147.77,66.54 148.34,66.39 148.90,66.45 149.46,66.70 150.03,66.86 150.59,66.81 151.15,66.87 151.72,67.57 152.28,69.01 152.85,70.75 153.41,72.17 153.97,72.90 154.54,72.58 155.10,70.54 155.66,66.43 156.23,60.99 156.79,56.02 157.35,53.26 157.92,53.50 158.48,56.35 159.04,60.41 159.61,64.12 160.17,66.67 160.73,68.14 161.30,68.83 161.86,68.82 162.42,68.09 162.99,66.90 163.55,65.82 164.11,65.42 164.68,65.67 165.24,65.69 165.80,64.69 166.37,62.93 166.93,61.33 167.49,60.27 168.06,59.45 168.62,58.90 169.18,59.13 169.75,60.21 170.31,61.52 170.87,62.51 171.44,63.30 172.00,64.17 172.56,65.00 173.13,65.37 173.69,65.22 174.25,65.02 174.82,65.28 175.38,65.88 175.94,66.37 176.51,66.55 177.07,66.39 177.63,66.01 178.20,66.01 178.76,67.17 179.32,69.54 179.89,72.36 180.45,74.91 181.01,76.78 181.58,77.72 182.14,77.63 182.70,76.30 183.27,73.67 183.83,70.53 184.39,68.16 184.96,67.02 185.52,66.75 186.08,67.08 186.65,67.64 187.21,67.72 187.77,66.88 188.34,65.27 188.90,63.35 189.46,61.89 190.03,61.64 190.59,62.08 191.15,61.73 191.72,60.19 192.28,58.29 192.85,56.09 193.41,52.85 193.97,49.33 194.54,47.92 195.10,49.51 195.66,52.42 196.23,55.07 196.79,57.62 197.35,60.34 197.92,62.62 198.48,64.14 199.04,65.41 199.61,66.75 200.17,67.91 200.73,69.21 201.30,71.49 201.86,74.57 202.42,76.88 202.99,77.11 203.55,75.52 204.11,73.39 204.68,71.77 205.24,70.89 205.80,70.47 206.37,70.04 206.93,69.26 207.49,68.14 208.06,67.00 208.62,66.13 209.18,65.55 209.75,65.07 210.31,64.58 210.87,64.18 211.44,63.92 212.00,63.71 212.56,63.48 213.13,63.36 213.69,63.48 214.25,63.77 214.82,63.99 215.38,64.02 215.94,63.84 216.51,63.51 217.07,63.23 217.63,63.20 218.20,63.51 218.76,64.06 219.32,64.61 219.89,65.01 220.45,65.25 221.01,65.50 221.58,65.83 222.14,66.09 222.70,66.05 223.27,65.78 223.83,65.71 224.39,66.03 224.96,66.49 225.52,66.75 226.08,66.90 226.65,67.25 227.21,67.80 227.77,68.18 228.34,68.14 228.90,67.86 229.46,67.41 230.03,65.97 230.59,62.33 231.15,56.54 231.72,51.03 232.28,49.07 232.85,51.70 233.41,56.95 233.97,62.22 234.54,66.49 235.10,69.57 235.66,71.05 236.23,70.92 236.79,70.19 237.35,70.10 237.92,70.91 238.48,71.89 239.04,71.98 239.61,70.77 240.17,69.04 240.73,68.06 241.30,68.21 241.86,68.73 242.42,68.68 242.99,67.88 243.55,66.81 244.11,66.03 244.68,65.74 245.24,65.57 245.80,64.83 246.37,63.22 246.93,61.13 247.49,59.12 248.06,57.51 248.62,56.61 249.18,57.03 249.75,58.98 250.31,61.52 250.87,63.25 251.44,63.89 252.00,64.50 252.56,65.96 253.13,67.91 253.69,69.59 254.25,70.97 254.82,72.43 255.38,73.91 255.94,74.68 256.51,74.05 257.07,72.08 257.63,69.68 258.20,67.91 258.76,67.05 259.32,66.20 259.89,64.30 260.45,61.36 261.01,58.14 261.58,55.07 262.14,52.25 262.70,50.24 263.27,49.69 263.83,50.59 264.39,52.52 264.96,55.09 265.52,57.83 266.08,60.18 266.65,61.97 267.21,63.50 267.77,65.17 268.34,67.45 268.90,71.21 269.46,77.29 270.03,85.22 270.59,92.74 271.15,97.00 271.72,96.39 272.28,91.51 272.85,84.83 273.41,78.49 273.97,72.24 274.54,64.76 275.10,56.89 275.66,52.01 276.23,52.38 276.79,56.57 277.35,60.78 277.92,62.10 278.48,60.35 279.04,57.44 279.61,55.43 280.17,55.12 280.73,55.92 281.30,56.62 281.86,56.37 282.42,55.40 282.99,54.79 283.55,55.16 284.11,55.78 284.68,55.17 285.24,52.83 285.80,50.48 286.37,50.71 286.93,54.06 287.49,58.20 288.06,60.83 288.62,62.15 289.18,63.61 289.75,65.58 290.31,67.13 290.87,67.99 291.44,70.06 292.00,76.55 292.56,88.60 293.13,97.50 293.69,97.50 294.25,97.50 294.82,97.50 295.38,88.38 295.94,72.15 296.51,59.65 297.07,52.35 297.63,50.35 298.20,52.67 298.76,56.69 299.32,59.52 299.89,60.11 300.45,59.22 301.01,57.86 301.58,56.84 302.14,57.13 302.70,59.05 303.27,61.36 303.83,62.48 304.39,62.64 304.96,63.26 305.52,64.37 306.08,64.63 306.65,63.70 307.21,62.86 307.77,62.84 308.34,62.94 308.90,62.52 309.46,62.15 310.03,62.53 310.59,63.39 311.15,63.94 311.72,63.83 312.28,63.39 312.85,63.10 313.41,62.99 313.97,62.56 314.54,61.47 315.10,60.14 315.66,59.37 316.23,59.34 316.79,59.64 317.35,59.92 317.92,60.06 318.48,60.26 319.04,61.14 319.61,63.19 320.17,65.78 320.73,67.78 321.30,69.03 321.86,70.32 322.42,71.89 322.99,73.09 323.55,73.42 324.11,72.98 324.68,72.13 325.24,71.20 325.80,70.69 326.37,71.10 326.93,72.50 327.49,74.45 328.06,76.40 328.62,77.98 329.18,78.78 329.75,78.12 330.31,75.56 330.87,71.37 331.44,66.30 332.00,61.01 332.56,56.06 333.13,52.19 333.69,50.17 334.25,50.47 334.82,52.89 335.38,56.51 335.94,60.20 336.51,63.17 337.07,64.85 337.63,64.80 338.20,63.79 338.76,63.73 339.32,65.18 339.89,66.49 340.45,66.60 341.01,66.50 341.58,66.98 342.14,67.33 342.70,66.89 343.27,65.62 343.83,63.44 344.39,60.61 344.96,58.06 345.52,56.41 346.08,55.68 346.65,56.38 347.21,59.55 347.77,65.13 348.34,71.58 348.90,76.93 349.46,79.74 350.03,79.25 350.59,75.89 351.15,71.18 351.72,66.85 352.28,63.94 352.85,62.61 353.41,62.21 353.97,61.92 354.54,61.57 355.10,61.43 355.66,61.45 356.23,61.51 356.79,61.90 357.35,62.53 357.92,62.57 358.48,61.92 359.04,62.12 359.61,64.70 360.17,69.17 360.73,73.30 361.30,75.48 361.86,75.77 362.42,74.76 362.99,72.44 363.55,68.94 364.11,65.47 364.68,63.25 365.24,61.98 365.80,60.49 366.37,58.83 366.93,58.10 367.49,58.43 368.06,58.56 368.62,57.99 369.18,57.83 369.75,59.03 370.31,60.84 370.87,62.11 371.44,63.01 372.00,64.83 372.56,68.28 373.13,72.12 373.69,73.58 374.25,70.92 374.82,66.03 375.38,63.07 375.94,64.11 376.51,67.33 377.07,70.08 377.63,71.72 378.20,72.83 378.76,73.37 379.32,72.82 379.89,71.12 380.45,68.68 381.01,66.00 381.58,63.83 382.14,62.84 382.70,62.89 383.27,63.13 383.83,63.06 384.39,62.97 384.96,63.31 385.52,63.88 386.08,64.18 386.65,63.96 387.21,63.46 387.77,62.97 388.34,62.58 388.90,62.21 389.46,61.94 390.03,61.92 390.59,62.11 391.15,62.33 391.72,62.55 392.28,62.90 392.85,63.38 393.41,63.84 393.97,64.29 394.54,64.89 395.10,65.57 395.66,65.95 396.23,65.85 396.79,65.74 397.35,66.31 397.92,67.70 398.48,69.43 399.04,70.93 399.61,71.96 400.17,72.54 400.73,72.71 401.30,72.34 401.86,71.27 402.42,69.62 402.99,68.10 403.55,67.47 404.11,67.45 404.68,66.93 405.24,65.55 405.80,64.02 406.37,62.88 406.93,61.69 407.49,59.87 408.06,57.50 408.62,55.24 409.18,54.05 409.75,54.42 410.31,55.77 410.87,57.05 411.44,57.93 412.00,58.84 412.56,60.02 413.13,61.15 413.69,61.83 414.25,62.24 414.82,63.22 415.38,65.64 415.94,69.53 416.51,73.86 417.07,77.15 417.63,78.43 418.20,77.77 418.76,76.04 419.32,74.12 419.89,72.37 420.45,70.74 421.01,69.16 421.58,67.70 422.14,66.54 422.70,65.90 423.27,65.86 423.83,66.21 424.39,66.38 424.96,65.86 425.52,64.52 426.08,62.77 426.65,61.33 427.21,60.70 427.77,60.88 428.34,61.32 428.90,61.43 429.46,61.14 430.03,60.87 430.59,61.06 431.15,61.85 431.72,63.18 432.28,64.66 432.85,65.62 433.41,65.57 433.97,64.83 434.54,64.26 435.10,64.31 435.66,64.73 436.23,65.10 436.79,65.38 437.35,65.71 437.92,66.07 438.48,66.26 439.04,66.22 439.61,66.20 440.17,66.60 440.73,67.54 441.30,68.47 441.86,68.58 442.42,67.72 442.99,66.64 443.55,66.12 444.11,66.10 444.68,66.07 445.24,65.76 445.80,65.21 446.37,64.45 446.93,63.53 447.49,62.85 448.06,62.91 448.62,63.82 449.18,65.20 449.75,66.40 450.31,66.90 450.87,66.62 451.44,65.99 452.00,65.51" fill="none" stroke="#2563EB" stroke-width="2.0" stroke-linecap="round" stroke-linejoin="round"/>
<text x="82.0" y="123.0" text-anchor="end" font-family="Arial, Helvetica, sans-serif" font-size="13" font-weight="700" fill="#111827">ACC x</text>
<polyline points="92.00,123.33 92.56,123.33 93.13,119.00 93.69,119.00 94.25,119.00 94.82,119.00 95.38,119.00 95.94,119.00 96.51,119.00 97.07,119.00 97.63,119.00 98.20,119.00 98.76,119.00 99.32,119.00 99.89,119.00 100.45,119.00 101.01,119.00 101.58,119.00 102.14,119.00 102.70,119.00 103.27,119.00 103.83,119.00 104.39,119.00 104.96,119.00 105.52,119.00 106.08,119.00 106.65,119.00 107.21,119.00 107.77,114.67 108.34,119.00 108.90,119.00 109.46,119.00 110.03,119.00 110.59,119.00 111.15,119.00 111.72,119.00 112.28,119.00 112.85,119.00 113.41,119.00 113.97,119.00 114.54,119.00 115.10,119.00 115.66,119.00 116.23,119.00 116.79,119.00 117.35,119.00 117.92,119.00 118.48,119.00 119.04,119.00 119.61,119.00 120.17,119.00 120.73,119.00 121.30,119.00 121.86,119.00 122.42,119.00 122.99,119.00 123.55,119.00 124.11,119.00 124.68,119.00 125.24,119.00 125.80,119.00 126.37,119.00 126.93,119.00 127.49,119.00 128.06,119.00 128.62,119.00 129.18,119.00 129.75,119.00 130.31,119.00 130.87,114.67 131.44,119.00 132.00,119.00 132.56,119.00 133.13,119.00 133.69,119.00 134.25,119.00 134.82,119.00 135.38,119.00 135.94,119.00 136.51,119.00 137.07,119.00 137.63,119.00 138.20,119.00 138.76,114.67 139.32,114.67 139.89,119.00 140.45,119.00 141.01,119.00 141.58,119.00 142.14,119.00 142.70,119.00 143.27,119.00 143.83,119.00 144.39,119.00 144.96,119.00 145.52,119.00 146.08,119.00 146.65,119.00 147.21,119.00 147.77,119.00 148.34,119.00 148.90,119.00 149.46,119.00 150.03,119.00 150.59,119.00 151.15,119.00 151.72,119.00 152.28,119.00 152.85,119.00 153.41,119.00 153.97,119.00 154.54,119.00 155.10,119.00 155.66,119.00 156.23,123.33 156.79,119.00 157.35,119.00 157.92,119.00 158.48,119.00 159.04,114.67 159.61,119.00 160.17,119.00 160.73,119.00 161.30,114.67 161.86,119.00 162.42,119.00 162.99,119.00 163.55,119.00 164.11,119.00 164.68,119.00 165.24,114.67 165.80,119.00 166.37,119.00 166.93,114.67 167.49,114.67 168.06,123.33 168.62,114.67 169.18,119.00 169.75,119.00 170.31,119.00 170.87,114.67 171.44,119.00 172.00,114.67 172.56,119.00 173.13,119.00 173.69,114.67 174.25,119.00 174.82,119.00 175.38,114.67 175.94,119.00 176.51,119.00 177.07,119.00 177.63,119.00 178.20,119.00 178.76,119.00 179.32,119.00 179.89,119.00 180.45,119.00 181.01,119.00 181.58,119.00 182.14,114.67 182.70,119.00 183.27,119.00 183.83,119.00 184.39,119.00 184.96,119.00 185.52,119.00 186.08,114.67 186.65,119.00 187.21,119.00 187.77,119.00 188.34,119.00 188.90,114.67 189.46,119.00 190.03,119.00 190.59,119.00 191.15,119.00 191.72,119.00 192.28,119.00 192.85,119.00 193.41,119.00 193.97,119.00 194.54,119.00 195.10,119.00 195.66,119.00 196.23,119.00 196.79,119.00 197.35,119.00 197.92,119.00 198.48,119.00 199.04,119.00 199.61,119.00 200.17,119.00 200.73,119.00 201.30,119.00 201.86,119.00 202.42,119.00 202.99,119.00 203.55,119.00 204.11,119.00 204.68,114.67 205.24,119.00 205.80,119.00 206.37,119.00 206.93,119.00 207.49,119.00 208.06,114.67 208.62,119.00 209.18,114.67 209.75,119.00 210.31,119.00 210.87,114.67 211.44,123.33 212.00,119.00 212.56,119.00 213.13,119.00 213.69,119.00 214.25,119.00 214.82,114.67 215.38,119.00 215.94,119.00 216.51,114.67 217.07,114.67 217.63,123.33 218.20,114.67 218.76,114.67 219.32,119.00 219.89,110.33 220.45,114.67 221.01,119.00 221.58,119.00 222.14,119.00 222.70,123.33 223.27,119.00 223.83,114.67 224.39,119.00 224.96,114.67 225.52,119.00 226.08,119.00 226.65,119.00 227.21,114.67 227.77,119.00 228.34,119.00 228.90,114.67 229.46,114.67 230.03,119.00 230.59,123.33 231.15,123.33 231.72,119.00 232.28,119.00 232.85,119.00 233.41,119.00 233.97,119.00 234.54,114.67 235.10,119.00 235.66,114.67 236.23,114.67 236.79,119.00 237.35,119.00 237.92,114.67 238.48,119.00 239.04,119.00 239.61,114.67 240.17,114.67 240.73,119.00 241.30,119.00 241.86,114.67 242.42,119.00 242.99,119.00 243.55,114.67 244.11,114.67 244.68,119.00 245.24,114.67 245.80,119.00 246.37,119.00 246.93,119.00 247.49,119.00 248.06,119.00 248.62,119.00 249.18,119.00 249.75,119.00 250.31,119.00 250.87,119.00 251.44,114.67 252.00,114.67 252.56,119.00 253.13,110.33 253.69,119.00 254.25,119.00 254.82,119.00 255.38,119.00 255.94,119.00 256.51,119.00 257.07,119.00 257.63,119.00 258.20,119.00 258.76,119.00 259.32,114.67 259.89,119.00 260.45,123.33 261.01,114.67 261.58,110.33 262.14,114.67 262.70,114.67 263.27,114.67 263.83,114.67 264.39,119.00 264.96,114.67 265.52,114.67 266.08,119.00 266.65,119.00 267.21,114.67 267.77,114.67 268.34,114.67 268.90,119.00 269.46,119.00 270.03,119.00 270.59,119.00 271.15,119.00 271.72,114.67 272.28,119.00 272.85,123.33 273.41,110.33 273.97,114.67 274.54,123.33 275.10,114.67 275.66,119.00 276.23,114.67 276.79,119.00 277.35,119.00 277.92,119.00 278.48,114.67 279.04,114.67 279.61,123.33 280.17,114.67 280.73,119.00 281.30,114.67 281.86,119.00 282.42,114.67 282.99,119.00 283.55,119.00 284.11,119.00 284.68,119.00 285.24,114.67 285.80,119.00 286.37,119.00 286.93,114.67 287.49,123.33 288.06,119.00 288.62,119.00 289.18,119.00 289.75,119.00 290.31,119.00 290.87,119.00 291.44,119.00 292.00,119.00 292.56,114.67 293.13,119.00 293.69,119.00 294.25,119.00 294.82,114.67 295.38,119.00 295.94,119.00 296.51,119.00 297.07,114.67 297.63,119.00 298.20,119.00 298.76,114.67 299.32,119.00 299.89,119.00 300.45,119.00 301.01,119.00 301.58,119.00 302.14,119.00 302.70,119.00 303.27,114.67 303.83,119.00 304.39,119.00 304.96,119.00 305.52,119.00 306.08,119.00 306.65,114.67 307.21,119.00 307.77,119.00 308.34,119.00 308.90,119.00 309.46,119.00 310.03,114.67 310.59,119.00 311.15,114.67 311.72,114.67 312.28,114.67 312.85,119.00 313.41,114.67 313.97,114.67 314.54,119.00 315.10,119.00 315.66,114.67 316.23,114.67 316.79,123.33 317.35,119.00 317.92,114.67 318.48,119.00 319.04,119.00 319.61,114.67 320.17,119.00 320.73,119.00 321.30,110.33 321.86,114.67 322.42,123.33 322.99,114.67 323.55,114.67 324.11,119.00 324.68,119.00 325.24,114.67 325.80,114.67 326.37,119.00 326.93,119.00 327.49,114.67 328.06,114.67 328.62,114.67 329.18,114.67 329.75,119.00 330.31,114.67 330.87,114.67 331.44,114.67 332.00,110.33 332.56,119.00 333.13,114.67 333.69,114.67 334.25,119.00 334.82,127.67 335.38,119.00 335.94,119.00 336.51,123.33 337.07,119.00 337.63,114.67 338.20,119.00 338.76,119.00 339.32,114.67 339.89,119.00 340.45,119.00 341.01,119.00 341.58,119.00 342.14,114.67 342.70,119.00 343.27,123.33 343.83,119.00 344.39,119.00 344.96,119.00 345.52,119.00 346.08,114.67 346.65,114.67 347.21,123.33 347.77,119.00 348.34,110.33 348.90,114.67 349.46,119.00 350.03,114.67 350.59,119.00 351.15,114.67 351.72,119.00 352.28,123.33 352.85,114.67 353.41,119.00 353.97,119.00 354.54,110.33 355.10,123.33 355.66,123.33 356.23,123.33 356.79,119.00 357.35,119.00 357.92,119.00 358.48,119.00 359.04,114.67 359.61,110.33 360.17,114.67 360.73,110.33 361.30,110.33 361.86,110.33 362.42,110.33 362.99,110.33 363.55,110.33 364.11,110.33 364.68,114.67 365.24,114.67 365.80,119.00 366.37,123.33 366.93,123.33 367.49,123.33 368.06,119.00 368.62,119.00 369.18,119.00 369.75,119.00 370.31,119.00 370.87,119.00 371.44,114.67 372.00,114.67 372.56,114.67 373.13,110.33 373.69,110.33 374.25,114.67 374.82,114.67 375.38,114.67 375.94,114.67 376.51,119.00 377.07,123.33 377.63,127.67 378.20,127.67 378.76,123.33 379.32,119.00 379.89,110.33 380.45,110.33 381.01,114.67 381.58,119.00 382.14,110.33 382.70,110.33 383.27,110.33 383.83,106.00 384.39,106.00 384.96,101.67 385.52,106.00 386.08,106.00 386.65,114.67 387.21,110.33 387.77,110.33 388.34,110.33 388.90,119.00 389.46,114.67 390.03,114.67 390.59,106.00 391.15,101.67 391.72,101.67 392.28,123.33 392.85,123.33 393.41,123.33 393.97,123.33 394.54,119.00 395.10,114.67 395.66,110.33 396.23,114.67 396.79,119.00 397.35,119.00 397.92,123.33 398.48,119.00 399.04,119.00 399.61,114.67 400.17,114.67 400.73,110.33 401.30,106.00 401.86,101.67 402.42,97.33 402.99,97.33 403.55,97.33 404.11,106.00 404.68,106.00 405.24,114.67 405.80,110.33 406.37,114.67 406.93,123.33 407.49,127.67 408.06,132.00 408.62,132.00 409.18,127.67 409.75,123.33 410.31,123.33 410.87,123.33 411.44,127.67 412.00,132.00 412.56,127.67 413.13,123.33 413.69,119.00 414.25,123.33 414.82,119.00 415.38,119.00 415.94,119.00 416.51,114.67 417.07,110.33 417.63,101.67 418.20,97.33 418.76,97.33 419.32,93.00 419.89,97.33 420.45,114.67 421.01,123.33 421.58,114.67 422.14,106.00 422.70,101.67 423.27,101.67 423.83,106.00 424.39,110.33 424.96,127.67 425.52,136.33 426.08,136.33 426.65,127.67 427.21,123.33 427.77,119.00 428.34,123.33 428.90,132.00 429.46,132.00 430.03,132.00 430.59,127.67 431.15,123.33 431.72,123.33 432.28,123.33 432.85,119.00 433.41,114.67 433.97,114.67 434.54,110.33 435.10,110.33 435.66,110.33 436.23,110.33 436.79,110.33 437.35,110.33 437.92,110.33 438.48,110.33 439.04,119.00 439.61,119.00 440.17,119.00 440.73,114.67 441.30,119.00 441.86,127.67 442.42,132.00 442.99,132.00 443.55,132.00 444.11,132.00 444.68,136.33 445.24,136.33 445.80,132.00 446.37,119.00 446.93,110.33 447.49,110.33 448.06,114.67 448.62,119.00 449.18,114.67 449.75,114.67 450.31,106.00 450.87,110.33 451.44,119.00 452.00,123.33" fill="none" stroke="#111827" stroke-width="2.0" stroke-linecap="round" stroke-linejoin="round"/>
<text x="82.0" y="177.0" text-anchor="end" font-family="Arial, Helvetica, sans-serif" font-size="13" font-weight="700" fill="#111827">ACC y</text>
<polyline points="92.00,173.00 92.56,173.00 93.13,173.00 93.69,173.00 94.25,173.00 94.82,173.00 95.38,173.00 95.94,173.00 96.51,166.50 97.07,173.00 97.63,173.00 98.20,166.50 98.76,173.00 99.32,166.50 99.89,173.00 100.45,173.00 101.01,173.00 101.58,173.00 102.14,173.00 102.70,173.00 103.27,173.00 103.83,173.00 104.39,173.00 104.96,173.00 105.52,173.00 106.08,173.00 106.65,173.00 107.21,173.00 107.77,173.00 108.34,173.00 108.90,173.00 109.46,173.00 110.03,173.00 110.59,173.00 111.15,173.00 111.72,173.00 112.28,173.00 112.85,173.00 113.41,173.00 113.97,173.00 114.54,166.50 115.10,173.00 115.66,173.00 116.23,173.00 116.79,173.00 117.35,173.00 117.92,173.00 118.48,166.50 119.04,173.00 119.61,173.00 120.17,173.00 120.73,173.00 121.30,173.00 121.86,173.00 122.42,166.50 122.99,173.00 123.55,173.00 124.11,173.00 124.68,173.00 125.24,173.00 125.80,173.00 126.37,173.00 126.93,173.00 127.49,166.50 128.06,166.50 128.62,173.00 129.18,173.00 129.75,173.00 130.31,173.00 130.87,173.00 131.44,173.00 132.00,173.00 132.56,173.00 133.13,173.00 133.69,173.00 134.25,173.00 134.82,166.50 135.38,173.00 135.94,173.00 136.51,173.00 137.07,173.00 137.63,173.00 138.20,173.00 138.76,173.00 139.32,173.00 139.89,173.00 140.45,173.00 141.01,173.00 141.58,173.00 142.14,173.00 142.70,173.00 143.27,166.50 143.83,173.00 144.39,173.00 144.96,173.00 145.52,173.00 146.08,166.50 146.65,173.00 147.21,173.00 147.77,173.00 148.34,173.00 148.90,173.00 149.46,173.00 150.03,173.00 150.59,173.00 151.15,166.50 151.72,173.00 152.28,173.00 152.85,166.50 153.41,173.00 153.97,173.00 154.54,173.00 155.10,173.00 155.66,173.00 156.23,173.00 156.79,173.00 157.35,173.00 157.92,173.00 158.48,173.00 159.04,173.00 159.61,173.00 160.17,173.00 160.73,173.00 161.30,173.00 161.86,173.00 162.42,173.00 162.99,166.50 163.55,173.00 164.11,173.00 164.68,173.00 165.24,173.00 165.80,173.00 166.37,173.00 166.93,173.00 167.49,173.00 168.06,173.00 168.62,173.00 169.18,173.00 169.75,173.00 170.31,173.00 170.87,173.00 171.44,173.00 172.00,173.00 172.56,173.00 173.13,173.00 173.69,173.00 174.25,173.00 174.82,173.00 175.38,173.00 175.94,173.00 176.51,173.00 177.07,173.00 177.63,173.00 178.20,173.00 178.76,173.00 179.32,166.50 179.89,173.00 180.45,173.00 181.01,173.00 181.58,173.00 182.14,173.00 182.70,166.50 183.27,173.00 183.83,173.00 184.39,173.00 184.96,173.00 185.52,173.00 186.08,173.00 186.65,166.50 187.21,166.50 187.77,173.00 188.34,173.00 188.90,173.00 189.46,173.00 190.03,173.00 190.59,173.00 191.15,166.50 191.72,166.50 192.28,166.50 192.85,173.00 193.41,173.00 193.97,173.00 194.54,173.00 195.10,173.00 195.66,173.00 196.23,173.00 196.79,173.00 197.35,173.00 197.92,173.00 198.48,166.50 199.04,173.00 199.61,173.00 200.17,173.00 200.73,173.00 201.30,166.50 201.86,173.00 202.42,173.00 202.99,173.00 203.55,173.00 204.11,173.00 204.68,166.50 205.24,166.50 205.80,173.00 206.37,173.00 206.93,173.00 207.49,173.00 208.06,173.00 208.62,173.00 209.18,173.00 209.75,173.00 210.31,173.00 210.87,173.00 211.44,173.00 212.00,173.00 212.56,173.00 213.13,173.00 213.69,173.00 214.25,173.00 214.82,173.00 215.38,173.00 215.94,166.50 216.51,173.00 217.07,173.00 217.63,166.50 218.20,173.00 218.76,173.00 219.32,173.00 219.89,179.50 220.45,179.50 221.01,173.00 221.58,166.50 222.14,166.50 222.70,173.00 223.27,173.00 223.83,173.00 224.39,173.00 224.96,173.00 225.52,179.50 226.08,173.00 226.65,166.50 227.21,173.00 227.77,173.00 228.34,173.00 228.90,179.50 229.46,173.00 230.03,173.00 230.59,173.00 231.15,173.00 231.72,173.00 232.28,173.00 232.85,173.00 233.41,173.00 233.97,173.00 234.54,173.00 235.10,173.00 235.66,173.00 236.23,173.00 236.79,173.00 237.35,173.00 237.92,173.00 238.48,166.50 239.04,166.50 239.61,173.00 240.17,173.00 240.73,173.00 241.30,173.00 241.86,173.00 242.42,173.00 242.99,173.00 243.55,173.00 244.11,173.00 244.68,173.00 245.24,166.50 245.80,166.50 246.37,173.00 246.93,173.00 247.49,179.50 248.06,173.00 248.62,173.00 249.18,173.00 249.75,173.00 250.31,166.50 250.87,166.50 251.44,166.50 252.00,173.00 252.56,173.00 253.13,173.00 253.69,166.50 254.25,166.50 254.82,166.50 255.38,173.00 255.94,173.00 256.51,173.00 257.07,179.50 257.63,179.50 258.20,173.00 258.76,173.00 259.32,173.00 259.89,173.00 260.45,173.00 261.01,173.00 261.58,166.50 262.14,166.50 262.70,173.00 263.27,166.50 263.83,166.50 264.39,173.00 264.96,166.50 265.52,166.50 266.08,173.00 266.65,166.50 267.21,173.00 267.77,173.00 268.34,173.00 268.90,173.00 269.46,173.00 270.03,173.00 270.59,173.00 271.15,173.00 271.72,179.50 272.28,173.00 272.85,173.00 273.41,173.00 273.97,166.50 274.54,173.00 275.10,173.00 275.66,173.00 276.23,173.00 276.79,173.00 277.35,173.00 277.92,173.00 278.48,166.50 279.04,173.00 279.61,166.50 280.17,173.00 280.73,173.00 281.30,166.50 281.86,166.50 282.42,173.00 282.99,173.00 283.55,173.00 284.11,173.00 284.68,173.00 285.24,173.00 285.80,173.00 286.37,173.00 286.93,173.00 287.49,173.00 288.06,173.00 288.62,173.00 289.18,173.00 289.75,173.00 290.31,173.00 290.87,173.00 291.44,173.00 292.00,173.00 292.56,173.00 293.13,173.00 293.69,173.00 294.25,173.00 294.82,173.00 295.38,166.50 295.94,173.00 296.51,173.00 297.07,173.00 297.63,173.00 298.20,173.00 298.76,173.00 299.32,173.00 299.89,173.00 300.45,173.00 301.01,173.00 301.58,173.00 302.14,173.00 302.70,166.50 303.27,173.00 303.83,173.00 304.39,173.00 304.96,173.00 305.52,173.00 306.08,166.50 306.65,173.00 307.21,173.00 307.77,173.00 308.34,173.00 308.90,173.00 309.46,173.00 310.03,166.50 310.59,166.50 311.15,173.00 311.72,173.00 312.28,173.00 312.85,173.00 313.41,173.00 313.97,173.00 314.54,166.50 315.10,173.00 315.66,173.00 316.23,173.00 316.79,173.00 317.35,173.00 317.92,166.50 318.48,173.00 319.04,173.00 319.61,173.00 320.17,166.50 320.73,173.00 321.30,173.00 321.86,166.50 322.42,173.00 322.99,179.50 323.55,173.00 324.11,166.50 324.68,173.00 325.24,166.50 325.80,166.50 326.37,173.00 326.93,173.00 327.49,173.00 328.06,173.00 328.62,166.50 329.18,166.50 329.75,173.00 330.31,173.00 330.87,173.00 331.44,179.50 332.00,179.50 332.56,173.00 333.13,173.00 333.69,173.00 334.25,173.00 334.82,173.00 335.38,173.00 335.94,173.00 336.51,166.50 337.07,173.00 337.63,173.00 338.20,166.50 338.76,173.00 339.32,173.00 339.89,173.00 340.45,166.50 341.01,166.50 341.58,173.00 342.14,173.00 342.70,173.00 343.27,173.00 343.83,173.00 344.39,173.00 344.96,173.00 345.52,173.00 346.08,166.50 346.65,166.50 347.21,173.00 347.77,173.00 348.34,166.50 348.90,173.00 349.46,173.00 350.03,179.50 350.59,166.50 351.15,166.50 351.72,166.50 352.28,166.50 352.85,166.50 353.41,173.00 353.97,173.00 354.54,179.50 355.10,179.50 355.66,173.00 356.23,166.50 356.79,166.50 357.35,166.50 357.92,160.00 358.48,173.00 359.04,173.00 359.61,166.50 360.17,166.50 360.73,166.50 361.30,166.50 361.86,166.50 362.42,166.50 362.99,179.50 363.55,173.00 364.11,179.50 364.68,179.50 365.24,173.00 365.80,173.00 366.37,173.00 366.93,179.50 367.49,179.50 368.06,179.50 368.62,179.50 369.18,173.00 369.75,166.50 370.31,166.50 370.87,160.00 371.44,153.50 372.00,160.00 372.56,153.50 373.13,166.50 373.69,179.50 374.25,186.00 374.82,186.00 375.38,186.00 375.94,186.00 376.51,173.00 377.07,160.00 377.63,160.00 378.20,153.50 378.76,160.00 379.32,166.50 379.89,179.50 380.45,186.00 381.01,179.50 381.58,173.00 382.14,173.00 382.70,166.50 383.27,166.50 383.83,166.50 384.39,166.50 384.96,173.00 385.52,173.00 386.08,179.50 386.65,173.00 387.21,179.50 387.77,186.00 388.34,186.00 388.90,179.50 389.46,179.50 390.03,179.50 390.59,173.00 391.15,160.00 391.72,153.50 392.28,153.50 392.85,147.00 393.41,147.00 393.97,153.50 394.54,153.50 395.10,166.50 395.66,166.50 396.23,179.50 396.79,186.00 397.35,179.50 397.92,179.50 398.48,179.50 399.04,179.50 399.61,173.00 400.17,166.50 400.73,166.50 401.30,166.50 401.86,173.00 402.42,173.00 402.99,166.50 403.55,179.50 404.11,186.00 404.68,186.00 405.24,186.00 405.80,186.00 406.37,192.50 406.93,192.50 407.49,192.50 408.06,186.00 408.62,186.00 409.18,179.50 409.75,166.50 410.31,166.50 410.87,160.00 411.44,160.00 412.00,173.00 412.56,173.00 413.13,173.00 413.69,166.50 414.25,166.50 414.82,173.00 415.38,173.00 415.94,173.00 416.51,179.50 417.07,192.50 417.63,199.00 418.20,186.00 418.76,166.50 419.32,153.50 419.89,153.50 420.45,153.50 421.01,160.00 421.58,166.50 422.14,173.00 422.70,179.50 423.27,179.50 423.83,192.50 424.39,199.00 424.96,199.00 425.52,199.00 426.08,192.50 426.65,173.00 427.21,160.00 427.77,147.00 428.34,147.00 428.90,153.50 429.46,153.50 430.03,160.00 430.59,166.50 431.15,173.00 431.72,179.50 432.28,179.50 432.85,173.00 433.41,173.00 433.97,173.00 434.54,173.00 435.10,173.00 435.66,173.00 436.23,173.00 436.79,173.00 437.35,173.00 437.92,166.50 438.48,173.00 439.04,166.50 439.61,166.50 440.17,179.50 440.73,173.00 441.30,173.00 441.86,173.00 442.42,173.00 442.99,173.00 443.55,173.00 444.11,179.50 444.68,186.00 445.24,179.50 445.80,179.50 446.37,173.00 446.93,166.50 447.49,160.00 448.06,160.00 448.62,166.50 449.18,173.00 449.75,173.00 450.31,186.00 450.87,186.00 451.44,186.00 452.00,186.00" fill="none" stroke="#F97316" stroke-width="2.0" stroke-linecap="round" stroke-linejoin="round"/>
<text x="82.0" y="231.0" text-anchor="end" font-family="Arial, Helvetica, sans-serif" font-size="13" font-weight="700" fill="#111827">ACC z</text>
<polyline points="92.00,231.33 92.56,231.33 93.13,231.33 93.69,227.00 94.25,231.33 94.82,231.33 95.38,231.33 95.94,227.00 96.51,231.33 97.07,227.00 97.63,231.33 98.20,231.33 98.76,227.00 99.32,227.00 99.89,227.00 100.45,227.00 101.01,227.00 101.58,227.00 102.14,227.00 102.70,227.00 103.27,227.00 103.83,231.33 104.39,231.33 104.96,231.33 105.52,231.33 106.08,231.33 106.65,227.00 107.21,227.00 107.77,227.00 108.34,227.00 108.90,227.00 109.46,231.33 110.03,227.00 110.59,231.33 111.15,227.00 111.72,227.00 112.28,227.00 112.85,231.33 113.41,227.00 113.97,227.00 114.54,231.33 115.10,231.33 115.66,231.33 116.23,231.33 116.79,227.00 117.35,227.00 117.92,227.00 118.48,227.00 119.04,227.00 119.61,227.00 120.17,231.33 120.73,227.00 121.30,231.33 121.86,227.00 122.42,231.33 122.99,231.33 123.55,231.33 124.11,231.33 124.68,227.00 125.24,227.00 125.80,231.33 126.37,231.33 126.93,227.00 127.49,227.00 128.06,227.00 128.62,227.00 129.18,227.00 129.75,227.00 130.31,227.00 130.87,227.00 131.44,227.00 132.00,227.00 132.56,231.33 133.13,227.00 133.69,227.00 134.25,227.00 134.82,227.00 135.38,231.33 135.94,231.33 136.51,231.33 137.07,231.33 137.63,231.33 138.20,231.33 138.76,227.00 139.32,227.00 139.89,227.00 140.45,227.00 141.01,227.00 141.58,231.33 142.14,227.00 142.70,227.00 143.27,227.00 143.83,227.00 144.39,231.33 144.96,227.00 145.52,227.00 146.08,227.00 146.65,227.00 147.21,227.00 147.77,231.33 148.34,231.33 148.90,227.00 149.46,227.00 150.03,227.00 150.59,227.00 151.15,227.00 151.72,227.00 152.28,227.00 152.85,231.33 153.41,231.33 153.97,227.00 154.54,231.33 155.10,227.00 155.66,227.00 156.23,231.33 156.79,231.33 157.35,227.00 157.92,231.33 158.48,231.33 159.04,227.00 159.61,227.00 160.17,227.00 160.73,227.00 161.30,227.00 161.86,231.33 162.42,231.33 162.99,227.00 163.55,231.33 164.11,231.33 164.68,227.00 165.24,227.00 165.80,231.33 166.37,227.00 166.93,227.00 167.49,231.33 168.06,231.33 168.62,227.00 169.18,227.00 169.75,231.33 170.31,231.33 170.87,231.33 171.44,231.33 172.00,231.33 172.56,231.33 173.13,231.33 173.69,231.33 174.25,231.33 174.82,231.33 175.38,231.33 175.94,231.33 176.51,231.33 177.07,227.00 177.63,227.00 178.20,231.33 178.76,231.33 179.32,227.00 179.89,227.00 180.45,227.00 181.01,227.00 181.58,227.00 182.14,227.00 182.70,231.33 183.27,231.33 183.83,231.33 184.39,231.33 184.96,227.00 185.52,227.00 186.08,227.00 186.65,227.00 187.21,227.00 187.77,227.00 188.34,231.33 188.90,231.33 189.46,227.00 190.03,227.00 190.59,227.00 191.15,227.00 191.72,227.00 192.28,227.00 192.85,231.33 193.41,231.33 193.97,231.33 194.54,231.33 195.10,227.00 195.66,227.00 196.23,227.00 196.79,227.00 197.35,227.00 197.92,227.00 198.48,227.00 199.04,227.00 199.61,231.33 200.17,227.00 200.73,227.00 201.30,231.33 201.86,231.33 202.42,231.33 202.99,227.00 203.55,231.33 204.11,227.00 204.68,227.00 205.24,227.00 205.80,227.00 206.37,227.00 206.93,227.00 207.49,227.00 208.06,227.00 208.62,227.00 209.18,227.00 209.75,227.00 210.31,231.33 210.87,231.33 211.44,231.33 212.00,227.00 212.56,227.00 213.13,227.00 213.69,227.00 214.25,227.00 214.82,227.00 215.38,227.00 215.94,231.33 216.51,227.00 217.07,227.00 217.63,235.67 218.20,231.33 218.76,231.33 219.32,227.00 219.89,227.00 220.45,227.00 221.01,227.00 221.58,227.00 222.14,227.00 222.70,235.67 223.27,235.67 223.83,227.00 224.39,227.00 224.96,227.00 225.52,227.00 226.08,227.00 226.65,227.00 227.21,227.00 227.77,231.33 228.34,231.33 228.90,231.33 229.46,231.33 230.03,231.33 230.59,231.33 231.15,231.33 231.72,227.00 232.28,231.33 232.85,231.33 233.41,231.33 233.97,231.33 234.54,227.00 235.10,227.00 235.66,231.33 236.23,227.00 236.79,231.33 237.35,231.33 237.92,227.00 238.48,231.33 239.04,231.33 239.61,227.00 240.17,227.00 240.73,231.33 241.30,231.33 241.86,227.00 242.42,227.00 242.99,227.00 243.55,227.00 244.11,231.33 244.68,231.33 245.24,235.67 245.80,235.67 246.37,231.33 246.93,231.33 247.49,227.00 248.06,227.00 248.62,227.00 249.18,227.00 249.75,227.00 250.31,231.33 250.87,231.33 251.44,231.33 252.00,231.33 252.56,231.33 253.13,227.00 253.69,227.00 254.25,227.00 254.82,235.67 255.38,235.67 255.94,231.33 256.51,231.33 257.07,231.33 257.63,227.00 258.20,231.33 258.76,227.00 259.32,227.00 259.89,231.33 260.45,231.33 261.01,231.33 261.58,231.33 262.14,231.33 262.70,227.00 263.27,227.00 263.83,227.00 264.39,227.00 264.96,227.00 265.52,227.00 266.08,231.33 266.65,231.33 267.21,227.00 267.77,227.00 268.34,231.33 268.90,235.67 269.46,235.67 270.03,235.67 270.59,231.33 271.15,231.33 271.72,227.00 272.28,227.00 272.85,227.00 273.41,227.00 273.97,231.33 274.54,231.33 275.10,231.33 275.66,231.33 276.23,231.33 276.79,227.00 277.35,227.00 277.92,227.00 278.48,231.33 279.04,231.33 279.61,231.33 280.17,231.33 280.73,227.00 281.30,227.00 281.86,227.00 282.42,227.00 282.99,227.00 283.55,227.00 284.11,231.33 284.68,227.00 285.24,231.33 285.80,231.33 286.37,227.00 286.93,227.00 287.49,231.33 288.06,227.00 288.62,231.33 289.18,227.00 289.75,231.33 290.31,227.00 290.87,231.33 291.44,227.00 292.00,227.00 292.56,227.00 293.13,231.33 293.69,231.33 294.25,231.33 294.82,227.00 295.38,231.33 295.94,231.33 296.51,231.33 297.07,231.33 297.63,231.33 298.20,231.33 298.76,227.00 299.32,227.00 299.89,231.33 300.45,231.33 301.01,227.00 301.58,231.33 302.14,231.33 302.70,231.33 303.27,231.33 303.83,231.33 304.39,231.33 304.96,231.33 305.52,231.33 306.08,227.00 306.65,227.00 307.21,227.00 307.77,227.00 308.34,227.00 308.90,227.00 309.46,227.00 310.03,227.00 310.59,227.00 311.15,227.00 311.72,231.33 312.28,227.00 312.85,231.33 313.41,231.33 313.97,227.00 314.54,227.00 315.10,231.33 315.66,227.00 316.23,227.00 316.79,231.33 317.35,227.00 317.92,235.67 318.48,227.00 319.04,227.00 319.61,227.00 320.17,231.33 320.73,231.33 321.30,227.00 321.86,231.33 322.42,235.67 322.99,227.00 323.55,222.67 324.11,231.33 324.68,235.67 325.24,235.67 325.80,231.33 326.37,231.33 326.93,231.33 327.49,227.00 328.06,227.00 328.62,222.67 329.18,227.00 329.75,231.33 330.31,227.00 330.87,227.00 331.44,227.00 332.00,227.00 332.56,227.00 333.13,222.67 333.69,222.67 334.25,231.33 334.82,231.33 335.38,227.00 335.94,231.33 336.51,235.67 337.07,235.67 337.63,231.33 338.20,235.67 338.76,235.67 339.32,235.67 339.89,231.33 340.45,235.67 341.01,231.33 341.58,227.00 342.14,227.00 342.70,231.33 343.27,227.00 343.83,222.67 344.39,222.67 344.96,227.00 345.52,227.00 346.08,227.00 346.65,227.00 347.21,231.33 347.77,235.67 348.34,235.67 348.90,231.33 349.46,231.33 350.03,218.33 350.59,222.67 351.15,227.00 351.72,227.00 352.28,227.00 352.85,231.33 353.41,231.33 353.97,227.00 354.54,227.00 355.10,231.33 355.66,240.00 356.23,231.33 356.79,231.33 357.35,231.33 357.92,227.00 358.48,222.67 359.04,222.67 359.61,222.67 360.17,222.67 360.73,227.00 361.30,227.00 361.86,231.33 362.42,231.33 362.99,231.33 363.55,231.33 364.11,227.00 364.68,227.00 365.24,222.67 365.80,222.67 366.37,222.67 366.93,218.33 367.49,222.67 368.06,222.67 368.62,227.00 369.18,227.00 369.75,235.67 370.31,235.67 370.87,240.00 371.44,240.00 372.00,240.00 372.56,235.67 373.13,231.33 373.69,222.67 374.25,222.67 374.82,227.00 375.38,231.33 375.94,235.67 376.51,240.00 377.07,240.00 377.63,235.67 378.20,235.67 378.76,231.33 379.32,222.67 379.89,218.33 380.45,214.00 381.01,218.33 381.58,218.33 382.14,218.33 382.70,218.33 383.27,222.67 383.83,218.33 384.39,218.33 384.96,227.00 385.52,227.00 386.08,222.67 386.65,231.33 387.21,227.00 387.77,218.33 388.34,227.00 388.90,240.00 389.46,240.00 390.03,235.67 390.59,231.33 391.15,235.67 391.72,231.33 392.28,240.00 392.85,244.33 393.41,244.33 393.97,240.00 394.54,235.67 395.10,231.33 395.66,231.33 396.23,235.67 396.79,231.33 397.35,231.33 397.92,231.33 398.48,227.00 399.04,227.00 399.61,231.33 400.17,235.67 400.73,240.00 401.30,240.00 401.86,235.67 402.42,227.00 402.99,227.00 403.55,222.67 404.11,222.67 404.68,222.67 405.24,227.00 405.80,222.67 406.37,222.67 406.93,227.00 407.49,231.33 408.06,240.00 408.62,244.33 409.18,244.33 409.75,244.33 410.31,244.33 410.87,240.00 411.44,240.00 412.00,240.00 412.56,240.00 413.13,240.00 413.69,235.67 414.25,235.67 414.82,235.67 415.38,235.67 415.94,235.67 416.51,240.00 417.07,240.00 417.63,240.00 418.20,235.67 418.76,231.33 419.32,222.67 419.89,222.67 420.45,218.33 421.01,222.67 421.58,222.67 422.14,218.33 422.70,218.33 423.27,214.00 423.83,214.00 424.39,214.00 424.96,218.33 425.52,231.33 426.08,240.00 426.65,240.00 427.21,240.00 427.77,231.33 428.34,231.33 428.90,235.67 429.46,235.67 430.03,231.33 430.59,231.33 431.15,231.33 431.72,231.33 432.28,231.33 432.85,231.33 433.41,231.33 433.97,227.00 434.54,227.00 435.10,222.67 435.66,222.67 436.23,227.00 436.79,222.67 437.35,227.00 437.92,227.00 438.48,227.00 439.04,235.67 439.61,240.00 440.17,235.67 440.73,227.00 441.30,222.67 441.86,222.67 442.42,222.67 442.99,218.33 443.55,214.00 444.11,214.00 444.68,227.00 445.24,231.33 445.80,240.00 446.37,240.00 446.93,235.67 447.49,227.00 448.06,231.33 448.62,227.00 449.18,227.00 449.75,227.00 450.31,227.00 450.87,227.00 451.44,227.00 452.00,222.67" fill="none" stroke="#2563EB" stroke-width="2.0" stroke-linecap="round" stroke-linejoin="round"/>
</svg>