<svg xmlns="http://www.w3.org/2000/svg" width="470" height="272" viewBox="0 0 470 272">

<text x="235.0" y="20" text-anchor="middle" font-family="Arial, Helvetica, sans-serif" font-size="15" font-weight="700" fill="#111827">Deployable watch sensors</text>
<text x="82.0" y="69.0" text-anchor="end" font-family="Arial, Helvetica, sans-serif" font-size="13" font-weight="700" fill="#111827">PPG/BVP</text>
<polyline points="92.00,62.51 92.72,59.67 93.44,56.68 94.16,54.00 94.89,52.68 95.61,52.70 96.33,52.69 97.05,51.73 97.77,50.11 98.49,48.39 99.21,47.03 99.94,46.19 100.66,46.05 101.38,47.19 102.10,48.97 102.82,50.77 103.54,54.76 104.26,61.78 104.99,69.22 105.71,76.34 106.43,83.82 107.15,89.90 107.87,93.18 108.59,94.28 109.31,93.76 110.04,91.85 110.76,88.68 111.48,83.99 112.20,78.44 112.92,73.24 113.64,68.49 114.36,64.03 115.09,60.49 115.81,57.71 116.53,54.76 117.25,52.01 117.97,50.33 118.69,49.29 119.41,48.17 120.14,47.30 120.86,47.54 121.58,49.18 122.30,51.77 123.02,54.73 123.74,57.72 124.46,60.58 125.19,63.14 125.91,65.32 126.63,67.07 127.35,68.28 128.07,69.26 128.79,70.86 129.52,72.94 130.24,73.98 130.96,73.19 131.68,71.25 132.40,68.85 133.12,66.50 133.84,64.82 134.57,63.91 135.29,63.37 136.01,62.97 136.73,62.97 137.45,63.34 138.17,63.41 138.89,63.39 139.62,64.65 140.34,67.12 141.06,69.02 141.78,69.41 142.50,68.51 143.22,66.70 143.94,64.64 144.67,62.82 145.39,61.22 146.11,59.84 146.83,58.84 147.55,58.12 148.27,57.29 148.99,56.40 149.72,56.61 150.44,58.63 151.16,61.11 151.88,62.84 152.60,64.59 153.32,66.70 154.04,68.22 154.77,69.31 155.49,70.67 156.21,71.65 156.93,71.53 157.65,70.57 158.37,68.98 159.09,66.75 159.82,64.78 160.54,64.44 161.26,65.59 161.98,66.67 162.70,66.87 163.42,66.42 164.14,65.62 164.87,64.89 165.59,64.50 166.31,64.11 167.03,63.29 167.75,62.21 168.47,60.85 169.19,59.22 169.92,58.58 170.64,60.08 171.36,62.58 172.08,64.29 172.80,65.00 173.52,65.20 174.24,65.04 174.97,64.83 175.69,64.82 176.41,64.65 177.13,64.03 177.85,63.11 178.57,61.76 179.29,60.32 180.02,60.37 180.74,62.47 181.46,64.94 182.18,66.39 182.90,66.89 183.62,66.80 184.34,66.46 185.07,66.35 185.79,66.39 186.51,66.04 187.23,65.28 187.95,64.17 188.67,62.59 189.39,61.52 190.12,62.52 190.84,64.89 191.56,66.62 192.28,67.29 193.00,67.36 193.72,66.91 194.44,66.38 195.17,66.26 195.89,66.16 196.61,65.54 197.33,64.58 198.05,63.21 198.77,61.45 199.49,60.74 200.22,62.26 200.94,64.66 201.66,66.10 202.38,66.50 203.10,66.31 203.82,65.78 204.55,65.38 205.27,65.32 205.99,65.06 206.71,64.24 207.43,63.19 208.15,61.87 208.87,60.21 209.60,59.61 210.32,61.28 211.04,63.87 211.76,65.45 212.48,65.87 213.20,65.68 213.92,65.23 214.65,65.01 215.37,65.06 216.09,64.81 216.81,64.15 217.53,63.37 218.25,62.40 218.97,61.17 219.70,60.95 220.42,62.75 221.14,65.32 221.86,66.87 222.58,67.27 223.30,67.09 224.02,66.67 224.75,66.41 225.47,66.40 226.19,66.17 226.91,65.38 227.63,64.34 228.35,63.11 229.07,61.62 229.80,61.06 230.52,62.55 231.24,64.87 231.96,66.23 232.68,66.54 233.40,66.36 234.12,65.99 234.85,65.75 235.57,65.73 236.29,65.51 237.01,64.81 237.73,63.84 238.45,62.69 239.17,61.32 239.90,60.67 240.62,61.82 241.34,63.95 242.06,65.44 242.78,65.99 243.50,65.97 244.22,65.65 244.95,65.46 245.67,65.54 246.39,65.46 247.11,64.91 247.83,64.06 248.55,63.16 249.27,62.01 250.00,60.95 250.72,61.30 251.44,63.20 252.16,65.00 252.88,65.82 253.60,66.09 254.32,66.07 255.05,65.87 255.77,65.86 256.49,66.01 257.21,65.87 257.93,65.28 258.65,64.55 259.37,63.71 260.10,62.57 260.82,61.77 261.54,62.39 262.26,64.06 262.98,65.58 263.70,66.36 264.42,66.18 265.15,65.47 265.87,65.28 266.59,65.53 267.31,65.33 268.03,64.67 268.75,63.97 269.47,63.36 270.20,62.56 270.92,61.53 271.64,61.24 272.36,62.42 273.08,64.12 273.80,65.18 274.53,65.59 275.25,65.63 275.97,65.46 276.69,65.52 277.41,65.88 278.13,65.94 278.85,65.43 279.58,64.68 280.30,64.06 281.02,63.52 281.74,62.73 282.46,61.94 283.18,62.14 283.90,63.50 284.63,64.95 285.35,65.73 286.07,65.96 286.79,65.90 287.51,65.84 288.23,65.97 288.95,66.12 289.68,65.99 290.40,65.49 291.12,64.72 291.84,63.90 292.56,63.18 293.28,62.35 294.00,61.47 294.73,61.49 295.45,62.81 296.17,64.35 296.89,65.21 297.61,65.48 298.33,65.49 299.05,65.44 299.78,65.53 300.50,65.65 301.22,65.57 301.94,65.24 302.66,64.69 303.38,64.01 304.10,63.36 304.83,62.58 305.55,61.69 306.27,61.58 306.99,62.80 307.71,64.42 308.43,65.42 309.15,65.78 309.88,65.83 310.60,65.77 311.32,65.82 312.04,65.98 312.76,65.96 313.48,65.64 314.20,65.06 314.93,64.32 315.65,63.57 316.37,62.70 317.09,61.69 317.81,61.37 318.53,62.49 319.25,64.24 319.98,65.40 320.70,65.78 321.42,65.75 322.14,65.66 322.86,65.79 323.58,66.04 324.30,66.06 325.03,65.74 325.75,65.16 326.47,64.40 327.19,63.63 327.91,62.73 328.63,61.58 329.35,61.22 330.08,62.54 330.80,64.47 331.52,65.67 332.24,66.08 332.96,65.97 333.68,65.73 334.40,65.86 335.13,66.13 335.85,66.07 336.57,65.65 337.29,64.91 338.01,63.99 338.73,62.99 339.45,61.74 340.18,60.82 340.90,61.48 341.62,63.53 342.34,65.31 343.06,66.06 343.78,66.09 344.51,65.79 345.23,65.66 345.95,65.87 346.67,65.96 347.39,65.59 348.11,64.84 348.83,63.86 349.56,62.78 350.28,61.48 351.00,60.20 351.72,60.34 352.44,62.46 353.16,64.86 353.88,66.06 354.61,66.26 355.33,66.06 356.05,65.85 356.77,65.91 357.49,66.06 358.21,65.87 358.93,65.21 359.66,64.28 360.38,63.31 361.10,62.04 361.82,60.58 362.54,60.46 363.26,62.54 363.98,65.20 364.71,66.74 365.43,67.26 366.15,67.22 366.87,66.91 367.59,66.81 368.31,66.90 369.03,66.66 369.76,65.82 370.48,64.64 371.20,63.47 371.92,62.13 372.64,60.39 373.36,59.41 374.08,60.78 374.81,63.65 375.53,65.83 376.25,66.75 376.97,66.98 377.69,66.79 378.41,66.62 379.13,66.74 379.86,66.70 380.58,66.08 381.30,65.01 382.02,63.69 382.74,62.33 383.46,60.85 384.18,59.03 384.91,58.00 385.63,59.35 386.35,62.21 387.07,64.42 387.79,65.54 388.51,66.14 389.23,66.42 389.96,66.75 390.68,67.34 391.40,67.72 392.12,67.46 392.84,66.70 393.56,65.69 394.28,64.56 395.01,63.17 395.73,61.41 396.45,60.51 397.17,61.86 397.89,64.44 398.61,66.28 399.33,67.00 400.06,67.03 400.78,66.71 401.50,66.60 402.22,66.77 402.94,66.68 403.66,66.15 404.38,65.25 405.11,64.09 405.83,62.89 406.55,61.52 407.27,60.03 407.99,59.75 408.71,61.58 409.43,64.04 410.16,65.44 410.88,65.75 411.60,65.61 412.32,65.45 413.04,65.56 413.76,65.92 414.48,65.96 415.21,64.94 415.93,63.30 416.65,61.89 417.37,60.64 418.09,60.08 418.81,61.53 419.54,64.21 420.26,66.07 420.98,66.70 421.70,66.74 422.42,66.58 423.14,66.64 423.86,66.92 424.59,66.85 425.31,66.15 426.03,65.02 426.75,63.82 427.47,62.51 428.19,60.85 428.91,59.88 429.64,61.04 430.36,63.58 431.08,65.54 431.80,66.43 432.52,66.68 433.24,66.56 433.96,66.46 434.69,66.57 435.41,66.47 436.13,65.84 436.85,64.79 437.57,63.61 438.29,62.42 439.01,60.98 439.74,59.63 440.46,59.86 441.18,62.16 441.90,64.78 442.62,66.36 443.34,67.13 444.06,67.43 444.79,67.48 445.51,67.71 446.23,67.96 446.95,67.76 447.67,67.12 448.39,66.23 449.11,65.16 449.84,64.06 450.56,65.00 451.28,65.00 452.00,65.00" fill="none" stroke="#2563EB" stroke-width="2.0" stroke-linecap="round" stroke-linejoin="round"/>
<text x="82.0" y="123.0" text-anchor="end" font-family="Arial, Helvetica, sans-serif" font-size="13" font-weight="700" fill="#111827">ACC x</text>
<polyline points="92.00,118.79 92.72,115.88 93.44,118.86 94.16,118.22 94.89,120.70 95.61,116.80 96.33,116.80 97.05,117.15 97.77,121.84 98.49,114.39 99.21,114.88 99.94,123.05 100.66,118.01 101.38,123.19 102.10,115.81 102.82,113.11 103.54,110.34 104.26,113.89 104.99,111.55 105.71,112.26 106.43,105.30 107.15,110.34 107.87,129.51 108.59,115.81 109.31,125.82 110.04,124.40 110.76,115.02 111.48,126.31 112.20,131.57 112.92,125.60 113.64,141.72 114.36,142.43 115.09,134.69 115.81,123.47 116.53,131.99 117.25,114.67 117.97,119.00 118.69,124.61 119.41,111.12 120.14,119.07 120.86,114.53 121.58,110.27 122.30,113.68 123.02,110.62 123.74,105.08 124.46,98.84 125.19,88.83 125.91,86.50 126.63,88.83 127.35,92.66 128.07,102.10 128.79,105.87 129.52,112.18 130.24,114.31 130.96,119.43 131.68,124.61 132.40,115.95 133.12,108.92 133.84,114.74 134.57,129.93 135.29,105.79 136.01,113.39 136.73,128.73 137.45,129.22 138.17,135.68 138.89,127.45 139.62,118.43 140.34,123.90 141.06,135.83 141.78,149.39 142.50,125.89 143.22,124.47 143.94,114.46 144.67,104.52 145.39,117.44 146.11,123.54 146.83,132.13 147.55,142.22 148.27,140.16 148.99,125.32 149.72,132.42 150.44,141.79 151.16,136.11 151.88,128.30 152.60,114.10 153.32,126.88 154.04,126.10 154.77,121.20 155.49,121.20 156.21,136.25 156.93,135.47 157.65,126.45 158.37,127.66 159.09,127.38 159.82,126.53 160.54,126.03 161.26,126.31 161.98,127.38 162.70,128.30 163.42,127.24 164.14,128.37 164.87,130.08 165.59,127.52 166.31,129.29 167.03,126.38 167.75,123.33 168.47,123.83 169.19,126.31 169.92,122.19 170.64,124.47 171.36,124.61 172.08,123.33 172.80,122.12 173.52,124.11 174.24,121.91 174.97,124.75 175.69,119.00 176.41,122.90 177.13,120.85 177.85,119.00 178.57,118.15 179.29,123.69 180.02,118.29 180.74,119.14 181.46,121.84 182.18,119.43 182.90,118.22 183.62,121.34 184.34,124.96 185.07,123.47 185.79,121.77 186.51,120.49 187.23,119.21 187.95,121.48 188.67,123.54 189.39,120.49 190.12,119.28 190.84,116.16 191.56,121.77 192.28,124.04 193.00,122.83 193.72,120.70 194.44,121.63 195.17,116.66 195.89,117.86 196.61,117.51 197.33,117.58 198.05,116.09 198.77,116.37 199.49,118.86 200.22,120.42 200.94,119.57 201.66,120.56 202.38,118.86 203.10,117.44 203.82,115.95 204.55,117.51 205.27,118.29 205.99,118.08 206.71,117.86 207.43,118.86 208.15,119.00 208.87,117.72 209.60,116.59 210.32,116.94 211.04,118.93 211.76,118.36 212.48,118.01 213.20,118.01 213.92,117.51 214.65,117.94 215.37,118.79 216.09,119.14 216.81,120.06 217.53,117.58 218.25,118.36 218.97,119.07 219.70,116.73 220.42,118.86 221.14,119.35 221.86,118.79 222.58,118.86 223.30,117.72 224.02,118.93 224.75,120.06 225.47,118.43 226.19,122.41 226.91,115.73 227.63,118.22 228.35,115.66 229.07,117.08 229.80,118.22 230.52,118.36 231.24,119.78 231.96,119.14 232.68,117.01 233.40,117.01 234.12,116.73 234.85,116.94 235.57,118.22 236.29,118.43 237.01,117.58 237.73,119.78 238.45,118.15 239.17,118.22 239.90,118.15 240.62,119.21 241.34,119.00 242.06,119.43 242.78,117.94 243.50,119.85 244.22,117.23 244.95,117.79 245.67,119.07 246.39,117.79 247.11,117.37 247.83,118.01 248.55,117.86 249.27,119.57 250.00,117.94 250.72,118.36 251.44,118.93 252.16,118.22 252.88,117.94 253.60,117.94 254.32,119.21 255.05,117.86 255.77,120.35 256.49,117.86 257.21,118.93 257.93,118.79 258.65,119.50 259.37,118.15 260.10,119.50 260.82,117.94 261.54,119.57 262.26,118.29 262.98,121.20 263.70,119.43 264.42,116.80 265.15,119.78 265.87,118.79 266.59,119.43 267.31,119.92 268.03,119.92 268.75,116.87 269.47,118.93 270.20,120.06 270.92,117.94 271.64,115.59 272.36,117.94 273.08,120.42 273.80,120.49 274.53,118.65 275.25,119.50 275.97,119.64 276.69,119.35 277.41,120.21 278.13,120.28 278.85,118.93 279.58,119.35 280.30,116.66 281.02,119.50 281.74,119.50 282.46,117.65 283.18,117.51 283.90,119.35 284.63,120.56 285.35,121.27 286.07,119.71 286.79,120.06 287.51,119.43 288.23,117.79 288.95,118.65 289.68,120.06 290.40,118.15 291.12,116.87 291.84,119.57 292.56,121.13 293.28,119.57 294.00,118.08 294.73,118.15 295.45,118.72 296.17,116.80 296.89,119.50 297.61,118.72 298.33,119.35 299.05,119.64 299.78,119.64 300.50,120.85 301.22,118.57 301.94,118.43 302.66,117.51 303.38,119.78 304.10,117.37 304.83,116.80 305.55,118.15 306.27,117.86 306.99,119.28 307.71,118.79 308.43,118.93 309.15,118.72 309.88,117.79 310.60,119.28 311.32,118.29 312.04,117.30 312.76,119.57 313.48,117.58 314.20,117.94 314.93,117.37 315.65,119.71 316.37,117.44 317.09,119.14 317.81,119.92 318.53,119.14 319.25,119.00 319.98,121.20 320.70,119.64 321.42,119.43 322.14,118.57 322.86,118.36 323.58,118.79 324.30,118.43 325.03,117.51 325.75,119.14 326.47,117.65 327.19,118.15 327.91,119.07 328.63,118.36 329.35,118.01 330.08,121.20 330.80,119.35 331.52,119.21 332.24,118.36 332.96,120.14 333.68,120.99 334.40,118.72 335.13,118.79 335.85,118.50 336.57,119.64 337.29,118.72 338.01,118.65 338.73,119.43 339.45,118.29 340.18,116.23 340.90,119.85 341.62,120.06 342.34,118.43 343.06,119.50 343.78,119.28 344.51,120.35 345.23,119.07 345.95,119.14 346.67,119.64 347.39,119.14 348.11,118.57 348.83,119.28 349.56,120.92 350.28,118.22 351.00,119.07 351.72,119.92 352.44,120.06 353.16,120.92 353.88,120.56 354.61,116.94 355.33,118.57 356.05,119.35 356.77,119.21 357.49,117.08 358.21,119.64 358.93,116.23 359.66,119.35 360.38,120.99 361.10,117.58 361.82,117.30 362.54,119.78 363.26,119.14 363.98,118.01 364.71,122.34 365.43,118.50 366.15,119.14 366.87,119.21 367.59,119.64 368.31,118.50 369.03,119.35 369.76,119.50 370.48,119.71 371.20,120.63 371.92,118.29 372.64,118.86 373.36,118.08 374.08,120.70 374.81,119.35 375.53,119.85 376.25,119.50 376.97,119.00 377.69,118.01 378.41,118.65 379.13,117.44 379.86,118.15 380.58,118.29 381.30,118.15 382.02,118.29 382.74,119.92 383.46,118.72 384.18,117.79 384.91,118.01 385.63,121.13 386.35,120.21 387.07,121.06 387.79,118.72 388.51,119.14 389.23,117.58 389.96,118.22 390.68,118.65 391.40,120.28 392.12,119.92 392.84,119.71 393.56,120.99 394.28,121.70 395.01,116.44 395.73,118.08 396.45,117.01 397.17,120.35 397.89,120.21 398.61,121.20 399.33,117.94 400.06,117.44 400.78,118.65 401.50,117.15 402.22,118.22 402.94,120.14 403.66,117.44 404.38,120.06 405.11,118.86 405.83,119.28 406.55,119.28 407.27,118.65 407.99,119.35 408.71,118.93 409.43,117.72 410.16,117.86 410.88,119.28 411.60,118.79 412.32,117.01 413.04,118.08 413.76,120.42 414.48,118.72 415.21,118.93 415.93,117.51 416.65,120.35 417.37,118.43 418.09,116.59 418.81,118.01 419.54,119.14 420.26,119.14 420.98,117.58 421.70,119.43 422.42,118.22 423.14,120.35 423.86,117.30 424.59,119.92 425.31,118.65 426.03,120.85 426.75,119.35 427.47,120.56 428.19,117.01 428.91,120.28 429.64,118.57 430.36,118.57 431.08,119.21 431.80,118.86 432.52,118.86 433.24,121.34 433.96,120.06 434.69,121.06 435.41,117.15 436.13,118.15 436.85,119.35 437.57,120.28 438.29,118.65 439.01,116.02 439.74,117.65 440.46,119.21 441.18,120.49 441.90,117.79 442.62,118.50 443.34,120.92 444.06,119.50 444.79,120.06 445.51,120.14 446.23,119.50 446.95,119.99 447.67,119.28 448.39,118.79 449.11,118.29 449.84,120.92 450.56,119.00 451.28,119.00 452.00,119.00" fill="none" stroke="#111827" stroke-width="2.0" stroke-linecap="round" stroke-linejoin="round"/>
<text x="82.0" y="177.0" text-anchor="end" font-family="Arial, Helvetica, sans-serif" font-size="13" font-weight="700" fill="#111827">ACC y</text>
<polyline points="92.00,173.60 92.72,172.76 93.44,172.27 94.16,172.97 94.89,172.00 95.61,172.73 96.33,174.06 97.05,171.55 97.77,171.22 98.49,172.61 99.21,171.67 99.94,168.50 100.66,168.56 101.38,172.15 102.10,171.37 102.82,162.57 103.54,160.09 104.26,160.00 104.99,156.22 105.71,157.65 106.43,151.75 107.15,160.70 107.87,160.03 108.59,143.83 109.31,148.25 110.04,149.30 110.76,150.48 111.48,158.19 112.20,159.61 112.92,157.16 113.64,165.11 114.36,168.98 115.09,170.91 115.81,157.55 116.53,168.16 117.25,170.67 117.97,159.94 118.69,161.15 119.41,167.08 120.14,165.66 120.86,157.04 121.58,156.98 122.30,160.82 123.02,159.34 123.74,155.44 124.46,155.44 125.19,148.52 125.91,151.72 126.63,160.37 127.35,162.30 128.07,157.95 128.79,160.46 129.52,174.60 130.24,170.19 130.96,169.16 131.68,172.64 132.40,179.41 133.12,178.80 133.84,171.85 134.57,179.89 135.29,178.23 136.01,175.09 136.73,176.72 137.45,171.07 138.17,175.12 138.89,180.41 139.62,173.48 140.34,170.91 141.06,177.47 141.78,184.88 142.50,179.92 143.22,172.09 143.94,180.86 144.67,181.58 145.39,173.97 146.11,152.11 146.83,168.65 147.55,149.97 148.27,156.10 148.99,167.89 149.72,171.73 150.44,173.82 151.16,162.18 151.88,156.32 152.60,177.99 153.32,168.01 154.04,159.13 154.77,160.70 155.49,167.62 156.21,172.61 156.93,173.12 157.65,170.52 158.37,171.10 159.09,170.97 159.82,173.12 160.54,170.64 161.26,170.31 161.98,171.64 162.70,172.91 163.42,171.19 164.14,173.09 164.87,168.25 165.59,171.22 166.31,171.01 167.03,169.89 167.75,171.82 168.47,174.15 169.19,174.24 169.92,172.91 170.64,172.94 171.36,173.85 172.08,174.30 172.80,172.00 173.52,172.55 174.24,172.00 174.97,172.12 175.69,172.34 176.41,173.39 177.13,173.91 177.85,172.43 178.57,172.61 179.29,174.45 180.02,173.39 180.74,174.78 181.46,174.54 182.18,173.15 182.90,174.57 183.62,174.21 184.34,173.06 185.07,171.31 185.79,173.73 186.51,173.03 187.23,173.15 187.95,172.43 188.67,171.91 189.39,172.67 190.12,172.55 190.84,174.42 191.56,173.24 192.28,172.43 193.00,173.42 193.72,172.79 194.44,170.97 195.17,172.82 195.89,173.12 196.61,173.66 197.33,173.03 198.05,172.82 198.77,172.79 199.49,173.48 200.22,174.54 200.94,174.15 201.66,173.12 202.38,173.09 203.10,172.73 203.82,173.39 204.55,173.33 205.27,172.70 205.99,173.48 206.71,174.48 207.43,172.40 208.15,173.66 208.87,172.79 209.60,173.06 210.32,173.51 211.04,173.73 211.76,173.94 212.48,172.73 213.20,174.21 213.92,172.97 214.65,174.66 215.37,171.73 216.09,172.91 216.81,173.48 217.53,173.91 218.25,172.24 218.97,172.91 219.70,172.67 220.42,173.21 221.14,173.21 221.86,172.82 222.58,174.09 223.30,172.76 224.02,173.06 224.75,173.15 225.47,173.42 226.19,173.12 226.91,173.54 227.63,173.45 228.35,173.12 229.07,172.85 229.80,173.15 230.52,172.82 231.24,173.51 231.96,172.82 232.68,173.42 233.40,173.48 234.12,172.52 234.85,174.06 235.57,173.12 236.29,173.48 237.01,173.21 237.73,172.73 238.45,172.24 239.17,173.00 239.90,173.88 240.62,173.12 241.34,173.51 242.06,173.00 242.78,173.57 243.50,172.97 244.22,173.57 244.95,172.73 245.67,173.54 246.39,173.82 247.11,172.91 247.83,173.15 248.55,172.76 249.27,172.46 250.00,173.33 250.72,173.12 251.44,173.39 252.16,172.91 252.88,173.63 253.60,173.82 254.32,173.73 255.05,173.00 255.77,173.30 256.49,173.27 257.21,173.33 257.93,172.91 258.65,173.73 259.37,173.82 260.10,173.21 260.82,172.76 261.54,173.85 262.26,173.06 262.98,173.06 263.70,174.51 264.42,173.60 265.15,172.46 265.87,173.48 266.59,173.66 267.31,172.70 268.03,173.88 268.75,173.21 269.47,173.82 270.20,172.64 270.92,172.97 271.64,173.30 272.36,174.12 273.08,172.64 273.80,174.48 274.53,172.03 275.25,173.73 275.97,173.00 276.69,173.36 277.41,173.45 278.13,173.00 278.85,174.18 279.58,172.24 280.30,173.39 281.02,172.34 281.74,172.43 282.46,173.39 283.18,173.06 283.90,173.76 284.63,172.43 285.35,173.70 286.07,172.58 286.79,172.97 287.51,173.36 288.23,172.85 288.95,173.27 289.68,172.61 290.40,173.85 291.12,172.58 291.84,173.15 292.56,173.00 293.28,172.73 294.00,173.39 294.73,174.24 295.45,173.18 296.17,172.52 296.89,173.33 297.61,172.52 298.33,174.42 299.05,172.91 299.78,173.18 300.50,172.85 301.22,172.58 301.94,172.24 302.66,172.97 303.38,172.64 304.10,173.88 304.83,173.30 305.55,172.91 306.27,172.97 306.99,173.63 307.71,172.21 308.43,173.85 309.15,172.67 309.88,173.85 310.60,173.24 311.32,173.06 312.04,172.61 312.76,173.18 313.48,172.43 314.20,172.97 314.93,173.45 315.65,172.76 316.37,172.46 317.09,173.36 317.81,172.94 318.53,173.48 319.25,173.03 319.98,172.91 320.70,172.85 321.42,173.18 322.14,172.49 322.86,173.09 323.58,172.82 324.30,172.82 325.03,173.42 325.75,172.82 326.47,173.42 327.19,173.18 327.91,173.39 328.63,173.03 329.35,172.79 330.08,172.30 330.80,173.30 331.52,172.67 332.24,173.39 332.96,173.27 333.68,173.91 334.40,172.88 335.13,172.82 335.85,172.79 336.57,174.12 337.29,173.18 338.01,173.12 338.73,173.51 339.45,174.30 340.18,173.36 340.90,172.67 341.62,173.94 342.34,173.00 343.06,173.09 343.78,173.39 344.51,173.24 345.23,173.09 345.95,171.97 346.67,172.73 347.39,173.24 348.11,173.06 348.83,173.60 349.56,172.82 350.28,172.06 351.00,173.42 351.72,173.36 352.44,171.94 353.16,173.60 353.88,172.58 354.61,173.00 355.33,172.73 356.05,173.66 356.77,173.76 357.49,172.30 358.21,173.30 358.93,172.73 359.66,173.18 360.38,173.03 361.10,173.88 361.82,173.60 362.54,173.12 363.26,173.06 363.98,172.06 364.71,173.06 365.43,172.37 366.15,173.30 366.87,173.18 367.59,172.12 368.31,172.27 369.03,172.61 369.76,172.76 370.48,173.39 371.20,173.18 371.92,172.70 372.64,172.61 373.36,172.24 374.08,173.48 374.81,172.46 375.53,173.66 376.25,172.30 376.97,173.15 377.69,172.67 378.41,173.09 379.13,173.09 379.86,172.85 380.58,173.09 381.30,172.97 382.02,172.27 382.74,173.03 383.46,172.61 384.18,173.42 384.91,173.54 385.63,172.94 386.35,172.70 387.07,173.09 387.79,172.12 388.51,173.33 389.23,172.24 389.96,171.79 390.68,172.52 391.40,172.34 392.12,173.30 392.84,172.61 393.56,173.15 394.28,172.70 395.01,172.58 395.73,173.00 396.45,172.55 397.17,173.36 397.89,172.88 398.61,172.70 399.33,173.18 400.06,173.79 400.78,172.82 401.50,172.91 402.22,173.63 402.94,172.94 403.66,174.00 404.38,173.30 405.11,174.42 405.83,172.82 406.55,174.09 407.27,173.12 407.99,172.76 408.71,172.79 409.43,173.15 410.16,173.18 410.88,173.45 411.60,172.82 412.32,172.18 413.04,172.18 413.76,173.70 414.48,173.21 415.21,173.73 415.93,173.54 416.65,172.40 417.37,173.51 418.09,172.58 418.81,172.61 419.54,172.46 420.26,173.42 420.98,173.06 421.70,173.94 422.42,172.85 423.14,173.36 423.86,173.82 424.59,173.79 425.31,173.06 426.03,174.09 426.75,173.70 427.47,173.60 428.19,172.94 428.91,173.21 429.64,173.15 430.36,173.57 431.08,173.63 431.80,172.85 432.52,172.67 433.24,173.45 433.96,173.76 434.69,172.30 435.41,173.63 436.13,173.66 436.85,172.09 437.57,173.70 438.29,173.12 439.01,172.06 439.74,172.82 440.46,173.12 441.18,173.36 441.90,172.76 442.62,173.79 443.34,173.09 444.06,173.45 444.79,172.85 445.51,172.55 446.23,172.61 446.95,172.97 447.67,172.64 448.39,173.09 449.11,173.09 449.84,172.94 450.56,173.00 451.28,173.00 452.00,173.00" fill="none" stroke="#F97316" stroke-width="2.0" stroke-linecap="round" stroke-linejoin="round"/>
<text x="82.0" y="231.0" text-anchor="end" font-family="Arial, Helvetica, sans-serif" font-size="13" font-weight="700" fill="#111827">ACC z</text>
<polyline points="92.00,226.55 92.72,227.36 93.44,227.00 94.16,226.73 94.89,225.27 95.61,226.45 96.33,225.55 97.05,223.96 97.77,222.55 98.49,225.68 99.21,220.73 99.94,222.46 100.66,227.91 101.38,222.73 102.10,220.55 102.82,215.60 103.54,220.28 104.26,215.37 104.99,203.33 105.71,213.10 106.43,208.74 107.15,208.06 107.87,213.37 108.59,208.19 109.31,195.52 110.04,205.79 110.76,205.11 111.48,206.65 112.20,207.01 112.92,207.56 113.64,212.56 114.36,216.73 115.09,207.70 115.81,216.83 116.53,216.78 117.25,213.83 117.97,215.14 118.69,210.10 119.41,206.88 120.14,214.15 120.86,216.19 121.58,213.78 122.30,217.28 123.02,217.82 123.74,215.42 124.46,208.51 125.19,209.88 125.91,212.24 126.63,211.42 127.35,214.60 128.07,223.96 128.79,221.82 129.52,215.69 130.24,225.91 130.96,224.37 131.68,226.50 132.40,223.96 133.12,228.18 133.84,237.13 134.57,228.23 135.29,229.77 136.01,229.68 136.73,216.19 137.45,233.50 138.17,236.58 138.89,230.00 139.62,228.95 140.34,230.32 141.06,228.91 141.78,235.99 142.50,232.54 143.22,219.64 143.94,214.01 144.67,237.72 145.39,223.05 146.11,228.50 146.83,219.51 147.55,208.33 148.27,216.19 148.99,223.96 149.72,214.74 150.44,213.55 151.16,214.55 151.88,212.33 152.60,216.33 153.32,220.50 154.04,216.92 154.77,217.96 155.49,221.91 156.21,220.23 156.93,220.55 157.65,223.77 158.37,224.00 159.09,223.32 159.82,223.96 160.54,223.50 161.26,224.05 161.98,224.96 162.70,224.73 163.42,225.55 164.14,223.05 164.87,222.55 165.59,223.68 166.31,222.19 167.03,222.78 167.75,228.77 168.47,227.55 169.19,225.27 169.92,225.14 170.64,226.45 171.36,229.27 172.08,227.09 172.80,228.00 173.52,225.18 174.24,227.27 174.97,224.87 175.69,225.55 176.41,228.91 177.13,226.36 177.85,226.73 178.57,225.59 179.29,228.73 180.02,227.86 180.74,229.36 181.46,228.68 182.18,228.09 182.90,228.73 183.62,228.95 184.34,226.09 185.07,226.59 185.79,227.14 186.51,228.14 187.23,225.27 187.95,225.55 188.67,227.00 189.39,227.32 190.12,227.45 190.84,226.41 191.56,227.95 192.28,225.86 193.00,226.95 193.72,228.00 194.44,226.82 195.17,227.50 195.89,228.32 196.61,227.27 197.33,228.36 198.05,227.23 198.77,226.91 199.49,228.41 200.22,228.14 200.94,228.82 201.66,227.77 202.38,227.32 203.10,227.64 203.82,227.77 204.55,227.00 205.27,226.82 205.99,228.27 206.71,228.45 207.43,227.18 208.15,228.18 208.87,227.09 209.60,228.91 210.32,227.95 211.04,227.64 211.76,226.91 212.48,227.64 213.20,228.86 213.92,227.23 214.65,228.45 215.37,227.86 216.09,226.41 216.81,228.50 217.53,227.05 218.25,227.45 218.97,225.91 219.70,227.68 220.42,227.95 221.14,227.09 221.86,228.09 222.58,227.23 223.30,227.59 224.02,228.36 224.75,226.32 225.47,227.09 226.19,227.00 226.91,227.55 227.63,227.86 228.35,226.27 229.07,227.50 229.80,227.27 230.52,228.68 231.24,228.32 231.96,228.18 232.68,226.23 233.40,226.64 234.12,226.95 234.85,227.50 235.57,227.00 236.29,227.64 237.01,228.91 237.73,227.82 238.45,227.82 239.17,227.00 239.90,227.59 240.62,227.50 241.34,227.36 242.06,227.68 242.78,227.23 243.50,227.91 244.22,226.95 244.95,227.59 245.67,226.45 246.39,227.05 247.11,227.91 247.83,227.32 248.55,227.18 249.27,226.41 250.00,227.36 250.72,226.77 251.44,227.95 252.16,227.23 252.88,226.41 253.60,228.36 254.32,227.59 255.05,226.59 255.77,227.45 256.49,227.05 257.21,226.05 257.93,228.45 258.65,227.09 259.37,227.05 260.10,227.73 260.82,228.32 261.54,227.41 262.26,226.45 262.98,226.32 263.70,228.23 264.42,226.27 265.15,227.05 265.87,227.32 266.59,226.50 267.31,227.14 268.03,228.82 268.75,227.68 269.47,226.95 270.20,226.68 270.92,226.86 271.64,229.91 272.36,227.05 273.08,227.82 273.80,226.95 274.53,226.82 275.25,229.32 275.97,227.68 276.69,228.09 277.41,225.96 278.13,226.50 278.85,228.82 279.58,227.18 280.30,229.27 281.02,226.00 281.74,224.77 282.46,228.64 283.18,227.36 283.90,226.55 284.63,227.36 285.35,228.18 286.07,226.45 286.79,228.54 287.51,228.18 288.23,226.14 288.95,226.50 289.68,227.50 290.40,226.77 291.12,225.27 291.84,227.77 292.56,228.23 293.28,226.73 294.00,228.50 294.73,227.36 295.45,226.73 296.17,226.77 296.89,226.68 297.61,226.45 298.33,227.73 299.05,226.91 299.78,227.64 300.50,226.32 301.22,227.50 301.94,226.55 302.66,225.14 303.38,227.68 304.10,226.86 304.83,227.14 305.55,227.36 306.27,227.05 306.99,226.00 307.71,227.68 308.43,226.73 309.15,227.18 309.88,227.82 310.60,226.64 311.32,227.27 312.04,225.68 312.76,227.27 313.48,226.95 314.20,226.82 314.93,228.27 315.65,227.64 316.37,226.27 317.09,227.23 317.81,226.45 318.53,226.95 319.25,227.64 319.98,227.23 320.70,228.00 321.42,227.73 322.14,226.27 322.86,227.50 323.58,227.32 324.30,226.95 325.03,226.73 325.75,226.18 326.47,227.09 327.19,226.00 327.91,227.59 328.63,227.14 329.35,228.32 330.08,228.36 330.80,227.59 331.52,227.36 332.24,226.45 332.96,226.59 333.68,227.86 334.40,227.00 335.13,226.82 335.85,227.59 336.57,227.00 337.29,227.32 338.01,227.45 338.73,227.55 339.45,226.73 340.18,226.32 340.90,226.82 341.62,227.82 342.34,226.45 343.06,227.00 343.78,227.27 344.51,228.23 345.23,226.55 345.95,226.32 346.67,227.27 347.39,226.55 348.11,227.59 348.83,229.18 349.56,226.86 350.28,227.45 351.00,226.41 351.72,227.36 352.44,226.09 353.16,227.41 353.88,227.23 354.61,226.77 355.33,227.27 356.05,227.68 356.77,225.59 357.49,226.32 358.21,226.18 358.93,226.73 359.66,227.95 360.38,227.05 361.10,226.86 361.82,225.91 362.54,227.14 363.26,227.09 363.98,226.86 364.71,227.09 365.43,227.36 366.15,226.73 366.87,227.36 367.59,227.18 368.31,227.18 369.03,226.36 369.76,226.59 370.48,226.91 371.20,227.77 371.92,225.91 372.64,227.18 373.36,226.86 374.08,227.00 374.81,228.27 375.53,226.68 376.25,227.50 376.97,226.50 377.69,227.09 378.41,227.18 379.13,226.32 379.86,227.23 380.58,226.77 381.30,227.45 382.02,227.09 382.74,227.32 383.46,225.82 384.18,227.36 384.91,226.68 385.63,227.18 386.35,227.45 387.07,226.14 387.79,226.41 388.51,227.36 389.23,226.45 389.96,226.09 390.68,226.68 391.40,226.00 392.12,226.86 392.84,227.18 393.56,228.23 394.28,226.55 395.01,226.27 395.73,227.14 396.45,227.23 397.17,227.41 397.89,227.45 398.61,228.27 399.33,228.09 400.06,228.18 400.78,227.55 401.50,225.96 402.22,226.95 402.94,227.59 403.66,226.82 404.38,227.82 405.11,227.18 405.83,227.23 406.55,227.45 407.27,226.45 407.99,226.82 408.71,226.86 409.43,226.82 410.16,227.55 410.88,228.27 411.60,227.18 412.32,227.05 413.04,226.82 413.76,225.82 414.48,226.59 415.21,226.91 415.93,226.95 416.65,227.59 417.37,226.91 418.09,227.32 418.81,227.09 419.54,226.59 420.26,226.55 420.98,226.68 421.70,226.86 422.42,226.14 423.14,226.14 423.86,227.27 424.59,226.05 425.31,226.73 426.03,227.05 426.75,227.23 427.47,226.68 428.19,227.36 428.91,226.23 429.64,226.82 430.36,226.86 431.08,224.73 431.80,226.64 432.52,228.45 433.24,227.50 433.96,226.41 434.69,227.18 435.41,226.77 436.13,226.00 436.85,226.14 437.57,227.55 438.29,226.77 439.01,226.50 439.74,226.23 440.46,226.00 441.18,227.45 441.90,227.09 442.62,225.18 443.34,228.18 444.06,225.77 444.79,226.55 445.51,226.27 446.23,225.86 446.95,225.55 447.67,226.50 448.39,227.23 449.11,227.18 449.84,227.36 450.56,227.00 451.28,227.00 452.00,227.00" fill="none" stroke="#2563EB" stroke-width="2.0" stroke-linecap="round" stroke-linejoin="round"/>
</svg>