<svg xmlns="http://www.w3.org/2000/svg" width="470" height="380" viewBox="0 0 470 380">

<text x="235.0" y="20" text-anchor="middle" font-family="Arial, Helvetica, sans-serif" font-size="15" font-weight="700" fill="#111827">GALAXY P10 tsst-prep</text>
<text x="82.0" y="69.0" text-anchor="end" font-family="Arial, Helvetica, sans-serif" font-size="13" font-weight="700" fill="#111827">PPG/BVP</text>
<polyline points="92.00,62.51 92.72,59.67 93.44,56.68 94.16,54.00 94.89,52.68 95.61,52.70 96.33,52.69 97.05,51.73 97.77,50.11 98.49,48.39 99.21,47.03 99.94,46.19 100.66,46.05 101.38,47.19 102.10,48.97 102.82,50.77 103.54,54.76 104.26,61.78 104.99,69.22 105.71,76.34 106.43,83.82 107.15,89.90 107.87,93.18 108.59,94.28 109.31,93.76 110.04,91.85 110.76,88.68 111.48,83.99 112.20,78.44 112.92,73.24 113.64,68.49 114.36,64.03 115.09,60.49 115.81,57.71 116.53,54.76 117.25,52.01 117.97,50.33 118.69,49.29 119.41,48.17 120.14,47.30 120.86,47.54 121.58,49.18 122.30,51.77 123.02,54.73 123.74,57.72 124.46,60.58 125.19,63.14 125.91,65.32 126.63,67.07 127.35,68.28 128.07,69.26 128.79,70.86 129.52,72.94 130.24,73.98 130.96,73.19 131.68,71.25 132.40,68.85 133.12,66.50 133.84,64.82 134.57,63.91 135.29,63.37 136.01,62.97 136.73,62.97 137.45,63.34 138.17,63.41 138.89,63.39 139.62,64.65 140.34,67.12 141.06,69.02 141.78,69.41 142.50,68.51 143.22,66.70 143.94,64.64 144.67,62.82 145.39,61.22 146.11,59.84 146.83,58.84 147.55,58.12 148.27,57.29 148.99,56.40 149.72,56.61 150.44,58.63 151.16,61.11 151.88,62.84 152.60,64.59 153.32,66.70 154.04,68.22 154.77,69.31 155.49,70.67 156.21,71.65 156.93,71.53 157.65,70.57 158.37,68.98 159.09,66.75 159.82,64.78 160.54,64.44 161.26,65.59 161.98,66.67 162.70,66.87 163.42,66.42 164.14,65.62 164.87,64.89 165.59,64.50 166.31,64.11 167.03,63.29 167.75,62.21 168.47,60.85 169.19,59.22 169.92,58.58 170.64,60.08 171.36,62.58 172.08,64.29 172.80,65.00 173.52,65.20 174.24,65.04 174.97,64.83 175.69,64.82 176.41,64.65 177.13,64.03 177.85,63.11 178.57,61.76 179.29,60.32 180.02,60.37 180.74,62.47 181.46,64.94 182.18,66.39 182.90,66.89 183.62,66.80 184.34,66.46 185.07,66.35 185.79,66.39 186.51,66.04 187.23,65.28 187.95,64.17 188.67,62.59 189.39,61.52 190.12,62.52 190.84,64.89 191.56,66.62 192.28,67.29 193.00,67.36 193.72,66.91 194.44,66.38 195.17,66.26 195.89,66.16 196.61,65.54 197.33,64.58 198.05,63.21 198.77,61.45 199.49,60.74 200.22,62.26 200.94,64.66 201.66,66.10 202.38,66.50 203.10,66.31 203.82,65.78 204.55,65.38 205.27,65.32 205.99,65.06 206.71,64.24 207.43,63.19 208.15,61.87 208.87,60.21 209.60,59.61 210.32,61.28 211.04,63.87 211.76,65.45 212.48,65.87 213.20,65.68 213.92,65.23 214.65,65.01 215.37,65.06 216.09,64.81 216.81,64.15 217.53,63.37 218.25,62.40 218.97,61.17 219.70,60.95 220.42,62.75 221.14,65.32 221.86,66.87 222.58,67.27 223.30,67.09 224.02,66.67 224.75,66.41 225.47,66.40 226.19,66.17 226.91,65.38 227.63,64.34 228.35,63.11 229.07,61.62 229.80,61.06 230.52,62.55 231.24,64.87 231.96,66.23 232.68,66.54 233.40,66.36 234.12,65.99 234.85,65.75 235.57,65.73 236.29,65.51 237.01,64.81 237.73,63.84 238.45,62.69 239.17,61.32 239.90,60.67 240.62,61.82 241.34,63.95 242.06,65.44 242.78,65.99 243.50,65.97 244.22,65.65 244.95,65.46 245.67,65.54 246.39,65.46 247.11,64.91 247.83,64.06 248.55,63.16 249.27,62.01 250.00,60.95 250.72,61.30 251.44,63.20 252.16,65.00 252.88,65.82 253.60,66.09 254.32,66.07 255.05,65.87 255.77,65.86 256.49,66.01 257.21,65.87 257.93,65.28 258.65,64.55 259.37,63.71 260.10,62.57 260.82,61.77 261.54,62.39 262.26,64.06 262.98,65.58 263.70,66.36 264.42,66.18 265.15,65.47 265.87,65.28 266.59,65.53 267.31,65.33 268.03,64.67 268.75,63.97 269.47,63.36 270.20,62.56 270.92,61.53 271.64,61.24 272.36,62.42 273.08,64.12 273.80,65.18 274.53,65.59 275.25,65.63 275.97,65.46 276.69,65.52 277.41,65.88 278.13,65.94 278.85,65.43 279.58,64.68 280.30,64.06 281.02,63.52 281.74,62.73 282.46,61.94 283.18,62.14 283.90,63.50 284.63,64.95 285.35,65.73 286.07,65.96 286.79,65.90 287.51,65.84 288.23,65.97 288.95,66.12 289.68,65.99 290.40,65.49 291.12,64.72 291.84,63.90 292.56,63.18 293.28,62.35 294.00,61.47 294.73,61.49 295.45,62.81 296.17,64.35 296.89,65.21 297.61,65.48 298.33,65.49 299.05,65.44 299.78,65.53 300.50,65.65 301.22,65.57 301.94,65.24 302.66,64.69 303.38,64.01 304.10,63.36 304.83,62.58 305.55,61.69 306.27,61.58 306.99,62.80 307.71,64.42 308.43,65.42 309.15,65.78 309.88,65.83 310.60,65.77 311.32,65.82 312.04,65.98 312.76,65.96 313.48,65.64 314.20,65.06 314.93,64.32 315.65,63.57 316.37,62.70 317.09,61.69 317.81,61.37 318.53,62.49 319.25,64.24 319.98,65.40 320.70,65.78 321.42,65.75 322.14,65.66 322.86,65.79 323.58,66.04 324.30,66.06 325.03,65.74 325.75,65.16 326.47,64.40 327.19,63.63 327.91,62.73 328.63,61.58 329.35,61.22 330.08,62.54 330.80,64.47 331.52,65.67 332.24,66.08 332.96,65.97 333.68,65.73 334.40,65.86 335.13,66.13 335.85,66.07 336.57,65.65 337.29,64.91 338.01,63.99 338.73,62.99 339.45,61.74 340.18,60.82 340.90,61.48 341.62,63.53 342.34,65.31 343.06,66.06 343.78,66.09 344.51,65.79 345.23,65.66 345.95,65.87 346.67,65.96 347.39,65.59 348.11,64.84 348.83,63.86 349.56,62.78 350.28,61.48 351.00,60.20 351.72,60.34 352.44,62.46 353.16,64.86 353.88,66.06 354.61,66.26 355.33,66.06 356.05,65.85 356.77,65.91 357.49,66.06 358.21,65.87 358.93,65.21 359.66,64.28 360.38,63.31 361.10,62.04 361.82,60.58 362.54,60.46 363.26,62.54 363.98,65.20 364.71,66.74 365.43,67.26 366.15,67.22 366.87,66.91 367.59,66.81 368.31,66.90 369.03,66.66 369.76,65.82 370.48,64.64 371.20,63.47 371.92,62.13 372.64,60.39 373.36,59.41 374.08,60.78 374.81,63.65 375.53,65.83 376.25,66.75 376.97,66.98 377.69,66.79 378.41,66.62 379.13,66.74 379.86,66.70 380.58,66.08 381.30,65.01 382.02,63.69 382.74,62.33 383.46,60.85 384.18,59.03 384.91,58.00 385.63,59.35 386.35,62.21 387.07,64.42 387.79,65.54 388.51,66.14 389.23,66.42 389.96,66.75 390.68,67.34 391.40,67.72 392.12,67.46 392.84,66.70 393.56,65.69 394.28,64.56 395.01,63.17 395.73,61.41 396.45,60.51 397.17,61.86 397.89,64.44 398.61,66.28 399.33,67.00 400.06,67.03 400.78,66.71 401.50,66.60 402.22,66.77 402.94,66.68 403.66,66.15 404.38,65.25 405.11,64.09 405.83,62.89 406.55,61.52 407.27,60.03 407.99,59.75 408.71,61.58 409.43,64.04 410.16,65.44 410.88,65.75 411.60,65.61 412.32,65.45 413.04,65.56 413.76,65.92 414.48,65.96 415.21,64.94 415.93,63.30 416.65,61.89 417.37,60.64 418.09,60.08 418.81,61.53 419.54,64.21 420.26,66.07 420.98,66.70 421.70,66.74 422.42,66.58 423.14,66.64 423.86,66.92 424.59,66.85 425.31,66.15 426.03,65.02 426.75,63.82 427.47,62.51 428.19,60.85 428.91,59.88 429.64,61.04 430.36,63.58 431.08,65.54 431.80,66.43 432.52,66.68 433.24,66.56 433.96,66.46 434.69,66.57 435.41,66.47 436.13,65.84 436.85,64.79 437.57,63.61 438.29,62.42 439.01,60.98 439.74,59.63 440.46,59.86 441.18,62.16 441.90,64.78 442.62,66.36 443.34,67.13 444.06,67.43 444.79,67.48 445.51,67.71 446.23,67.96 446.95,67.76 447.67,67.12 448.39,66.23 449.11,65.16 449.84,64.06 450.56,65.00 451.28,65.00 452.00,65.00" fill="none" stroke="#2563EB" stroke-width="2.0" stroke-linecap="round" stroke-linejoin="round"/>
<text x="82.0" y="123.0" text-anchor="end" font-family="Arial, Helvetica, sans-serif" font-size="13" font-weight="700" fill="#111827">ACC x</text>
<polyline points="92.00,118.79 92.72,115.88 93.44,118.86 94.16,118.22 94.89,120.70 95.61,116.80 96.33,116.80 97.05,117.15 97.77,121.84 98.49,114.39 99.21,114.88 99.94,123.05 100.66,118.01 101.38,123.19 102.10,115.81 102.82,113.11 103.54,110.34 104.26,113.89 104.99,111.55 105.71,112.26 106.43,105.30 107.15,110.34 107.87,129.51 108.59,115.81 109.31,125.82 110.04,124.40 110.76,115.02 111.48,126.31 112.20,131.57 112.92,125.60 113.64,141.72 114.36,142.43 115.09,134.69 115.81,123.47 116.53,131.99 117.25,114.67 117.97,119.00 118.69,124.61 119.41,111.12 120.14,119.07 120.86,114.53 121.58,110.27 122.30,113.68 123.02,110.62 123.74,105.08 124.46,98.84 125.19,88.83 125.91,86.50 126.63,88.83 127.35,92.66 128.07,102.10 128.79,105.87 129.52,112.18 130.24,114.31 130.96,119.43 131.68,124.61 132.40,115.95 133.12,108.92 133.84,114.74 134.57,129.93 135.29,105.79 136.01,113.39 136.73,128.73 137.45,129.22 138.17,135.68 138.89,127.45 139.62,118.43 140.34,123.90 141.06,135.83 141.78,149.39 142.50,125.89 143.22,124.47 143.94,114.46 144.67,104.52 145.39,117.44 146.11,123.54 146.83,132.13 147.55,142.22 148.27,140.16 148.99,125.32 149.72,132.42 150.44,141.79 151.16,136.11 151.88,128.30 152.60,114.10 153.32,126.88 154.04,126.10 154.77,121.20 155.49,121.20 156.21,136.25 156.93,135.47 157.65,126.45 158.37,127.66 159.09,127.38 159.82,126.53 160.54,126.03 161.26,126.31 161.98,127.38 162.70,128.30 163.42,127.24 164.14,128.37 164.87,130.08 165.59,127.52 166.31,129.29 167.03,126.38 167.75,123.33 168.47,123.83 169.19,126.31 169.92,122.19 170.64,124.47 171.36,124.61 172.08,123.33 172.80,122.12 173.52,124.11 174.24,121.91 174.97,124.75 175.69,119.00 176.41,122.90 177.13,120.85 177.85,119.00 178.57,118.15 179.29,123.69 180.02,118.29 180.74,119.14 181.46,121.84 182.18,119.43 182.90,118.22 183.62,121.34 184.34,124.96 185.07,123.47 185.79,121.77 186.51,120.49 187.23,119.21 187.95,121.48 188.67,123.54 189.39,120.49 190.12,119.28 190.84,116.16 191.56,121.77 192.28,124.04 193.00,122.83 193.72,120.70 194.44,121.63 195.17,116.66 195.89,117.86 196.61,117.51 197.33,117.58 198.05,116.09 198.77,116.37 199.49,118.86 200.22,120.42 200.94,119.57 201.66,120.56 202.38,118.86 203.10,117.44 203.82,115.95 204.55,117.51 205.27,118.29 205.99,118.08 206.71,117.86 207.43,118.86 208.15,119.00 208.87,117.72 209.60,116.59 210.32,116.94 211.04,118.93 211.76,118.36 212.48,118.01 213.20,118.01 213.92,117.51 214.65,117.94 215.37,118.79 216.09,119.14 216.81,120.06 217.53,117.58 218.25,118.36 218.97,119.07 219.70,116.73 220.42,118.86 221.14,119.35 221.86,118.79 222.58,118.86 223.30,117.72 224.02,118.93 224.75,120.06 225.47,118.43 226.19,122.41 226.91,115.73 227.63,118.22 228.35,115.66 229.07,117.08 229.80,118.22 230.52,118.36 231.24,119.78 231.96,119.14 232.68,117.01 233.40,117.01 234.12,116.73 234.85,116.94 235.57,118.22 236.29,118.43 237.01,117.58 237.73,119.78 238.45,118.15 239.17,118.22 239.90,118.15 240.62,119.21 241.34,119.00 242.06,119.43 242.78,117.94 243.50,119.85 244.22,117.23 244.95,117.79 245.67,119.07 246.39,117.79 247.11,117.37 247.83,118.01 248.55,117.86 249.27,119.57 250.00,117.94 250.72,118.36 251.44,118.93 252.16,118.22 252.88,117.94 253.60,117.94 254.32,119.21 255.05,117.86 255.77,120.35 256.49,117.86 257.21,118.93 257.93,118.79 258.65,119.50 259.37,118.15 260.10,119.50 260.82,117.94 261.54,119.57 262.26,118.29 262.98,121.20 263.70,119.43 264.42,116.80 265.15,119.78 265.87,118.79 266.59,119.43 267.31,119.92 268.03,119.92 268.75,116.87 269.47,118.93 270.20,120.06 270.92,117.94 271.64,115.59 272.36,117.94 273.08,120.42 273.80,120.49 274.53,118.65 275.25,119.50 275.97,119.64 276.69,119.35 277.41,120.21 278.13,120.28 278.85,118.93 279.58,119.35 280.30,116.66 281.02,119.50 281.74,119.50 282.46,117.65 283.18,117.51 283.90,119.35 284.63,120.56 285.35,121.27 286.07,119.71 286.79,120.06 287.51,119.43 288.23,117.79 288.95,118.65 289.68,120.06 290.40,118.15 291.12,116.87 291.84,119.57 292.56,121.13 293.28,119.57 294.00,118.08 294.73,118.15 295.45,118.72 296.17,116.80 296.89,119.50 297.61,118.72 298.33,119.35 299.05,119.64 299.78,119.64 300.50,120.85 301.22,118.57 301.94,118.43 302.66,117.51 303.38,119.78 304.10,117.37 304.83,116.80 305.55,118.15 306.27,117.86 306.99,119.28 307.71,118.79 308.43,118.93 309.15,118.72 309.88,117.79 310.60,119.28 311.32,118.29 312.04,117.30 312.76,119.57 313.48,117.58 314.20,117.94 314.93,117.37 315.65,119.71 316.37,117.44 317.09,119.14 317.81,119.92 318.53,119.14 319.25,119.00 319.98,121.20 320.70,119.64 321.42,119.43 322.14,118.57 322.86,118.36 323.58,118.79 324.30,118.43 325.03,117.51 325.75,119.14 326.47,117.65 327.19,118.15 327.91,119.07 328.63,118.36 329.35,118.01 330.08,121.20 330.80,119.35 331.52,119.21 332.24,118.36 332.96,120.14 333.68,120.99 334.40,118.72 335.13,118.79 335.85,118.50 336.57,119.64 337.29,118.72 338.01,118.65 338.73,119.43 339.45,118.29 340.18,116.23 340.90,119.85 341.62,120.06 342.34,118.43 343.06,119.50 343.78,119.28 344.51,120.35 345.23,119.07 345.95,119.14 346.67,119.64 347.39,119.14 348.11,118.57 348.83,119.28 349.56,120.92 350.28,118.22 351.00,119.07 351.72,119.92 352.44,120.06 353.16,120.92 353.88,120.56 354.61,116.94 355.33,118.57 356.05,119.35 356.77,119.21 357.49,117.08 358.21,119.64 358.93,116.23 359.66,119.35 360.38,120.99 361.10,117.58 361.82,117.30 362.54,119.78 363.26,119.14 363.98,118.01 364.71,122.34 365.43,118.50 366.15,119.14 366.87,119.21 367.59,119.64 368.31,118.50 369.03,119.35 369.76,119.50 370.48,119.71 371.20,120.63 371.92,118.29 372.64,118.86 373.36,118.08 374.08,120.70 374.81,119.35 375.53,119.85 376.25,119.50 376.97,119.00 377.69,118.01 378.41,118.65 379.13,117.44 379.86,118.15 380.58,118.29 381.30,118.15 382.02,118.29 382.74,119.92 383.46,118.72 384.18,117.79 384.91,118.01 385.63,121.13 386.35,120.21 387.07,121.06 387.79,118.72 388.51,119.14 389.23,117.58 389.96,118.22 390.68,118.65 391.40,120.28 392.12,119.92 392.84,119.71 393.56,120.99 394.28,121.70 395.01,116.44 395.73,118.08 396.45,117.01 397.17,120.35 397.89,120.21 398.61,121.20 399.33,117.94 400.06,117.44 400.78,118.65 401.50,117.15 402.22,118.22 402.94,120.14 403.66,117.44 404.38,120.06 405.11,118.86 405.83,119.28 406.55,119.28 407.27,118.65 407.99,119.35 408.71,118.93 409.43,117.72 410.16,117.86 410.88,119.28 411.60,118.79 412.32,117.01 413.04,118.08 413.76,120.42 414.48,118.72 415.21,118.93 415.93,117.51 416.65,120.35 417.37,118.43 418.09,116.59 418.81,118.01 419.54,119.14 420.26,119.14 420.98,117.58 421.70,119.43 422.42,118.22 423.14,120.35 423.86,117.30 424.59,119.92 425.31,118.65 426.03,120.85 426.75,119.35 427.47,120.56 428.19,117.01 428.91,120.28 429.64,118.57 430.36,118.57 431.08,119.21 431.80,118.86 432.52,118.86 433.24,121.34 433.96,120.06 434.69,121.06 435.41,117.15 436.13,118.15 436.85,119.35 437.57,120.28 438.29,118.65 439.01,116.02 439.74,117.65 440.46,119.21 441.18,120.49 441.90,117.79 442.62,118.50 443.34,120.92 444.06,119.50 444.79,120.06 445.51,120.14 446.23,119.50 446.95,119.99 447.67,119.28 448.39,118.79 449.11,118.29 449.84,120.92 450.56,119.00 451.28,119.00 452.00,119.00" fill="none" stroke="#111827" stroke-width="2.0" stroke-linecap="round" stroke-linejoin="round"/>
<text x="82.0" y="177.0" text-anchor="end" font-family="Arial, Helvetica, sans-serif" font-size="13" font-weight="700" fill="#111827">ACC y</text>
<polyline points="92.00,173.60 92.72,172.76 93.44,172.27 94.16,172.97 94.89,172.00 95.61,172.73 96.33,174.06 97.05,171.55 97.77,171.22 98.49,172.61 99.21,171.67 99.94,168.50 100.66,168.56 101.38,172.15 102.10,171.37 102.82,162.57 103.54,160.09 104.26,160.00 104.99,156.22 105.71,157.65 106.43,151.75 107.15,160.70 107.87,160.03 108.59,143.83 109.31,148.25 110.04,149.30 110.76,150.48 111.48,158.19 112.20,159.61 112.92,157.16 113.64,165.11 114.36,168.98 115.09,170.91 115.81,157.55 116.53,168.16 117.25,170.67 117.97,159.94 118.69,161.15 119.41,167.08 120.14,165.66 120.86,157.04 121.58,156.98 122.30,160.82 123.02,159.34 123.74,155.44 124.46,155.44 125.19,148.52 125.91,151.72 126.63,160.37 127.35,162.30 128.07,157.95 128.79,160.46 129.52,174.60 130.24,170.19 130.96,169.16 131.68,172.64 132.40,179.41 133.12,178.80 133.84,171.85 134.57,179.89 135.29,178.23 136.01,175.09 136.73,176.72 137.45,171.07 138.17,175.12 138.89,180.41 139.62,173.48 140.34,170.91 141.06,177.47 141.78,184.88 142.50,179.92 143.22,172.09 143.94,180.86 144.67,181.58 145.39,173.97 146.11,152.11 146.83,168.65 147.55,149.97 148.27,156.10 148.99,167.89 149.72,171.73 150.44,173.82 151.16,162.18 151.88,156.32 152.60,177.99 153.32,168.01 154.04,159.13 154.77,160.70 155.49,167.62 156.21,172.61 156.93,173.12 157.65,170.52 158.37,171.10 159.09,170.97 159.82,173.12 160.54,170.64 161.26,170.31 161.98,171.64 162.70,172.91 163.42,171.19 164.14,173.09 164.87,168.25 165.59,171.22 166.31,171.01 167.03,169.89 167.75,171.82 168.47,174.15 169.19,174.24 169.92,172.91 170.64,172.94 171.36,173.85 172.08,174.30 172.80,172.00 173.52,172.55 174.24,172.00 174.97,172.12 175.69,172.34 176.41,173.39 177.13,173.91 177.85,172.43 178.57,172.61 179.29,174.45 180.02,173.39 180.74,174.78 181.46,174.54 182.18,173.15 182.90,174.57 183.62,174.21 184.34,173.06 185.07,171.31 185.79,173.73 186.51,173.03 187.23,173.15 187.95,172.43 188.67,171.91 189.39,172.67 190.12,172.55 190.84,174.42 191.56,173.24 192.28,172.43 193.00,173.42 193.72,172.79 194.44,170.97 195.17,172.82 195.89,173.12 196.61,173.66 197.33,173.03 198.05,172.82 198.77,172.79 199.49,173.48 200.22,174.54 200.94,174.15 201.66,173.12 202.38,173.09 203.10,172.73 203.82,173.39 204.55,173.33 205.27,172.70 205.99,173.48 206.71,174.48 207.43,172.40 208.15,173.66 208.87,172.79 209.60,173.06 210.32,173.51 211.04,173.73 211.76,173.94 212.48,172.73 213.20,174.21 213.92,172.97 214.65,174.66 215.37,171.73 216.09,172.91 216.81,173.48 217.53,173.91 218.25,172.24 218.97,172.91 219.70,172.67 220.42,173.21 221.14,173.21 221.86,172.82 222.58,174.09 223.30,172.76 224.02,173.06 224.75,173.15 225.47,173.42 226.19,173.12 226.91,173.54 227.63,173.45 228.35,173.12 229.07,172.85 229.80,173.15 230.52,172.82 231.24,173.51 231.96,172.82 232.68,173.42 233.40,173.48 234.12,172.52 234.85,174.06 235.57,173.12 236.29,173.48 237.01,173.21 237.73,172.73 238.45,172.24 239.17,173.00 239.90,173.88 240.62,173.12 241.34,173.51 242.06,173.00 242.78,173.57 243.50,172.97 244.22,173.57 244.95,172.73 245.67,173.54 246.39,173.82 247.11,172.91 247.83,173.15 248.55,172.76 249.27,172.46 250.00,173.33 250.72,173.12 251.44,173.39 252.16,172.91 252.88,173.63 253.60,173.82 254.32,173.73 255.05,173.00 255.77,173.30 256.49,173.27 257.21,173.33 257.93,172.91 258.65,173.73 259.37,173.82 260.10,173.21 260.82,172.76 261.54,173.85 262.26,173.06 262.98,173.06 263.70,174.51 264.42,173.60 265.15,172.46 265.87,173.48 266.59,173.66 267.31,172.70 268.03,173.88 268.75,173.21 269.47,173.82 270.20,172.64 270.92,172.97 271.64,173.30 272.36,174.12 273.08,172.64 273.80,174.48 274.53,172.03 275.25,173.73 275.97,173.00 276.69,173.36 277.41,173.45 278.13,173.00 278.85,174.18 279.58,172.24 280.30,173.39 281.02,172.34 281.74,172.43 282.46,173.39 283.18,173.06 283.90,173.76 284.63,172.43 285.35,173.70 286.07,172.58 286.79,172.97 287.51,173.36 288.23,172.85 288.95,173.27 289.68,172.61 290.40,173.85 291.12,172.58 291.84,173.15 292.56,173.00 293.28,172.73 294.00,173.39 294.73,174.24 295.45,173.18 296.17,172.52 296.89,173.33 297.61,172.52 298.33,174.42 299.05,172.91 299.78,173.18 300.50,172.85 301.22,172.58 301.94,172.24 302.66,172.97 303.38,172.64 304.10,173.88 304.83,173.30 305.55,172.91 306.27,172.97 306.99,173.63 307.71,172.21 308.43,173.85 309.15,172.67 309.88,173.85 310.60,173.24 311.32,173.06 312.04,172.61 312.76,173.18 313.48,172.43 314.20,172.97 314.93,173.45 315.65,172.76 316.37,172.46 317.09,173.36 317.81,172.94 318.53,173.48 319.25,173.03 319.98,172.91 320.70,172.85 321.42,173.18 322.14,172.49 322.86,173.09 323.58,172.82 324.30,172.82 325.03,173.42 325.75,172.82 326.47,173.42 327.19,173.18 327.91,173.39 328.63,173.03 329.35,172.79 330.08,172.30 330.80,173.30 331.52,172.67 332.24,173.39 332.96,173.27 333.68,173.91 334.40,172.88 335.13,172.82 335.85,172.79 336.57,174.12 337.29,173.18 338.01,173.12 338.73,173.51 339.45,174.30 340.18,173.36 340.90,172.67 341.62,173.94 342.34,173.00 343.06,173.09 343.78,173.39 344.51,173.24 345.23,173.09 345.95,171.97 346.67,172.73 347.39,173.24 348.11,173.06 348.83,173.60 349.56,172.82 350.28,172.06 351.00,173.42 351.72,173.36 352.44,171.94 353.16,173.60 353.88,172.58 354.61,173.00 355.33,172.73 356.05,173.66 356.77,173.76 357.49,172.30 358.21,173.30 358.93,172.73 359.66,173.18 360.38,173.03 361.10,173.88 361.82,173.60 362.54,173.12 363.26,173.06 363.98,172.06 364.71,173.06 365.43,172.37 366.15,173.30 366.87,173.18 367.59,172.12 368.31,172.27 369.03,172.61 369.76,172.76 370.48,173.39 371.20,173.18 371.92,172.70 372.64,172.61 373.36,172.24 374.08,173.48 374.81,172.46 375.53,173.66 376.25,172.30 376.97,173.15 377.69,172.67 378.41,173.09 379.13,173.09 379.86,172.85 380.58,173.09 381.30,172.97 382.02,172.27 382.74,173.03 383.46,172.61 384.18,173.42 384.91,173.54 385.63,172.94 386.35,172.70 387.07,173.09 387.79,172.12 388.51,173.33 389.23,172.24 389.96,171.79 390.68,172.52 391.40,172.34 392.12,173.30 392.84,172.61 393.56,173.15 394.28,172.70 395.01,172.58 395.73,173.00 396.45,172.55 397.17,173.36 397.89,172.88 398.61,172.70 399.33,173.18 400.06,173.79 400.78,172.82 401.50,172.91 402.22,173.63 402.94,172.94 403.66,174.00 404.38,173.30 405.11,174.42 405.83,172.82 406.55,174.09 407.27,173.12 407.99,172.76 408.71,172.79 409.43,173.15 410.16,173.18 410.88,173.45 411.60,172.82 412.32,172.18 413.04,172.18 413.76,173.70 414.48,173.21 415.21,173.73 415.93,173.54 416.65,172.40 417.37,173.51 418.09,172.58 418.81,172.61 419.54,172.46 420.26,173.42 420.98,173.06 421.70,173.94 422.42,172.85 423.14,173.36 423.86,173.82 424.59,173.79 425.31,173.06 426.03,174.09 426.75,173.70 427.47,173.60 428.19,172.94 428.91,173.21 429.64,173.15 430.36,173.57 431.08,173.63 431.80,172.85 432.52,172.67 433.24,173.45 433.96,173.76 434.69,172.30 435.41,173.63 436.13,173.66 436.85,172.09 437.57,173.70 438.29,173.12 439.01,172.06 439.74,172.82 440.46,173.12 441.18,173.36 441.90,172.76 442.62,173.79 443.34,173.09 444.06,173.45 444.79,172.85 445.51,172.55 446.23,172.61 446.95,172.97 447.67,172.64 448.39,173.09 449.11,173.09 449.84,172.94 450.56,173.00 451.28,173.00 452.00,173.00" fill="none" stroke="#F97316" stroke-width="2.0" stroke-linecap="round" stroke-linejoin="round"/>
<text x="82.0" y="231.0" text-anchor="end" font-family="Arial, Helvetica, sans-serif" font-size="13" font-weight="700" fill="#111827">ACC z</text>
<polyline points="92.00,226.55 92.72,227.36 93.44,227.00 94.16,226.73 94.89,225.27 95.61,226.45 96.33,225.55 97.05,223.96 97.77,222.55 98.49,225.68 99.21,220.73 99.94,222.46 100.66,227.91 101.38,222.73 102.10,220.55 102.82,215.60 103.54,220.28 104.26,215.37 104.99,203.33 105.71,213.10 106.43,208.74 107.15,208.06 107.87,213.37 108.59,208.19 109.31,195.52 110.04,205.79 110.76,205.11 111.48,206.65 112.20,207.01 112.92,207.56 113.64,212.56 114.36,216.73 115.09,207.70 115.81,216.83 116.53,216.78 117.25,213.83 117.97,215.14 118.69,210.10 119.41,206.88 120.14,214.15 120.86,216.19 121.58,213.78 122.30,217.28 123.02,217.82 123.74,215.42 124.46,208.51 125.19,209.88 125.91,212.24 126.63,211.42 127.35,214.60 128.07,223.96 128.79,221.82 129.52,215.69 130.24,225.91 130.96,224.37 131.68,226.50 132.40,223.96 133.12,228.18 133.84,237.13 134.57,228.23 135.29,229.77 136.01,229.68 136.73,216.19 137.45,233.50 138.17,236.58 138.89,230.00 139.62,228.95 140.34,230.32 141.06,228.91 141.78,235.99 142.50,232.54 143.22,219.64 143.94,214.01 144.67,237.72 145.39,223.05 146.11,228.50 146.83,219.51 147.55,208.33 148.27,216.19 148.99,223.96 149.72,214.74 150.44,213.55 151.16,214.55 151.88,212.33 152.60,216.33 153.32,220.50 154.04,216.92 154.77,217.96 155.49,221.91 156.21,220.23 156.93,220.55 157.65,223.77 158.37,224.00 159.09,223.32 159.82,223.96 160.54,223.50 161.26,224.05 161.98,224.96 162.70,224.73 163.42,225.55 164.14,223.05 164.87,222.55 165.59,223.68 166.31,222.19 167.03,222.78 167.75,228.77 168.47,227.55 169.19,225.27 169.92,225.14 170.64,226.45 171.36,229.27 172.08,227.09 172.80,228.00 173.52,225.18 174.24,227.27 174.97,224.87 175.69,225.55 176.41,228.91 177.13,226.36 177.85,226.73 178.57,225.59 179.29,228.73 180.02,227.86 180.74,229.36 181.46,228.68 182.18,228.09 182.90,228.73 183.62,228.95 184.34,226.09 185.07,226.59 185.79,227.14 186.51,228.14 187.23,225.27 187.95,225.55 188.67,227.00 189.39,227.32 190.12,227.45 190.84,226.41 191.56,227.95 192.28,225.86 193.00,226.95 193.72,228.00 194.44,226.82 195.17,227.50 195.89,228.32 196.61,227.27 197.33,228.36 198.05,227.23 198.77,226.91 199.49,228.41 200.22,228.14 200.94,228.82 201.66,227.77 202.38,227.32 203.10,227.64 203.82,227.77 204.55,227.00 205.27,226.82 205.99,228.27 206.71,228.45 207.43,227.18 208.15,228.18 208.87,227.09 209.60,228.91 210.32,227.95 211.04,227.64 211.76,226.91 212.48,227.64 213.20,228.86 213.92,227.23 214.65,228.45 215.37,227.86 216.09,226.41 216.81,228.50 217.53,227.05 218.25,227.45 218.97,225.91 219.70,227.68 220.42,227.95 221.14,227.09 221.86,228.09 222.58,227.23 223.30,227.59 224.02,228.36 224.75,226.32 225.47,227.09 226.19,227.00 226.91,227.55 227.63,227.86 228.35,226.27 229.07,227.50 229.80,227.27 230.52,228.68 231.24,228.32 231.96,228.18 232.68,226.23 233.40,226.64 234.12,226.95 234.85,227.50 235.57,227.00 236.29,227.64 237.01,228.91 237.73,227.82 238.45,227.82 239.17,227.00 239.90,227.59 240.62,227.50 241.34,227.36 242.06,227.68 242.78,227.23 243.50,227.91 244.22,226.95 244.95,227.59 245.67,226.45 246.39,227.05 247.11,227.91 247.83,227.32 248.55,227.18 249.27,226.41 250.00,227.36 250.72,226.77 251.44,227.95 252.16,227.23 252.88,226.41 253.60,228.36 254.32,227.59 255.05,226.59 255.77,227.45 256.49,227.05 257.21,226.05 257.93,228.45 258.65,227.09 259.37,227.05 260.10,227.73 260.82,228.32 261.54,227.41 262.26,226.45 262.98,226.32 263.70,228.23 264.42,226.27 265.15,227.05 265.87,227.32 266.59,226.50 267.31,227.14 268.03,228.82 268.75,227.68 269.47,226.95 270.20,226.68 270.92,226.86 271.64,229.91 272.36,227.05 273.08,227.82 273.80,226.95 274.53,226.82 275.25,229.32 275.97,227.68 276.69,228.09 277.41,225.96 278.13,226.50 278.85,228.82 279.58,227.18 280.30,229.27 281.02,226.00 281.74,224.77 282.46,228.64 283.18,227.36 283.90,226.55 284.63,227.36 285.35,228.18 286.07,226.45 286.79,228.54 287.51,228.18 288.23,226.14 288.95,226.50 289.68,227.50 290.40,226.77 291.12,225.27 291.84,227.77 292.56,228.23 293.28,226.73 294.00,228.50 294.73,227.36 295.45,226.73 296.17,226.77 296.89,226.68 297.61,226.45 298.33,227.73 299.05,226.91 299.78,227.64 300.50,226.32 301.22,227.50 301.94,226.55 302.66,225.14 303.38,227.68 304.10,226.86 304.83,227.14 305.55,227.36 306.27,227.05 306.99,226.00 307.71,227.68 308.43,226.73 309.15,227.18 309.88,227.82 310.60,226.64 311.32,227.27 312.04,225.68 312.76,227.27 313.48,226.95 314.20,226.82 314.93,228.27 315.65,227.64 316.37,226.27 317.09,227.23 317.81,226.45 318.53,226.95 319.25,227.64 319.98,227.23 320.70,228.00 321.42,227.73 322.14,226.27 322.86,227.50 323.58,227.32 324.30,226.95 325.03,226.73 325.75,226.18 326.47,227.09 327.19,226.00 327.91,227.59 328.63,227.14 329.35,228.32 330.08,228.36 330.80,227.59 331.52,227.36 332.24,226.45 332.96,226.59 333.68,227.86 334.40,227.00 335.13,226.82 335.85,227.59 336.57,227.00 337.29,227.32 338.01,227.45 338.73,227.55 339.45,226.73 340.18,226.32 340.90,226.82 341.62,227.82 342.34,226.45 343.06,227.00 343.78,227.27 344.51,228.23 345.23,226.55 345.95,226.32 346.67,227.27 347.39,226.55 348.11,227.59 348.83,229.18 349.56,226.86 350.28,227.45 351.00,226.41 351.72,227.36 352.44,226.09 353.16,227.41 353.88,227.23 354.61,226.77 355.33,227.27 356.05,227.68 356.77,225.59 357.49,226.32 358.21,226.18 358.93,226.73 359.66,227.95 360.38,227.05 361.10,226.86 361.82,225.91 362.54,227.14 363.26,227.09 363.98,226.86 364.71,227.09 365.43,227.36 366.15,226.73 366.87,227.36 367.59,227.18 368.31,227.18 369.03,226.36 369.76,226.59 370.48,226.91 371.20,227.77 371.92,225.91 372.64,227.18 373.36,226.86 374.08,227.00 374.81,228.27 375.53,226.68 376.25,227.50 376.97,226.50 377.69,227.09 378.41,227.18 379.13,226.32 379.86,227.23 380.58,226.77 381.30,227.45 382.02,227.09 382.74,227.32 383.46,225.82 384.18,227.36 384.91,226.68 385.63,227.18 386.35,227.45 387.07,226.14 387.79,226.41 388.51,227.36 389.23,226.45 389.96,226.09 390.68,226.68 391.40,226.00 392.12,226.86 392.84,227.18 393.56,228.23 394.28,226.55 395.01,226.27 395.73,227.14 396.45,227.23 397.17,227.41 397.89,227.45 398.61,228.27 399.33,228.09 400.06,228.18 400.78,227.55 401.50,225.96 402.22,226.95 402.94,227.59 403.66,226.82 404.38,227.82 405.11,227.18 405.83,227.23 406.55,227.45 407.27,226.45 407.99,226.82 408.71,226.86 409.43,226.82 410.16,227.55 410.88,228.27 411.60,227.18 412.32,227.05 413.04,226.82 413.76,225.82 414.48,226.59 415.21,226.91 415.93,226.95 416.65,227.59 417.37,226.91 418.09,227.32 418.81,227.09 419.54,226.59 420.26,226.55 420.98,226.68 421.70,226.86 422.42,226.14 423.14,226.14 423.86,227.27 424.59,226.05 425.31,226.73 426.03,227.05 426.75,227.23 427.47,226.68 428.19,227.36 428.91,226.23 429.64,226.82 430.36,226.86 431.08,224.73 431.80,226.64 432.52,228.45 433.24,227.50 433.96,226.41 434.69,227.18 435.41,226.77 436.13,226.00 436.85,226.14 437.57,227.55 438.29,226.77 439.01,226.50 439.74,226.23 440.46,226.00 441.18,227.45 441.90,227.09 442.62,225.18 443.34,228.18 444.06,225.77 444.79,226.55 445.51,226.27 446.23,225.86 446.95,225.55 447.67,226.50 448.39,227.23 449.11,227.18 449.84,227.36 450.56,227.00 451.28,227.00 452.00,227.00" fill="none" stroke="#2563EB" stroke-width="2.0" stroke-linecap="round" stroke-linejoin="round"/>
<text x="82.0" y="285.0" text-anchor="end" font-family="Arial, Helvetica, sans-serif" font-size="13" font-weight="700" fill="#111827">E4 BVP</text>
<polyline points="92.00,281.07 92.56,281.12 93.13,281.19 93.69,281.29 94.25,281.42 94.82,281.57 95.38,281.73 95.94,281.89 96.51,282.06 97.07,282.25 97.63,282.48 98.20,282.77 98.76,283.15 99.32,283.62 99.89,284.15 100.45,284.72 101.01,285.24 101.58,285.62 102.14,285.76 102.70,285.59 103.27,285.08 103.83,284.28 104.39,283.28 104.96,282.20 105.52,281.16 106.08,280.27 106.65,279.58 107.21,279.10 107.77,278.81 108.34,278.68 108.90,278.65 109.46,278.69 110.03,278.77 110.59,278.88 111.15,278.99 111.72,279.08 112.28,279.14 112.85,279.17 113.41,279.17 113.97,279.15 114.54,279.14 115.10,279.16 115.66,279.26 116.23,279.44 116.79,279.73 117.35,280.10 117.92,280.54 118.48,281.03 119.04,281.53 119.61,282.03 120.17,282.54 120.73,283.06 121.30,283.65 121.86,284.32 122.42,285.07 122.99,285.88 123.55,286.65 124.11,287.28 124.68,287.69 125.24,287.78 125.80,287.55 126.37,287.01 126.93,286.24 127.49,285.32 128.06,284.35 128.62,283.41 129.18,282.54 129.75,281.77 130.31,281.11 130.87,280.53 131.44,279.99 132.00,279.44 132.56,278.82 133.13,278.09 133.69,277.25 134.25,276.33 134.82,275.45 135.38,274.69 135.94,274.15 136.51,273.85 137.07,273.78 137.63,273.84 138.20,273.97 138.76,274.10 139.32,274.26 139.89,274.54 140.45,275.07 141.01,275.96 141.58,277.25 142.14,278.84 142.70,280.52 143.27,282.01 143.83,283.03 144.39,283.36 144.96,282.97 145.52,282.02 146.08,280.85 146.65,279.97 147.21,279.87 147.77,280.92 148.34,283.15 148.90,286.22 149.46,289.51 150.03,292.29 150.59,293.99 151.15,294.36 151.72,293.51 152.28,291.81 152.85,289.77 153.41,287.82 153.97,286.24 154.54,285.12 155.10,284.43 155.66,284.07 156.23,283.89 156.79,283.74 157.35,283.47 157.92,282.93 158.48,281.99 159.04,280.55 159.61,278.62 160.17,276.31 160.73,273.80 161.30,271.32 161.86,269.06 162.42,267.15 162.99,265.60 163.55,264.36 164.11,263.33 164.68,262.45 165.24,261.72 165.80,261.23 166.37,261.11 166.93,261.47 167.49,262.41 168.06,263.93 168.62,265.95 169.18,268.35 169.75,270.97 170.31,273.68 170.87,276.36 171.44,278.90 172.00,281.19 172.56,283.13 173.13,284.64 173.69,285.67 174.25,286.21 174.82,286.35 175.38,286.21 175.94,285.96 176.51,285.73 177.07,285.62 177.63,285.64 178.20,285.76 178.76,285.94 179.32,286.11 179.89,286.25 180.45,286.36 181.01,286.47 181.58,286.61 182.14,286.81 182.70,287.09 183.27,287.43 183.83,287.83 184.39,288.30 184.96,288.83 185.52,289.43 186.08,290.10 186.65,290.81 187.21,291.54 187.77,292.24 188.34,292.88 188.90,293.43 189.46,293.91 190.03,294.32 190.59,294.71 191.15,295.07 191.72,295.40 192.28,295.65 192.85,295.75 193.41,295.61 193.97,295.15 194.54,294.31 195.10,293.08 195.66,291.49 196.23,289.62 196.79,287.60 197.35,285.51 197.92,283.47 198.48,281.51 199.04,279.67 199.61,277.98 200.17,276.45 200.73,275.12 201.30,274.02 201.86,273.16 202.42,272.51 202.99,272.02 203.55,271.59 204.11,271.12 204.68,270.51 205.24,269.71 205.80,268.72 206.37,267.59 206.93,266.43 207.49,265.37 208.06,264.55 208.62,264.11 209.18,264.12 209.75,264.60 210.31,265.46 210.87,266.60 211.44,267.86 212.00,269.09 212.56,270.21 213.13,271.19 213.69,272.08 214.25,272.94 214.82,273.84 215.38,274.81 215.94,275.85 216.51,276.91 217.07,277.93 217.63,278.85 218.20,279.67 218.76,280.37 219.32,280.96 219.89,281.45 220.45,281.84 221.01,282.16 221.58,282.40 222.14,282.62 222.70,282.83 223.27,283.07 223.83,283.35 224.39,283.64 224.96,283.92 225.52,284.14 226.08,284.29 226.65,284.38 227.21,284.44 227.77,284.52 228.34,284.67 228.90,284.90 229.46,285.19 230.03,285.47 230.59,285.69 231.15,285.80 231.72,285.83 232.28,285.85 232.85,285.97 233.41,286.26 233.97,286.78 234.54,287.50 235.10,288.30 235.66,289.03 236.23,289.52 236.79,289.64 237.35,289.35 237.92,288.65 238.48,287.64 239.04,286.45 239.61,285.21 240.17,284.03 240.73,283.01 241.30,282.19 241.86,281.57 242.42,281.12 242.99,280.79 243.55,280.50 244.11,280.19 244.68,279.81 245.24,279.33 245.80,278.75 246.37,278.09 246.93,277.39 247.49,276.71 248.06,276.11 248.62,275.64 249.18,275.34 249.75,275.22 250.31,275.28 250.87,275.49 251.44,275.80 252.00,276.15 252.56,276.52 253.13,276.91 253.69,277.35 254.25,277.90 254.82,278.58 255.38,279.42 255.94,280.37 256.51,281.36 257.07,282.26 257.63,282.95 258.20,283.34 258.76,283.35 259.32,283.00 259.89,282.35 260.45,281.50 261.01,280.58 261.58,279.71 262.14,278.98 262.70,278.46 263.27,278.18 263.83,278.11 264.39,278.22 264.96,278.44 265.52,278.70 266.08,278.94 266.65,279.13 267.21,279.25 267.77,279.32 268.34,279.38 268.90,279.46 269.46,279.58 270.03,279.71 270.59,279.84 271.15,279.96 271.72,280.07 272.28,280.22 272.85,280.47 273.41,280.89 273.97,281.52 274.54,282.37 275.10,283.38 275.66,284.45 276.23,285.47 276.79,286.28 277.35,286.78 277.92,286.88 278.48,286.58 279.04,285.92 279.61,284.99 280.17,283.93 280.73,282.86 281.30,281.87 281.86,281.04 282.42,280.40 282.99,279.98 283.55,279.75 284.11,279.70 284.68,279.78 285.24,279.96 285.80,280.18 286.37,280.40 286.93,280.59 287.49,280.75 288.06,280.89 288.62,281.02 289.18,281.18 289.75,281.36 290.31,281.56 290.87,281.77 291.44,281.97 292.00,282.18 292.56,282.42 293.13,282.76 293.69,283.23 294.25,283.89 294.82,284.70 295.38,285.60 295.94,286.44 296.51,287.07 297.07,287.30 297.63,287.01 298.20,286.13 298.76,284.71 299.32,282.84 299.89,280.72 300.45,278.53 301.01,276.47 301.58,274.70 302.14,273.31 302.70,272.36 303.27,271.82 303.83,271.65 304.39,271.78 304.96,272.14 305.52,272.65 306.08,273.25 306.65,273.87 307.21,274.45 307.77,274.98 308.34,275.43 308.90,275.83 309.46,276.22 310.03,276.64 310.59,277.11 311.15,277.64 311.72,278.24 312.28,278.92 312.85,279.70 313.41,280.59 313.97,281.62 314.54,282.77 315.10,283.97 315.66,285.14 316.23,286.13 316.79,286.83 317.35,287.17 317.92,287.12 318.48,286.71 319.04,286.02 319.61,285.11 320.17,284.08 320.73,282.97 321.30,281.88 321.86,280.89 322.42,280.08 322.99,279.53 323.55,279.28 324.11,279.32 324.68,279.58 325.24,279.97 325.80,280.40 326.37,280.80 326.93,281.16 327.49,281.48 328.06,281.80 328.62,282.15 329.18,282.51 329.75,282.85 330.31,283.14 330.87,283.33 331.44,283.42 332.00,283.44 332.56,283.44 333.13,283.48 333.69,283.60 334.25,283.80 334.82,284.02 335.38,284.17 335.94,284.13 336.51,283.79 337.07,283.08 337.63,282.00 338.20,280.61 338.76,279.03 339.32,277.39 339.89,275.84 340.45,274.50 341.01,273.46 341.58,272.76 342.14,272.43 342.70,272.47 343.27,272.86 343.83,273.51 344.39,274.33 344.96,275.20 345.52,276.01 346.08,276.70 346.65,277.27 347.21,277.78 347.77,278.29 348.34,278.87 348.90,279.55 349.46,280.30 350.03,281.07 350.59,281.80 351.15,282.45 351.72,283.03 352.28,283.57 352.85,284.16 353.41,284.84 353.97,285.66 354.54,286.58 355.10,287.51 355.66,288.29 356.23,288.80 356.79,288.89 357.35,288.51 357.92,287.69 358.48,286.51 359.04,285.11 359.61,283.65 360.17,282.27 360.73,281.04 361.30,280.04 361.86,279.29 362.42,278.80 362.99,278.54 363.55,278.49 364.11,278.59 364.68,278.77 365.24,278.94 365.80,279.05 366.37,279.08 366.93,279.01 367.49,278.91 368.06,278.83 368.62,278.82 369.18,278.93 369.75,279.15 370.31,279.46 370.87,279.83 371.44,280.26 372.00,280.74 372.56,281.29 373.13,281.95 373.69,282.73 374.25,283.62 374.82,284.59 375.38,285.57 375.94,286.43 376.51,287.06 377.07,287.35 377.63,287.23 378.20,286.70 378.76,285.81 379.32,284.64 379.89,283.31 380.45,281.94 381.01,280.61 381.58,279.42 382.14,278.41 382.70,277.65 383.27,277.14 383.83,276.88 384.39,276.83 384.96,276.92 385.52,277.07 386.08,277.21 386.65,277.27 387.21,277.27 387.77,277.24 388.34,277.24 388.90,277.31 389.46,277.48 390.03,277.73 390.59,278.04 391.15,278.37 391.72,278.71 392.28,279.08 392.85,279.54 393.41,280.16 393.97,280.98 394.54,282.00 395.10,283.15 395.66,284.32 396.23,285.32 396.79,286.00 397.35,286.24 397.92,285.96 398.48,285.20 399.04,284.06 399.61,282.69 400.17,281.24 400.73,279.85 401.30,278.60 401.86,277.55 402.42,276.73 402.99,276.19 403.55,275.91 404.11,275.89 404.68,276.08 405.24,276.41 405.80,276.79 406.37,277.13 406.93,277.38 407.49,277.54 408.06,277.66 408.62,277.79 409.18,278.01 409.75,278.32 410.31,278.71 410.87,279.15 411.44,279.62 412.00,280.09 412.56,280.59 413.13,281.18 413.69,281.91 414.25,282.80 414.82,283.84 415.38,284.96 415.94,286.05 416.51,286.95 417.07,287.52 417.63,287.64 418.20,287.27 418.76,286.44 419.32,285.27 419.89,283.90 420.45,282.48 421.01,281.15 421.58,279.97 422.14,278.98 422.70,278.20 423.27,277.63 423.83,277.28 424.39,277.13 424.96,277.16 425.52,277.32 426.08,277.53 426.65,277.71 427.21,277.82 427.77,277.86 428.34,277.87 428.90,277.91 429.46,278.04 430.03,278.27 430.59,278.62 431.15,279.02 431.72,279.43 432.28,279.82 432.85,280.18 433.41,280.54 433.97,280.96 434.54,281.50 435.10,282.22 435.66,283.10 436.23,284.10 436.79,285.11 437.35,285.98 437.92,286.55 438.48,286.71 439.04,286.36 439.61,285.54 440.17,284.31 440.73,282.82 441.30,281.25 441.86,279.77 442.42,278.56 442.99,277.71 443.55,277.30 444.11,277.33 444.68,277.76 445.24,278.46 445.80,279.30 446.37,280.13 446.93,280.83 447.49,281.34 448.06,281.64 448.62,281.77 449.18,281.80 449.75,281.77 450.31,281.72 450.87,281.63 451.44,281.48 452.00,281.24" fill="none" stroke="#2F855A" stroke-width="2.0" stroke-linecap="round" stroke-linejoin="round"/>
<text x="82.0" y="339.0" text-anchor="end" font-family="Arial, Helvetica, sans-serif" font-size="13" font-weight="700" fill="#111827">Polar ECG</text>
<polyline points="92.00,335.90 92.14,335.87 92.28,335.33 92.42,334.40 92.55,333.39 92.69,332.23 92.83,331.14 92.97,330.69 93.11,330.57 93.25,330.02 93.39,329.34 93.52,329.46 93.66,330.92 93.80,333.51 93.94,335.74 94.08,336.12 94.22,335.23 94.35,334.25 94.49,333.20 94.63,332.37 94.77,332.39 94.91,332.58 95.05,331.98 95.19,330.91 95.32,329.75 95.46,328.92 95.60,329.00 95.74,328.31 95.88,323.94 96.02,316.08 96.16,308.65 96.29,309.62 96.43,325.95 96.57,346.93 96.71,350.20 96.85,336.16 96.99,326.18 97.13,326.05 97.26,326.49 97.40,326.35 97.54,328.03 97.68,328.92 97.82,328.38 97.96,328.62 98.09,330.13 98.23,331.85 98.37,332.44 98.51,331.81 98.65,331.51 98.79,331.91 98.93,332.35 99.06,333.04 99.20,333.70 99.34,333.90 99.48,334.56 99.62,335.44 99.76,335.59 99.90,336.49 100.03,338.79 100.17,339.83 100.31,338.84 100.45,338.23 100.59,339.08 100.73,341.21 100.86,344.51 101.00,347.09 101.14,346.96 101.28,345.67 101.42,345.44 101.56,345.65 101.70,345.16 101.83,344.29 101.97,343.24 102.11,341.86 102.25,340.47 102.39,339.64 102.53,339.62 102.67,339.73 102.80,338.92 102.94,337.74 103.08,337.38 103.22,337.29 103.36,336.96 103.50,337.51 103.64,338.50 103.77,338.04 103.91,336.73 104.05,336.13 104.19,335.68 104.33,334.86 104.47,334.30 104.60,333.67 104.74,332.63 104.88,332.04 105.02,331.92 105.16,331.56 105.30,331.35 105.44,331.61 105.57,331.85 105.71,331.78 105.85,331.24 105.99,330.39 106.13,330.22 106.27,330.97 106.41,331.51 106.54,331.19 106.68,330.41 106.82,329.89 106.96,330.26 107.10,330.23 107.24,327.07 107.38,320.49 107.51,313.43 107.65,312.62 107.79,326.64 107.93,349.37 108.07,357.60 108.21,345.31 108.34,334.11 108.48,335.30 108.62,338.15 108.76,337.38 108.90,337.45 109.04,338.12 109.18,337.32 109.31,336.86 109.45,337.86 109.59,339.56 109.73,341.47 109.87,342.55 110.01,341.79 110.15,340.07 110.28,338.52 110.42,337.46 110.56,337.19 110.70,337.18 110.84,336.30 110.98,334.76 111.12,333.34 111.25,332.31 111.39,332.45 111.53,333.83 111.67,334.78 111.81,334.73 111.95,334.67 112.08,335.22 112.22,337.05 112.36,340.16 112.50,342.39 112.64,342.54 112.78,341.95 112.92,341.36 113.05,341.19 113.19,342.47 113.33,343.94 113.47,343.11 113.61,340.83 113.75,339.40 113.89,338.87 114.02,338.49 114.16,338.06 114.30,337.22 114.44,335.94 114.58,334.73 114.72,333.96 114.85,333.76 114.99,333.92 115.13,333.70 115.27,332.68 115.41,331.52 115.55,330.88 115.69,330.69 115.82,331.18 115.96,332.35 116.10,332.66 116.24,331.28 116.38,330.03 116.52,330.56 116.66,332.44 116.79,334.52 116.93,335.38 117.07,334.68 117.21,333.95 117.35,333.80 117.49,333.32 117.63,333.39 117.76,335.03 117.90,336.22 118.04,335.45 118.18,334.33 118.32,334.06 118.46,334.06 118.59,333.12 118.73,329.58 118.87,323.17 119.01,316.44 119.15,315.55 119.29,328.88 119.43,352.17 119.56,362.90 119.70,351.94 119.84,339.28 119.98,338.07 120.12,338.89 120.26,337.08 120.40,337.86 120.53,339.96 120.67,339.62 120.81,338.45 120.95,338.30 121.09,339.07 121.23,340.27 121.37,340.55 121.50,339.34 121.64,337.84 121.78,336.62 121.92,335.41 122.06,334.46 122.20,333.89 122.33,333.36 122.47,332.55 122.61,331.26 122.75,330.37 122.89,331.21 123.03,333.11 123.17,334.07 123.30,333.90 123.44,333.79 123.58,334.19 123.72,335.10 123.86,336.40 124.00,337.32 124.14,337.37 124.27,337.06 124.41,336.51 124.55,335.53 124.69,335.17 124.83,336.27 124.97,337.15 125.11,336.17 125.24,334.51 125.38,333.91 125.52,334.25 125.66,334.47 125.80,334.05 125.94,333.06 126.07,331.70 126.21,330.82 126.35,331.75 126.49,333.76 126.63,334.54 126.77,334.56 126.91,335.81 127.04,337.05 127.18,336.63 127.32,336.05 127.46,336.05 127.60,335.13 127.74,333.16 127.88,331.74 128.01,331.60 128.15,332.17 128.29,332.46 128.43,332.00 128.57,331.31 128.71,331.07 128.84,331.50 128.98,332.83 129.12,334.99 129.26,336.78 129.40,336.98 129.54,336.33 129.68,336.59 129.81,337.63 129.95,338.19 130.09,337.66 130.23,334.81 130.37,328.69 130.51,321.58 130.65,318.62 130.78,327.18 130.92,348.64 131.06,365.95 131.20,361.36 131.34,345.61 131.48,339.26 131.62,340.37 131.75,338.96 131.89,336.94 132.03,337.14 132.17,336.86 132.31,335.72 132.45,335.82 132.58,337.13 132.72,337.95 132.86,337.23 133.00,335.77 133.14,334.74 133.28,333.93 133.42,332.95 133.55,332.31 133.69,332.34 133.83,332.52 133.97,332.11 134.11,331.02 134.25,330.23 134.39,330.08 134.52,329.80 134.66,329.52 134.80,330.05 134.94,330.91 135.08,332.04 135.22,334.51 135.36,337.40 135.49,338.46 135.63,338.11 135.77,338.70 135.91,340.76 136.05,342.57 136.19,342.66 136.32,341.63 136.46,340.71 136.60,339.68 136.74,338.29 136.88,337.33 137.02,336.93 137.16,336.50 137.29,336.02 137.43,335.35 137.57,334.10 137.71,332.90 137.85,332.58 137.99,332.98 138.13,333.94 138.26,335.16 138.40,335.46 138.54,334.77 138.68,335.04 138.82,336.70 138.96,337.43 139.10,336.29 139.23,334.68 139.37,333.21 139.51,332.01 139.65,332.00 139.79,332.73 139.93,332.59 140.06,331.62 140.20,331.09 140.34,331.63 140.48,333.10 140.62,334.47 140.76,334.60 140.90,333.81 141.03,333.01 141.17,332.84 141.31,334.21 141.45,336.85 141.59,339.03 141.73,339.70 141.87,337.62 142.00,331.94 142.14,325.81 142.28,324.43 142.42,332.55 142.56,351.20 142.70,367.14 142.83,363.39 142.97,347.72 143.11,340.53 143.25,341.27 143.39,339.28 143.53,336.20 143.67,335.68 143.80,335.17 143.94,334.31 144.08,334.39 144.22,334.04 144.36,332.64 144.50,331.36 144.64,330.59 144.77,330.64 144.91,332.11 145.05,333.60 145.19,333.06 145.33,331.06 145.47,329.51 145.61,328.96 145.74,329.24 145.88,329.90 146.02,329.94 146.16,329.18 146.30,328.70 146.44,329.09 146.57,330.08 146.71,331.19 146.85,332.05 146.99,333.26 147.13,335.39 147.27,337.04 147.41,337.10 147.54,336.82 147.68,336.81 147.82,336.30 147.96,335.77 148.10,335.73 148.24,335.63 148.38,336.08 148.51,337.37 148.65,337.56 148.79,336.34 148.93,335.63 149.07,335.34 149.21,334.47 149.35,333.72 149.48,333.44 149.62,333.06 149.76,332.66 149.90,332.21 150.04,331.53 150.18,331.18 150.31,331.17 150.45,330.87 150.59,330.51 150.73,330.30 150.87,329.81 151.01,329.75 151.15,331.30 151.28,333.99 151.42,336.50 151.56,338.11 151.70,338.66 151.84,339.10 151.98,340.66 152.12,342.67 152.25,343.51 152.39,343.32 152.53,343.38 152.67,343.88 152.81,344.27 152.95,344.32 153.09,343.80 153.22,342.86 153.36,341.75 153.50,339.42 153.64,334.47 153.78,327.76 153.92,323.32 154.05,328.57 154.19,346.77 154.33,364.44 154.47,364.03 154.61,351.22 154.75,343.87 154.89,342.98 155.02,340.64 155.16,337.69 155.30,336.72 155.44,336.40 155.58,335.99 155.72,335.35 155.86,334.61 155.99,334.66 156.13,334.68 156.27,333.49 156.41,332.38 156.55,332.10 156.69,331.26 156.82,329.39 156.96,327.47 157.10,326.33 157.24,326.17 157.38,326.04 157.52,325.13 157.66,324.32 157.79,324.20 157.93,324.41 158.07,325.93 158.21,329.12 158.35,331.36 158.49,331.35 158.63,331.20 158.76,332.13 158.90,333.25 159.04,334.01 159.18,334.20 159.32,333.68 159.46,332.96 159.60,332.59 159.73,332.58 159.87,332.64 160.01,332.27 160.15,331.26 160.29,330.57 160.43,331.22 160.56,332.53 160.70,333.14 160.84,333.09 160.98,332.83 161.12,332.31 161.26,331.67 161.40,331.29 161.53,332.14 161.67,334.96 161.81,337.55 161.95,337.12 162.09,335.25 162.23,334.77 162.37,335.28 162.50,335.69 162.64,336.05 162.78,336.17 162.92,335.94 163.06,335.83 163.20,336.69 163.34,339.20 163.47,341.92 163.61,342.81 163.75,342.77 163.89,343.27 164.03,343.60 164.17,343.91 164.30,345.12 164.44,345.98 164.58,345.47 164.72,344.66 164.86,343.08 165.00,338.14 165.14,329.98 165.27,325.39 165.41,334.16 165.55,353.75 165.69,364.44 165.83,355.90 165.97,342.97 166.11,338.84 166.24,338.00 166.38,335.24 166.52,333.57 166.66,333.26 166.80,332.18 166.94,331.27 167.08,331.26 167.21,331.27 167.35,330.97 167.49,330.14 167.63,328.86 167.77,328.82 167.91,330.59 168.04,331.62 168.18,330.11 168.32,327.71 168.46,326.31 168.60,325.75 168.74,325.56 168.88,325.44 169.01,325.09 169.15,324.99 169.29,326.15 169.43,328.39 169.57,330.49 169.71,331.83 169.85,332.83 169.98,333.66 170.12,333.82 170.26,333.74 170.40,334.87 170.54,336.86 170.68,337.52 170.81,336.39 170.95,334.88 171.09,333.90 171.23,334.63 171.37,337.60 171.51,339.93 171.65,338.98 171.78,336.81 171.92,335.85 172.06,335.31 172.20,334.85 172.34,335.78 172.48,337.72 172.62,338.43 172.75,337.31 172.89,336.35 173.03,336.70 173.17,336.88 173.31,335.63 173.45,333.92 173.59,333.51 173.72,335.32 173.86,338.76 174.00,341.78 174.14,342.77 174.28,341.98 174.42,340.74 174.55,340.26 174.69,340.95 174.83,342.09 174.97,342.82 175.11,343.06 175.25,343.02 175.39,342.83 175.52,342.53 175.66,341.15 175.80,336.59 175.94,327.96 176.08,320.29 176.22,325.02 176.36,344.99 176.49,361.74 176.63,358.20 176.77,344.73 176.91,338.92 177.05,338.65 177.19,336.11 177.33,333.98 177.46,335.22 177.60,336.59 177.74,336.05 177.88,335.01 178.02,334.48 178.16,334.28 178.29,334.34 178.43,334.37 178.57,333.70 178.71,332.50 178.85,331.47 178.99,330.33 179.13,328.87 179.26,327.73 179.40,326.96 179.54,326.10 179.68,325.48 179.82,325.29 179.96,325.21 180.10,325.55 180.23,326.57 180.37,327.70 180.51,328.63 180.65,329.46 180.79,330.17 180.93,331.45 181.07,333.85 181.20,335.95 181.34,336.72 181.48,337.66 181.62,339.34 181.76,340.34 181.90,340.92 182.03,341.84 182.17,341.74 182.31,340.09 182.45,338.64 182.59,338.33 182.73,338.72 182.87,339.24 183.00,339.16 183.14,338.20 183.28,336.95 183.42,336.10 183.56,336.34 183.70,337.57 183.84,338.13 183.97,337.22 184.11,336.22 184.25,335.55 184.39,334.58 184.53,334.31 184.67,335.21 184.80,335.27 184.94,333.73 185.08,332.55 185.22,332.97 185.36,334.14 185.50,334.83 185.64,334.57 185.77,333.71 185.91,332.75 186.05,332.36 186.19,333.10 186.33,333.33 186.47,330.19 186.61,324.00 186.74,319.98 186.88,326.25 187.02,344.65 187.16,360.84 187.30,359.06 187.44,346.21 187.58,339.45 187.71,339.36 187.85,338.01 187.99,336.61 188.13,338.27 188.27,339.62 188.41,338.19 188.54,336.24 188.68,335.37 188.82,334.99 188.96,334.70 189.10,334.21 189.24,333.14 189.38,331.92 189.51,330.86 189.65,329.97 189.79,330.31 189.93,331.85 190.07,332.05 190.21,330.05 190.35,328.50 190.48,329.39 190.62,331.81 190.76,333.78 190.90,334.10 191.04,333.71 191.18,334.21 191.32,335.26 191.45,336.17 191.59,337.42 191.73,338.43 191.87,338.13 192.01,337.55 192.15,337.51 192.28,337.37 192.42,337.92 192.56,339.62 192.70,339.92 192.84,338.16 192.98,337.18 193.12,337.53 193.25,337.68 193.39,338.07 193.53,338.77 193.67,338.28 193.81,336.79 193.95,335.48 194.09,334.32 194.22,333.47 194.36,333.46 194.50,333.86 194.64,334.04 194.78,333.74 194.92,333.12 195.06,332.72 195.19,332.68 195.33,332.63 195.47,332.64 195.61,332.56 195.75,331.77 195.89,330.87 196.02,331.26 196.16,332.69 196.30,333.63 196.44,333.21 196.58,330.78 196.72,325.71 196.86,319.18 196.99,315.90 197.13,323.54 197.27,342.50 197.41,356.59 197.55,352.19 197.69,340.18 197.83,336.21 197.96,337.16 198.10,336.16 198.24,335.54 198.38,336.16 198.52,335.68 198.66,335.32 198.79,336.03 198.93,335.91 199.07,334.60 199.21,333.45 199.35,333.16 199.49,334.19 199.63,336.28 199.76,337.92 199.90,338.29 200.04,337.49 200.18,335.78 200.32,334.46 200.46,334.69 200.60,335.37 200.73,334.89 200.87,333.51 201.01,332.48 201.15,333.10 201.29,335.88 201.43,338.98 201.57,339.98 201.70,339.36 201.84,339.13 201.98,339.71 202.12,340.49 202.26,340.88 202.40,340.44 202.53,339.53 202.67,338.67 202.81,338.08 202.95,338.65 203.09,340.44 203.23,341.10 203.37,339.39 203.50,337.20 203.64,336.07 203.78,335.59 203.92,335.22 204.06,334.59 204.20,333.47 204.34,332.53 204.47,332.34 204.61,332.50 204.75,332.64 204.89,333.26 205.03,334.31 205.17,334.71 205.31,334.16 205.44,333.63 205.58,333.71 205.72,333.93 205.86,333.77 206.00,333.36 206.14,333.02 206.27,332.63 206.41,332.47 206.55,332.58 206.69,330.44 206.83,323.61 206.97,315.65 207.11,316.11 207.24,330.98 207.38,350.13 207.52,354.17 207.66,341.85 207.80,331.40 207.94,330.12 208.08,329.63 208.21,327.37 208.35,327.45 208.49,329.04 208.63,329.41 208.77,329.27 208.91,330.07 209.05,331.89 209.18,333.79 209.32,335.14 209.46,336.32 209.60,337.37 209.74,337.44 209.88,336.97 210.01,337.52 210.15,339.10 210.29,339.96 210.43,339.26 210.57,337.96 210.71,336.96 210.85,336.35 210.98,336.33 211.12,337.06 211.26,338.04 211.40,338.68 211.54,338.95 211.68,339.50 211.82,341.20 211.95,343.57 212.09,344.93 212.23,344.90 212.37,344.21 212.51,343.17 212.65,342.92 212.78,344.50 212.92,345.80 213.06,344.50 213.20,342.10 213.34,340.51 213.48,339.23 213.62,338.54 213.75,339.37 213.89,340.24 214.03,339.28 214.17,337.37 214.31,336.31 214.45,336.48 214.59,337.12 214.72,337.10 214.86,336.20 215.00,335.24 215.14,334.67 215.28,334.55 215.42,335.04 215.56,335.46 215.69,334.88 215.83,333.68 215.97,332.68 216.11,332.45 216.25,333.66 216.39,335.23 216.52,333.79 216.66,327.92 216.80,319.82 216.94,313.55 217.08,316.75 217.22,334.09 217.36,352.03 217.49,351.15 217.63,336.83 217.77,328.81 217.91,329.10 218.05,329.45 218.19,330.36 218.33,332.92 218.46,333.34 218.60,331.97 218.74,332.23 218.88,333.94 219.02,334.91 219.16,334.24 219.30,332.56 219.43,331.17 219.57,330.55 219.71,329.91 219.85,328.85 219.99,327.83 220.13,327.44 220.26,327.56 220.40,327.54 220.54,327.37 220.68,327.51 220.82,327.85 220.96,328.48 221.10,330.01 221.23,332.12 221.37,334.30 221.51,336.83 221.65,339.17 221.79,340.38 221.93,341.40 222.07,342.68 222.20,343.16 222.34,343.78 222.48,346.20 222.62,348.87 222.76,349.74 222.90,349.24 223.04,348.14 223.17,346.63 223.31,345.32 223.45,344.38 223.59,343.39 223.73,342.18 223.87,340.62 224.00,339.00 224.14,338.10 224.28,338.03 224.42,338.12 224.56,337.89 224.70,337.13 224.84,336.17 224.97,335.81 225.11,336.10 225.25,336.25 225.39,336.00 225.53,335.35 225.67,334.23 225.81,333.54 225.94,334.51 226.08,336.35 226.22,337.00 226.36,335.17 226.50,330.28 226.64,323.01 226.77,316.32 226.91,316.89 227.05,331.61 227.19,352.70 227.33,358.58 227.47,345.52 227.61,334.14 227.74,333.96 227.88,334.67 228.02,332.00 228.16,330.56 228.30,330.31 228.44,329.71 228.58,330.61 228.71,332.54 228.85,332.54 228.99,330.76 229.13,329.24 229.27,328.30 229.41,327.70 229.55,327.55 229.68,327.11 229.82,325.82 229.96,324.26 230.10,322.99 230.24,322.38 230.38,322.74 230.51,323.34 230.65,323.26 230.79,322.91 230.93,323.14 231.07,324.22 231.21,326.07 231.35,328.53 231.48,331.64 231.62,335.01 231.76,337.10 231.90,337.87 232.04,339.98 232.18,344.06 232.32,346.79 232.45,346.61 232.59,345.91 232.73,346.46 232.87,347.33 233.01,347.40 233.15,346.53 233.29,345.11 233.42,343.82 233.56,343.04 233.70,342.45 233.84,341.77 233.98,341.14 234.12,340.46 234.25,339.73 234.39,339.47 234.53,339.71 234.67,340.00 234.81,340.18 234.95,339.98 235.09,339.19 235.22,338.39 235.36,337.85 235.50,337.62 235.64,338.45 235.78,339.73 235.92,339.66 236.06,339.50 236.19,341.27 236.33,342.05 236.47,337.84 236.61,329.90 236.75,323.73 236.89,327.72 237.03,344.82 237.16,359.83 237.30,355.77 237.44,341.46 237.58,334.92 237.72,334.79 237.86,333.01 237.99,331.32 238.13,331.84 238.27,332.56 238.41,333.07 238.55,333.33 238.69,332.57 238.83,331.28 238.96,330.08 239.10,329.00 239.24,328.33 239.38,327.92 239.52,327.17 239.66,325.98 239.80,324.59 239.93,323.46 240.07,323.06 240.21,323.05 240.35,323.08 240.49,323.76 240.63,325.15 240.76,326.17 240.90,326.91 241.04,328.47 241.18,330.50 241.32,331.74 241.46,332.04 241.60,332.28 241.73,333.66 241.87,336.36 242.01,338.43 242.15,338.55 242.29,338.17 242.43,338.22 242.57,338.44 242.70,339.62 242.84,341.26 242.98,341.07 243.12,339.67 243.26,339.44 243.40,340.05 243.54,340.66 243.67,341.53 243.81,341.67 243.95,340.39 244.09,339.04 244.23,338.78 244.37,340.19 244.50,343.07 244.64,344.75 244.78,343.88 244.92,343.28 245.06,344.27 245.20,344.62 245.34,344.58 245.47,345.91 245.61,346.83 245.75,345.43 245.89,343.41 246.03,342.42 246.17,342.19 246.31,341.83 246.44,339.37 246.58,333.16 246.72,324.30 246.86,318.06 247.00,323.83 247.14,343.19 247.28,357.78 247.41,351.72 247.55,337.55 247.69,332.84 247.83,333.76 247.97,332.88 248.11,332.72 248.24,333.30 248.38,331.75 248.52,330.06 248.66,329.95 248.80,329.76 248.94,329.06 249.08,328.36 249.21,327.36 249.35,326.75 249.49,327.30 249.63,327.74 249.77,327.00 249.91,325.88 250.05,324.87 250.18,323.75 250.32,322.92 250.46,322.74 250.60,323.00 250.74,323.54 250.88,324.31 251.02,325.27 251.15,326.23 251.29,327.18 251.43,329.10 251.57,332.14 251.71,334.27 251.85,334.68 251.98,334.91 252.12,335.27 252.26,335.28 252.40,336.01 252.54,337.23 252.68,337.07 252.82,336.13 252.95,336.24 253.09,336.83 253.23,336.74 253.37,336.35 253.51,336.04 253.65,335.70 253.79,335.86 253.92,337.10 254.06,339.46 254.20,342.27 254.34,344.22 254.48,345.17 254.62,346.64 254.75,348.40 254.89,348.59 255.03,347.87 255.17,347.89 255.31,347.69 255.45,346.28 255.59,344.67 255.72,343.60 255.86,342.92 256.00,342.54 256.14,342.09 256.28,341.34 256.42,340.11 256.56,337.11 256.69,331.33 256.83,324.03 256.97,319.31 257.11,325.07 257.25,343.31 257.39,357.50 257.53,352.51 257.66,340.27 257.80,337.17 257.94,337.74 258.08,334.39 258.22,332.27 258.36,333.74 258.49,334.62 258.63,334.11 258.77,333.56 258.91,332.59 259.05,330.89 259.19,329.26 259.33,328.53 259.46,328.63 259.60,328.28 259.74,326.81 259.88,325.13 260.02,323.76 260.16,322.72 260.30,322.60 260.43,323.29 260.57,323.62 260.71,323.15 260.85,322.51 260.99,322.81 261.13,325.08 261.27,328.49 261.40,330.65 261.54,330.93 261.68,330.91 261.82,331.67 261.96,333.41 262.10,335.84 262.23,337.50 262.37,337.11 262.51,335.72 262.65,335.49 262.79,336.76 262.93,337.96 263.07,338.19 263.20,338.24 263.34,338.48 263.48,338.38 263.62,339.08 263.76,342.13 263.90,345.64 264.04,346.56 264.17,345.46 264.31,344.96 264.45,345.64 264.59,346.47 264.73,346.79 264.87,346.49 265.01,345.80 265.14,345.27 265.28,344.85 265.42,344.06 265.56,343.24 265.70,342.77 265.84,342.08 265.97,341.08 266.11,340.30 266.25,339.46 266.39,338.53 266.53,338.00 266.67,336.48 266.81,331.86 266.94,324.58 267.08,318.12 267.22,320.88 267.36,339.24 267.50,359.95 267.64,361.06 267.78,346.31 267.91,337.07 268.05,336.43 268.19,334.80 268.33,332.46 268.47,332.61 268.61,332.45 268.74,330.74 268.88,329.42 269.02,328.86 269.16,328.44 269.30,328.04 269.44,327.41 269.58,326.35 269.71,325.03 269.85,323.79 269.99,323.24 270.13,323.56 270.27,323.80 270.41,323.08 270.55,321.77 270.68,320.94 270.82,321.70 270.96,324.10 271.10,326.33 271.24,326.99 271.38,326.90 271.52,327.52 271.65,329.95 271.79,334.16 271.93,337.60 272.07,338.13 272.21,337.27 272.35,336.69 272.48,336.27 272.62,337.36 272.76,340.84 272.90,343.60 273.04,343.27 273.18,342.08 273.32,342.55 273.45,344.25 273.59,345.69 273.73,345.56 273.87,343.80 274.01,342.11 274.15,341.78 274.29,342.37 274.42,343.19 274.56,343.86 274.70,343.77 274.84,342.86 274.98,342.01 275.12,342.04 275.26,342.70 275.39,342.99 275.53,342.54 275.67,341.62 275.81,340.49 275.95,339.84 276.09,340.34 276.22,341.10 276.36,340.82 276.50,339.87 276.64,339.20 276.78,338.58 276.92,337.08 277.06,333.76 277.19,327.85 277.33,321.42 277.47,323.35 277.61,340.06 277.75,357.90 277.89,356.73 278.03,342.21 278.16,334.29 278.30,334.01 278.44,332.21 278.58,330.02 278.72,330.23 278.86,330.09 278.99,328.91 279.13,328.22 279.27,327.77 279.41,327.07 279.55,326.52 279.69,326.38 279.83,326.47 279.96,326.19 280.10,325.32 280.24,324.26 280.38,323.35 280.52,323.04 280.66,323.46 280.80,323.62 280.93,323.10 281.07,322.80 281.21,323.04 281.35,323.99 281.49,326.32 281.63,329.20 281.77,331.61 281.90,334.38 282.04,337.05 282.18,337.77 282.32,337.46 282.46,337.90 282.60,338.43 282.73,338.29 282.87,337.72 283.01,337.40 283.15,339.02 283.29,342.60 283.43,344.70 283.57,343.75 283.70,342.16 283.84,341.24 283.98,340.57 284.12,340.73 284.26,341.77 284.40,342.49 284.54,342.59 284.67,342.33 284.81,341.48 284.95,340.75 285.09,341.35 285.23,342.44 285.37,342.35 285.51,341.40 285.64,340.79 285.78,340.77 285.92,341.10 286.06,341.45 286.20,341.44 286.34,340.80 286.47,339.44 286.61,338.62 286.75,339.98 286.89,341.83 287.03,341.34 287.17,339.50 287.31,337.59 287.44,333.50 287.58,326.60 287.72,319.91 287.86,318.63 288.00,329.53 288.14,348.61 288.28,356.15 288.41,345.08 288.55,333.53 288.69,332.16 288.83,331.87 288.97,328.69 289.11,327.39 289.25,327.76 289.38,327.97 289.52,329.07 289.66,329.98 289.80,328.99 289.94,327.43 290.08,326.99 290.21,327.75 290.35,328.98 290.49,329.28 290.63,327.90 290.77,326.11 290.91,325.88 291.05,327.61 291.18,329.47 291.32,329.46 291.46,328.20 291.60,327.53 291.74,327.69 291.88,328.21 292.02,329.22 292.15,330.37 292.29,330.98 292.43,331.46 292.57,332.41 292.71,333.82 292.85,336.39 292.98,340.50 293.12,343.52 293.26,343.21 293.40,341.89 293.54,341.69 293.68,341.17 293.82,340.19 293.95,340.72 294.09,342.08 294.23,342.46 294.37,342.44 294.51,342.80 294.65,342.93 294.79,342.64 294.92,342.10 295.06,341.42 295.20,340.84 295.34,340.31 295.48,339.65 295.62,338.99 295.76,338.50 295.89,338.45 296.03,338.65 296.17,338.32 296.31,338.07 296.45,339.45 296.59,341.36 296.72,341.51 296.86,340.34 297.00,339.33 297.14,338.51 297.28,337.75 297.42,337.34 297.56,336.98 297.69,336.27 297.83,335.53 297.97,334.59 298.11,331.89 298.25,326.67 298.39,320.67 298.53,317.25 298.66,322.49 298.80,339.71 298.94,356.23 299.08,355.19 299.22,342.74 299.36,336.25 299.50,335.87 299.63,333.75 299.77,331.27 299.91,331.11 300.05,331.81 300.19,333.05 300.33,334.56 300.46,334.32 300.60,332.45 300.74,331.25 300.88,331.20 301.02,330.96 301.16,329.90 301.30,328.38 301.43,326.68 301.57,325.14 301.71,324.47 301.85,324.52 301.99,324.20 302.13,323.39 302.27,322.91 302.40,323.27 302.54,325.36 302.68,329.65 302.82,334.31 302.96,337.25 303.10,338.53 303.24,339.18 303.37,339.94 303.51,340.93 303.65,341.52 303.79,341.54 303.93,341.66 304.07,342.00 304.20,342.70 304.34,343.90 304.48,344.40 304.62,343.31 304.76,341.83 304.90,341.04 305.04,340.66 305.17,340.56 305.31,340.73 305.45,340.67 305.59,340.12 305.73,339.20 305.87,338.26 306.01,338.29 306.14,339.73 306.28,340.78 306.42,339.80 306.56,338.05 306.70,337.17 306.84,336.60 306.97,335.89 307.11,335.87 307.25,336.67 307.39,337.41 307.53,337.52 307.67,337.30 307.81,337.36 307.94,337.44 308.08,336.67 308.22,335.34 308.36,334.53 308.50,334.31 308.64,334.52 308.78,335.63 308.91,336.76 309.05,336.35 309.19,334.50 309.33,331.78 309.47,327.63 309.61,322.03 309.75,319.84 309.88,330.13 310.02,350.20 310.16,359.26 310.30,348.00 310.44,334.56 310.58,332.00 310.71,331.99 310.85,329.20 310.99,328.02 311.13,328.15 311.27,326.98 311.41,326.04 311.55,326.21 311.68,326.66 311.82,327.52 311.96,328.03 312.10,327.29 312.24,327.13 312.38,328.66 312.52,329.59 312.65,328.61 312.79,327.05 312.93,326.06 313.07,326.47 313.21,328.71 313.35,330.98 313.49,331.37 313.62,330.66 313.76,330.49 313.90,331.70 314.04,334.63 314.18,338.38 314.32,341.23 314.45,342.76 314.59,343.44 314.73,343.47 314.87,343.56 315.01,344.47 315.15,345.39 315.29,345.06 315.42,343.58 315.56,341.96 315.70,341.40 315.84,342.44 315.98,343.70 316.12,343.82 316.26,343.38 316.39,342.75 316.53,341.56 316.67,340.73 316.81,340.81 316.95,340.32 317.09,338.70 317.23,337.09 317.36,336.09 317.50,335.76 317.64,335.98 317.78,335.81 317.92,334.74 318.06,333.36 318.19,332.07 318.33,331.53 318.47,332.96 318.61,335.49 318.75,336.45 318.89,335.28 319.03,333.90 319.16,333.94 319.30,335.76 319.44,338.09 319.58,338.66 319.72,337.14 319.86,335.52 320.00,334.86 320.13,334.64 320.27,334.43 320.41,334.01 320.55,332.60 320.69,329.02 320.83,322.74 320.96,316.21 321.10,317.35 321.24,332.82 321.38,352.00 321.52,354.46 321.66,341.06 321.80,331.69 321.93,332.06 322.07,332.76 322.21,331.11 322.35,330.22 322.49,329.68 322.63,328.85 322.77,329.09 322.90,330.61 323.04,331.94 323.18,332.30 323.32,332.23 323.46,332.04 323.60,331.42 323.74,330.60 323.87,330.01 324.01,329.65 324.15,329.78 324.29,330.37 324.43,330.88 324.57,331.51 324.70,332.54 324.84,333.34 324.98,334.21 325.12,335.90 325.26,337.61 325.40,338.95 325.54,341.21 325.67,343.81 325.81,344.66 325.95,344.27 326.09,344.08 326.23,343.75 326.37,343.03 326.51,342.57 326.64,342.26 326.78,341.56 326.92,340.38 327.06,339.05 327.20,337.94 327.34,337.19 327.48,337.36 327.61,338.93 327.75,340.22 327.89,339.50 328.03,338.75 328.17,340.16 328.31,341.72 328.44,341.21 328.58,339.73 328.72,338.48 328.86,337.22 329.00,336.46 329.14,336.49 329.28,336.20 329.41,335.49 329.55,335.54 329.69,335.79 329.83,334.98 329.97,334.09 330.11,334.15 330.25,334.03 330.38,332.99 330.52,331.94 330.66,331.59 330.80,331.91 330.94,332.32 331.08,332.14 331.22,331.59 331.35,330.97 331.49,330.41 331.63,330.90 331.77,332.41 331.91,332.99 332.05,332.07 332.18,329.94 332.32,325.40 332.46,319.20 332.60,315.19 332.74,318.04 332.88,331.87 333.02,350.17 333.15,354.72 333.29,342.81 333.43,333.24 333.57,333.25 333.71,332.85 333.85,330.19 333.99,330.68 334.12,332.97 334.26,334.30 334.40,335.56 334.54,336.71 334.68,336.86 334.82,336.35 334.95,335.86 335.09,336.19 335.23,337.45 335.37,337.95 335.51,336.67 335.65,335.04 335.79,334.11 335.92,333.74 336.06,334.43 336.20,335.74 336.34,335.54 336.48,334.07 336.62,334.40 336.76,337.22 336.89,339.88 337.03,340.74 337.17,340.62 337.31,340.61 337.45,341.00 337.59,341.70 337.73,342.85 337.86,344.50 338.00,345.40 338.14,344.39 338.28,343.16 338.42,343.62 338.56,344.39 338.69,343.71 338.83,342.32 338.97,341.10 339.11,339.90 339.25,338.67 339.39,337.49 339.53,336.45 339.66,335.68 339.80,334.95 339.94,334.19 340.08,333.61 340.22,332.95 340.36,332.12 340.50,331.68 340.63,331.69 340.77,331.75 340.91,331.72 341.05,331.14 341.19,330.22 341.33,330.33 341.47,331.44 341.60,331.93 341.74,331.61 341.88,331.29 342.02,330.72 342.16,330.02 342.30,330.19 342.43,330.94 342.57,330.94 342.71,330.33 342.85,330.41 342.99,331.36 343.13,332.14 343.27,332.21 343.40,332.21 343.54,332.86 343.68,333.28 343.82,331.59 343.96,328.31 344.10,325.40 344.24,323.28 344.37,326.53 344.51,342.32 344.65,361.14 344.79,362.59 344.93,349.23 345.07,341.01 345.21,340.79 345.34,339.21 345.48,336.46 345.62,336.01 345.76,336.74 345.90,337.98 346.04,339.03 346.17,338.14 346.31,336.22 346.45,335.18 346.59,334.88 346.73,334.63 346.87,334.03 347.01,332.68 347.14,331.25 347.28,331.18 347.42,332.72 347.56,334.52 347.70,334.91 347.84,333.65 347.98,332.09 348.11,331.16 348.25,330.93 348.39,331.60 348.53,332.78 348.67,333.39 348.81,333.39 348.94,333.54 349.08,334.12 349.22,335.02 349.36,335.86 349.50,335.92 349.64,335.14 349.78,334.18 349.91,333.60 350.05,333.52 350.19,333.63 350.33,333.46 350.47,333.01 350.61,332.43 350.75,331.66 350.88,331.31 351.02,332.31 351.16,333.87 351.30,334.03 351.44,332.80 351.58,332.06 351.72,332.73 351.85,334.17 351.99,335.26 352.13,335.13 352.27,334.16 352.41,333.47 352.55,333.18 352.68,332.77 352.82,332.48 352.96,332.15 353.10,331.20 353.24,330.35 353.38,330.44 353.52,331.24 353.65,333.35 353.79,337.01 353.93,339.84 354.07,340.47 354.21,340.35 354.35,340.21 354.49,339.57 354.62,338.98 354.76,339.66 354.90,341.82 355.04,343.78 355.18,344.23 355.32,344.14 355.46,343.12 355.59,338.62 355.73,331.39 355.87,326.24 356.01,330.26 356.15,347.65 356.29,366.07 356.42,365.59 356.56,350.50 356.70,341.93 356.84,342.12 356.98,340.48 357.12,338.08 357.26,339.41 357.39,340.97 357.53,339.95 357.67,338.27 357.81,336.91 357.95,335.58 358.09,334.78 358.23,334.52 358.36,333.86 358.50,332.51 358.64,330.96 358.78,329.49 358.92,328.33 359.06,327.84 359.20,327.53 359.33,326.62 359.47,325.38 359.61,324.53 359.75,324.37 359.89,325.17 360.03,326.81 360.16,328.32 360.30,328.96 360.44,329.10 360.58,330.09 360.72,333.04 360.86,336.58 361.00,337.88 361.13,336.97 361.27,335.96 361.41,335.41 361.55,335.21 361.69,335.55 361.83,335.53 361.97,334.41 362.10,333.04 362.24,332.15 362.38,331.73 362.52,331.87 362.66,332.03 362.80,331.52 362.93,330.64 363.07,329.80 363.21,329.90 363.35,332.60 363.49,336.73 363.63,338.36 363.77,336.73 363.90,335.23 364.04,336.09 364.18,338.35 364.32,339.69 364.46,338.78 364.60,337.12 364.74,336.86 364.87,337.64 365.01,338.35 365.15,339.33 365.29,340.26 365.43,340.10 365.57,339.70 365.71,340.25 365.84,341.15 365.98,341.91 366.12,342.65 366.26,342.69 366.40,341.95 366.54,341.63 366.67,341.96 366.81,341.99 366.95,340.39 367.09,335.40 367.23,327.30 367.37,323.01 367.51,332.82 367.64,353.60 367.78,364.30 367.92,354.67 368.06,341.17 368.20,337.58 368.34,337.32 368.48,334.62 368.61,333.28 368.75,333.77 368.89,333.07 369.03,331.84 369.17,331.60 369.31,331.32 369.45,330.47 369.58,330.38 369.72,331.21 369.86,331.48 370.00,330.69 370.14,329.46 370.28,328.34 370.41,327.88 370.55,328.04 370.69,327.86 370.83,327.13 370.97,326.41 371.11,325.83 371.25,325.90 371.38,327.24 371.52,328.99 371.66,330.05 371.80,330.81 371.94,331.72 372.08,332.51 372.22,333.42 372.35,334.66 372.49,335.38 372.63,335.15 372.77,334.62 372.91,334.21 373.05,334.21 373.19,335.42 373.32,337.34 373.46,337.78 373.60,336.27 373.74,334.53 373.88,333.73 374.02,334.07 374.15,335.02 374.29,335.22 374.43,334.12 374.57,332.75 374.71,332.79 374.85,335.34 374.99,338.74 375.12,339.47 375.26,337.52 375.40,335.97 375.54,335.46 375.68,335.06 375.82,335.44 375.96,336.84 376.09,337.75 376.23,337.49 376.37,336.99 376.51,337.74 376.65,340.25 376.79,342.60 376.92,342.89 377.06,342.37 377.20,342.79 377.34,343.58 377.48,343.95 377.62,343.92 377.76,343.26 377.89,342.18 378.03,340.59 378.17,336.84 378.31,330.23 378.45,323.35 378.59,322.58 378.73,335.04 378.86,354.83 379.00,361.72 379.14,350.46 379.28,339.53 379.42,338.22 379.56,337.42 379.70,334.06 379.83,332.84 379.97,333.34 380.11,334.00 380.25,335.32 380.39,335.52 380.53,333.66 380.66,332.19 380.80,331.92 380.94,331.39 381.08,330.59 381.22,329.87 381.36,328.61 381.50,327.08 381.63,326.07 381.77,325.36 381.91,324.69 382.05,324.13 382.19,323.94 382.33,325.23 382.47,328.07 382.60,330.10 382.74,330.40 382.88,331.09 383.02,333.23 383.16,335.36 383.30,336.20 383.44,336.31 383.57,337.65 383.71,340.90 383.85,343.38 383.99,343.06 384.13,341.79 384.27,341.08 384.40,340.12 384.54,338.97 384.68,338.32 384.82,337.82 384.96,337.07 385.10,336.03 385.24,334.82 385.37,334.08 385.51,333.96 385.65,333.87 385.79,333.90 385.93,333.87 386.07,333.07 386.21,332.45 386.34,333.53 386.48,335.13 386.62,335.13 386.76,333.70 386.90,332.18 387.04,331.44 387.18,332.18 387.31,334.44 387.45,336.78 387.59,337.72 387.73,337.24 387.87,336.41 388.01,336.54 388.14,337.94 388.28,339.26 388.42,339.70 388.56,340.00 388.70,340.22 388.84,340.13 388.98,340.62 389.11,340.84 389.25,337.73 389.39,330.50 389.53,321.99 389.67,319.12 389.81,331.51 389.95,354.69 390.08,365.09 390.22,353.53 390.36,339.79 390.50,336.94 390.64,336.75 390.78,334.64 390.91,334.17 391.05,333.97 391.19,332.11 391.33,331.69 391.47,333.93 391.61,335.89 391.75,336.05 391.88,335.81 392.02,335.77 392.16,334.99 392.30,333.79 392.44,333.22 392.58,332.65 392.72,331.16 392.85,329.29 392.99,327.57 393.13,326.45 393.27,327.44 393.41,330.67 393.55,333.12 393.69,332.92 393.82,332.12 393.96,332.65 394.10,333.94 394.24,335.09 394.38,335.87 394.52,336.08 394.65,335.88 394.79,335.75 394.93,335.88 395.07,336.12 395.21,336.18 395.35,335.75 395.49,335.04 395.62,334.43 395.76,333.98 395.90,334.03 396.04,334.90 396.18,335.92 396.32,336.55 396.46,336.91 396.59,336.69 396.73,336.15 396.87,336.69 397.01,337.85 397.15,337.51 397.29,335.97 397.43,335.15 397.56,334.88 397.70,334.13 397.84,333.17 397.98,332.49 398.12,332.18 398.26,332.18 398.39,332.18 398.53,332.52 398.67,334.28 398.81,336.78 398.95,338.07 399.09,337.87 399.23,337.26 399.36,336.63 399.50,336.20 399.64,336.44 399.78,337.15 399.92,337.95 400.06,338.48 400.20,337.24 400.33,332.66 400.47,326.21 400.61,323.15 400.75,330.99 400.89,350.91 401.03,367.28 401.17,363.64 401.30,348.94 401.44,341.99 401.58,341.87 401.72,339.72 401.86,337.24 402.00,337.33 402.13,338.07 402.27,338.96 402.41,339.61 402.55,338.39 402.69,336.20 402.83,334.87 402.97,334.10 403.10,333.38 403.24,332.81 403.38,331.90 403.52,330.33 403.66,328.51 403.80,327.11 403.94,326.69 404.07,326.91 404.21,326.61 404.35,325.63 404.49,324.86 404.63,325.09 404.77,326.88 404.90,329.81 405.04,332.57 405.18,334.77 405.32,336.49 405.46,337.38 405.60,338.51 405.74,340.98 405.87,342.64 406.01,341.58 406.15,339.64 406.29,338.62 406.43,338.10 406.57,337.81 406.71,337.52 406.84,336.48 406.98,334.85 407.12,333.50 407.26,332.79 407.40,332.84 407.54,333.07 407.68,332.41 407.81,331.15 407.95,330.31 408.09,330.28 408.23,331.59 408.37,334.04 408.51,335.39 408.64,334.51 408.78,333.10 408.92,332.19 409.06,331.79 409.20,332.78 409.34,334.47 409.48,335.08 409.61,335.79 409.75,337.85 409.89,339.07 410.03,338.44 410.17,337.72 410.31,337.43 410.45,337.22 410.58,337.50 410.72,337.85 410.86,337.51 411.00,336.98 411.14,336.73 411.28,336.31 411.42,334.50 411.55,330.08 411.69,324.25 411.83,322.37 411.97,331.95 412.11,352.27 412.25,366.26 412.38,359.96 412.52,345.17 412.66,339.38 412.80,339.62 412.94,337.57 413.08,335.59 413.22,335.66 413.35,334.93 413.49,333.52 413.63,333.06 413.77,332.61 413.91,331.90 414.05,332.25 414.19,332.97 414.32,332.70 414.46,332.54 414.60,333.44 414.74,333.89 414.88,332.90 415.02,331.27 415.16,329.77 415.29,328.96 415.43,329.29 415.57,329.96 415.71,330.00 415.85,329.75 415.99,329.65 416.12,330.23 416.26,332.40 416.40,335.40 416.54,337.07 416.68,337.12 416.82,336.81 416.96,336.52 417.09,336.36 417.23,336.73 417.37,337.07 417.51,336.50 417.65,335.12 417.79,333.93 417.93,334.29 418.06,336.23 418.20,337.43 418.34,336.53 418.48,335.40 418.62,335.79 418.76,337.35 418.89,339.35 419.03,340.57 419.17,339.83 419.31,338.01 419.45,336.62 419.59,335.68 419.73,335.13 419.86,335.07 420.00,334.63 420.14,333.46 420.28,332.27 420.42,331.17 420.56,330.22 420.70,330.19 420.83,330.72 420.97,330.66 421.11,330.15 421.25,329.91 421.39,330.45 421.53,332.52 421.67,335.02 421.80,335.33 421.94,333.93 422.08,333.68 422.22,334.82 422.36,335.67 422.50,335.75 422.63,335.41 422.77,334.79 422.91,333.55 423.05,330.78 423.19,326.20 423.33,322.08 423.47,325.14 423.60,341.26 423.74,360.42 423.88,362.61 424.02,349.13 424.16,340.82 424.30,342.35 424.44,342.22 424.57,339.05 424.71,338.17 424.85,338.37 424.99,338.25 425.13,339.35 425.27,340.14 425.41,338.71 425.54,337.07 425.68,336.51 425.82,335.83 425.96,334.91 426.10,334.19 426.24,333.04 426.37,331.59 426.51,330.57 426.65,329.68 426.79,328.90 426.93,328.70 427.07,328.53 427.21,328.05 427.34,328.49 427.48,330.70 427.62,333.77 427.76,336.44 427.90,338.80 428.04,341.63 428.18,344.00 428.31,344.33 428.45,343.49 428.59,343.22 428.73,343.04 428.87,342.23 429.01,341.41 429.15,340.49 429.28,339.03 429.42,337.89 429.56,337.47 429.70,336.83 429.84,335.83 429.98,334.94 430.11,333.95 430.25,332.92 430.39,332.47 430.53,332.51 430.67,332.67 430.81,332.74 430.95,332.09 431.08,331.22 431.22,332.10 431.36,334.44 431.50,335.25 431.64,333.94 431.78,333.05 431.92,333.54 432.05,334.04 432.19,334.14 432.33,334.35 432.47,334.16 432.61,333.17 432.75,332.25 432.88,332.13 433.02,332.61 433.16,332.96 433.30,332.65 433.44,332.16 433.58,332.24 433.72,332.76 433.85,333.61 433.99,334.65 434.13,335.05 434.27,334.51 434.41,332.65 434.55,328.50 434.69,323.55 434.82,321.67 434.96,327.29 435.10,343.45 435.24,361.09 435.38,362.23 435.52,348.29 435.66,339.10 435.79,339.12 435.93,337.89 436.07,334.58 436.21,334.07 436.35,335.28 436.49,336.11 436.62,336.48 436.76,335.80 436.90,334.12 437.04,332.74 437.18,333.24 437.32,336.02 437.46,338.56 437.59,338.13 437.73,335.82 437.87,333.99 438.01,332.78 438.15,331.62 438.29,330.79 438.43,330.12 438.56,329.09 438.70,328.11 438.84,327.85 438.98,328.23 439.12,329.00 439.26,330.03 439.40,330.90 439.53,331.31 439.67,331.75 439.81,332.50 439.95,333.16 440.09,333.47 440.23,333.48 440.36,333.28 440.50,333.22 440.64,333.50 440.78,334.52 440.92,336.58 441.06,338.20 441.20,337.71 441.33,336.25 441.47,335.50 441.61,334.94 441.75,334.25 441.89,333.94 442.03,333.52 442.17,332.73 442.30,332.31 442.44,332.14 442.58,331.72 442.72,331.35 442.86,331.16 443.00,330.94 443.14,330.72 443.27,330.10 443.41,329.18 443.55,329.17 443.69,330.21 443.83,331.04 443.97,331.36 444.10,331.48 444.24,331.43 444.38,332.50 444.52,335.62 444.66,338.81 444.80,339.77 444.94,339.01 445.07,338.32 445.21,339.11 445.35,341.52 445.49,343.91 445.63,344.17 445.77,341.26 445.91,335.14 446.04,327.50 446.18,325.49 446.32,338.83 446.46,362.02 446.60,367.50 446.74,359.86 446.87,346.82 447.01,345.92 447.15,348.46 447.29,347.54 447.43,345.78 447.57,344.30 447.71,342.45 447.84,341.30 447.98,341.37 448.12,341.44 448.26,340.43 448.40,338.55 448.54,336.63 448.68,335.38 448.81,335.62 448.95,336.90 449.09,336.88 449.23,334.71 449.37,332.31 449.51,331.21 449.65,331.27 449.78,331.86 449.92,332.36 450.06,332.55 450.20,332.49 450.34,332.15 450.48,333.00 450.61,336.69 450.75,340.93 450.89,342.18 451.03,341.20 451.17,340.62 451.31,340.71 451.45,340.97 451.58,341.18 451.72,340.54 451.86,339.00 452.00,337.60" fill="none" stroke="#2F855A" stroke-width="2.0" stroke-linecap="round" stroke-linejoin="round"/>
</svg>