<svg xmlns="http://www.w3.org/2000/svg" width="470" height="164" viewBox="0 0 470 164">

<text x="235.0" y="20" text-anchor="middle" font-family="Arial, Helvetica, sans-serif" font-size="15" font-weight="700" fill="#111827">Privileged sensors</text>
<text x="82.0" y="69.0" text-anchor="end" font-family="Arial, Helvetica, sans-serif" font-size="13" font-weight="700" fill="#111827">E4 BVP</text>
<polyline points="92.00,65.07 92.56,65.12 93.13,65.19 93.69,65.29 94.25,65.42 94.82,65.57 95.38,65.73 95.94,65.89 96.51,66.06 97.07,66.25 97.63,66.48 98.20,66.77 98.76,67.15 99.32,67.62 99.89,68.15 100.45,68.72 101.01,69.24 101.58,69.62 102.14,69.76 102.70,69.59 103.27,69.08 103.83,68.28 104.39,67.28 104.96,66.20 105.52,65.16 106.08,64.27 106.65,63.58 107.21,63.10 107.77,62.81 108.34,62.68 108.90,62.65 109.46,62.69 110.03,62.77 110.59,62.88 111.15,62.99 111.72,63.08 112.28,63.14 112.85,63.17 113.41,63.17 113.97,63.15 114.54,63.14 115.10,63.16 115.66,63.26 116.23,63.44 116.79,63.73 117.35,64.10 117.92,64.54 118.48,65.03 119.04,65.53 119.61,66.03 120.17,66.54 120.73,67.06 121.30,67.65 121.86,68.32 122.42,69.07 122.99,69.88 123.55,70.65 124.11,71.28 124.68,71.69 125.24,71.78 125.80,71.55 126.37,71.01 126.93,70.24 127.49,69.32 128.06,68.35 128.62,67.41 129.18,66.54 129.75,65.77 130.31,65.11 130.87,64.53 131.44,63.99 132.00,63.44 132.56,62.82 133.13,62.09 133.69,61.25 134.25,60.33 134.82,59.45 135.38,58.69 135.94,58.15 136.51,57.85 137.07,57.78 137.63,57.84 138.20,57.97 138.76,58.10 139.32,58.26 139.89,58.54 140.45,59.07 141.01,59.96 141.58,61.25 142.14,62.84 142.70,64.52 143.27,66.01 143.83,67.03 144.39,67.36 144.96,66.97 145.52,66.02 146.08,64.85 146.65,63.97 147.21,63.87 147.77,64.92 148.34,67.15 148.90,70.22 149.46,73.51 150.03,76.29 150.59,77.99 151.15,78.36 151.72,77.51 152.28,75.81 152.85,73.77 153.41,71.82 153.97,70.24 154.54,69.12 155.10,68.43 155.66,68.07 156.23,67.89 156.79,67.74 157.35,67.47 157.92,66.93 158.48,65.99 159.04,64.55 159.61,62.62 160.17,60.31 160.73,57.80 161.30,55.32 161.86,53.06 162.42,51.15 162.99,49.60 163.55,48.36 164.11,47.33 164.68,46.45 165.24,45.72 165.80,45.23 166.37,45.11 166.93,45.47 167.49,46.41 168.06,47.93 168.62,49.95 169.18,52.35 169.75,54.97 170.31,57.68 170.87,60.36 171.44,62.90 172.00,65.19 172.56,67.13 173.13,68.64 173.69,69.67 174.25,70.21 174.82,70.35 175.38,70.21 175.94,69.96 176.51,69.73 177.07,69.62 177.63,69.64 178.20,69.76 178.76,69.94 179.32,70.11 179.89,70.25 180.45,70.36 181.01,70.47 181.58,70.61 182.14,70.81 182.70,71.09 183.27,71.43 183.83,71.83 184.39,72.30 184.96,72.83 185.52,73.43 186.08,74.10 186.65,74.81 187.21,75.54 187.77,76.24 188.34,76.88 188.90,77.43 189.46,77.91 190.03,78.32 190.59,78.71 191.15,79.07 191.72,79.40 192.28,79.65 192.85,79.75 193.41,79.61 193.97,79.15 194.54,78.31 195.10,77.08 195.66,75.49 196.23,73.62 196.79,71.60 197.35,69.51 197.92,67.47 198.48,65.51 199.04,63.67 199.61,61.98 200.17,60.45 200.73,59.12 201.30,58.02 201.86,57.16 202.42,56.51 202.99,56.02 203.55,55.59 204.11,55.12 204.68,54.51 205.24,53.71 205.80,52.72 206.37,51.59 206.93,50.43 207.49,49.37 208.06,48.55 208.62,48.11 209.18,48.12 209.75,48.60 210.31,49.46 210.87,50.60 211.44,51.86 212.00,53.09 212.56,54.21 213.13,55.19 213.69,56.08 214.25,56.94 214.82,57.84 215.38,58.81 215.94,59.85 216.51,60.91 217.07,61.93 217.63,62.85 218.20,63.67 218.76,64.37 219.32,64.96 219.89,65.45 220.45,65.84 221.01,66.16 221.58,66.40 222.14,66.62 222.70,66.83 223.27,67.07 223.83,67.35 224.39,67.64 224.96,67.92 225.52,68.14 226.08,68.29 226.65,68.38 227.21,68.44 227.77,68.52 228.34,68.67 228.90,68.90 229.46,69.19 230.03,69.47 230.59,69.69 231.15,69.80 231.72,69.83 232.28,69.85 232.85,69.97 233.41,70.26 233.97,70.78 234.54,71.50 235.10,72.30 235.66,73.03 236.23,73.52 236.79,73.64 237.35,73.35 237.92,72.65 238.48,71.64 239.04,70.45 239.61,69.21 240.17,68.03 240.73,67.01 241.30,66.19 241.86,65.57 242.42,65.12 242.99,64.79 243.55,64.50 244.11,64.19 244.68,63.81 245.24,63.33 245.80,62.75 246.37,62.09 246.93,61.39 247.49,60.71 248.06,60.11 248.62,59.64 249.18,59.34 249.75,59.22 250.31,59.28 250.87,59.49 251.44,59.80 252.00,60.15 252.56,60.52 253.13,60.91 253.69,61.35 254.25,61.90 254.82,62.58 255.38,63.42 255.94,64.37 256.51,65.36 257.07,66.26 257.63,66.95 258.20,67.34 258.76,67.35 259.32,67.00 259.89,66.35 260.45,65.50 261.01,64.58 261.58,63.71 262.14,62.98 262.70,62.46 263.27,62.18 263.83,62.11 264.39,62.22 264.96,62.44 265.52,62.70 266.08,62.94 266.65,63.13 267.21,63.25 267.77,63.32 268.34,63.38 268.90,63.46 269.46,63.58 270.03,63.71 270.59,63.84 271.15,63.96 271.72,64.07 272.28,64.22 272.85,64.47 273.41,64.89 273.97,65.52 274.54,66.37 275.10,67.38 275.66,68.45 276.23,69.47 276.79,70.28 277.35,70.78 277.92,70.88 278.48,70.58 279.04,69.92 279.61,68.99 280.17,67.93 280.73,66.86 281.30,65.87 281.86,65.04 282.42,64.40 282.99,63.98 283.55,63.75 284.11,63.70 284.68,63.78 285.24,63.96 285.80,64.18 286.37,64.40 286.93,64.59 287.49,64.75 288.06,64.89 288.62,65.02 289.18,65.18 289.75,65.36 290.31,65.56 290.87,65.77 291.44,65.97 292.00,66.18 292.56,66.42 293.13,66.76 293.69,67.23 294.25,67.89 294.82,68.70 295.38,69.60 295.94,70.44 296.51,71.07 297.07,71.30 297.63,71.01 298.20,70.13 298.76,68.71 299.32,66.84 299.89,64.72 300.45,62.53 301.01,60.47 301.58,58.70 302.14,57.31 302.70,56.36 303.27,55.82 303.83,55.65 304.39,55.78 304.96,56.14 305.52,56.65 306.08,57.25 306.65,57.87 307.21,58.45 307.77,58.98 308.34,59.43 308.90,59.83 309.46,60.22 310.03,60.64 310.59,61.11 311.15,61.64 311.72,62.24 312.28,62.92 312.85,63.70 313.41,64.59 313.97,65.62 314.54,66.77 315.10,67.97 315.66,69.14 316.23,70.13 316.79,70.83 317.35,71.17 317.92,71.12 318.48,70.71 319.04,70.02 319.61,69.11 320.17,68.08 320.73,66.97 321.30,65.88 321.86,64.89 322.42,64.08 322.99,63.53 323.55,63.28 324.11,63.32 324.68,63.58 325.24,63.97 325.80,64.40 326.37,64.80 326.93,65.16 327.49,65.48 328.06,65.80 328.62,66.15 329.18,66.51 329.75,66.85 330.31,67.14 330.87,67.33 331.44,67.42 332.00,67.44 332.56,67.44 333.13,67.48 333.69,67.60 334.25,67.80 334.82,68.02 335.38,68.17 335.94,68.13 336.51,67.79 337.07,67.08 337.63,66.00 338.20,64.61 338.76,63.03 339.32,61.39 339.89,59.84 340.45,58.50 341.01,57.46 341.58,56.76 342.14,56.43 342.70,56.47 343.27,56.86 343.83,57.51 344.39,58.33 344.96,59.20 345.52,60.01 346.08,60.70 346.65,61.27 347.21,61.78 347.77,62.29 348.34,62.87 348.90,63.55 349.46,64.30 350.03,65.07 350.59,65.80 351.15,66.45 351.72,67.03 352.28,67.57 352.85,68.16 353.41,68.84 353.97,69.66 354.54,70.58 355.10,71.51 355.66,72.29 356.23,72.80 356.79,72.89 357.35,72.51 357.92,71.69 358.48,70.51 359.04,69.11 359.61,67.65 360.17,66.27 360.73,65.04 361.30,64.04 361.86,63.29 362.42,62.80 362.99,62.54 363.55,62.49 364.11,62.59 364.68,62.77 365.24,62.94 365.80,63.05 366.37,63.08 366.93,63.01 367.49,62.91 368.06,62.83 368.62,62.82 369.18,62.93 369.75,63.15 370.31,63.46 370.87,63.83 371.44,64.26 372.00,64.74 372.56,65.29 373.13,65.95 373.69,66.73 374.25,67.62 374.82,68.59 375.38,69.57 375.94,70.43 376.51,71.06 377.07,71.35 377.63,71.23 378.20,70.70 378.76,69.81 379.32,68.64 379.89,67.31 380.45,65.94 381.01,64.61 381.58,63.42 382.14,62.41 382.70,61.65 383.27,61.14 383.83,60.88 384.39,60.83 384.96,60.92 385.52,61.07 386.08,61.21 386.65,61.27 387.21,61.27 387.77,61.24 388.34,61.24 388.90,61.31 389.46,61.48 390.03,61.73 390.59,62.04 391.15,62.37 391.72,62.71 392.28,63.08 392.85,63.54 393.41,64.16 393.97,64.98 394.54,66.00 395.10,67.15 395.66,68.32 396.23,69.32 396.79,70.00 397.35,70.24 397.92,69.96 398.48,69.20 399.04,68.06 399.61,66.69 400.17,65.24 400.73,63.85 401.30,62.60 401.86,61.55 402.42,60.73 402.99,60.19 403.55,59.91 404.11,59.89 404.68,60.08 405.24,60.41 405.80,60.79 406.37,61.13 406.93,61.38 407.49,61.54 408.06,61.66 408.62,61.79 409.18,62.01 409.75,62.32 410.31,62.71 410.87,63.15 411.44,63.62 412.00,64.09 412.56,64.59 413.13,65.18 413.69,65.91 414.25,66.80 414.82,67.84 415.38,68.96 415.94,70.05 416.51,70.95 417.07,71.52 417.63,71.64 418.20,71.27 418.76,70.44 419.32,69.27 419.89,67.90 420.45,66.48 421.01,65.15 421.58,63.97 422.14,62.98 422.70,62.20 423.27,61.63 423.83,61.28 424.39,61.13 424.96,61.16 425.52,61.32 426.08,61.53 426.65,61.71 427.21,61.82 427.77,61.86 428.34,61.87 428.90,61.91 429.46,62.04 430.03,62.27 430.59,62.62 431.15,63.02 431.72,63.43 432.28,63.82 432.85,64.18 433.41,64.54 433.97,64.96 434.54,65.50 435.10,66.22 435.66,67.10 436.23,68.10 436.79,69.11 437.35,69.98 437.92,70.55 438.48,70.71 439.04,70.36 439.61,69.54 440.17,68.31 440.73,66.82 441.30,65.25 441.86,63.77 442.42,62.56 442.99,61.71 443.55,61.30 444.11,61.33 444.68,61.76 445.24,62.46 445.80,63.30 446.37,64.13 446.93,64.83 447.49,65.34 448.06,65.64 448.62,65.77 449.18,65.80 449.75,65.77 450.31,65.72 450.87,65.63 451.44,65.48 452.00,65.24" fill="none" stroke="#2F855A" stroke-width="2.0" stroke-linecap="round" stroke-linejoin="round"/>
<text x="82.0" y="123.0" text-anchor="end" font-family="Arial, Helvetica, sans-serif" font-size="13" font-weight="700" fill="#111827">Polar ECG</text>
<polyline points="92.00,119.90 92.14,119.87 92.28,119.33 92.42,118.40 92.55,117.39 92.69,116.23 92.83,115.14 92.97,114.69 93.11,114.57 93.25,114.02 93.39,113.34 93.52,113.46 93.66,114.92 93.80,117.51 93.94,119.74 94.08,120.12 94.22,119.23 94.35,118.25 94.49,117.20 94.63,116.37 94.77,116.39 94.91,116.58 95.05,115.98 95.19,114.91 95.32,113.75 95.46,112.92 95.60,113.00 95.74,112.31 95.88,107.94 96.02,100.08 96.16,92.65 96.29,93.62 96.43,109.95 96.57,130.93 96.71,134.20 96.85,120.16 96.99,110.18 97.13,110.05 97.26,110.49 97.40,110.35 97.54,112.03 97.68,112.92 97.82,112.38 97.96,112.62 98.09,114.13 98.23,115.85 98.37,116.44 98.51,115.81 98.65,115.51 98.79,115.91 98.93,116.35 99.06,117.04 99.20,117.70 99.34,117.90 99.48,118.56 99.62,119.44 99.76,119.59 99.90,120.49 100.03,122.79 100.17,123.83 100.31,122.84 100.45,122.23 100.59,123.08 100.73,125.21 100.86,128.51 101.00,131.09 101.14,130.96 101.28,129.67 101.42,129.44 101.56,129.65 101.70,129.16 101.83,128.29 101.97,127.24 102.11,125.86 102.25,124.47 102.39,123.64 102.53,123.62 102.67,123.73 102.80,122.92 102.94,121.74 103.08,121.38 103.22,121.29 103.36,120.96 103.50,121.51 103.64,122.50 103.77,122.04 103.91,120.73 104.05,120.13 104.19,119.68 104.33,118.86 104.47,118.30 104.60,117.67 104.74,116.63 104.88,116.04 105.02,115.92 105.16,115.56 105.30,115.35 105.44,115.61 105.57,115.85 105.71,115.78 105.85,115.24 105.99,114.39 106.13,114.22 106.27,114.97 106.41,115.51 106.54,115.19 106.68,114.41 106.82,113.89 106.96,114.26 107.10,114.23 107.24,111.07 107.38,104.49 107.51,97.43 107.65,96.62 107.79,110.64 107.93,133.37 108.07,141.60 108.21,129.31 108.34,118.11 108.48,119.30 108.62,122.15 108.76,121.38 108.90,121.45 109.04,122.12 109.18,121.32 109.31,120.86 109.45,121.86 109.59,123.56 109.73,125.47 109.87,126.55 110.01,125.79 110.15,124.07 110.28,122.52 110.42,121.46 110.56,121.19 110.70,121.18 110.84,120.30 110.98,118.76 111.12,117.34 111.25,116.31 111.39,116.45 111.53,117.83 111.67,118.78 111.81,118.73 111.95,118.67 112.08,119.22 112.22,121.05 112.36,124.16 112.50,126.39 112.64,126.54 112.78,125.95 112.92,125.36 113.05,125.19 113.19,126.47 113.33,127.94 113.47,127.11 113.61,124.83 113.75,123.40 113.89,122.87 114.02,122.49 114.16,122.06 114.30,121.22 114.44,119.94 114.58,118.73 114.72,117.96 114.85,117.76 114.99,117.92 115.13,117.70 115.27,116.68 115.41,115.52 115.55,114.88 115.69,114.69 115.82,115.18 115.96,116.35 116.10,116.66 116.24,115.28 116.38,114.03 116.52,114.56 116.66,116.44 116.79,118.52 116.93,119.38 117.07,118.68 117.21,117.95 117.35,117.80 117.49,117.32 117.63,117.39 117.76,119.03 117.90,120.22 118.04,119.45 118.18,118.33 118.32,118.06 118.46,118.06 118.59,117.12 118.73,113.58 118.87,107.17 119.01,100.44 119.15,99.55 119.29,112.88 119.43,136.17 119.56,146.90 119.70,135.94 119.84,123.28 119.98,122.07 120.12,122.89 120.26,121.08 120.40,121.86 120.53,123.96 120.67,123.62 120.81,122.45 120.95,122.30 121.09,123.07 121.23,124.27 121.37,124.55 121.50,123.34 121.64,121.84 121.78,120.62 121.92,119.41 122.06,118.46 122.20,117.89 122.33,117.36 122.47,116.55 122.61,115.26 122.75,114.37 122.89,115.21 123.03,117.11 123.17,118.07 123.30,117.90 123.44,117.79 123.58,118.19 123.72,119.10 123.86,120.40 124.00,121.32 124.14,121.37 124.27,121.06 124.41,120.51 124.55,119.53 124.69,119.17 124.83,120.27 124.97,121.15 125.11,120.17 125.24,118.51 125.38,117.91 125.52,118.25 125.66,118.47 125.80,118.05 125.94,117.06 126.07,115.70 126.21,114.82 126.35,115.75 126.49,117.76 126.63,118.54 126.77,118.56 126.91,119.81 127.04,121.05 127.18,120.63 127.32,120.05 127.46,120.05 127.60,119.13 127.74,117.16 127.88,115.74 128.01,115.60 128.15,116.17 128.29,116.46 128.43,116.00 128.57,115.31 128.71,115.07 128.84,115.50 128.98,116.83 129.12,118.99 129.26,120.78 129.40,120.98 129.54,120.33 129.68,120.59 129.81,121.63 129.95,122.19 130.09,121.66 130.23,118.81 130.37,112.69 130.51,105.58 130.65,102.62 130.78,111.18 130.92,132.64 131.06,149.95 131.20,145.36 131.34,129.61 131.48,123.26 131.62,124.37 131.75,122.96 131.89,120.94 132.03,121.14 132.17,120.86 132.31,119.72 132.45,119.82 132.58,121.13 132.72,121.95 132.86,121.23 133.00,119.77 133.14,118.74 133.28,117.93 133.42,116.95 133.55,116.31 133.69,116.34 133.83,116.52 133.97,116.11 134.11,115.02 134.25,114.23 134.39,114.08 134.52,113.80 134.66,113.52 134.80,114.05 134.94,114.91 135.08,116.04 135.22,118.51 135.36,121.40 135.49,122.46 135.63,122.11 135.77,122.70 135.91,124.76 136.05,126.57 136.19,126.66 136.32,125.63 136.46,124.71 136.60,123.68 136.74,122.29 136.88,121.33 137.02,120.93 137.16,120.50 137.29,120.02 137.43,119.35 137.57,118.10 137.71,116.90 137.85,116.58 137.99,116.98 138.13,117.94 138.26,119.16 138.40,119.46 138.54,118.77 138.68,119.04 138.82,120.70 138.96,121.43 139.10,120.29 139.23,118.68 139.37,117.21 139.51,116.01 139.65,116.00 139.79,116.73 139.93,116.59 140.06,115.62 140.20,115.09 140.34,115.63 140.48,117.10 140.62,118.47 140.76,118.60 140.90,117.81 141.03,117.01 141.17,116.84 141.31,118.21 141.45,120.85 141.59,123.03 141.73,123.70 141.87,121.62 142.00,115.94 142.14,109.81 142.28,108.43 142.42,116.55 142.56,135.20 142.70,151.14 142.83,147.39 142.97,131.72 143.11,124.53 143.25,125.27 143.39,123.28 143.53,120.20 143.67,119.68 143.80,119.17 143.94,118.31 144.08,118.39 144.22,118.04 144.36,116.64 144.50,115.36 144.64,114.59 144.77,114.64 144.91,116.11 145.05,117.60 145.19,117.06 145.33,115.06 145.47,113.51 145.61,112.96 145.74,113.24 145.88,113.90 146.02,113.94 146.16,113.18 146.30,112.70 146.44,113.09 146.57,114.08 146.71,115.19 146.85,116.05 146.99,117.26 147.13,119.39 147.27,121.04 147.41,121.10 147.54,120.82 147.68,120.81 147.82,120.30 147.96,119.77 148.10,119.73 148.24,119.63 148.38,120.08 148.51,121.37 148.65,121.56 148.79,120.34 148.93,119.63 149.07,119.34 149.21,118.47 149.35,117.72 149.48,117.44 149.62,117.06 149.76,116.66 149.90,116.21 150.04,115.53 150.18,115.18 150.31,115.17 150.45,114.87 150.59,114.51 150.73,114.30 150.87,113.81 151.01,113.75 151.15,115.30 151.28,117.99 151.42,120.50 151.56,122.11 151.70,122.66 151.84,123.10 151.98,124.66 152.12,126.67 152.25,127.51 152.39,127.32 152.53,127.38 152.67,127.88 152.81,128.27 152.95,128.32 153.09,127.80 153.22,126.86 153.36,125.75 153.50,123.42 153.64,118.47 153.78,111.76 153.92,107.32 154.05,112.57 154.19,130.77 154.33,148.44 154.47,148.03 154.61,135.22 154.75,127.87 154.89,126.98 155.02,124.64 155.16,121.69 155.30,120.72 155.44,120.40 155.58,119.99 155.72,119.35 155.86,118.61 155.99,118.66 156.13,118.68 156.27,117.49 156.41,116.38 156.55,116.10 156.69,115.26 156.82,113.39 156.96,111.47 157.10,110.33 157.24,110.17 157.38,110.04 157.52,109.13 157.66,108.32 157.79,108.20 157.93,108.41 158.07,109.93 158.21,113.12 158.35,115.36 158.49,115.35 158.63,115.20 158.76,116.13 158.90,117.25 159.04,118.01 159.18,118.20 159.32,117.68 159.46,116.96 159.60,116.59 159.73,116.58 159.87,116.64 160.01,116.27 160.15,115.26 160.29,114.57 160.43,115.22 160.56,116.53 160.70,117.14 160.84,117.09 160.98,116.83 161.12,116.31 161.26,115.67 161.40,115.29 161.53,116.14 161.67,118.96 161.81,121.55 161.95,121.12 162.09,119.25 162.23,118.77 162.37,119.28 162.50,119.69 162.64,120.05 162.78,120.17 162.92,119.94 163.06,119.83 163.20,120.69 163.34,123.20 163.47,125.92 163.61,126.81 163.75,126.77 163.89,127.27 164.03,127.60 164.17,127.91 164.30,129.12 164.44,129.98 164.58,129.47 164.72,128.66 164.86,127.08 165.00,122.14 165.14,113.98 165.27,109.39 165.41,118.16 165.55,137.75 165.69,148.44 165.83,139.90 165.97,126.97 166.11,122.84 166.24,122.00 166.38,119.24 166.52,117.57 166.66,117.26 166.80,116.18 166.94,115.27 167.08,115.26 167.21,115.27 167.35,114.97 167.49,114.14 167.63,112.86 167.77,112.82 167.91,114.59 168.04,115.62 168.18,114.11 168.32,111.71 168.46,110.31 168.60,109.75 168.74,109.56 168.88,109.44 169.01,109.09 169.15,108.99 169.29,110.15 169.43,112.39 169.57,114.49 169.71,115.83 169.85,116.83 169.98,117.66 170.12,117.82 170.26,117.74 170.40,118.87 170.54,120.86 170.68,121.52 170.81,120.39 170.95,118.88 171.09,117.90 171.23,118.63 171.37,121.60 171.51,123.93 171.65,122.98 171.78,120.81 171.92,119.85 172.06,119.31 172.20,118.85 172.34,119.78 172.48,121.72 172.62,122.43 172.75,121.31 172.89,120.35 173.03,120.70 173.17,120.88 173.31,119.63 173.45,117.92 173.59,117.51 173.72,119.32 173.86,122.76 174.00,125.78 174.14,126.77 174.28,125.98 174.42,124.74 174.55,124.26 174.69,124.95 174.83,126.09 174.97,126.82 175.11,127.06 175.25,127.02 175.39,126.83 175.52,126.53 175.66,125.15 175.80,120.59 175.94,111.96 176.08,104.29 176.22,109.02 176.36,128.99 176.49,145.74 176.63,142.20 176.77,128.73 176.91,122.92 177.05,122.65 177.19,120.11 177.33,117.98 177.46,119.22 177.60,120.59 177.74,120.05 177.88,119.01 178.02,118.48 178.16,118.28 178.29,118.34 178.43,118.37 178.57,117.70 178.71,116.50 178.85,115.47 178.99,114.33 179.13,112.87 179.26,111.73 179.40,110.96 179.54,110.10 179.68,109.48 179.82,109.29 179.96,109.21 180.10,109.55 180.23,110.57 180.37,111.70 180.51,112.63 180.65,113.46 180.79,114.17 180.93,115.45 181.07,117.85 181.20,119.95 181.34,120.72 181.48,121.66 181.62,123.34 181.76,124.34 181.90,124.92 182.03,125.84 182.17,125.74 182.31,124.09 182.45,122.64 182.59,122.33 182.73,122.72 182.87,123.24 183.00,123.16 183.14,122.20 183.28,120.95 183.42,120.10 183.56,120.34 183.70,121.57 183.84,122.13 183.97,121.22 184.11,120.22 184.25,119.55 184.39,118.58 184.53,118.31 184.67,119.21 184.80,119.27 184.94,117.73 185.08,116.55 185.22,116.97 185.36,118.14 185.50,118.83 185.64,118.57 185.77,117.71 185.91,116.75 186.05,116.36 186.19,117.10 186.33,117.33 186.47,114.19 186.61,108.00 186.74,103.98 186.88,110.25 187.02,128.65 187.16,144.84 187.30,143.06 187.44,130.21 187.58,123.45 187.71,123.36 187.85,122.01 187.99,120.61 188.13,122.27 188.27,123.62 188.41,122.19 188.54,120.24 188.68,119.37 188.82,118.99 188.96,118.70 189.10,118.21 189.24,117.14 189.38,115.92 189.51,114.86 189.65,113.97 189.79,114.31 189.93,115.85 190.07,116.05 190.21,114.05 190.35,112.50 190.48,113.39 190.62,115.81 190.76,117.78 190.90,118.10 191.04,117.71 191.18,118.21 191.32,119.26 191.45,120.17 191.59,121.42 191.73,122.43 191.87,122.13 192.01,121.55 192.15,121.51 192.28,121.37 192.42,121.92 192.56,123.62 192.70,123.92 192.84,122.16 192.98,121.18 193.12,121.53 193.25,121.68 193.39,122.07 193.53,122.77 193.67,122.28 193.81,120.79 193.95,119.48 194.09,118.32 194.22,117.47 194.36,117.46 194.50,117.86 194.64,118.04 194.78,117.74 194.92,117.12 195.06,116.72 195.19,116.68 195.33,116.63 195.47,116.64 195.61,116.56 195.75,115.77 195.89,114.87 196.02,115.26 196.16,116.69 196.30,117.63 196.44,117.21 196.58,114.78 196.72,109.71 196.86,103.18 196.99,99.90 197.13,107.54 197.27,126.50 197.41,140.59 197.55,136.19 197.69,124.18 197.83,120.21 197.96,121.16 198.10,120.16 198.24,119.54 198.38,120.16 198.52,119.68 198.66,119.32 198.79,120.03 198.93,119.91 199.07,118.60 199.21,117.45 199.35,117.16 199.49,118.19 199.63,120.28 199.76,121.92 199.90,122.29 200.04,121.49 200.18,119.78 200.32,118.46 200.46,118.69 200.60,119.37 200.73,118.89 200.87,117.51 201.01,116.48 201.15,117.10 201.29,119.88 201.43,122.98 201.57,123.98 201.70,123.36 201.84,123.13 201.98,123.71 202.12,124.49 202.26,124.88 202.40,124.44 202.53,123.53 202.67,122.67 202.81,122.08 202.95,122.65 203.09,124.44 203.23,125.10 203.37,123.39 203.50,121.20 203.64,120.07 203.78,119.59 203.92,119.22 204.06,118.59 204.20,117.47 204.34,116.53 204.47,116.34 204.61,116.50 204.75,116.64 204.89,117.26 205.03,118.31 205.17,118.71 205.31,118.16 205.44,117.63 205.58,117.71 205.72,117.94 205.86,117.77 206.00,117.36 206.14,117.02 206.27,116.63 206.41,116.47 206.55,116.58 206.69,114.44 206.83,107.61 206.97,99.65 207.11,100.11 207.24,114.98 207.38,134.13 207.52,138.17 207.66,125.85 207.80,115.40 207.94,114.12 208.08,113.63 208.21,111.37 208.35,111.45 208.49,113.04 208.63,113.41 208.77,113.27 208.91,114.07 209.05,115.89 209.18,117.79 209.32,119.14 209.46,120.32 209.60,121.37 209.74,121.44 209.88,120.97 210.01,121.52 210.15,123.10 210.29,123.96 210.43,123.26 210.57,121.96 210.71,120.96 210.85,120.35 210.98,120.33 211.12,121.06 211.26,122.04 211.40,122.68 211.54,122.95 211.68,123.50 211.82,125.20 211.95,127.57 212.09,128.93 212.23,128.90 212.37,128.21 212.51,127.17 212.65,126.92 212.78,128.50 212.92,129.80 213.06,128.50 213.20,126.10 213.34,124.51 213.48,123.23 213.62,122.54 213.75,123.37 213.89,124.24 214.03,123.28 214.17,121.37 214.31,120.31 214.45,120.48 214.59,121.12 214.72,121.10 214.86,120.20 215.00,119.24 215.14,118.67 215.28,118.55 215.42,119.04 215.56,119.46 215.69,118.88 215.83,117.68 215.97,116.68 216.11,116.45 216.25,117.66 216.39,119.23 216.52,117.79 216.66,111.92 216.80,103.82 216.94,97.55 217.08,100.75 217.22,118.09 217.36,136.03 217.49,135.15 217.63,120.83 217.77,112.81 217.91,113.10 218.05,113.45 218.19,114.36 218.33,116.92 218.46,117.34 218.60,115.97 218.74,116.23 218.88,117.94 219.02,118.91 219.16,118.24 219.30,116.56 219.43,115.17 219.57,114.55 219.71,113.91 219.85,112.85 219.99,111.83 220.13,111.44 220.26,111.56 220.40,111.54 220.54,111.37 220.68,111.51 220.82,111.85 220.96,112.48 221.10,114.01 221.23,116.12 221.37,118.30 221.51,120.83 221.65,123.17 221.79,124.38 221.93,125.40 222.07,126.68 222.20,127.16 222.34,127.78 222.48,130.20 222.62,132.87 222.76,133.74 222.90,133.24 223.04,132.14 223.17,130.63 223.31,129.32 223.45,128.38 223.59,127.39 223.73,126.18 223.87,124.62 224.00,123.00 224.14,122.10 224.28,122.03 224.42,122.12 224.56,121.89 224.70,121.13 224.84,120.17 224.97,119.81 225.11,120.10 225.25,120.25 225.39,120.00 225.53,119.35 225.67,118.23 225.81,117.54 225.94,118.51 226.08,120.35 226.22,121.00 226.36,119.17 226.50,114.28 226.64,107.01 226.77,100.32 226.91,100.89 227.05,115.61 227.19,136.70 227.33,142.58 227.47,129.52 227.61,118.14 227.74,117.96 227.88,118.67 228.02,116.00 228.16,114.56 228.30,114.31 228.44,113.71 228.58,114.61 228.71,116.54 228.85,116.54 228.99,114.76 229.13,113.24 229.27,112.30 229.41,111.70 229.55,111.55 229.68,111.11 229.82,109.82 229.96,108.26 230.10,106.99 230.24,106.38 230.38,106.74 230.51,107.34 230.65,107.26 230.79,106.91 230.93,107.14 231.07,108.22 231.21,110.07 231.35,112.53 231.48,115.64 231.62,119.01 231.76,121.10 231.90,121.87 232.04,123.98 232.18,128.06 232.32,130.79 232.45,130.61 232.59,129.91 232.73,130.46 232.87,131.33 233.01,131.40 233.15,130.53 233.29,129.11 233.42,127.82 233.56,127.04 233.70,126.45 233.84,125.77 233.98,125.14 234.12,124.46 234.25,123.73 234.39,123.47 234.53,123.71 234.67,124.00 234.81,124.18 234.95,123.98 235.09,123.19 235.22,122.39 235.36,121.85 235.50,121.62 235.64,122.45 235.78,123.73 235.92,123.66 236.06,123.50 236.19,125.27 236.33,126.05 236.47,121.84 236.61,113.90 236.75,107.73 236.89,111.72 237.03,128.82 237.16,143.83 237.30,139.77 237.44,125.46 237.58,118.92 237.72,118.79 237.86,117.01 237.99,115.32 238.13,115.84 238.27,116.56 238.41,117.07 238.55,117.33 238.69,116.57 238.83,115.28 238.96,114.08 239.10,113.00 239.24,112.33 239.38,111.92 239.52,111.17 239.66,109.98 239.80,108.59 239.93,107.46 240.07,107.06 240.21,107.05 240.35,107.08 240.49,107.76 240.63,109.15 240.76,110.17 240.90,110.91 241.04,112.47 241.18,114.50 241.32,115.74 241.46,116.04 241.60,116.28 241.73,117.66 241.87,120.36 242.01,122.43 242.15,122.55 242.29,122.17 242.43,122.22 242.57,122.44 242.70,123.62 242.84,125.26 242.98,125.07 243.12,123.67 243.26,123.44 243.40,124.05 243.54,124.66 243.67,125.53 243.81,125.67 243.95,124.39 244.09,123.04 244.23,122.78 244.37,124.19 244.50,127.07 244.64,128.75 244.78,127.88 244.92,127.28 245.06,128.27 245.20,128.62 245.34,128.58 245.47,129.91 245.61,130.83 245.75,129.43 245.89,127.41 246.03,126.42 246.17,126.19 246.31,125.83 246.44,123.37 246.58,117.16 246.72,108.30 246.86,102.06 247.00,107.83 247.14,127.19 247.28,141.78 247.41,135.72 247.55,121.55 247.69,116.84 247.83,117.76 247.97,116.88 248.11,116.72 248.24,117.30 248.38,115.75 248.52,114.06 248.66,113.95 248.80,113.76 248.94,113.06 249.08,112.36 249.21,111.36 249.35,110.75 249.49,111.30 249.63,111.74 249.77,111.00 249.91,109.88 250.05,108.87 250.18,107.75 250.32,106.92 250.46,106.74 250.60,107.00 250.74,107.54 250.88,108.31 251.02,109.27 251.15,110.23 251.29,111.18 251.43,113.10 251.57,116.14 251.71,118.27 251.85,118.68 251.98,118.91 252.12,119.27 252.26,119.28 252.40,120.01 252.54,121.23 252.68,121.07 252.82,120.13 252.95,120.24 253.09,120.83 253.23,120.74 253.37,120.35 253.51,120.04 253.65,119.70 253.79,119.86 253.92,121.10 254.06,123.46 254.20,126.27 254.34,128.22 254.48,129.17 254.62,130.64 254.75,132.40 254.89,132.59 255.03,131.87 255.17,131.89 255.31,131.69 255.45,130.28 255.59,128.67 255.72,127.60 255.86,126.92 256.00,126.54 256.14,126.09 256.28,125.34 256.42,124.11 256.56,121.11 256.69,115.33 256.83,108.03 256.97,103.31 257.11,109.07 257.25,127.31 257.39,141.50 257.53,136.51 257.66,124.27 257.80,121.17 257.94,121.74 258.08,118.39 258.22,116.27 258.36,117.74 258.49,118.62 258.63,118.11 258.77,117.56 258.91,116.59 259.05,114.89 259.19,113.26 259.33,112.53 259.46,112.63 259.60,112.28 259.74,110.81 259.88,109.13 260.02,107.76 260.16,106.72 260.30,106.60 260.43,107.29 260.57,107.62 260.71,107.15 260.85,106.51 260.99,106.81 261.13,109.08 261.27,112.49 261.40,114.65 261.54,114.93 261.68,114.91 261.82,115.67 261.96,117.41 262.10,119.84 262.23,121.50 262.37,121.11 262.51,119.72 262.65,119.49 262.79,120.76 262.93,121.96 263.07,122.19 263.20,122.24 263.34,122.48 263.48,122.38 263.62,123.08 263.76,126.13 263.90,129.64 264.04,130.56 264.17,129.46 264.31,128.96 264.45,129.64 264.59,130.47 264.73,130.79 264.87,130.49 265.01,129.80 265.14,129.27 265.28,128.85 265.42,128.06 265.56,127.24 265.70,126.77 265.84,126.08 265.97,125.08 266.11,124.30 266.25,123.46 266.39,122.53 266.53,122.00 266.67,120.48 266.81,115.86 266.94,108.58 267.08,102.12 267.22,104.88 267.36,123.24 267.50,143.95 267.64,145.06 267.78,130.31 267.91,121.07 268.05,120.43 268.19,118.80 268.33,116.46 268.47,116.61 268.61,116.45 268.74,114.74 268.88,113.42 269.02,112.86 269.16,112.44 269.30,112.04 269.44,111.41 269.58,110.35 269.71,109.03 269.85,107.79 269.99,107.24 270.13,107.56 270.27,107.80 270.41,107.08 270.55,105.77 270.68,104.94 270.82,105.70 270.96,108.10 271.10,110.33 271.24,110.99 271.38,110.90 271.52,111.52 271.65,113.95 271.79,118.16 271.93,121.60 272.07,122.13 272.21,121.27 272.35,120.69 272.48,120.27 272.62,121.36 272.76,124.84 272.90,127.60 273.04,127.27 273.18,126.08 273.32,126.55 273.45,128.25 273.59,129.69 273.73,129.56 273.87,127.80 274.01,126.11 274.15,125.78 274.29,126.37 274.42,127.19 274.56,127.86 274.70,127.77 274.84,126.86 274.98,126.01 275.12,126.04 275.26,126.70 275.39,126.99 275.53,126.54 275.67,125.62 275.81,124.49 275.95,123.84 276.09,124.34 276.22,125.10 276.36,124.82 276.50,123.87 276.64,123.20 276.78,122.58 276.92,121.08 277.06,117.76 277.19,111.85 277.33,105.42 277.47,107.35 277.61,124.06 277.75,141.90 277.89,140.73 278.03,126.21 278.16,118.29 278.30,118.01 278.44,116.21 278.58,114.02 278.72,114.23 278.86,114.09 278.99,112.91 279.13,112.22 279.27,111.77 279.41,111.07 279.55,110.52 279.69,110.38 279.83,110.47 279.96,110.19 280.10,109.32 280.24,108.26 280.38,107.35 280.52,107.04 280.66,107.46 280.80,107.62 280.93,107.10 281.07,106.80 281.21,107.04 281.35,107.99 281.49,110.32 281.63,113.20 281.77,115.61 281.90,118.38 282.04,121.05 282.18,121.77 282.32,121.46 282.46,121.90 282.60,122.43 282.73,122.29 282.87,121.72 283.01,121.40 283.15,123.02 283.29,126.60 283.43,128.70 283.57,127.75 283.70,126.16 283.84,125.24 283.98,124.57 284.12,124.73 284.26,125.77 284.40,126.49 284.54,126.59 284.67,126.33 284.81,125.48 284.95,124.75 285.09,125.35 285.23,126.44 285.37,126.35 285.51,125.40 285.64,124.79 285.78,124.77 285.92,125.10 286.06,125.45 286.20,125.44 286.34,124.80 286.47,123.44 286.61,122.62 286.75,123.98 286.89,125.83 287.03,125.34 287.17,123.50 287.31,121.59 287.44,117.50 287.58,110.60 287.72,103.91 287.86,102.63 288.00,113.53 288.14,132.61 288.28,140.15 288.41,129.08 288.55,117.53 288.69,116.16 288.83,115.87 288.97,112.69 289.11,111.39 289.25,111.76 289.38,111.97 289.52,113.07 289.66,113.98 289.80,112.99 289.94,111.43 290.08,110.99 290.21,111.75 290.35,112.98 290.49,113.28 290.63,111.90 290.77,110.11 290.91,109.88 291.05,111.61 291.18,113.47 291.32,113.46 291.46,112.20 291.60,111.53 291.74,111.69 291.88,112.21 292.02,113.22 292.15,114.37 292.29,114.98 292.43,115.46 292.57,116.41 292.71,117.82 292.85,120.39 292.98,124.50 293.12,127.52 293.26,127.22 293.40,125.89 293.54,125.69 293.68,125.17 293.82,124.19 293.95,124.72 294.09,126.08 294.23,126.46 294.37,126.44 294.51,126.80 294.65,126.93 294.79,126.64 294.92,126.10 295.06,125.42 295.20,124.84 295.34,124.31 295.48,123.65 295.62,122.99 295.76,122.50 295.89,122.45 296.03,122.65 296.17,122.32 296.31,122.07 296.45,123.45 296.59,125.36 296.72,125.51 296.86,124.34 297.00,123.33 297.14,122.51 297.28,121.75 297.42,121.34 297.56,120.98 297.69,120.27 297.83,119.53 297.97,118.59 298.11,115.89 298.25,110.67 298.39,104.67 298.53,101.25 298.66,106.49 298.80,123.71 298.94,140.23 299.08,139.19 299.22,126.74 299.36,120.25 299.50,119.87 299.63,117.75 299.77,115.27 299.91,115.11 300.05,115.81 300.19,117.05 300.33,118.56 300.46,118.32 300.60,116.45 300.74,115.25 300.88,115.20 301.02,114.96 301.16,113.90 301.30,112.38 301.43,110.68 301.57,109.14 301.71,108.47 301.85,108.52 301.99,108.20 302.13,107.39 302.27,106.91 302.40,107.27 302.54,109.36 302.68,113.65 302.82,118.31 302.96,121.25 303.10,122.53 303.24,123.18 303.37,123.94 303.51,124.93 303.65,125.52 303.79,125.54 303.93,125.66 304.07,126.00 304.20,126.70 304.34,127.90 304.48,128.40 304.62,127.31 304.76,125.83 304.90,125.04 305.04,124.66 305.17,124.56 305.31,124.73 305.45,124.67 305.59,124.12 305.73,123.20 305.87,122.26 306.01,122.29 306.14,123.73 306.28,124.78 306.42,123.80 306.56,122.05 306.70,121.17 306.84,120.60 306.97,119.89 307.11,119.87 307.25,120.67 307.39,121.41 307.53,121.52 307.67,121.30 307.81,121.36 307.94,121.44 308.08,120.67 308.22,119.34 308.36,118.53 308.50,118.31 308.64,118.52 308.78,119.63 308.91,120.76 309.05,120.35 309.19,118.50 309.33,115.78 309.47,111.63 309.61,106.03 309.75,103.84 309.88,114.13 310.02,134.20 310.16,143.26 310.30,132.00 310.44,118.56 310.58,116.00 310.71,115.99 310.85,113.20 310.99,112.02 311.13,112.15 311.27,110.98 311.41,110.04 311.55,110.21 311.68,110.66 311.82,111.52 311.96,112.03 312.10,111.29 312.24,111.13 312.38,112.66 312.52,113.59 312.65,112.61 312.79,111.05 312.93,110.06 313.07,110.47 313.21,112.71 313.35,114.98 313.49,115.37 313.62,114.66 313.76,114.49 313.90,115.70 314.04,118.63 314.18,122.38 314.32,125.23 314.45,126.76 314.59,127.44 314.73,127.47 314.87,127.56 315.01,128.47 315.15,129.39 315.29,129.06 315.42,127.58 315.56,125.96 315.70,125.40 315.84,126.44 315.98,127.70 316.12,127.82 316.26,127.38 316.39,126.75 316.53,125.56 316.67,124.73 316.81,124.81 316.95,124.32 317.09,122.70 317.23,121.09 317.36,120.09 317.50,119.76 317.64,119.98 317.78,119.81 317.92,118.74 318.06,117.36 318.19,116.07 318.33,115.53 318.47,116.96 318.61,119.49 318.75,120.45 318.89,119.28 319.03,117.90 319.16,117.94 319.30,119.76 319.44,122.09 319.58,122.66 319.72,121.14 319.86,119.52 320.00,118.86 320.13,118.64 320.27,118.43 320.41,118.01 320.55,116.60 320.69,113.02 320.83,106.74 320.96,100.21 321.10,101.35 321.24,116.82 321.38,136.00 321.52,138.46 321.66,125.06 321.80,115.69 321.93,116.06 322.07,116.76 322.21,115.11 322.35,114.22 322.49,113.68 322.63,112.85 322.77,113.09 322.90,114.61 323.04,115.94 323.18,116.30 323.32,116.23 323.46,116.04 323.60,115.42 323.74,114.60 323.87,114.01 324.01,113.65 324.15,113.78 324.29,114.37 324.43,114.88 324.57,115.51 324.70,116.54 324.84,117.34 324.98,118.21 325.12,119.90 325.26,121.61 325.40,122.95 325.54,125.21 325.67,127.81 325.81,128.66 325.95,128.27 326.09,128.08 326.23,127.75 326.37,127.03 326.51,126.57 326.64,126.26 326.78,125.56 326.92,124.38 327.06,123.05 327.20,121.94 327.34,121.19 327.48,121.36 327.61,122.93 327.75,124.22 327.89,123.50 328.03,122.75 328.17,124.16 328.31,125.72 328.44,125.21 328.58,123.73 328.72,122.48 328.86,121.22 329.00,120.46 329.14,120.49 329.28,120.20 329.41,119.49 329.55,119.54 329.69,119.79 329.83,118.98 329.97,118.09 330.11,118.15 330.25,118.03 330.38,116.99 330.52,115.94 330.66,115.59 330.80,115.91 330.94,116.32 331.08,116.14 331.22,115.59 331.35,114.97 331.49,114.41 331.63,114.90 331.77,116.41 331.91,116.99 332.05,116.07 332.18,113.94 332.32,109.40 332.46,103.20 332.60,99.19 332.74,102.04 332.88,115.87 333.02,134.17 333.15,138.72 333.29,126.81 333.43,117.24 333.57,117.25 333.71,116.85 333.85,114.19 333.99,114.68 334.12,116.97 334.26,118.30 334.40,119.56 334.54,120.71 334.68,120.86 334.82,120.35 334.95,119.86 335.09,120.19 335.23,121.45 335.37,121.95 335.51,120.67 335.65,119.04 335.79,118.11 335.92,117.74 336.06,118.43 336.20,119.74 336.34,119.54 336.48,118.07 336.62,118.40 336.76,121.22 336.89,123.88 337.03,124.74 337.17,124.62 337.31,124.61 337.45,125.00 337.59,125.70 337.73,126.85 337.86,128.50 338.00,129.40 338.14,128.39 338.28,127.16 338.42,127.62 338.56,128.39 338.69,127.71 338.83,126.32 338.97,125.10 339.11,123.90 339.25,122.67 339.39,121.49 339.53,120.45 339.66,119.68 339.80,118.95 339.94,118.19 340.08,117.61 340.22,116.95 340.36,116.12 340.50,115.68 340.63,115.69 340.77,115.75 340.91,115.72 341.05,115.14 341.19,114.22 341.33,114.33 341.47,115.44 341.60,115.93 341.74,115.61 341.88,115.29 342.02,114.72 342.16,114.02 342.30,114.19 342.43,114.94 342.57,114.94 342.71,114.33 342.85,114.41 342.99,115.36 343.13,116.14 343.27,116.21 343.40,116.21 343.54,116.86 343.68,117.28 343.82,115.59 343.96,112.31 344.10,109.40 344.24,107.28 344.37,110.53 344.51,126.32 344.65,145.14 344.79,146.59 344.93,133.23 345.07,125.01 345.21,124.79 345.34,123.21 345.48,120.46 345.62,120.01 345.76,120.74 345.90,121.98 346.04,123.03 346.17,122.14 346.31,120.22 346.45,119.18 346.59,118.88 346.73,118.63 346.87,118.03 347.01,116.68 347.14,115.25 347.28,115.18 347.42,116.72 347.56,118.52 347.70,118.91 347.84,117.65 347.98,116.09 348.11,115.16 348.25,114.93 348.39,115.60 348.53,116.78 348.67,117.39 348.81,117.39 348.94,117.54 349.08,118.12 349.22,119.02 349.36,119.86 349.50,119.92 349.64,119.14 349.78,118.18 349.91,117.60 350.05,117.52 350.19,117.63 350.33,117.46 350.47,117.01 350.61,116.43 350.75,115.66 350.88,115.31 351.02,116.31 351.16,117.87 351.30,118.03 351.44,116.80 351.58,116.06 351.72,116.73 351.85,118.17 351.99,119.26 352.13,119.13 352.27,118.16 352.41,117.47 352.55,117.18 352.68,116.77 352.82,116.48 352.96,116.15 353.10,115.20 353.24,114.35 353.38,114.44 353.52,115.24 353.65,117.35 353.79,121.01 353.93,123.84 354.07,124.47 354.21,124.35 354.35,124.21 354.49,123.57 354.62,122.98 354.76,123.66 354.90,125.82 355.04,127.78 355.18,128.23 355.32,128.14 355.46,127.12 355.59,122.62 355.73,115.39 355.87,110.24 356.01,114.26 356.15,131.65 356.29,150.07 356.42,149.59 356.56,134.50 356.70,125.93 356.84,126.12 356.98,124.48 357.12,122.08 357.26,123.41 357.39,124.97 357.53,123.95 357.67,122.27 357.81,120.91 357.95,119.58 358.09,118.78 358.23,118.52 358.36,117.86 358.50,116.51 358.64,114.96 358.78,113.49 358.92,112.33 359.06,111.84 359.20,111.53 359.33,110.62 359.47,109.38 359.61,108.53 359.75,108.37 359.89,109.17 360.03,110.81 360.16,112.32 360.30,112.96 360.44,113.10 360.58,114.09 360.72,117.04 360.86,120.58 361.00,121.88 361.13,120.97 361.27,119.96 361.41,119.41 361.55,119.21 361.69,119.55 361.83,119.53 361.97,118.41 362.10,117.04 362.24,116.15 362.38,115.73 362.52,115.87 362.66,116.03 362.80,115.52 362.93,114.64 363.07,113.80 363.21,113.90 363.35,116.60 363.49,120.73 363.63,122.36 363.77,120.73 363.90,119.23 364.04,120.09 364.18,122.35 364.32,123.69 364.46,122.78 364.60,121.12 364.74,120.86 364.87,121.64 365.01,122.35 365.15,123.33 365.29,124.26 365.43,124.10 365.57,123.70 365.71,124.25 365.84,125.15 365.98,125.91 366.12,126.65 366.26,126.69 366.40,125.95 366.54,125.63 366.67,125.96 366.81,125.99 366.95,124.39 367.09,119.40 367.23,111.30 367.37,107.01 367.51,116.82 367.64,137.60 367.78,148.30 367.92,138.67 368.06,125.17 368.20,121.58 368.34,121.32 368.48,118.62 368.61,117.28 368.75,117.77 368.89,117.07 369.03,115.84 369.17,115.60 369.31,115.32 369.45,114.47 369.58,114.38 369.72,115.21 369.86,115.48 370.00,114.69 370.14,113.46 370.28,112.34 370.41,111.88 370.55,112.04 370.69,111.86 370.83,111.13 370.97,110.41 371.11,109.83 371.25,109.90 371.38,111.24 371.52,112.99 371.66,114.05 371.80,114.81 371.94,115.72 372.08,116.51 372.22,117.42 372.35,118.66 372.49,119.38 372.63,119.15 372.77,118.62 372.91,118.21 373.05,118.21 373.19,119.42 373.32,121.34 373.46,121.78 373.60,120.27 373.74,118.53 373.88,117.73 374.02,118.07 374.15,119.02 374.29,119.22 374.43,118.12 374.57,116.75 374.71,116.79 374.85,119.34 374.99,122.74 375.12,123.47 375.26,121.52 375.40,119.97 375.54,119.46 375.68,119.06 375.82,119.44 375.96,120.84 376.09,121.75 376.23,121.49 376.37,120.99 376.51,121.74 376.65,124.25 376.79,126.60 376.92,126.89 377.06,126.37 377.20,126.79 377.34,127.58 377.48,127.95 377.62,127.92 377.76,127.26 377.89,126.18 378.03,124.59 378.17,120.84 378.31,114.23 378.45,107.35 378.59,106.58 378.73,119.04 378.86,138.83 379.00,145.72 379.14,134.46 379.28,123.53 379.42,122.22 379.56,121.42 379.70,118.06 379.83,116.84 379.97,117.34 380.11,118.00 380.25,119.32 380.39,119.52 380.53,117.66 380.66,116.19 380.80,115.92 380.94,115.39 381.08,114.59 381.22,113.87 381.36,112.61 381.50,111.08 381.63,110.07 381.77,109.36 381.91,108.69 382.05,108.13 382.19,107.94 382.33,109.23 382.47,112.07 382.60,114.10 382.74,114.40 382.88,115.09 383.02,117.23 383.16,119.36 383.30,120.20 383.44,120.31 383.57,121.65 383.71,124.90 383.85,127.38 383.99,127.06 384.13,125.79 384.27,125.08 384.40,124.12 384.54,122.97 384.68,122.32 384.82,121.82 384.96,121.07 385.10,120.03 385.24,118.82 385.37,118.08 385.51,117.96 385.65,117.87 385.79,117.90 385.93,117.87 386.07,117.07 386.21,116.45 386.34,117.53 386.48,119.13 386.62,119.13 386.76,117.70 386.90,116.18 387.04,115.44 387.18,116.18 387.31,118.44 387.45,120.78 387.59,121.72 387.73,121.24 387.87,120.41 388.01,120.54 388.14,121.94 388.28,123.26 388.42,123.70 388.56,124.00 388.70,124.22 388.84,124.13 388.98,124.62 389.11,124.84 389.25,121.73 389.39,114.50 389.53,105.99 389.67,103.12 389.81,115.51 389.95,138.69 390.08,149.09 390.22,137.53 390.36,123.79 390.50,120.94 390.64,120.75 390.78,118.64 390.91,118.17 391.05,117.97 391.19,116.11 391.33,115.69 391.47,117.93 391.61,119.89 391.75,120.05 391.88,119.81 392.02,119.77 392.16,118.99 392.30,117.79 392.44,117.22 392.58,116.65 392.72,115.16 392.85,113.29 392.99,111.57 393.13,110.45 393.27,111.44 393.41,114.67 393.55,117.12 393.69,116.92 393.82,116.12 393.96,116.65 394.10,117.94 394.24,119.09 394.38,119.87 394.52,120.08 394.65,119.88 394.79,119.75 394.93,119.88 395.07,120.12 395.21,120.18 395.35,119.75 395.49,119.04 395.62,118.43 395.76,117.98 395.90,118.03 396.04,118.90 396.18,119.92 396.32,120.55 396.46,120.91 396.59,120.69 396.73,120.15 396.87,120.69 397.01,121.85 397.15,121.51 397.29,119.97 397.43,119.15 397.56,118.88 397.70,118.13 397.84,117.17 397.98,116.49 398.12,116.18 398.26,116.18 398.39,116.18 398.53,116.52 398.67,118.28 398.81,120.78 398.95,122.07 399.09,121.87 399.23,121.26 399.36,120.63 399.50,120.20 399.64,120.44 399.78,121.15 399.92,121.95 400.06,122.48 400.20,121.24 400.33,116.66 400.47,110.21 400.61,107.15 400.75,114.99 400.89,134.91 401.03,151.28 401.17,147.64 401.30,132.94 401.44,125.99 401.58,125.87 401.72,123.72 401.86,121.24 402.00,121.33 402.13,122.07 402.27,122.96 402.41,123.61 402.55,122.39 402.69,120.20 402.83,118.87 402.97,118.10 403.10,117.38 403.24,116.81 403.38,115.90 403.52,114.33 403.66,112.51 403.80,111.11 403.94,110.69 404.07,110.91 404.21,110.61 404.35,109.63 404.49,108.86 404.63,109.09 404.77,110.88 404.90,113.81 405.04,116.57 405.18,118.77 405.32,120.49 405.46,121.38 405.60,122.51 405.74,124.98 405.87,126.64 406.01,125.58 406.15,123.64 406.29,122.62 406.43,122.10 406.57,121.81 406.71,121.52 406.84,120.48 406.98,118.85 407.12,117.50 407.26,116.79 407.40,116.84 407.54,117.07 407.68,116.41 407.81,115.15 407.95,114.31 408.09,114.28 408.23,115.59 408.37,118.04 408.51,119.39 408.64,118.51 408.78,117.10 408.92,116.19 409.06,115.79 409.20,116.78 409.34,118.47 409.48,119.08 409.61,119.79 409.75,121.85 409.89,123.07 410.03,122.44 410.17,121.72 410.31,121.43 410.45,121.22 410.58,121.50 410.72,121.85 410.86,121.51 411.00,120.98 411.14,120.73 411.28,120.31 411.42,118.50 411.55,114.08 411.69,108.25 411.83,106.37 411.97,115.95 412.11,136.27 412.25,150.26 412.38,143.96 412.52,129.17 412.66,123.38 412.80,123.62 412.94,121.57 413.08,119.59 413.22,119.66 413.35,118.93 413.49,117.52 413.63,117.06 413.77,116.61 413.91,115.90 414.05,116.25 414.19,116.97 414.32,116.70 414.46,116.54 414.60,117.44 414.74,117.89 414.88,116.90 415.02,115.27 415.16,113.77 415.29,112.96 415.43,113.29 415.57,113.96 415.71,114.00 415.85,113.75 415.99,113.65 416.12,114.23 416.26,116.40 416.40,119.40 416.54,121.07 416.68,121.12 416.82,120.81 416.96,120.52 417.09,120.36 417.23,120.73 417.37,121.07 417.51,120.50 417.65,119.12 417.79,117.93 417.93,118.29 418.06,120.23 418.20,121.43 418.34,120.53 418.48,119.40 418.62,119.79 418.76,121.35 418.89,123.35 419.03,124.57 419.17,123.83 419.31,122.01 419.45,120.62 419.59,119.68 419.73,119.13 419.86,119.07 420.00,118.63 420.14,117.46 420.28,116.27 420.42,115.17 420.56,114.22 420.70,114.19 420.83,114.72 420.97,114.66 421.11,114.15 421.25,113.91 421.39,114.45 421.53,116.52 421.67,119.02 421.80,119.33 421.94,117.93 422.08,117.68 422.22,118.82 422.36,119.67 422.50,119.75 422.63,119.41 422.77,118.79 422.91,117.55 423.05,114.78 423.19,110.20 423.33,106.08 423.47,109.14 423.60,125.26 423.74,144.42 423.88,146.61 424.02,133.13 424.16,124.82 424.30,126.35 424.44,126.22 424.57,123.05 424.71,122.17 424.85,122.37 424.99,122.25 425.13,123.35 425.27,124.14 425.41,122.71 425.54,121.07 425.68,120.51 425.82,119.83 425.96,118.91 426.10,118.19 426.24,117.04 426.37,115.59 426.51,114.57 426.65,113.68 426.79,112.90 426.93,112.70 427.07,112.53 427.21,112.05 427.34,112.49 427.48,114.70 427.62,117.77 427.76,120.44 427.90,122.80 428.04,125.63 428.18,128.00 428.31,128.33 428.45,127.49 428.59,127.22 428.73,127.04 428.87,126.23 429.01,125.41 429.15,124.49 429.28,123.03 429.42,121.89 429.56,121.47 429.70,120.83 429.84,119.83 429.98,118.94 430.11,117.95 430.25,116.92 430.39,116.47 430.53,116.51 430.67,116.67 430.81,116.74 430.95,116.09 431.08,115.22 431.22,116.10 431.36,118.44 431.50,119.25 431.64,117.94 431.78,117.05 431.92,117.54 432.05,118.04 432.19,118.14 432.33,118.35 432.47,118.16 432.61,117.17 432.75,116.25 432.88,116.13 433.02,116.61 433.16,116.96 433.30,116.65 433.44,116.16 433.58,116.24 433.72,116.76 433.85,117.61 433.99,118.65 434.13,119.05 434.27,118.51 434.41,116.65 434.55,112.50 434.69,107.55 434.82,105.67 434.96,111.29 435.10,127.45 435.24,145.09 435.38,146.23 435.52,132.29 435.66,123.10 435.79,123.12 435.93,121.89 436.07,118.58 436.21,118.07 436.35,119.28 436.49,120.11 436.62,120.48 436.76,119.80 436.90,118.12 437.04,116.74 437.18,117.24 437.32,120.02 437.46,122.56 437.59,122.13 437.73,119.82 437.87,117.99 438.01,116.78 438.15,115.62 438.29,114.79 438.43,114.12 438.56,113.09 438.70,112.11 438.84,111.85 438.98,112.23 439.12,113.00 439.26,114.03 439.40,114.90 439.53,115.31 439.67,115.75 439.81,116.50 439.95,117.16 440.09,117.47 440.23,117.48 440.36,117.28 440.50,117.22 440.64,117.50 440.78,118.52 440.92,120.58 441.06,122.20 441.20,121.71 441.33,120.25 441.47,119.50 441.61,118.94 441.75,118.25 441.89,117.94 442.03,117.52 442.17,116.73 442.30,116.31 442.44,116.14 442.58,115.72 442.72,115.35 442.86,115.16 443.00,114.94 443.14,114.72 443.27,114.10 443.41,113.18 443.55,113.17 443.69,114.21 443.83,115.04 443.97,115.36 444.10,115.48 444.24,115.43 444.38,116.50 444.52,119.62 444.66,122.81 444.80,123.77 444.94,123.01 445.07,122.32 445.21,123.11 445.35,125.52 445.49,127.91 445.63,128.17 445.77,125.26 445.91,119.14 446.04,111.50 446.18,109.49 446.32,122.83 446.46,146.02 446.60,151.50 446.74,143.86 446.87,130.82 447.01,129.92 447.15,132.46 447.29,131.54 447.43,129.78 447.57,128.30 447.71,126.45 447.84,125.30 447.98,125.37 448.12,125.44 448.26,124.43 448.40,122.55 448.54,120.63 448.68,119.38 448.81,119.62 448.95,120.90 449.09,120.88 449.23,118.71 449.37,116.31 449.51,115.21 449.65,115.27 449.78,115.86 449.92,116.36 450.06,116.55 450.20,116.49 450.34,116.15 450.48,117.00 450.61,120.69 450.75,124.93 450.89,126.18 451.03,125.20 451.17,124.62 451.31,124.71 451.45,124.97 451.58,125.18 451.72,124.54 451.86,123.00 452.00,121.60" fill="none" stroke="#2F855A" stroke-width="2.0" stroke-linecap="round" stroke-linejoin="round"/>
</svg>