<svg xmlns="http://www.w3.org/2000/svg" width="430" height="420" viewBox="0 0 430 420">
<rect x="2.0" y="2.0" width="426.0" height="416.0" rx="18" fill="#FFFFFF" stroke="#3B82F6" stroke-width="2.2"/>
<text x="215.0" y="47.0" text-anchor="middle" font-family="Arial, Helvetica, sans-serif" font-size="28" font-weight="800" fill="#0B3DAE">Deployable watch</text>
<text x="215.0" y="83.0" text-anchor="middle" font-family="Arial, Helvetica, sans-serif" font-size="28" font-weight="800" fill="#0B3DAE">sensors</text>
<text x="215.0" y="124.0" text-anchor="middle" font-family="Arial, Helvetica, sans-serif" font-size="22" font-weight="700" fill="#111827">PPG/BVP + ACC</text>
<text x="23.0" y="187.0" text-anchor="start" font-family="Arial, Helvetica, sans-serif" font-size="18" font-weight="700" fill="#071A4D">PPG/BVP</text>
<polyline points="138.00,185.66 139.04,185.51 140.08,183.93 141.12,184.23 142.16,184.08 143.20,182.56 144.24,180.53 145.28,180.80 146.31,180.90 147.35,182.87 148.39,182.02 149.43,183.25 150.47,184.04 151.51,184.77 152.55,184.95 153.59,183.03 154.63,183.69 155.67,183.48 156.71,181.81 157.75,179.80 158.79,172.48 159.83,162.86 160.86,155.53 161.90,153.28 162.94,157.98 163.98,170.23 165.02,178.93 166.06,186.86 167.10,191.78 168.14,193.61 169.18,190.59 170.22,188.39 171.26,181.58 172.30,178.33 173.34,176.81 174.38,176.02 175.41,173.17 176.45,174.30 177.49,173.76 178.53,174.80 179.57,177.14 180.61,178.77 181.65,179.47 182.69,181.33 183.73,183.45 184.77,184.02 185.81,183.23 186.85,186.70 187.89,187.41 188.93,186.02 189.97,187.69 191.00,187.19 192.04,187.65 193.08,188.22 194.12,185.96 195.16,188.59 196.20,187.59 197.24,187.96 198.28,186.03 199.32,186.73 200.36,185.86 201.40,183.82 202.44,184.33 203.48,181.85 204.52,177.51 205.55,174.69 206.59,166.67 207.63,157.05 208.67,148.72 209.71,148.67 210.75,156.14 211.79,166.30 212.83,177.71 213.87,185.05 214.91,191.06 215.95,190.00 216.99,188.11 218.03,185.44 219.07,183.49 220.10,180.48 221.14,182.25 222.18,180.67 223.22,178.33 224.26,179.44 225.30,181.43 226.34,180.45 227.38,182.39 228.42,182.43 229.46,184.76 230.50,185.40 231.54,184.60 232.58,185.53 233.62,184.40 234.66,182.03 235.69,183.76 236.73,184.45 237.77,183.95 238.81,183.22 239.85,180.91 240.89,182.27 241.93,182.56 242.97,183.38 244.01,180.61 245.05,182.91 246.09,184.11 247.13,185.15 248.17,185.72 249.21,185.81 250.24,184.21 251.28,185.28 252.32,183.12 253.36,176.33 254.40,169.33 255.44,158.39 256.48,156.12 257.52,155.56 258.56,161.78 259.60,173.42 260.64,181.29 261.68,189.74 262.72,193.36 263.76,192.26 264.79,190.80 265.83,185.68 266.87,182.46 267.91,177.08 268.95,175.06 269.99,174.94 271.03,176.10 272.07,175.55 273.11,176.29 274.15,177.45 275.19,178.61 276.23,177.74 277.27,181.56 278.31,183.12 279.34,181.25 280.38,183.52 281.42,182.96 282.46,185.77 283.50,184.72 284.54,186.13 285.58,186.10 286.62,186.58 287.66,187.64 288.70,189.09 289.74,188.63 290.78,186.17 291.82,185.79 292.86,185.31 293.90,186.85 294.93,185.19 295.97,184.07 297.01,183.84 298.05,182.09 299.09,180.93 300.13,176.46 301.17,169.68 302.21,162.29 303.25,151.54 304.29,147.00 305.33,152.26 306.37,157.51 307.41,168.64 308.45,179.76 309.48,188.76 310.52,188.96 311.56,191.70 312.60,186.96 313.64,185.33 314.68,184.83 315.72,182.52 316.76,179.78 317.80,179.63 318.84,179.23 319.88,179.19 320.92,182.42 321.96,184.02 323.00,181.66 324.03,185.43 325.07,182.90 326.11,185.72 327.15,183.32 328.19,183.21 329.23,182.55 330.27,183.27 331.31,181.71 332.35,183.63 333.39,181.67 334.43,182.58 335.47,180.49 336.51,180.86 337.55,181.98 338.59,182.00 339.62,184.03 340.66,184.42 341.70,182.99 342.74,183.90 343.78,183.15 344.82,184.42 345.86,185.91 346.90,183.81 347.94,178.88 348.98,173.33 350.02,166.68 351.06,156.25 352.10,153.21 353.14,159.27 354.17,166.55 355.21,177.71 356.25,185.12 357.29,191.89 358.33,193.53 359.37,191.10 360.41,186.15 361.45,185.23 362.49,181.55 363.53,177.00 364.57,174.26 365.61,174.62 366.65,174.73 367.69,173.70 368.72,174.84 369.76,178.41 370.80,176.90 371.84,180.59 372.88,181.52 373.92,180.90 374.96,183.42 376.00,183.10" fill="none" stroke="#2563EB" stroke-width="2.00" stroke-linecap="round" stroke-linejoin="round"/>
<text x="23.0" y="270.0" text-anchor="start" font-family="Arial, Helvetica, sans-serif" font-size="18" font-weight="700" fill="#071A4D">ACC (3-axis)</text>
<line x1="70.0" y1="348.0" x2="70.0" y2="316.9" stroke="#071A4D" stroke-width="2.2199999999999998" stroke-linecap="round"/>
<line x1="70.0" y1="348.0" x2="107.0" y2="348.0" stroke="#071A4D" stroke-width="2.2199999999999998" stroke-linecap="round"/>
<line x1="70.0" y1="348.0" x2="44.1" y2="367.2" stroke="#071A4D" stroke-width="2.2199999999999998" stroke-linecap="round"/>
<polygon points="67.0,316.9 73.0,316.9 70.0,309.5" fill="#071A4D"/>
<polygon points="107.0,345.0 107.0,351.0 114.4,348.0" fill="#071A4D"/>
<polygon points="44.1,362.8 47.8,368.7 38.2,370.9" fill="#071A4D"/>
<text x="62.6" y="306.6" text-anchor="middle" font-family="Arial, Helvetica, sans-serif" font-size="10" font-weight="700" fill="#071A4D">z</text>
<text x="121.8" y="353.2" text-anchor="middle" font-family="Arial, Helvetica, sans-serif" font-size="10" font-weight="700" fill="#071A4D">z</text>
<text x="33.0" y="379.1" text-anchor="middle" font-family="Arial, Helvetica, sans-serif" font-size="10" font-weight="700" fill="#071A4D">x</text>
<polyline points="185.00,255.63 185.83,251.63 186.66,254.67 187.49,251.53 188.32,253.85 189.15,252.87 189.98,249.45 190.81,253.03 191.64,251.32 192.47,252.43 193.30,252.79 194.13,252.91 194.96,254.50 195.79,251.79 196.62,255.07 197.45,254.25 198.28,254.86 199.10,253.29 199.93,252.10 200.76,249.29 201.59,251.00 202.42,251.63 203.25,250.55 204.08,247.01 204.91,251.03 205.74,248.63 206.57,249.96 207.40,249.08 208.23,251.00 209.06,249.97 209.89,251.36 210.72,251.15 211.55,250.39 212.38,252.02 213.21,254.04 214.04,254.28 214.87,250.14 215.70,251.84 216.53,252.76 217.36,249.03 218.19,250.34 219.02,249.45 219.85,248.70 220.68,251.43 221.51,251.39 222.34,249.51 223.17,253.29 224.00,250.44 224.83,251.13 225.66,242.71 226.48,237.44 227.31,238.71 228.14,247.95 228.97,257.19 229.80,262.30 230.63,263.43 231.46,260.96 232.29,259.31 233.12,259.32 233.95,254.07 234.78,254.88 235.61,253.61 236.44,255.72 237.27,255.85 238.10,257.30 238.93,256.39 239.76,257.38 240.59,257.37 241.42,258.24 242.25,256.80 243.08,257.02 243.91,260.51 244.74,259.66 245.57,260.64 246.40,258.22 247.23,256.50 248.06,259.51 248.89,256.55 249.72,258.19 250.55,259.11 251.38,255.54 252.21,257.33 253.03,258.17 253.86,257.21 254.69,258.46 255.52,258.10 256.35,258.41 257.18,258.99 258.01,258.61 258.84,260.19 259.67,261.15 260.50,261.12 261.33,260.76 262.16,258.49 262.99,258.65 263.82,256.02 264.65,256.69 265.48,255.14 266.31,253.35 267.14,256.97 267.97,256.87 268.80,256.18 269.63,255.11 270.46,254.43 271.29,253.93 272.12,255.98 272.95,253.55 273.78,258.06 274.61,254.49 275.44,257.25 276.27,254.12 277.10,257.51 277.93,252.87 278.76,253.15 279.59,251.41 280.41,252.31 281.24,252.22 282.07,244.02 282.90,238.83 283.73,236.00 284.56,237.98 285.39,247.33 286.22,254.02 287.05,258.46 287.88,259.43 288.71,256.87 289.54,256.19 290.37,256.30 291.20,253.89 292.03,251.94 292.86,251.50 293.69,252.14 294.52,251.99 295.35,251.60 296.18,251.64 297.01,251.25 297.84,249.71 298.67,250.92 299.50,248.05 300.33,248.18 301.16,248.84 301.99,251.84 302.82,250.84 303.65,251.12 304.48,253.23 305.31,249.92 306.14,251.34 306.97,252.81 307.79,252.11 308.62,254.39 309.45,254.15 310.28,252.60 311.11,251.32 311.94,251.41 312.77,253.94 313.60,251.00 314.43,249.58 315.26,250.36 316.09,249.75 316.92,249.90 317.75,253.81 318.58,254.14 319.41,253.75 320.24,252.58 321.07,255.97 321.90,254.03 322.73,254.89 323.56,256.68 324.39,256.32 325.22,254.80 326.05,255.40 326.88,257.29 327.71,254.53 328.54,257.10 329.37,256.01 330.20,252.78 331.03,251.02 331.86,247.80 332.69,241.48 333.52,240.17 334.34,247.18 335.17,256.76 336.00,260.85 336.83,263.89 337.66,263.70 338.49,263.69 339.32,263.28 340.15,261.56 340.98,260.20 341.81,259.23 342.64,257.22 343.47,259.18 344.30,259.54 345.13,256.12 345.96,257.81 346.79,256.91 347.62,258.18 348.45,255.10 349.28,257.79 350.11,258.04 350.94,256.16 351.77,257.89 352.60,259.26 353.43,256.81 354.26,259.04 355.09,259.22 355.92,256.31 356.75,256.70 357.58,256.34 358.41,257.90 359.24,254.69 360.07,254.94 360.90,253.25 361.72,254.75 362.55,252.51 363.38,252.21 364.21,253.93 365.04,252.82 365.87,252.46 366.70,251.79 367.53,252.41 368.36,253.28 369.19,256.36 370.02,254.32 370.85,253.90 371.68,256.31 372.51,254.23 373.34,251.88 374.17,251.07 375.00,250.29" fill="none" stroke="#4B5563" stroke-width="1.75" stroke-linecap="round" stroke-linejoin="round"/>
<polyline points="185.00,296.25 185.83,295.26 186.66,293.32 187.49,296.63 188.32,296.96 189.15,293.01 189.98,295.57 190.81,295.65 191.64,293.86 192.47,297.59 193.30,294.55 194.13,297.25 194.96,299.89 195.79,296.04 196.62,298.03 197.45,300.59 198.28,296.68 199.10,296.76 199.93,296.59 200.76,296.60 201.59,294.53 202.42,299.15 203.25,294.12 204.08,295.77 204.91,297.90 205.74,296.47 206.57,298.42 207.40,297.57 208.23,298.13 209.06,299.90 209.89,302.89 210.72,302.19 211.55,303.27 212.38,301.48 213.21,300.84 214.04,301.69 214.87,302.83 215.70,304.42 216.53,301.41 217.36,303.31 218.19,299.35 219.02,303.31 219.85,299.28 220.68,304.20 221.51,300.67 222.34,303.33 223.17,302.80 224.00,304.30 224.83,305.58 225.66,305.59 226.48,304.02 227.31,305.28 228.14,301.07 228.97,292.97 229.80,294.72 230.63,300.15 231.46,307.19 232.29,311.01 233.12,312.73 233.95,307.84 234.78,306.85 235.61,306.85 236.44,304.35 237.27,305.19 238.10,303.66 238.93,305.00 239.76,304.63 240.59,303.50 241.42,303.18 242.25,305.42 243.08,304.73 243.91,304.43 244.74,303.82 245.57,301.76 246.40,304.61 247.23,301.05 248.06,301.30 248.89,298.71 249.72,298.93 250.55,301.62 251.38,300.77 252.21,296.64 253.03,298.95 253.86,297.34 254.69,300.08 255.52,298.00 256.35,299.09 257.18,299.17 258.01,301.73 258.84,297.40 259.67,297.66 260.50,298.00 261.33,298.26 262.16,299.73 262.99,299.28 263.82,295.33 264.65,297.17 265.48,296.24 266.31,293.21 267.14,295.52 267.97,292.08 268.80,296.18 269.63,293.06 270.46,296.28 271.29,297.62 272.12,296.62 272.95,295.45 273.78,299.68 274.61,297.70 275.44,296.74 276.27,301.08 277.10,298.77 277.93,299.52 278.76,298.46 279.59,296.28 280.41,297.89 281.24,298.23 282.07,298.51 282.90,295.30 283.73,298.28 284.56,293.51 285.39,287.28 286.22,284.14 287.05,285.28 287.88,298.09 288.71,303.99 289.54,307.89 290.37,311.10 291.20,308.27 292.03,307.40 292.86,307.00 293.69,304.71 294.52,305.69 295.35,301.04 296.18,304.45 297.01,302.20 297.84,301.12 298.67,304.46 299.50,299.87 300.33,300.19 301.16,302.28 301.99,303.11 302.82,302.09 303.65,304.04 304.48,306.63 305.31,303.68 306.14,307.82 306.97,306.33 307.79,306.49 308.62,305.27 309.45,306.98 310.28,305.14 311.11,306.69 311.94,303.58 312.77,305.60 313.60,304.06 314.43,302.72 315.26,301.37 316.09,300.30 316.92,300.05 317.75,302.70 318.58,305.03 319.41,302.72 320.24,303.14 321.07,302.68 321.90,306.30 322.73,302.55 323.56,305.72 324.39,301.81 325.22,300.50 326.05,301.98 326.88,301.64 327.71,299.70 328.54,301.48 329.37,298.06 330.20,296.45 331.03,295.54 331.86,296.42 332.69,296.09 333.52,293.89 334.34,293.41 335.17,287.86 336.00,282.00 336.83,292.11 337.66,299.58 338.49,303.19 339.32,303.47 340.15,302.96 340.98,303.79 341.81,298.45 342.64,299.52 343.47,296.66 344.30,295.31 345.13,292.80 345.96,296.19 346.79,295.32 347.62,295.50 348.45,295.76 349.28,296.80 350.11,296.14 350.94,297.47 351.77,298.18 352.60,295.97 353.43,300.19 354.26,298.87 355.09,301.28 355.92,301.31 356.75,297.27 357.58,297.40 358.41,296.36 359.24,300.13 360.07,296.45 360.90,298.60 361.72,296.01 362.55,297.18 363.38,298.09 364.21,297.59 365.04,300.02 365.87,299.39 366.70,298.70 367.53,300.57 368.36,300.85 369.19,300.54 370.02,305.37 370.85,302.52 371.68,301.80 372.51,303.93 373.34,304.80 374.17,303.01 375.00,305.31" fill="none" stroke="#F97316" stroke-width="1.75" stroke-linecap="round" stroke-linejoin="round"/>
<polyline points="185.00,337.08 185.83,340.31 186.66,338.24 187.49,335.74 188.32,340.76 189.15,338.74 189.98,338.82 190.81,336.83 191.64,345.35 192.47,346.41 193.30,345.82 194.13,343.16 194.96,344.27 195.79,351.00 196.62,345.48 197.45,349.10 198.28,345.74 199.10,345.91 199.93,352.36 200.76,344.88 201.59,348.42 202.42,350.65 203.25,347.97 204.08,351.14 204.91,346.04 205.74,348.27 206.57,352.60 207.40,352.71 208.23,351.64 209.06,350.66 209.89,355.83 210.72,358.14 211.55,356.85 212.38,359.53 213.21,357.43 214.04,352.82 214.87,357.74 215.70,355.94 216.53,351.15 217.36,354.66 218.19,354.35 219.02,352.40 219.85,348.83 220.68,347.60 221.51,347.74 222.34,352.78 223.17,351.34 224.00,353.16 224.83,350.10 225.66,352.12 226.48,349.34 227.31,350.90 228.14,350.62 228.97,353.38 229.80,348.94 230.63,348.63 231.46,340.88 232.29,329.62 233.12,339.04 233.95,349.43 234.78,348.79 235.61,352.45 236.44,348.40 237.27,343.16 238.10,338.29 238.93,344.87 239.76,339.86 240.59,345.21 241.42,339.81 242.25,343.59 243.08,346.16 243.91,343.80 244.74,341.56 245.57,345.26 246.40,342.62 247.23,338.57 248.06,337.32 248.89,337.13 249.72,338.38 250.55,335.88 251.38,340.00 252.21,338.11 253.03,339.02 253.86,341.12 254.69,342.80 255.52,343.86 256.35,337.73 257.18,343.83 258.01,345.51 258.84,343.84 259.67,344.09 260.50,343.22 261.33,343.33 262.16,350.15 262.99,348.38 263.82,346.87 264.65,347.12 265.48,344.76 266.31,347.09 267.14,341.84 267.97,346.72 268.80,342.79 269.63,343.42 270.46,346.66 271.29,351.07 272.12,354.17 272.95,347.98 273.78,349.76 274.61,354.22 275.44,358.35 276.27,353.09 277.10,356.87 277.93,355.42 278.76,350.50 279.59,350.26 280.41,349.98 281.24,355.36 282.07,350.01 282.90,349.85 283.73,348.67 284.56,354.28 285.39,347.35 286.22,353.68 287.05,354.51 287.88,345.82 288.71,339.50 289.54,338.81 290.37,352.03 291.20,360.80 292.03,362.29 292.86,360.29 293.69,355.52 294.52,357.59 295.35,349.44 296.18,350.69 297.01,347.92 297.84,348.02 298.67,344.19 299.50,345.33 300.33,341.87 301.16,344.43 301.99,345.86 302.82,344.48 303.65,345.16 304.48,345.63 305.31,340.41 306.14,343.88 306.97,341.70 307.79,343.23 308.62,339.95 309.45,343.11 310.28,342.23 311.11,342.75 311.94,341.84 312.77,335.40 313.60,337.91 314.43,335.87 315.26,333.29 316.09,336.51 316.92,339.67 317.75,336.08 318.58,336.28 319.41,336.21 320.24,341.36 321.07,344.89 321.90,341.36 322.73,341.24 323.56,347.69 324.39,341.72 325.22,341.44 326.05,347.32 326.88,342.49 327.71,346.11 328.54,342.37 329.37,345.19 330.20,341.55 331.03,344.13 331.86,342.96 332.69,342.72 333.52,342.53 334.34,346.43 335.17,350.40 336.00,350.01 336.83,348.41 337.66,344.60 338.49,341.49 339.32,338.97 340.15,354.45 340.98,365.00 341.81,364.29 342.64,357.46 343.47,354.43 344.30,353.64 345.13,355.25 345.96,351.98 346.79,346.98 347.62,353.23 348.45,353.97 349.28,351.68 350.11,355.92 350.94,349.64 351.77,351.19 352.60,357.35 353.43,352.17 354.26,351.63 355.09,353.31 355.92,352.89 356.75,357.44 357.58,355.51 358.41,352.41 359.24,353.40 360.07,346.87 360.90,349.19 361.72,346.08 362.55,347.23 363.38,342.07 364.21,346.99 365.04,342.71 365.87,342.84 366.70,345.12 367.53,350.03 368.36,343.46 369.19,349.84 370.02,350.53 370.85,344.04 371.68,348.86 372.51,349.22 373.34,341.44 374.17,339.73 375.00,343.01" fill="none" stroke="#2563EB" stroke-width="1.75" stroke-linecap="round" stroke-linejoin="round"/>
</svg>