<svg xmlns="http://www.w3.org/2000/svg" width="430" height="560" viewBox="0 0 430 560">
<rect x="2.0" y="2.0" width="426.0" height="556.0" rx="18" fill="#FFFFFF" stroke="#58A575" stroke-width="2.2"/>
<text x="215.0" y="70.0" text-anchor="middle" font-family="Arial, Helvetica, sans-serif" font-size="28" font-weight="800" fill="#0B6F2A">Privileged sensors</text>
<text x="215.0" y="108.0" text-anchor="middle" font-family="Arial, Helvetica, sans-serif" font-size="28" font-weight="800" fill="#0B6F2A">during training only</text>
<text x="215.0" y="162.0" text-anchor="middle" font-family="Arial, Helvetica, sans-serif" font-size="24" font-weight="700" fill="#111827">ECG / EDA / Resp /</text>
<text x="215.0" y="197.0" text-anchor="middle" font-family="Arial, Helvetica, sans-serif" font-size="24" font-weight="700" fill="#111827">E4 / Polar</text>
<text x="28.0" y="240.0" text-anchor="start" font-family="Arial, Helvetica, sans-serif" font-size="18" font-weight="700" fill="#111827">ECG</text>
<polyline points="125.00,236.63 126.09,236.57 127.18,236.84 128.28,236.77 129.37,236.42 130.46,236.40 131.55,236.36 132.64,236.44 133.73,236.27 134.83,236.21 135.92,236.17 137.01,236.28 138.10,236.13 139.19,236.09 140.28,235.92 141.38,235.78 142.47,235.75 143.56,235.87 144.65,235.87 145.74,235.90 146.83,235.96 147.93,235.92 149.02,235.70 150.11,235.69 151.20,235.56 152.29,235.20 153.38,235.12 154.48,234.80 155.57,234.55 156.66,234.19 157.75,233.63 158.84,233.28 159.93,232.82 161.03,232.46 162.12,232.59 163.21,232.97 164.30,233.04 165.39,233.53 166.48,234.05 167.58,234.51 168.67,235.26 169.76,236.59 170.85,238.94 171.94,240.36 173.03,239.66 174.13,235.60 175.22,221.76 176.31,204.00 177.40,210.24 178.49,231.43 179.59,242.91 180.68,246.37 181.77,246.32 182.86,243.29 183.95,239.82 185.04,236.89 186.14,235.35 187.23,234.68 188.32,234.04 189.41,233.36 190.50,232.91 191.59,232.52 192.69,232.23 193.78,231.92 194.87,231.66 195.96,231.92 197.05,231.86 198.14,232.47 199.24,232.73 200.33,233.53 201.42,233.92 202.51,234.65 203.60,235.33 204.69,235.88 205.79,236.31 206.88,236.73 207.97,237.16 209.06,237.45 210.15,237.52 211.24,237.49 212.34,237.70 213.43,237.97 214.52,237.73 215.61,237.78 216.70,237.72 217.79,237.99 218.89,237.77 219.98,238.01 221.07,237.77 222.16,237.89 223.25,237.88 224.34,237.61 225.44,237.86 226.53,237.67 227.62,237.50 228.71,237.69 229.80,237.65 230.90,237.34 231.99,237.43 233.08,237.23 234.17,237.35 235.26,237.04 236.35,236.86 237.45,236.34 238.54,236.15 239.63,235.34 240.72,235.17 241.81,234.40 242.90,234.23 244.00,233.83 245.09,233.48 246.18,233.77 247.27,233.97 248.36,234.10 249.45,234.61 250.55,235.15 251.64,235.30 252.73,236.58 253.82,238.49 254.91,240.34 256.00,240.33 257.10,237.36 258.19,227.71 259.28,208.42 260.37,204.64 261.46,224.36 262.55,239.62 263.65,245.03 264.74,245.81 265.83,243.59 266.92,239.82 268.01,236.66 269.10,234.78 270.20,233.79 271.29,232.91 272.38,232.42 273.47,231.89 274.56,231.21 275.66,230.56 276.75,230.49 277.84,230.10 278.93,230.13 280.02,230.22 281.11,230.65 282.21,230.78 283.30,231.59 284.39,232.07 285.48,232.77 286.57,233.54 287.66,233.92 288.76,234.59 289.85,235.07 290.94,235.45 292.03,235.71 293.12,235.97 294.21,235.96 295.31,236.16 296.40,236.11 297.49,236.23 298.58,236.29 299.67,236.66 300.76,236.65 301.86,236.79 302.95,236.73 304.04,236.78 305.13,236.78 306.22,236.87 307.31,237.11 308.41,237.11 309.50,237.13 310.59,237.38 311.68,237.43 312.77,237.34 313.86,237.50 314.96,237.30 316.05,237.49 317.14,237.53 318.23,237.43 319.32,237.29 320.41,237.09 321.51,236.69 322.60,236.35 323.69,235.99 324.78,235.44 325.87,235.22 326.97,234.69 328.06,234.55 329.15,234.70 330.24,235.04 331.33,235.37 332.42,235.79 333.52,236.46 334.61,236.83 335.70,237.59 336.79,239.33 337.88,241.54 338.97,242.21 340.07,240.62 341.16,233.86 342.25,216.42 343.34,204.00 344.43,218.77 345.52,237.62 346.62,245.80 347.71,248.01 348.80,246.39 349.89,243.10 350.98,239.45 352.07,236.83 353.17,235.55 354.26,234.96 355.35,234.10 356.44,233.45 357.53,232.79 358.62,232.32 359.72,231.70 360.81,231.56 361.90,231.30 362.99,231.26 364.08,231.21 365.17,231.84 366.27,232.00 367.36,232.71 368.45,233.10 369.54,233.70 370.63,234.17 371.72,234.50 372.82,235.01 373.91,235.40 375.00,235.63" fill="none" stroke="#2F855A" stroke-width="2.00" stroke-linecap="round" stroke-linejoin="round"/>
<text x="28.0" y="310.0" text-anchor="start" font-family="Arial, Helvetica, sans-serif" font-size="18" font-weight="700" fill="#111827">EDA</text>
<polyline points="125.00,309.10 126.09,307.91 127.18,306.71 128.28,305.50 129.37,304.29 130.46,303.10 131.55,301.92 132.64,300.75 133.73,299.62 134.83,298.51 135.92,297.44 137.01,296.41 138.10,295.42 139.19,294.47 140.28,293.57 141.38,292.73 142.47,291.93 143.56,291.19 144.65,290.51 145.74,289.88 146.83,289.30 147.93,288.78 149.02,288.31 150.11,287.90 151.20,287.53 152.29,287.22 153.38,286.95 154.48,286.72 155.57,286.54 156.66,286.40 157.75,286.29 158.84,286.22 159.93,286.19 161.03,286.18 162.12,286.19 163.21,286.24 164.30,286.30 165.39,286.39 166.48,286.50 167.58,286.63 168.67,286.77 169.76,286.93 170.85,287.11 171.94,287.31 173.03,287.52 174.13,287.75 175.22,288.00 176.31,288.27 177.40,288.56 178.49,288.87 179.59,289.21 180.68,289.58 181.77,289.97 182.86,290.40 183.95,290.86 185.04,291.36 186.14,291.90 187.23,292.48 188.32,293.10 189.41,293.77 190.50,294.48 191.59,295.25 192.69,296.06 193.78,296.92 194.87,297.83 195.96,298.80 197.05,299.81 198.14,300.87 199.24,301.98 200.33,303.14 201.42,304.33 202.51,305.57 203.60,306.84 204.69,308.14 205.79,309.47 206.88,310.82 207.97,312.19 209.06,313.57 210.15,314.95 211.24,316.33 212.34,317.70 213.43,319.05 214.52,320.38 215.61,321.68 216.70,322.94 217.79,324.16 218.89,325.32 219.98,326.42 221.07,327.46 222.16,328.42 223.25,329.31 224.34,330.11 225.44,330.82 226.53,331.44 227.62,331.96 228.71,332.38 229.80,332.69 230.90,332.90 231.99,333.00 233.08,332.99 234.17,332.88 235.26,332.66 236.35,332.33 237.45,331.90 238.54,331.38 239.63,330.75 240.72,330.04 241.81,329.24 242.90,328.36 244.00,327.40 245.09,326.38 246.18,325.29 247.27,324.15 248.36,322.97 249.45,321.75 250.55,320.49 251.64,319.21 252.73,317.92 253.82,316.62 254.91,315.32 256.00,314.03 257.10,312.75 258.19,311.49 259.28,310.26 260.37,309.06 261.46,307.90 262.55,306.78 263.65,305.70 264.74,304.68 265.83,303.71 266.92,302.80 268.01,301.94 269.10,301.14 270.20,300.39 271.29,299.71 272.38,299.08 273.47,298.51 274.56,298.00 275.66,297.53 276.75,297.12 277.84,296.76 278.93,296.44 280.02,296.16 281.11,295.92 282.21,295.72 283.30,295.54 284.39,295.40 285.48,295.27 286.57,295.17 287.66,295.09 288.76,295.01 289.85,294.95 290.94,294.90 292.03,294.86 293.12,294.82 294.21,294.78 295.31,294.75 296.40,294.72 297.49,294.68 298.58,294.65 299.67,294.63 300.76,294.60 301.86,294.58 302.95,294.57 304.04,294.57 305.13,294.57 306.22,294.59 307.31,294.62 308.41,294.67 309.50,294.75 310.59,294.85 311.68,294.97 312.77,295.13 313.86,295.31 314.96,295.54 316.05,295.80 317.14,296.10 318.23,296.44 319.32,296.83 320.41,297.26 321.51,297.74 322.60,298.26 323.69,298.83 324.78,299.44 325.87,300.09 326.97,300.79 328.06,301.53 329.15,302.30 330.24,303.11 331.33,303.94 332.42,304.81 333.52,305.69 334.61,306.59 335.70,307.50 336.79,308.42 337.88,309.34 338.97,310.26 340.07,311.16 341.16,312.04 342.25,312.91 343.34,313.74 344.43,314.53 345.52,315.29 346.62,316.00 347.71,316.66 348.80,317.26 349.89,317.80 350.98,318.28 352.07,318.68 353.17,319.02 354.26,319.28 355.35,319.47 356.44,319.58 357.53,319.62 358.62,319.57 359.72,319.45 360.81,319.26 361.90,318.99 362.99,318.65 364.08,318.24 365.17,317.77 366.27,317.24 367.36,316.65 368.45,316.02 369.54,315.33 370.63,314.61 371.72,313.86 372.82,313.07 373.91,312.27 375.00,311.45" fill="none" stroke="#2F855A" stroke-width="2.00" stroke-linecap="round" stroke-linejoin="round"/>
<text x="28.0" y="380.0" text-anchor="start" font-family="Arial, Helvetica, sans-serif" font-size="18" font-weight="700" fill="#111827">Resp</text>
<polyline points="125.00,397.54 126.09,395.99 127.18,394.15 128.28,392.01 129.37,389.53 130.46,386.71 131.55,383.59 132.64,380.24 133.73,376.79 134.83,373.38 135.92,370.19 137.01,367.33 138.10,364.90 139.19,362.91 140.28,361.36 141.38,360.18 142.47,359.32 143.56,358.69 144.65,358.23 145.74,357.88 146.83,357.59 147.93,357.32 149.02,357.03 150.11,356.72 151.20,356.37 152.29,355.98 153.38,355.55 154.48,355.10 155.57,354.64 156.66,354.19 157.75,353.77 158.84,353.39 159.93,353.07 161.03,352.84 162.12,352.72 163.21,352.70 164.30,352.81 165.39,353.06 166.48,353.45 167.58,353.99 168.67,354.70 169.76,355.57 170.85,356.63 171.94,357.90 173.03,359.40 174.13,361.17 175.22,363.23 176.31,365.62 177.40,368.35 178.49,371.39 179.59,374.68 180.68,378.09 181.77,381.50 182.86,384.73 183.95,387.64 185.04,390.16 186.14,392.22 187.23,393.86 188.32,395.11 189.41,396.04 190.50,396.72 191.59,397.22 192.69,397.61 193.78,397.93 194.87,398.23 195.96,398.54 197.05,398.87 198.14,399.24 199.24,399.64 200.33,400.07 201.42,400.53 202.51,400.99 203.60,401.45 204.69,401.88 205.79,402.26 206.88,402.57 207.97,402.80 209.06,402.93 210.15,402.95 211.24,402.84 212.34,402.60 213.43,402.21 214.52,401.68 215.61,400.99 216.70,400.14 217.79,399.11 218.89,397.89 219.98,396.44 221.07,394.74 222.16,392.75 223.25,390.45 224.34,387.81 225.44,384.86 226.53,381.64 227.62,378.26 228.71,374.86 229.80,371.61 230.90,368.64 231.99,366.05 233.08,363.90 234.17,362.18 235.26,360.86 236.35,359.86 237.45,359.12 238.54,358.57 239.63,358.15 240.72,357.79 241.81,357.46 242.90,357.13 244.00,356.78 245.09,356.40 246.18,355.99 247.27,355.54 248.36,355.08 249.45,354.61 250.55,354.15 251.64,353.72 252.73,353.34 253.82,353.02 254.91,352.79 256.00,352.66 257.10,352.65 258.19,352.75 259.28,352.99 260.37,353.37 261.46,353.89 262.55,354.57 263.65,355.39 264.74,356.39 265.83,357.58 266.92,358.97 268.01,360.61 269.10,362.52 270.20,364.74 271.29,367.29 272.38,370.16 273.47,373.30 274.56,376.63 275.66,380.01 276.75,383.29 277.84,386.31 278.93,388.97 280.02,391.20 281.11,393.00 282.21,394.40 283.30,395.47 284.39,396.27 285.48,396.87 286.57,397.34 287.66,397.73 288.76,398.08 289.85,398.43 290.94,398.80 292.03,399.20 293.12,399.63 294.21,400.08 295.31,400.55 296.40,401.03 297.49,401.49 298.58,401.93 299.67,402.31 300.76,402.62 301.86,402.85 302.95,402.98 304.04,403.00 305.13,402.89 306.22,402.66 307.31,402.28 308.41,401.77 309.50,401.11 310.59,400.31 311.68,399.34 312.77,398.19 313.86,396.84 314.96,395.27 316.05,393.43 317.14,391.30 318.23,388.84 319.32,386.06 320.41,382.99 321.51,379.71 322.60,376.36 323.69,373.07 324.78,370.00 325.87,367.27 326.97,364.96 328.06,363.07 329.15,361.59 330.24,360.45 331.33,359.60 332.42,358.94 333.52,358.43 334.61,358.01 335.70,357.62 336.79,357.24 337.88,356.86 338.97,356.44 340.07,356.00 341.16,355.54 342.25,355.06 343.34,354.57 344.43,354.11 345.52,353.67 346.62,353.29 347.71,352.97 348.80,352.74 349.89,352.61 350.98,352.60 352.07,352.70 353.17,352.94 354.26,353.30 355.35,353.81 356.44,354.45 357.53,355.24 358.62,356.18 359.72,357.29 360.81,358.59 361.90,360.11 362.99,361.87 364.08,363.93 365.17,366.29 366.27,368.98 367.36,371.97 368.45,375.19 369.54,378.52 370.63,381.81 371.72,384.92 372.82,387.71 373.91,390.10 375.00,392.07" fill="none" stroke="#2F855A" stroke-width="2.00" stroke-linecap="round" stroke-linejoin="round"/>
<text x="28.0" y="450.0" text-anchor="start" font-family="Arial, Helvetica, sans-serif" font-size="18" font-weight="700" fill="#111827">E4</text>
<polyline points="125.00,447.02 126.05,447.33 127.09,446.88 128.14,447.81 129.18,446.15 130.23,446.07 131.28,446.46 132.32,447.71 133.37,446.70 134.41,447.15 135.46,447.29 136.51,445.35 137.55,445.13 138.60,447.50 139.64,445.16 140.69,445.59 141.74,445.85 142.78,445.73 143.83,444.27 144.87,444.41 145.92,443.40 146.97,443.13 148.01,444.32 149.06,442.60 150.10,442.14 151.15,442.42 152.20,443.71 153.24,445.61 154.29,446.13 155.33,446.29 156.38,445.03 157.43,448.35 158.47,450.10 159.52,449.28 160.56,449.02 161.61,442.08 162.66,426.82 163.70,416.00 164.75,426.44 165.79,443.81 166.84,454.08 167.89,456.55 168.93,455.57 169.98,453.85 171.03,449.37 172.07,446.03 173.12,445.01 174.16,444.54 175.21,443.14 176.26,444.50 177.30,442.92 178.35,442.98 179.39,442.01 180.44,443.01 181.49,441.11 182.53,442.89 183.58,442.84 184.62,441.43 185.67,441.45 186.72,443.30 187.76,443.91 188.81,444.94 189.85,445.44 190.90,445.10 191.95,446.76 192.99,447.36 194.04,446.85 195.08,447.93 196.13,446.90 197.18,446.64 198.22,446.88 199.27,447.75 200.31,448.12 201.36,447.85 202.41,448.88 203.45,446.83 204.50,447.58 205.54,447.28 206.59,447.54 207.64,446.18 208.68,445.48 209.73,445.72 210.77,444.33 211.82,444.86 212.87,446.16 213.91,445.70 214.96,445.06 216.00,446.50 217.05,446.70 218.10,448.66 219.14,448.56 220.19,450.42 221.23,452.30 222.28,452.26 223.33,449.24 224.37,440.94 225.42,424.03 226.46,418.24 227.51,433.53 228.56,448.07 229.60,455.94 230.65,458.64 231.69,457.49 232.74,452.98 233.79,451.00 234.83,448.59 235.88,447.22 236.92,445.50 237.97,443.44 239.02,444.18 240.06,443.67 241.11,443.19 242.15,442.55 243.20,442.33 244.25,441.37 245.29,440.82 246.34,441.41 247.38,442.33 248.43,442.04 249.48,441.76 250.52,444.21 251.57,444.47 252.62,443.93 253.66,444.20 254.71,444.70 255.75,445.18 256.80,444.81 257.85,445.93 258.89,445.21 259.94,444.89 260.98,446.32 262.03,445.20 263.08,445.51 264.12,444.94 265.17,446.98 266.21,444.44 267.26,444.49 268.31,443.59 269.35,443.12 270.40,444.54 271.44,443.17 272.49,444.31 273.54,443.00 274.58,442.20 275.63,444.31 276.67,444.22 277.72,445.32 278.77,445.45 279.81,445.87 280.86,446.81 281.90,445.68 282.95,447.93 284.00,450.52 285.04,449.26 286.09,445.92 287.13,435.61 288.18,418.82 289.23,417.87 290.27,436.66 291.32,450.88 292.36,455.55 293.41,455.84 294.46,454.10 295.50,451.99 296.55,447.96 297.59,445.34 298.64,444.30 299.69,444.24 300.73,445.26 301.78,443.84 302.82,444.26 303.87,443.94 304.92,443.08 305.96,442.33 307.01,441.45 308.05,441.86 309.10,442.97 310.15,442.22 311.19,443.16 312.24,443.68 313.28,444.90 314.33,445.01 315.38,445.84 316.42,445.35 317.47,446.46 318.51,446.95 319.56,447.21 320.61,447.47 321.65,447.12 322.70,447.19 323.74,447.06 324.79,448.15 325.84,447.10 326.88,446.57 327.93,446.33 328.97,446.81 330.02,448.23 331.07,445.79 332.11,445.42 333.16,447.19 334.21,446.04 335.25,445.84 336.30,444.65 337.34,445.07 338.39,446.15 339.44,446.72 340.48,447.15 341.53,447.74 342.57,446.34 343.62,446.66 344.67,449.95 345.71,450.50 346.76,450.98 347.80,451.78 348.85,446.01 349.90,432.99 350.94,416.13 351.99,422.44 353.03,443.65 354.08,453.91 355.13,455.79 356.17,456.65 357.22,454.41 358.26,450.26 359.31,447.53 360.36,445.25 361.40,445.89 362.45,445.93 363.49,443.62 364.54,444.71 365.59,442.79 366.63,441.51 367.68,442.31 368.72,441.48 369.77,442.45 370.82,442.47 371.86,441.43 372.91,441.01 373.95,441.02 375.00,444.01" fill="none" stroke="#2F855A" stroke-width="2.00" stroke-linecap="round" stroke-linejoin="round"/>
<text x="28.0" y="520.0" text-anchor="start" font-family="Arial, Helvetica, sans-serif" font-size="18" font-weight="700" fill="#111827">Polar</text>
<polyline points="125.00,516.47 126.05,518.35 127.09,516.82 128.14,517.93 129.18,516.19 130.23,518.10 131.28,516.29 132.32,516.63 133.37,516.21 134.41,515.85 135.46,517.33 136.51,517.04 137.55,516.17 138.60,516.89 139.64,516.72 140.69,516.51 141.74,514.89 142.78,514.44 143.83,514.13 144.87,514.82 145.92,512.95 146.97,513.44 148.01,513.79 149.06,513.28 150.10,513.46 151.15,514.43 152.20,513.81 153.24,514.67 154.29,514.70 155.33,514.50 156.38,516.03 157.43,518.29 158.47,519.45 159.52,519.81 160.56,518.89 161.61,511.09 162.66,496.07 163.70,483.00 164.75,495.77 165.79,513.82 166.84,523.53 167.89,526.35 168.93,526.70 169.98,523.33 171.03,518.97 172.07,517.88 173.12,516.28 174.16,515.55 175.21,514.09 176.26,512.79 177.30,512.84 178.35,512.67 179.39,512.06 180.44,512.41 181.49,510.68 182.53,511.88 183.58,512.26 184.62,512.41 185.67,511.79 186.72,513.36 187.76,512.77 188.81,514.56 189.85,514.98 190.90,516.34 191.95,515.19 192.99,515.90 194.04,516.97 195.08,518.03 196.13,517.53 197.18,517.98 198.22,517.18 199.27,517.08 200.31,517.49 201.36,518.37 202.41,518.76 203.45,516.83 204.50,516.44 205.54,517.68 206.59,516.58 207.64,516.20 208.68,514.81 209.73,516.43 210.77,516.24 211.82,514.67 212.87,515.41 213.91,515.94 214.96,515.70 216.00,516.52 217.05,516.78 218.10,518.26 219.14,519.71 220.19,521.81 221.23,523.02 222.28,522.38 223.33,520.12 224.37,511.03 225.42,491.97 226.46,484.58 227.51,502.20 228.56,520.09 229.60,526.02 230.65,527.91 231.69,526.38 232.74,523.00 233.79,521.25 234.83,517.42 235.88,516.63 236.92,515.66 237.97,514.71 239.02,514.82 240.06,513.97 241.11,511.89 242.15,512.71 243.20,511.14 244.25,511.35 245.29,512.01 246.34,512.06 247.38,511.69 248.43,511.83 249.48,513.00 250.52,514.07 251.57,514.36 252.62,513.48 253.66,514.22 254.71,515.91 255.75,514.79 256.80,515.61 257.85,516.32 258.89,515.34 259.94,516.99 260.98,517.10 262.03,516.59 263.08,515.72 264.12,515.98 265.17,515.91 266.21,514.77 267.26,515.46 268.31,514.23 269.35,515.37 270.40,513.34 271.44,514.23 272.49,512.94 273.54,512.44 274.58,512.86 275.63,513.24 276.67,513.64 277.72,513.66 278.77,514.91 279.81,515.68 280.86,515.72 281.90,517.15 282.95,520.10 284.00,520.86 285.04,520.42 286.09,517.29 287.13,504.47 288.18,485.79 289.23,486.35 290.27,505.38 291.32,519.75 292.36,525.77 293.41,527.36 294.46,525.74 295.50,522.55 296.55,519.02 297.59,515.45 298.64,516.22 299.69,513.79 300.73,513.68 301.78,512.97 302.82,513.87 303.87,512.30 304.92,512.84 305.96,511.65 307.01,511.32 308.05,511.53 309.10,512.13 310.15,511.78 311.19,513.60 312.24,514.32 313.28,513.49 314.33,515.77 315.38,515.65 316.42,516.22 317.47,515.79 318.51,517.26 319.56,517.22 320.61,517.65 321.65,517.92 322.70,518.09 323.74,518.20 324.79,517.98 325.84,518.29 326.88,518.22 327.93,517.02 328.97,516.66 330.02,517.80 331.07,515.97 332.11,517.42 333.16,516.36 334.21,514.85 335.25,516.10 336.30,515.00 337.34,514.42 338.39,515.43 339.44,516.08 340.48,517.37 341.53,516.94 342.57,517.39 343.62,517.49 344.67,519.83 345.71,521.09 346.76,523.01 347.80,521.23 348.85,515.80 349.90,502.48 350.94,484.09 351.99,491.67 353.03,512.22 354.08,522.90 355.13,527.60 356.17,527.86 357.22,525.90 358.26,522.20 359.31,518.01 360.36,516.59 361.40,515.18 362.45,514.34 363.49,513.70 364.54,513.79 365.59,512.08 366.63,512.37 367.68,512.47 368.72,510.74 369.77,510.50 370.82,512.08 371.86,510.66 372.91,511.35 373.95,512.60 375.00,512.46" fill="none" stroke="#2F855A" stroke-width="2.00" stroke-linecap="round" stroke-linejoin="round"/>
</svg>