<svg xmlns="http://www.w3.org/2000/svg" width="300" height="64" viewBox="0 0 300 64">

<polyline points="4.00,32.31 4.46,31.67 4.91,31.26 5.37,31.25 5.83,31.33 6.28,31.17 6.74,30.74 7.20,30.41 7.66,30.48 8.11,30.87 8.57,31.21 9.03,31.33 9.48,31.38 9.94,31.60 10.40,31.99 10.85,32.42 11.31,32.81 11.77,33.21 12.23,33.60 12.68,33.79 13.14,33.64 13.60,33.15 14.05,32.50 14.51,31.92 14.97,31.64 15.42,31.70 15.88,31.90 16.34,32.00 16.79,31.99 17.25,31.94 17.71,31.84 18.17,31.71 18.62,31.65 19.08,31.72 19.54,31.87 19.99,32.12 20.45,32.43 20.91,32.65 21.36,32.71 21.82,32.80 22.28,33.08 22.74,33.42 23.19,33.61 23.65,33.66 24.11,33.71 24.56,33.86 25.02,34.04 25.48,34.03 25.93,33.58 26.39,32.78 26.85,32.02 27.31,31.66 27.76,31.69 28.22,31.91 28.68,32.17 29.13,32.34 29.59,32.34 30.05,32.18 30.50,32.01 30.96,31.93 31.42,31.95 31.87,31.99 32.33,31.99 32.79,31.95 33.25,31.95 33.70,32.08 34.16,32.34 34.62,32.62 35.07,32.78 35.53,32.82 35.99,32.85 36.44,32.94 36.90,33.02 37.36,32.97 37.82,32.67 38.27,32.14 38.73,31.58 39.19,31.19 39.64,31.04 40.10,31.06 40.56,31.20 41.01,31.34 41.47,31.37 41.93,31.34 42.38,31.38 42.84,31.48 43.30,31.52 43.76,31.43 44.21,31.31 44.67,31.32 45.13,31.54 45.58,31.96 46.04,32.41 46.50,32.73 46.95,32.90 47.41,33.11 47.87,33.53 48.33,34.01 48.78,34.25 49.24,34.13 49.70,33.92 50.15,34.00 50.61,34.36 51.07,34.58 51.52,34.50 51.98,34.59 52.44,35.56 52.90,37.55 53.35,39.96 53.81,41.93 54.27,42.94 54.72,42.49 55.18,39.67 55.64,33.97 56.09,26.45 56.55,19.57 57.01,15.74 57.46,16.08 57.92,20.03 58.38,25.65 58.84,30.78 59.29,34.32 59.75,36.35 60.21,37.31 60.66,37.29 61.12,36.28 61.58,34.63 62.03,33.13 62.49,32.59 62.95,32.92 63.41,32.95 63.86,31.57 64.32,29.13 64.78,26.92 65.23,25.46 65.69,24.32 66.15,23.56 66.60,23.87 67.06,25.37 67.52,27.18 67.97,28.55 68.43,29.64 68.89,30.86 69.35,32.00 69.80,32.51 70.26,32.30 70.72,32.03 71.17,32.38 71.63,33.21 72.09,33.90 72.54,34.15 73.00,33.93 73.46,33.40 73.92,33.39 74.37,35.00 74.83,38.28 75.29,42.19 75.74,45.73 76.20,48.31 76.66,49.61 77.11,49.49 77.57,47.65 78.03,44.00 78.49,39.66 78.94,36.38 79.40,34.79 79.86,34.42 80.31,34.88 80.77,35.66 81.23,35.77 81.68,34.60 82.14,32.38 82.60,29.71 83.05,27.69 83.51,27.35 83.97,27.95 84.43,27.47 84.88,25.34 85.34,22.70 85.80,19.67 86.25,15.17 86.71,10.30 87.17,8.35 87.62,10.55 88.08,14.58 88.54,18.26 89.00,21.78 89.45,25.55 89.91,28.71 90.37,30.80 90.82,32.57 91.28,34.42 91.74,36.03 92.19,37.83 92.65,40.98 93.11,45.25 93.56,48.46 94.02,48.77 94.48,46.56 94.94,43.62 95.39,41.37 95.85,40.16 96.31,39.58 96.76,38.98 97.22,37.89 97.68,36.34 98.13,34.77 98.59,33.57 99.05,32.76 99.51,32.10 99.96,31.42 100.42,30.86 100.88,30.50 101.33,30.22 101.79,29.90 102.25,29.73 102.70,29.90 103.16,30.29 103.62,30.60 104.08,30.64 104.53,30.39 104.99,29.94 105.45,29.55 105.90,29.50 106.36,29.94 106.82,30.70 107.27,31.46 107.73,32.01 108.19,32.35 108.64,32.69 109.10,33.14 109.56,33.51 110.02,33.45 110.47,33.09 110.93,32.99 111.39,33.43 111.84,34.06 112.30,34.42 112.76,34.64 113.21,35.11 113.67,35.87 114.13,36.40 114.59,36.35 115.04,35.96 115.50,35.33 115.96,33.34 116.41,28.30 116.87,20.28 117.33,12.66 117.78,9.94 118.24,13.59 118.70,20.85 119.15,28.16 119.61,34.07 120.07,38.33 120.53,40.38 120.98,40.19 121.44,39.19 121.90,39.06 122.35,40.19 122.81,41.55 123.27,41.66 123.72,39.99 124.18,37.60 124.64,36.23 125.10,36.44 125.55,37.16 126.01,37.10 126.47,35.99 126.92,34.51 127.38,33.43 127.84,33.03 128.29,32.78 128.75,31.76 129.21,29.54 129.67,26.64 130.12,23.86 130.58,21.62 131.04,20.38 131.49,20.97 131.95,23.67 132.41,27.18 132.86,29.57 133.32,30.46 133.78,31.31 134.23,33.33 134.69,36.02 135.15,38.36 135.61,40.26 136.06,42.29 136.52,44.34 136.98,45.40 137.43,44.53 137.89,41.81 138.35,38.48 138.80,36.03 139.26,34.84 139.72,33.66 140.18,31.03 140.63,26.96 141.09,22.51 141.55,18.25 142.00,14.35 142.46,11.57 142.92,10.80 143.37,12.05 143.83,14.72 144.29,18.28 144.74,22.07 145.20,25.33 145.66,27.81 146.12,29.92 146.57,32.23 147.03,35.39 147.49,40.60 147.94,49.02 148.40,60.00 148.86,70.40 149.31,76.31 149.77,75.47 150.23,68.71 150.69,59.46 151.14,50.68 151.60,42.03 152.06,31.67 152.51,20.77 152.97,14.01 153.43,14.53 153.88,20.33 154.34,26.16 154.80,27.99 155.26,25.56 155.71,21.53 156.17,18.75 156.63,18.32 157.08,19.43 157.54,20.40 158.00,20.04 158.45,18.71 158.91,17.87 159.37,18.38 159.82,19.24 160.28,18.38 160.74,15.15 161.20,11.89 161.65,12.22 162.11,16.86 162.57,22.58 163.02,26.23 163.48,28.05 163.94,30.08 164.39,32.80 164.85,34.95 165.31,36.14 165.77,39.01 166.22,47.99 166.68,64.68 167.14,77.00 167.59,77.00 168.05,77.00 168.51,77.00 168.96,64.37 169.42,41.90 169.88,24.59 170.33,14.48 170.79,11.72 171.25,14.92 171.71,20.49 172.16,24.42 172.62,25.23 173.08,23.99 173.53,22.11 173.99,20.70 174.45,21.10 174.90,23.77 175.36,26.96 175.82,28.51 176.28,28.74 176.73,29.59 177.19,31.12 177.65,31.48 178.10,30.21 178.56,29.04 179.02,29.01 179.47,29.15 179.93,28.57 180.39,28.06 180.85,28.58 181.30,29.77 181.76,30.54 182.22,30.39 182.67,29.77 183.13,29.36 183.59,29.21 184.04,28.62 184.50,27.11 184.96,25.27 185.41,24.20 185.87,24.16 186.33,24.57 186.79,24.96 187.24,25.17 187.70,25.43 188.16,26.65 188.61,29.49 189.07,33.08 189.53,35.84 189.98,37.59 190.44,39.37 190.90,41.54 191.36,43.21 191.81,43.66 192.27,43.05 192.73,41.87 193.18,40.59 193.64,39.87 194.10,40.44 194.55,42.39 195.01,45.08 195.47,47.78 195.92,49.98 196.38,51.08 196.84,50.17 197.30,46.62 197.75,40.82 198.21,33.80 198.67,26.47 199.12,19.62 199.58,14.26 200.04,11.47 200.49,11.88 200.95,15.23 201.41,20.25 201.87,25.35 202.32,29.46 202.78,31.80 203.24,31.73 203.69,30.32 204.15,30.24 204.61,32.25 205.06,34.06 205.52,34.21 205.98,34.07 206.44,34.74 206.89,35.23 207.35,34.62 207.81,32.85 208.26,29.84 208.72,25.91 209.18,22.39 209.63,20.11 210.09,19.09 210.55,20.07 211.00,24.45 211.46,32.18 211.92,41.10 212.38,48.52 212.83,52.41 213.29,51.74 213.75,47.07 214.20,40.55 214.66,34.56 215.12,30.53 215.57,28.69 216.03,28.14 216.49,27.74 216.95,27.25 217.40,27.06 217.86,27.08 218.32,27.17 218.77,27.71 219.23,28.58 219.69,28.63 220.14,27.74 220.60,28.01 221.06,31.59 221.51,37.77 221.97,43.49 222.43,46.51 222.89,46.91 223.34,45.51 223.80,42.30 224.26,37.46 224.71,32.65 225.17,29.58 225.63,27.81 226.08,25.76 226.54,23.46 227.00,22.45 227.46,22.90 227.91,23.09 228.37,22.29 228.83,22.08 229.28,23.73 229.74,26.25 230.20,28.00 230.65,29.24 231.11,31.76 231.57,36.54 232.03,41.86 232.48,43.88 232.94,40.20 233.40,33.42 233.85,29.33 234.31,30.77 234.77,35.23 235.22,39.04 235.68,41.31 236.14,42.85 236.59,43.59 237.05,42.82 237.51,40.48 237.97,37.09 238.42,33.38 238.88,30.38 239.34,29.01 239.79,29.08 240.25,29.42 240.71,29.31 241.16,29.19 241.62,29.66 242.08,30.45 242.54,30.86 242.99,30.56 243.45,29.86 243.91,29.19 244.36,28.65 244.82,28.14 245.28,27.77 245.73,27.74 246.19,28.00 246.65,28.30 247.10,28.60 247.56,29.09 248.02,29.75 248.48,30.40 248.93,31.02 249.39,31.85 249.85,32.79 250.30,33.32 250.76,33.18 251.22,33.03 251.67,33.81 252.13,35.74 252.59,38.13 253.05,40.21 253.50,41.64 253.96,42.45 254.42,42.67 254.87,42.16 255.33,40.68 255.79,38.39 256.24,36.30 256.70,35.43 257.16,35.39 257.62,34.68 258.07,32.76 258.53,30.65 258.99,29.07 259.44,27.41 259.90,24.90 260.36,21.61 260.81,18.48 261.27,16.83 261.73,17.35 262.18,19.22 262.64,20.99 263.10,22.21 263.56,23.47 264.01,25.11 264.47,26.67 264.93,27.61 265.38,28.18 265.84,29.54 266.30,32.89 266.75,38.27 267.21,44.27 267.67,48.82 268.13,50.60 268.58,49.69 269.04,47.29 269.50,44.63 269.95,42.21 270.41,39.95 270.87,37.76 271.32,35.74 271.78,34.13 272.24,33.24 272.69,33.20 273.15,33.67 273.61,33.92 274.07,33.20 274.52,31.33 274.98,28.91 275.44,26.91 275.89,26.04 276.35,26.29 276.81,26.90 277.26,27.06 277.72,26.65 278.18,26.28 278.64,26.54 279.09,27.64 279.55,29.48 280.01,31.54 280.46,32.86 280.92,32.78 281.38,31.77 281.83,30.98 282.29,31.04 282.75,31.62 283.21,32.14 283.66,32.53 284.12,32.98 284.58,33.48 285.03,33.75 285.49,33.69 285.95,33.66 286.40,34.22 286.86,35.52 287.32,36.81 287.77,36.95 288.23,35.76 288.69,34.27 289.15,33.55 289.60,33.53 290.06,33.48 290.52,33.05 290.97,32.30 291.43,31.23 291.89,29.96 292.34,29.03 292.80,29.11 293.26,30.37 293.72,32.27 294.17,33.94 294.63,34.63 295.09,34.24 295.54,33.37 296.00,32.71" fill="none" stroke="#2563EB" stroke-width="2.2" stroke-linecap="round" stroke-linejoin="round"/>
</svg>