<svg xmlns="http://www.w3.org/2000/svg" width="300" height="64" viewBox="0 0 300 64">

<polyline points="4.00,46.60 4.23,38.48 4.46,40.24 4.68,40.91 4.91,37.96 5.14,38.46 5.37,38.48 5.60,40.75 5.83,36.58 6.05,39.42 6.28,38.74 6.51,29.30 6.74,35.74 6.97,38.34 7.20,35.87 7.42,33.63 7.65,41.07 7.88,36.01 8.11,33.57 8.34,36.64 8.57,39.13 8.79,36.36 9.02,35.08 9.25,36.52 9.48,35.40 9.71,37.34 9.94,33.26 10.16,28.88 10.39,31.18 10.62,36.10 10.85,34.72 11.08,37.23 11.31,35.06 11.53,33.29 11.76,31.53 11.99,36.51 12.22,36.06 12.45,33.86 12.68,35.22 12.90,38.73 13.13,31.83 13.36,30.90 13.59,36.34 13.82,36.51 14.05,33.11 14.27,34.92 14.50,36.05 14.73,34.97 14.96,36.20 15.19,38.07 15.42,35.98 15.64,37.37 15.87,31.34 16.10,30.42 16.33,36.47 16.56,37.06 16.78,39.59 17.01,34.04 17.24,37.54 17.47,37.49 17.70,30.66 17.93,31.86 18.15,38.80 18.38,33.57 18.61,43.53 18.84,37.02 19.07,39.00 19.30,38.38 19.52,41.19 19.75,34.73 19.98,31.60 20.21,24.18 20.44,40.08 20.67,40.03 20.89,37.18 21.12,40.16 21.35,39.82 21.58,35.08 21.81,39.57 22.04,38.43 22.26,40.78 22.49,41.36 22.72,35.47 22.95,40.99 23.18,42.09 23.41,40.76 23.63,40.52 23.86,39.20 24.09,37.55 24.32,40.89 24.55,41.43 24.78,38.82 25.00,40.66 25.23,40.07 25.46,41.55 25.69,39.61 25.92,40.38 26.15,42.87 26.37,35.80 26.60,36.12 26.83,41.87 27.06,38.35 27.29,45.33 27.52,36.43 27.74,38.40 27.97,40.04 28.20,43.00 28.43,42.74 28.66,33.02 28.89,43.37 29.11,35.16 29.34,33.84 29.57,38.52 29.80,41.59 30.03,36.88 30.25,37.64 30.48,41.18 30.71,38.33 30.94,39.71 31.17,26.82 31.40,42.67 31.62,39.77 31.85,40.81 32.08,37.57 32.31,41.25 32.54,38.52 32.77,38.84 32.99,39.20 33.22,33.23 33.45,39.43 33.68,39.41 33.91,38.87 34.14,37.15 34.36,37.79 34.59,38.47 34.82,39.78 35.05,37.64 35.28,39.65 35.51,37.81 35.73,36.53 35.96,35.43 36.19,37.83 36.42,36.21 36.65,37.81 36.88,34.29 37.10,37.17 37.33,36.94 37.56,37.48 37.79,35.71 38.02,35.05 38.25,33.03 38.47,31.33 38.70,38.81 38.93,32.12 39.16,37.57 39.39,30.59 39.62,37.21 39.84,35.59 40.07,31.18 40.30,26.42 40.53,30.41 40.76,32.31 40.99,34.06 41.21,34.33 41.44,33.51 41.67,32.89 41.90,32.92 42.13,34.24 42.35,31.70 42.58,31.47 42.81,36.54 43.04,33.55 43.27,29.49 43.50,27.90 43.72,31.43 43.95,33.25 44.18,34.41 44.41,29.63 44.64,35.98 44.87,29.14 45.09,31.32 45.32,32.37 45.55,32.79 45.78,31.24 46.01,28.85 46.24,26.71 46.46,30.23 46.69,28.73 46.92,27.49 47.15,25.50 47.38,21.63 47.61,26.67 47.83,25.18 48.06,31.16 48.29,23.77 48.52,30.03 48.75,30.70 48.98,18.07 49.20,29.47 49.43,23.75 49.66,29.57 49.89,29.93 50.12,29.71 50.35,21.99 50.57,32.38 50.80,21.87 51.03,28.59 51.26,24.10 51.49,28.58 51.72,27.79 51.94,29.32 52.17,21.57 52.40,22.95 52.63,32.02 52.86,22.79 53.09,25.14 53.31,31.14 53.54,26.42 53.77,30.89 54.00,24.96 54.23,28.80 54.46,19.58 54.68,19.82 54.91,29.57 55.14,28.02 55.37,30.33 55.60,31.23 55.82,23.70 56.05,24.60 56.28,30.74 56.51,34.38 56.74,32.42 56.97,31.13 57.19,29.31 57.42,34.00 57.65,26.61 57.88,34.71 58.11,23.84 58.34,20.51 58.56,37.53 58.79,31.09 59.02,32.79 59.25,33.02 59.48,32.70 59.71,31.67 59.93,32.43 60.16,29.95 60.39,37.93 60.62,28.80 60.85,23.47 61.08,38.45 61.30,27.30 61.53,32.00 61.76,33.02 61.99,31.53 62.22,39.46 62.45,34.81 62.67,35.77 62.90,29.73 63.13,37.15 63.36,35.67 63.59,38.84 63.82,32.66 64.04,31.97 64.27,36.37 64.50,36.87 64.73,38.75 64.96,37.49 65.19,36.01 65.41,36.40 65.64,35.77 65.87,37.89 66.10,38.08 66.33,39.41 66.56,38.70 66.78,37.44 67.01,37.07 67.24,38.23 67.47,37.44 67.70,36.20 67.92,30.88 68.15,41.10 68.38,38.24 68.61,39.00 68.84,37.65 69.07,30.95 69.29,39.05 69.52,33.83 69.75,38.85 69.98,35.94 70.21,36.58 70.44,38.01 70.66,35.31 70.89,36.72 71.12,34.02 71.35,38.86 71.58,35.57 71.81,39.68 72.03,37.69 72.26,32.10 72.49,34.19 72.72,39.59 72.95,37.67 73.18,38.52 73.40,38.57 73.63,34.07 73.86,28.42 74.09,38.20 74.32,35.43 74.55,39.81 74.77,36.30 75.00,35.52 75.23,31.96 75.46,38.80 75.69,30.37 75.92,35.32 76.14,33.62 76.37,29.40 76.60,37.94 76.83,34.51 77.06,27.58 77.29,38.64 77.51,32.78 77.74,33.33 77.97,35.92 78.20,33.43 78.43,34.71 78.66,31.67 78.88,37.14 79.11,32.83 79.34,31.44 79.57,31.79 79.80,33.98 80.03,34.23 80.25,32.81 80.48,34.00 80.71,35.07 80.94,34.42 81.17,32.82 81.39,31.39 81.62,36.47 81.85,24.97 82.08,32.68 82.31,33.94 82.54,33.44 82.76,31.41 82.99,29.53 83.22,28.60 83.45,27.85 83.68,26.68 83.91,30.32 84.13,32.05 84.36,31.62 84.59,34.85 84.82,29.18 85.05,22.35 85.28,29.14 85.50,28.78 85.73,33.53 85.96,29.65 86.19,33.17 86.42,27.38 86.65,24.90 86.87,31.76 87.10,29.20 87.33,27.41 87.56,26.03 87.79,31.55 88.02,24.14 88.24,27.41 88.47,22.07 88.70,25.73 88.93,29.03 89.16,28.11 89.39,28.68 89.61,27.58 89.84,25.72 90.07,22.21 90.30,27.72 90.53,25.69 90.76,25.27 90.98,24.16 91.21,27.40 91.44,25.36 91.67,30.70 91.90,25.37 92.13,28.94 92.35,25.83 92.58,30.08 92.81,20.93 93.04,29.75 93.27,28.41 93.49,28.78 93.72,26.52 93.95,30.86 94.18,22.78 94.41,30.24 94.64,22.37 94.86,27.31 95.09,28.21 95.32,26.73 95.55,26.38 95.78,19.25 96.01,20.13 96.23,26.62 96.46,32.15 96.69,28.98 96.92,31.28 97.15,32.79 97.38,31.26 97.60,31.78 97.83,28.90 98.06,30.93 98.29,32.57 98.52,29.23 98.75,28.37 98.97,32.98 99.20,33.00 99.43,33.13 99.66,31.33 99.89,29.51 100.12,29.14 100.34,32.82 100.57,32.14 100.80,35.53 101.03,34.93 101.26,28.56 101.49,29.85 101.71,32.03 101.94,36.17 102.17,31.55 102.40,32.23 102.63,34.45 102.86,33.94 103.08,34.37 103.31,32.92 103.54,37.16 103.77,25.92 104.00,28.11 104.23,35.62 104.45,34.11 104.68,34.76 104.91,34.85 105.14,33.45 105.37,36.57 105.60,34.83 105.82,39.07 106.05,30.49 106.28,33.08 106.51,34.58 106.74,36.53 106.96,35.76 107.19,34.35 107.42,33.74 107.65,35.39 107.88,36.25 108.11,23.29 108.33,35.96 108.56,30.94 108.79,37.71 109.02,25.25 109.25,33.73 109.48,34.95 109.70,34.18 109.93,32.36 110.16,34.24 110.39,36.63 110.62,35.08 110.85,36.76 111.07,31.42 111.30,34.87 111.53,35.07 111.76,33.60 111.99,34.06 112.22,31.79 112.44,35.01 112.67,33.05 112.90,24.67 113.13,33.37 113.36,34.02 113.59,33.57 113.81,35.10 114.04,35.72 114.27,30.72 114.50,31.30 114.73,34.00 114.96,35.23 115.18,34.07 115.41,32.30 115.64,29.93 115.87,33.41 116.10,33.10 116.33,31.53 116.55,30.63 116.78,31.59 117.01,31.78 117.24,30.54 117.47,31.70 117.70,29.99 117.92,30.16 118.15,30.60 118.38,30.40 118.61,30.00 118.84,30.20 119.06,28.72 119.29,31.16 119.52,29.62 119.75,29.92 119.98,29.03 120.21,29.92 120.43,27.15 120.66,27.16 120.89,29.31 121.12,27.12 121.35,31.90 121.58,28.30 121.80,30.04 122.03,25.69 122.26,27.95 122.49,23.16 122.72,23.94 122.95,28.23 123.17,25.53 123.40,25.76 123.63,25.62 123.86,29.49 124.09,25.62 124.32,29.45 124.54,24.83 124.77,30.46 125.00,24.35 125.23,27.22 125.46,26.47 125.69,26.99 125.91,25.22 126.14,31.96 126.37,19.92 126.60,10.06 126.83,31.27 127.06,27.81 127.28,22.24 127.51,27.16 127.74,27.91 127.97,21.05 128.20,30.28 128.43,27.16 128.65,29.33 128.88,28.12 129.11,31.75 129.34,29.02 129.57,24.71 129.80,28.00 130.02,22.93 130.25,26.16 130.48,31.21 130.71,27.49 130.94,30.03 131.16,30.03 131.39,30.69 131.62,27.98 131.85,28.25 132.08,31.67 132.31,29.87 132.53,32.49 132.76,30.04 132.99,29.73 133.22,26.93 133.45,28.37 133.68,32.53 133.90,23.60 134.13,32.63 134.36,32.19 134.59,32.77 134.82,32.86 135.05,31.94 135.27,34.37 135.50,33.02 135.73,32.98 135.96,32.81 136.19,30.93 136.42,32.59 136.64,30.51 136.87,36.53 137.10,28.97 137.33,34.28 137.56,32.82 137.79,35.93 138.01,35.65 138.24,34.39 138.47,28.43 138.70,35.31 138.93,22.16 139.16,30.36 139.38,35.97 139.61,34.47 139.84,33.62 140.07,32.78 140.30,31.80 140.53,37.44 140.75,32.23 140.98,36.03 141.21,31.86 141.44,37.74 141.67,29.69 141.90,34.39 142.12,29.51 142.35,30.05 142.58,34.90 142.81,34.03 143.04,29.72 143.27,30.27 143.49,31.88 143.72,34.80 143.95,29.65 144.18,31.83 144.41,33.88 144.63,32.63 144.86,33.80 145.09,31.21 145.32,30.99 145.55,28.75 145.78,27.91 146.00,36.12 146.23,32.68 146.46,31.98 146.69,33.00 146.92,32.39 147.15,29.27 147.37,32.41 147.60,29.87 147.83,31.25 148.06,19.05 148.29,30.58 148.52,29.52 148.74,29.26 148.97,29.20 149.20,28.67 149.43,30.39 149.66,25.95 149.89,25.57 150.11,29.53 150.34,23.04 150.57,30.46 150.80,27.53 151.03,27.74 151.26,26.28 151.48,26.64 151.71,26.92 151.94,26.75 152.17,22.32 152.40,29.38 152.63,21.38 152.85,27.69 153.08,27.06 153.31,27.17 153.54,27.37 153.77,19.02 154.00,24.34 154.22,28.95 154.45,13.40 154.68,16.45 154.91,28.11 155.14,23.31 155.37,24.39 155.59,26.14 155.82,27.31 156.05,27.19 156.28,26.75 156.51,26.40 156.73,24.57 156.96,22.37 157.19,25.50 157.42,24.86 157.65,26.85 157.88,26.00 158.10,20.40 158.33,22.51 158.56,28.59 158.79,25.04 159.02,25.31 159.25,24.54 159.47,22.99 159.70,22.22 159.93,28.89 160.16,24.93 160.39,25.99 160.62,24.48 160.84,25.71 161.07,22.04 161.30,20.27 161.53,25.40 161.76,27.54 161.99,26.73 162.21,29.85 162.44,28.29 162.67,25.41 162.90,26.87 163.13,28.16 163.36,27.35 163.58,27.44 163.81,26.10 164.04,29.19 164.27,26.41 164.50,25.12 164.73,29.67 164.95,25.56 165.18,29.15 165.41,20.91 165.64,28.52 165.87,28.01 166.10,26.14 166.32,28.07 166.55,31.89 166.78,29.87 167.01,30.15 167.24,29.99 167.47,27.10 167.69,32.14 167.92,30.26 168.15,32.17 168.38,27.39 168.61,30.15 168.84,26.03 169.06,32.81 169.29,33.12 169.52,30.95 169.75,32.26 169.98,26.56 170.20,29.78 170.43,31.90 170.66,30.53 170.89,30.74 171.12,31.91 171.35,31.83 171.57,30.37 171.80,29.37 172.03,33.07 172.26,32.16 172.49,33.74 172.72,29.42 172.94,28.16 173.17,31.57 173.40,27.72 173.63,28.62 173.86,25.96 174.09,32.00 174.31,32.16 174.54,32.13 174.77,32.43 175.00,32.73 175.23,31.31 175.46,31.59 175.68,27.10 175.91,30.48 176.14,30.91 176.37,25.87 176.60,21.87 176.83,35.10 177.05,30.96 177.28,29.18 177.51,26.08 177.74,26.06 177.97,29.74 178.20,32.07 178.42,26.05 178.65,25.76 178.88,29.02 179.11,27.91 179.34,26.89 179.57,31.65 179.79,27.49 180.02,30.09 180.25,25.94 180.48,25.36 180.71,29.88 180.94,29.10 181.16,29.89 181.39,31.66 181.62,26.96 181.85,27.10 182.08,28.80 182.30,27.60 182.53,25.50 182.76,26.74 182.99,23.47 183.22,24.24 183.45,25.18 183.67,19.40 183.90,27.04 184.13,25.24 184.36,25.94 184.59,24.91 184.82,26.76 185.04,24.35 185.27,17.15 185.50,21.24 185.73,23.21 185.96,20.27 186.19,24.34 186.41,21.67 186.64,25.12 186.87,22.63 187.10,21.36 187.33,20.90 187.56,26.67 187.78,20.11 188.01,20.67 188.24,24.47 188.47,20.52 188.70,21.93 188.93,22.15 189.15,23.87 189.38,19.37 189.61,19.89 189.84,22.81 190.07,21.83 190.30,24.27 190.52,22.96 190.75,24.25 190.98,19.66 191.21,24.76 191.44,22.46 191.67,17.77 191.89,22.53 192.12,26.50 192.35,21.21 192.58,15.98 192.81,23.46 193.04,19.90 193.26,21.94 193.49,22.46 193.72,23.83 193.95,20.91 194.18,26.11 194.41,23.00 194.63,25.44 194.86,21.96 195.09,22.63 195.32,26.63 195.55,26.21 195.77,19.00 196.00,25.14 196.23,27.00 196.46,25.35 196.69,27.00 196.92,25.75 197.14,28.80 197.37,28.33 197.60,28.33 197.83,29.07 198.06,26.14 198.29,30.43 198.51,28.91 198.74,21.69 198.97,30.62 199.20,26.51 199.43,29.78 199.66,30.25 199.88,29.26 200.11,28.88 200.34,28.58 200.57,31.85 200.80,31.16 201.03,30.43 201.25,27.46 201.48,28.31 201.71,30.55 201.94,30.14 202.17,25.33 202.40,23.66 202.62,27.43 202.85,31.54 203.08,29.05 203.31,25.85 203.54,30.50 203.77,27.86 203.99,32.72 204.22,29.05 204.45,32.00 204.68,25.50 204.91,27.16 205.14,33.57 205.36,32.48 205.59,31.79 205.82,27.93 206.05,29.31 206.28,29.16 206.51,31.72 206.73,22.40 206.96,20.29 207.19,34.06 207.42,31.70 207.65,33.64 207.87,30.63 208.10,29.12 208.33,34.89 208.56,34.57 208.79,31.57 209.02,30.62 209.24,34.15 209.47,22.12 209.70,32.18 209.93,29.51 210.16,31.73 210.39,36.91 210.61,31.09 210.84,32.04 211.07,32.20 211.30,30.70 211.53,33.94 211.76,33.17 211.98,34.17 212.21,34.23 212.44,34.28 212.67,34.89 212.90,32.87 213.13,34.91 213.35,33.47 213.58,37.43 213.81,34.48 214.04,31.16 214.27,35.48 214.50,32.48 214.72,27.96 214.95,35.19 215.18,36.65 215.41,33.93 215.64,35.81 215.87,37.74 216.09,31.15 216.32,35.55 216.55,33.58 216.78,33.12 217.01,36.61 217.24,35.10 217.46,37.45 217.69,35.78 217.92,31.49 218.15,29.45 218.38,36.99 218.61,34.04 218.83,37.32 219.06,32.88 219.29,37.43 219.52,36.58 219.75,37.81 219.97,33.84 220.20,30.21 220.43,36.37 220.66,35.26 220.89,36.13 221.12,37.20 221.34,29.99 221.57,30.21 221.80,32.21 222.03,33.45 222.26,33.84 222.49,32.75 222.71,33.70 222.94,34.57 223.17,36.72 223.40,33.52 223.63,34.34 223.86,34.77 224.08,33.07 224.31,32.72 224.54,29.44 224.77,31.12 225.00,35.49 225.23,34.81 225.45,35.69 225.68,27.42 225.91,31.96 226.14,34.65 226.37,33.98 226.60,28.10 226.82,34.26 227.05,35.69 227.28,33.97 227.51,31.39 227.74,32.59 227.97,28.48 228.19,29.62 228.42,32.54 228.65,30.73 228.88,28.92 229.11,33.10 229.34,29.94 229.56,32.05 229.79,30.92 230.02,29.54 230.25,30.90 230.48,29.81 230.71,29.25 230.93,33.38 231.16,29.63 231.39,33.41 231.62,32.30 231.85,35.15 232.08,32.63 232.30,31.91 232.53,29.65 232.76,25.53 232.99,32.91 233.22,20.71 233.44,25.53 233.67,24.09 233.90,32.36 234.13,28.63 234.36,30.06 234.59,29.34 234.81,27.54 235.04,31.03 235.27,27.02 235.50,30.68 235.73,27.20 235.96,30.16 236.18,26.22 236.41,24.17 236.64,28.88 236.87,29.22 237.10,29.31 237.33,23.24 237.55,21.25 237.78,27.03 238.01,28.33 238.24,28.29 238.47,27.05 238.70,24.23 238.92,25.93 239.15,25.81 239.38,28.02 239.61,26.24 239.84,26.58 240.07,22.96 240.29,23.64 240.52,27.87 240.75,24.17 240.98,31.05 241.21,29.69 241.44,27.96 241.66,27.04 241.89,29.54 242.12,28.03 242.35,31.57 242.58,30.94 242.81,31.34 243.03,27.53 243.26,27.24 243.49,26.33 243.72,31.53 243.95,27.37 244.18,32.20 244.40,30.95 244.63,31.53 244.86,28.03 245.09,31.17 245.32,28.71 245.54,32.68 245.77,22.13 246.00,28.09 246.23,30.58 246.46,28.18 246.69,28.79 246.91,30.82 247.14,29.23 247.37,31.78 247.60,31.83 247.83,29.56 248.06,29.05 248.28,29.25 248.51,30.99 248.74,33.75 248.97,26.03 249.20,25.04 249.43,33.31 249.65,31.85 249.88,31.84 250.11,32.49 250.34,30.80 250.57,30.23 250.80,31.66 251.02,33.49 251.25,33.43 251.48,33.17 251.71,23.81 251.94,33.31 252.17,30.93 252.39,31.56 252.62,23.82 252.85,32.76 253.08,33.56 253.31,32.39 253.54,32.17 253.76,32.16 253.99,37.57 254.22,36.36 254.45,35.44 254.68,35.01 254.91,27.63 255.13,31.08 255.36,31.95 255.59,35.55 255.82,37.63 256.05,37.62 256.28,38.70 256.50,37.42 256.73,38.48 256.96,36.59 257.19,39.34 257.42,37.30 257.65,37.44 257.87,37.06 258.10,37.80 258.33,40.86 258.56,40.86 258.79,40.80 259.01,39.28 259.24,41.55 259.47,38.71 259.70,42.53 259.93,36.19 260.16,42.59 260.38,40.64 260.61,44.02 260.84,36.57 261.07,36.85 261.30,45.76 261.53,38.09 261.75,46.51 261.98,42.62 262.21,46.84 262.44,40.11 262.67,42.71 262.90,46.49 263.12,45.92 263.35,46.44 263.58,47.10 263.81,46.88 264.04,43.57 264.27,44.53 264.49,45.98 264.72,38.77 264.95,49.64 265.18,45.21 265.41,46.85 265.64,48.82 265.86,44.28 266.09,46.29 266.32,46.67 266.55,40.36 266.78,48.16 267.01,44.51 267.23,48.09 267.46,49.76 267.69,48.73 267.92,46.76 268.15,48.47 268.38,47.06 268.60,50.01 268.83,44.11 269.06,41.05 269.29,47.71 269.52,41.35 269.75,40.97 269.97,48.01 270.20,50.38 270.43,44.08 270.66,47.34 270.89,50.00 271.11,47.97 271.34,47.59 271.57,39.28 271.80,47.91 272.03,47.77 272.26,49.01 272.48,49.32 272.71,49.12 272.94,48.07 273.17,40.38 273.40,45.33 273.63,49.67 273.85,47.13 274.08,49.79 274.31,34.50 274.54,41.70 274.77,48.05 275.00,47.63 275.22,42.49 275.45,45.48 275.68,49.07 275.91,49.77 276.14,45.51 276.37,47.72 276.59,45.98 276.82,44.68 277.05,49.56 277.28,47.54 277.51,49.45 277.74,46.23 277.96,47.81 278.19,48.36 278.42,49.93 278.65,49.80 278.88,49.25 279.11,49.53 279.33,49.60 279.56,44.57 279.79,50.79 280.02,50.71 280.25,49.75 280.48,48.29 280.70,51.72 280.93,49.89 281.16,48.64 281.39,51.55 281.62,49.67 281.85,46.22 282.07,49.88 282.30,43.14 282.53,29.14 282.76,53.79 282.99,52.09 283.22,45.10 283.44,51.98 283.67,55.27 283.90,44.17 284.13,52.36 284.36,54.92 284.58,57.12 284.81,52.70 285.04,53.33 285.27,51.26 285.50,56.55 285.73,55.27 285.95,56.29 286.18,53.93 286.41,58.36 286.64,51.88 286.87,51.78 287.10,51.82 287.32,50.96 287.55,55.23 287.78,54.79 288.01,59.54 288.24,54.94 288.47,49.58 288.69,54.87 288.92,57.38 289.15,56.32 289.38,56.54 289.61,57.49 289.84,58.31 290.06,57.82 290.29,61.41 290.52,56.88 290.75,58.30 290.98,57.76 291.21,59.91 291.43,58.46 291.66,57.74 291.89,61.49 292.12,60.06 292.35,58.17 292.58,59.08 292.80,60.58 293.03,56.06 293.26,55.90 293.49,60.53 293.72,55.10 293.95,57.03 294.17,62.19 294.40,60.68 294.63,58.40 294.86,56.94 295.09,58.36 295.32,58.59 295.54,61.28 295.77,58.86 296.00,57.41" fill="none" stroke="#2F855A" stroke-width="2.2" stroke-linecap="round" stroke-linejoin="round"/>
</svg>