<svg xmlns="http://www.w3.org/2000/svg" width="300" height="64" viewBox="0 0 300 64">

<polyline points="4.00,38.00 4.46,38.00 4.91,32.00 5.37,32.00 5.83,32.00 6.28,32.00 6.74,32.00 7.20,32.00 7.66,32.00 8.11,32.00 8.57,32.00 9.03,32.00 9.48,32.00 9.94,32.00 10.40,32.00 10.85,32.00 11.31,32.00 11.77,32.00 12.23,32.00 12.68,32.00 13.14,32.00 13.60,32.00 14.05,32.00 14.51,32.00 14.97,32.00 15.42,32.00 15.88,32.00 16.34,32.00 16.79,26.00 17.25,32.00 17.71,32.00 18.17,32.00 18.62,32.00 19.08,32.00 19.54,32.00 19.99,32.00 20.45,32.00 20.91,32.00 21.36,32.00 21.82,32.00 22.28,32.00 22.74,32.00 23.19,32.00 23.65,32.00 24.11,32.00 24.56,32.00 25.02,32.00 25.48,32.00 25.93,32.00 26.39,32.00 26.85,32.00 27.31,32.00 27.76,32.00 28.22,32.00 28.68,32.00 29.13,32.00 29.59,32.00 30.05,32.00 30.50,32.00 30.96,32.00 31.42,32.00 31.87,32.00 32.33,32.00 32.79,32.00 33.25,32.00 33.70,32.00 34.16,32.00 34.62,32.00 35.07,32.00 35.53,26.00 35.99,32.00 36.44,32.00 36.90,32.00 37.36,32.00 37.82,32.00 38.27,32.00 38.73,32.00 39.19,32.00 39.64,32.00 40.10,32.00 40.56,32.00 41.01,32.00 41.47,32.00 41.93,26.00 42.38,26.00 42.84,32.00 43.30,32.00 43.76,32.00 44.21,32.00 44.67,32.00 45.13,32.00 45.58,32.00 46.04,32.00 46.50,32.00 46.95,32.00 47.41,32.00 47.87,32.00 48.33,32.00 48.78,32.00 49.24,32.00 49.70,32.00 50.15,32.00 50.61,32.00 51.07,32.00 51.52,32.00 51.98,32.00 52.44,32.00 52.90,32.00 53.35,32.00 53.81,32.00 54.27,32.00 54.72,32.00 55.18,32.00 55.64,32.00 56.09,38.00 56.55,32.00 57.01,32.00 57.46,32.00 57.92,32.00 58.38,26.00 58.84,32.00 59.29,32.00 59.75,32.00 60.21,26.00 60.66,32.00 61.12,32.00 61.58,32.00 62.03,32.00 62.49,32.00 62.95,32.00 63.41,26.00 63.86,32.00 64.32,32.00 64.78,26.00 65.23,26.00 65.69,38.00 66.15,26.00 66.60,32.00 67.06,32.00 67.52,32.00 67.97,26.00 68.43,32.00 68.89,26.00 69.35,32.00 69.80,32.00 70.26,26.00 70.72,32.00 71.17,32.00 71.63,26.00 72.09,32.00 72.54,32.00 73.00,32.00 73.46,32.00 73.92,32.00 74.37,32.00 74.83,32.00 75.29,32.00 75.74,32.00 76.20,32.00 76.66,32.00 77.11,26.00 77.57,32.00 78.03,32.00 78.49,32.00 78.94,32.00 79.40,32.00 79.86,32.00 80.31,26.00 80.77,32.00 81.23,32.00 81.68,32.00 82.14,32.00 82.60,26.00 83.05,32.00 83.51,32.00 83.97,32.00 84.43,32.00 84.88,32.00 85.34,32.00 85.80,32.00 86.25,32.00 86.71,32.00 87.17,32.00 87.62,32.00 88.08,32.00 88.54,32.00 89.00,32.00 89.45,32.00 89.91,32.00 90.37,32.00 90.82,32.00 91.28,32.00 91.74,32.00 92.19,32.00 92.65,32.00 93.11,32.00 93.56,32.00 94.02,32.00 94.48,32.00 94.94,32.00 95.39,26.00 95.85,32.00 96.31,32.00 96.76,32.00 97.22,32.00 97.68,32.00 98.13,26.00 98.59,32.00 99.05,26.00 99.51,32.00 99.96,32.00 100.42,26.00 100.88,38.00 101.33,32.00 101.79,32.00 102.25,32.00 102.70,32.00 103.16,32.00 103.62,26.00 104.08,32.00 104.53,32.00 104.99,26.00 105.45,26.00 105.90,38.00 106.36,26.00 106.82,26.00 107.27,32.00 107.73,20.00 108.19,26.00 108.64,32.00 109.10,32.00 109.56,32.00 110.02,38.00 110.47,32.00 110.93,26.00 111.39,32.00 111.84,26.00 112.30,32.00 112.76,32.00 113.21,32.00 113.67,26.00 114.13,32.00 114.59,32.00 115.04,26.00 115.50,26.00 115.96,32.00 116.41,38.00 116.87,38.00 117.33,32.00 117.78,32.00 118.24,32.00 118.70,32.00 119.15,32.00 119.61,26.00 120.07,32.00 120.53,26.00 120.98,26.00 121.44,32.00 121.90,32.00 122.35,26.00 122.81,32.00 123.27,32.00 123.72,26.00 124.18,26.00 124.64,32.00 125.10,32.00 125.55,26.00 126.01,32.00 126.47,32.00 126.92,26.00 127.38,26.00 127.84,32.00 128.29,26.00 128.75,32.00 129.21,32.00 129.67,32.00 130.12,32.00 130.58,32.00 131.04,32.00 131.49,32.00 131.95,32.00 132.41,32.00 132.86,32.00 133.32,26.00 133.78,26.00 134.23,32.00 134.69,20.00 135.15,32.00 135.61,32.00 136.06,32.00 136.52,32.00 136.98,32.00 137.43,32.00 137.89,32.00 138.35,32.00 138.80,32.00 139.26,32.00 139.72,26.00 140.18,32.00 140.63,38.00 141.09,26.00 141.55,20.00 142.00,26.00 142.46,26.00 142.92,26.00 143.37,26.00 143.83,32.00 144.29,26.00 144.74,26.00 145.20,32.00 145.66,32.00 146.12,26.00 146.57,26.00 147.03,26.00 147.49,32.00 147.94,32.00 148.40,32.00 148.86,32.00 149.31,32.00 149.77,26.00 150.23,32.00 150.69,38.00 151.14,20.00 151.60,26.00 152.06,38.00 152.51,26.00 152.97,32.00 153.43,26.00 153.88,32.00 154.34,32.00 154.80,32.00 155.26,26.00 155.71,26.00 156.17,38.00 156.63,26.00 157.08,32.00 157.54,26.00 158.00,32.00 158.45,26.00 158.91,32.00 159.37,32.00 159.82,32.00 160.28,32.00 160.74,26.00 161.20,32.00 161.65,32.00 162.11,26.00 162.57,38.00 163.02,32.00 163.48,32.00 163.94,32.00 164.39,32.00 164.85,32.00 165.31,32.00 165.77,32.00 166.22,32.00 166.68,26.00 167.14,32.00 167.59,32.00 168.05,32.00 168.51,26.00 168.96,32.00 169.42,32.00 169.88,32.00 170.33,26.00 170.79,32.00 171.25,32.00 171.71,26.00 172.16,32.00 172.62,32.00 173.08,32.00 173.53,32.00 173.99,32.00 174.45,32.00 174.90,32.00 175.36,26.00 175.82,32.00 176.28,32.00 176.73,32.00 177.19,32.00 177.65,32.00 178.10,26.00 178.56,32.00 179.02,32.00 179.47,32.00 179.93,32.00 180.39,32.00 180.85,26.00 181.30,32.00 181.76,26.00 182.22,26.00 182.67,26.00 183.13,32.00 183.59,26.00 184.04,26.00 184.50,32.00 184.96,32.00 185.41,26.00 185.87,26.00 186.33,38.00 186.79,32.00 187.24,26.00 187.70,32.00 188.16,32.00 188.61,26.00 189.07,32.00 189.53,32.00 189.98,20.00 190.44,26.00 190.90,38.00 191.36,26.00 191.81,26.00 192.27,32.00 192.73,32.00 193.18,26.00 193.64,26.00 194.10,32.00 194.55,32.00 195.01,26.00 195.47,26.00 195.92,26.00 196.38,26.00 196.84,32.00 197.30,26.00 197.75,26.00 198.21,26.00 198.67,20.00 199.12,32.00 199.58,26.00 200.04,26.00 200.49,32.00 200.95,44.00 201.41,32.00 201.87,32.00 202.32,38.00 202.78,32.00 203.24,26.00 203.69,32.00 204.15,32.00 204.61,26.00 205.06,32.00 205.52,32.00 205.98,32.00 206.44,32.00 206.89,26.00 207.35,32.00 207.81,38.00 208.26,32.00 208.72,32.00 209.18,32.00 209.63,32.00 210.09,26.00 210.55,26.00 211.00,38.00 211.46,32.00 211.92,20.00 212.38,26.00 212.83,32.00 213.29,26.00 213.75,32.00 214.20,26.00 214.66,32.00 215.12,38.00 215.57,26.00 216.03,32.00 216.49,32.00 216.95,20.00 217.40,38.00 217.86,38.00 218.32,38.00 218.77,32.00 219.23,32.00 219.69,32.00 220.14,32.00 220.60,26.00 221.06,20.00 221.51,26.00 221.97,20.00 222.43,20.00 222.89,20.00 223.34,20.00 223.80,20.00 224.26,20.00 224.71,20.00 225.17,26.00 225.63,26.00 226.08,32.00 226.54,38.00 227.00,38.00 227.46,38.00 227.91,32.00 228.37,32.00 228.83,32.00 229.28,32.00 229.74,32.00 230.20,32.00 230.65,26.00 231.11,26.00 231.57,26.00 232.03,20.00 232.48,20.00 232.94,26.00 233.40,26.00 233.85,26.00 234.31,26.00 234.77,32.00 235.22,38.00 235.68,44.00 236.14,44.00 236.59,38.00 237.05,32.00 237.51,20.00 237.97,20.00 238.42,26.00 238.88,32.00 239.34,20.00 239.79,20.00 240.25,20.00 240.71,14.00 241.16,14.00 241.62,8.00 242.08,14.00 242.54,14.00 242.99,26.00 243.45,20.00 243.91,20.00 244.36,20.00 244.82,32.00 245.28,26.00 245.73,26.00 246.19,14.00 246.65,8.00 247.10,8.00 247.56,38.00 248.02,38.00 248.48,38.00 248.93,38.00 249.39,32.00 249.85,26.00 250.30,20.00 250.76,26.00 251.22,32.00 251.67,32.00 252.13,38.00 252.59,32.00 253.05,32.00 253.50,26.00 253.96,26.00 254.42,20.00 254.87,14.00 255.33,8.00 255.79,2.00 256.24,2.00 256.70,2.00 257.16,14.00 257.62,14.00 258.07,26.00 258.53,20.00 258.99,26.00 259.44,38.00 259.90,44.00 260.36,50.00 260.81,50.00 261.27,44.00 261.73,38.00 262.18,38.00 262.64,38.00 263.10,44.00 263.56,50.00 264.01,44.00 264.47,38.00 264.93,32.00 265.38,38.00 265.84,32.00 266.30,32.00 266.75,32.00 267.21,26.00 267.67,20.00 268.13,8.00 268.58,2.00 269.04,2.00 269.50,-4.00 269.95,2.00 270.41,26.00 270.87,38.00 271.32,26.00 271.78,14.00 272.24,8.00 272.69,8.00 273.15,14.00 273.61,20.00 274.07,44.00 274.52,56.00 274.98,56.00 275.44,44.00 275.89,38.00 276.35,32.00 276.81,38.00 277.26,50.00 277.72,50.00 278.18,50.00 278.64,44.00 279.09,38.00 279.55,38.00 280.01,38.00 280.46,32.00 280.92,26.00 281.38,26.00 281.83,20.00 282.29,20.00 282.75,20.00 283.21,20.00 283.66,20.00 284.12,20.00 284.58,20.00 285.03,20.00 285.49,32.00 285.95,32.00 286.40,32.00 286.86,26.00 287.32,32.00 287.77,44.00 288.23,50.00 288.69,50.00 289.15,50.00 289.60,50.00 290.06,56.00 290.52,56.00 290.97,50.00 291.43,32.00 291.89,20.00 292.34,20.00 292.80,26.00 293.26,32.00 293.72,26.00 294.17,26.00 294.63,14.00 295.09,20.00 295.54,32.00 296.00,38.00" fill="none" stroke="#111827" stroke-width="2.2" stroke-linecap="round" stroke-linejoin="round"/>
</svg>