<svg xmlns="http://www.w3.org/2000/svg" width="300" height="64" viewBox="0 0 300 64">

<polyline points="4.00,22.08 4.23,15.58 4.46,15.95 4.68,16.18 4.91,16.10 5.14,17.05 5.37,18.25 5.60,18.65 5.83,18.09 6.05,16.15 6.28,16.81 6.51,20.55 6.74,16.09 6.97,21.37 7.20,13.47 7.42,13.74 7.65,21.50 7.88,18.15 8.11,18.26 8.34,19.85 8.57,20.21 8.79,18.89 9.02,13.60 9.25,19.65 9.48,20.24 9.71,21.48 9.94,14.79 10.16,15.12 10.39,22.76 10.62,15.96 10.85,22.54 11.08,21.00 11.31,23.56 11.53,16.62 11.76,22.57 11.99,21.24 12.22,19.48 12.45,22.65 12.68,22.79 12.90,21.62 13.13,18.67 13.36,19.66 13.59,21.77 13.82,22.81 14.05,23.10 14.27,22.59 14.50,21.62 14.73,23.99 14.96,24.88 15.19,23.12 15.42,25.56 15.64,22.08 15.87,23.80 16.10,24.17 16.33,21.80 16.56,22.96 16.78,22.93 17.01,23.81 17.24,25.47 17.47,23.18 17.70,24.86 17.93,25.66 18.15,22.30 18.38,23.97 18.61,22.04 18.84,28.30 19.07,21.01 19.30,22.51 19.52,24.13 19.75,27.68 19.98,23.70 20.21,24.96 20.44,29.26 20.67,25.09 20.89,25.21 21.12,26.73 21.35,21.66 21.58,26.05 21.81,23.77 22.04,26.60 22.26,23.84 22.49,28.43 22.72,26.53 22.95,25.28 23.18,28.58 23.41,25.17 23.63,28.44 23.86,25.84 24.09,23.07 24.32,26.51 24.55,24.03 24.78,23.36 25.00,27.53 25.23,24.76 25.46,24.20 25.69,26.27 25.92,28.17 26.15,26.96 26.37,24.79 26.60,23.75 26.83,26.91 27.06,24.41 27.29,26.96 27.52,26.38 27.74,26.42 27.97,26.28 28.20,25.08 28.43,27.53 28.66,28.40 28.89,27.45 29.11,28.32 29.34,25.61 29.57,23.13 29.80,27.16 30.03,28.34 30.25,25.08 30.48,26.98 30.71,27.28 30.94,24.90 31.17,22.05 31.40,23.86 31.62,25.00 31.85,24.93 32.08,32.82 32.31,24.79 32.54,25.55 32.77,24.08 32.99,24.91 33.22,19.26 33.45,21.57 33.68,25.36 33.91,27.50 34.14,27.17 34.36,25.66 34.59,29.69 34.82,27.89 35.05,30.27 35.28,28.31 35.51,27.57 35.73,24.88 35.96,28.22 36.19,29.55 36.42,27.35 36.65,24.76 36.88,25.55 37.10,29.41 37.33,25.10 37.56,27.10 37.79,25.43 38.02,26.88 38.25,26.69 38.47,23.84 38.70,26.64 38.93,27.62 39.16,24.59 39.39,29.12 39.62,26.02 39.84,24.13 40.07,25.73 40.30,29.20 40.53,28.02 40.76,29.30 40.99,22.54 41.21,24.94 41.44,23.48 41.67,26.58 41.90,21.87 42.13,18.51 42.35,28.55 42.58,27.75 42.81,26.44 43.04,26.31 43.27,28.76 43.50,29.75 43.72,29.51 43.95,30.41 44.18,23.45 44.41,21.87 44.64,24.21 44.87,25.55 45.09,29.44 45.32,21.98 45.55,28.41 45.78,28.56 46.01,29.41 46.24,24.65 46.46,25.98 46.69,25.99 46.92,30.95 47.15,26.19 47.38,27.79 47.61,28.42 47.83,30.54 48.06,28.16 48.29,26.86 48.52,29.74 48.75,27.48 48.98,23.99 49.20,31.55 49.43,30.57 49.66,26.66 49.89,29.39 50.12,32.93 50.35,27.59 50.57,31.80 50.80,27.95 51.03,25.60 51.26,30.17 51.49,29.32 51.72,27.84 51.94,30.90 52.17,29.90 52.40,30.75 52.63,27.71 52.86,29.03 53.09,32.24 53.31,30.21 53.54,32.71 53.77,25.35 54.00,25.98 54.23,31.15 54.46,31.58 54.68,31.90 54.91,30.22 55.14,33.64 55.37,26.97 55.60,26.49 55.82,32.10 56.05,28.16 56.28,33.98 56.51,32.39 56.74,30.98 56.97,29.95 57.19,32.87 57.42,32.03 57.65,32.75 57.88,32.13 58.11,37.53 58.34,32.88 58.56,32.05 58.79,30.28 59.02,33.15 59.25,34.67 59.48,35.20 59.71,31.05 59.93,30.95 60.16,33.27 60.39,34.37 60.62,34.63 60.85,26.91 61.08,33.27 61.30,36.02 61.53,26.84 61.76,29.78 61.99,33.60 62.22,38.00 62.45,35.60 62.67,29.28 62.90,35.71 63.13,34.78 63.36,35.38 63.59,35.55 63.82,32.06 64.04,30.36 64.27,33.11 64.50,31.39 64.73,34.75 64.96,33.28 65.19,35.67 65.41,33.57 65.64,29.22 65.87,33.70 66.10,31.24 66.33,31.19 66.56,35.10 66.78,32.87 67.01,32.70 67.24,31.12 67.47,28.27 67.70,33.97 67.92,29.72 68.15,27.10 68.38,34.01 68.61,30.66 68.84,31.42 69.07,34.98 69.29,32.76 69.52,33.06 69.75,33.14 69.98,32.47 70.21,33.96 70.44,30.71 70.66,31.07 70.89,32.26 71.12,31.48 71.35,32.77 71.58,31.01 71.81,30.42 72.03,33.21 72.26,30.48 72.49,27.79 72.72,33.64 72.95,33.96 73.18,34.00 73.40,31.06 73.63,30.72 73.86,32.75 74.09,30.33 74.32,34.71 74.55,33.70 74.77,31.41 75.00,27.46 75.23,30.27 75.46,31.89 75.69,29.24 75.92,27.70 76.14,33.38 76.37,29.26 76.60,31.30 76.83,28.45 77.06,31.02 77.29,33.62 77.51,31.36 77.74,33.62 77.97,30.67 78.20,25.64 78.43,29.93 78.66,34.30 78.88,29.22 79.11,31.95 79.34,29.65 79.57,29.27 79.80,39.31 80.03,34.49 80.25,30.82 80.48,30.24 80.71,34.63 80.94,30.22 81.17,30.80 81.39,35.04 81.62,26.70 81.85,31.46 82.08,30.78 82.31,32.69 82.54,31.46 82.76,29.68 82.99,29.70 83.22,31.65 83.45,33.59 83.68,31.83 83.91,30.50 84.13,31.52 84.36,33.13 84.59,30.67 84.82,32.63 85.05,33.84 85.28,26.35 85.50,32.16 85.73,28.43 85.96,33.96 86.19,32.16 86.42,28.61 86.65,32.96 86.87,31.72 87.10,36.37 87.33,28.80 87.56,32.09 87.79,29.48 88.02,31.95 88.24,29.73 88.47,36.74 88.70,30.84 88.93,33.05 89.16,30.94 89.39,29.76 89.61,32.93 89.84,36.43 90.07,30.31 90.30,32.58 90.53,32.37 90.76,28.22 90.98,40.08 91.21,31.41 91.44,32.33 91.67,35.63 91.90,33.89 92.13,34.51 92.35,35.79 92.58,36.30 92.81,34.96 93.04,32.23 93.27,30.46 93.49,35.14 93.72,34.14 93.95,36.57 94.18,35.59 94.41,36.25 94.64,33.03 94.86,38.52 95.09,33.20 95.32,43.29 95.55,43.26 95.78,34.92 96.01,37.47 96.23,31.58 96.46,34.26 96.69,36.92 96.92,38.94 97.15,38.19 97.38,33.98 97.60,38.29 97.83,36.94 98.06,37.33 98.29,38.84 98.52,35.10 98.75,36.60 98.97,36.90 99.20,32.31 99.43,36.10 99.66,39.85 99.89,39.83 100.12,39.41 100.34,35.49 100.57,36.45 100.80,32.15 101.03,39.92 101.26,37.72 101.49,37.85 101.71,33.32 101.94,40.26 102.17,35.86 102.40,34.84 102.63,36.13 102.86,35.77 103.08,37.69 103.31,36.86 103.54,40.82 103.77,38.29 104.00,39.50 104.23,38.38 104.45,37.02 104.68,34.55 104.91,31.29 105.14,37.04 105.37,33.07 105.60,37.81 105.82,36.42 106.05,34.45 106.28,34.56 106.51,36.13 106.74,36.97 106.96,34.19 107.19,35.13 107.42,39.52 107.65,32.32 107.88,30.55 108.11,31.97 108.33,39.08 108.56,37.14 108.79,35.13 109.02,35.77 109.25,39.59 109.48,37.67 109.70,38.74 109.93,33.33 110.16,37.36 110.39,36.32 110.62,37.87 110.85,33.16 111.07,36.17 111.30,37.85 111.53,37.97 111.76,35.71 111.99,39.73 112.22,36.50 112.44,36.26 112.67,34.96 112.90,34.78 113.13,37.11 113.36,37.17 113.59,36.87 113.81,39.16 114.04,36.33 114.27,36.14 114.50,35.10 114.73,35.10 114.96,37.84 115.18,35.38 115.41,36.24 115.64,34.83 115.87,36.57 116.10,36.06 116.33,35.72 116.55,35.90 116.78,40.28 117.01,39.28 117.24,40.89 117.47,35.53 117.70,38.90 117.92,37.66 118.15,37.89 118.38,37.28 118.61,37.50 118.84,35.47 119.06,38.96 119.29,38.83 119.52,40.70 119.75,39.99 119.98,37.89 120.21,40.21 120.43,41.94 120.66,34.40 120.89,39.84 121.12,39.93 121.35,39.14 121.58,38.06 121.80,33.90 122.03,38.92 122.26,40.58 122.49,41.63 122.72,40.09 122.95,31.55 123.17,36.74 123.40,39.73 123.63,42.60 123.86,36.95 124.09,41.43 124.32,38.41 124.54,41.44 124.77,36.91 125.00,39.24 125.23,39.82 125.46,37.29 125.69,41.20 125.91,38.24 126.14,34.79 126.37,36.26 126.60,38.12 126.83,39.79 127.06,40.87 127.28,41.59 127.51,41.67 127.74,39.13 127.97,37.23 128.20,38.05 128.43,37.66 128.65,38.12 128.88,36.10 129.11,38.72 129.34,38.54 129.57,38.38 129.80,37.85 130.02,38.79 130.25,36.98 130.48,39.70 130.71,39.05 130.94,36.46 131.16,40.05 131.39,39.15 131.62,35.70 131.85,36.17 132.08,34.20 132.31,36.55 132.53,40.48 132.76,33.78 132.99,35.64 133.22,36.10 133.45,35.08 133.68,35.45 133.90,35.60 134.13,36.14 134.36,39.34 134.59,35.86 134.82,38.16 135.05,38.75 135.27,37.75 135.50,34.07 135.73,35.73 135.96,37.45 136.19,35.28 136.42,34.95 136.64,34.52 136.87,35.97 137.10,36.08 137.33,33.74 137.56,37.29 137.79,35.56 138.01,36.02 138.24,32.30 138.47,30.50 138.70,34.41 138.93,32.26 139.16,36.82 139.38,35.41 139.61,28.52 139.84,31.38 140.07,31.44 140.30,31.41 140.53,28.58 140.75,27.60 140.98,32.71 141.21,33.61 141.44,32.13 141.67,30.42 141.90,34.74 142.12,32.71 142.35,35.49 142.58,28.68 142.81,28.42 143.04,34.01 143.27,29.51 143.49,30.84 143.72,29.41 143.95,28.90 144.18,30.45 144.41,31.76 144.63,32.07 144.86,34.10 145.09,29.47 145.32,31.33 145.55,31.57 145.78,35.36 146.00,32.21 146.23,35.71 146.46,32.97 146.69,31.71 146.92,35.80 147.15,34.62 147.37,32.98 147.60,34.35 147.83,30.32 148.06,29.94 148.29,30.18 148.52,31.72 148.74,32.59 148.97,32.50 149.20,30.52 149.43,34.35 149.66,35.12 149.89,34.04 150.11,34.56 150.34,34.28 150.57,32.76 150.80,34.64 151.03,34.71 151.26,34.58 151.48,27.42 151.71,29.99 151.94,31.58 152.17,28.97 152.40,35.15 152.63,32.82 152.85,30.01 153.08,35.29 153.31,34.56 153.54,35.36 153.77,32.08 154.00,34.72 154.22,32.45 154.45,36.86 154.68,36.03 154.91,36.43 155.14,37.27 155.37,32.80 155.59,29.13 155.82,39.14 156.05,32.52 156.28,33.70 156.51,40.47 156.73,36.27 156.96,34.39 157.19,38.62 157.42,36.00 157.65,35.90 157.88,37.15 158.10,36.76 158.33,38.21 158.56,37.75 158.79,36.54 159.02,41.02 159.25,38.78 159.47,37.12 159.70,42.49 159.93,40.29 160.16,35.42 160.39,38.44 160.62,39.57 160.84,31.02 161.07,37.67 161.30,40.92 161.53,38.64 161.76,42.43 161.99,36.89 162.21,40.04 162.44,39.60 162.67,40.79 162.90,41.35 163.13,39.62 163.36,33.85 163.58,34.88 163.81,42.26 164.04,39.63 164.27,35.45 164.50,41.30 164.73,40.13 164.95,44.39 165.18,43.89 165.41,44.13 165.64,37.44 165.87,41.59 166.10,39.63 166.32,38.95 166.55,43.32 166.78,47.73 167.01,40.94 167.24,40.86 167.47,38.99 167.69,47.37 167.92,42.60 168.15,42.25 168.38,41.28 168.61,47.04 168.84,42.07 169.06,39.93 169.29,42.81 169.52,40.65 169.75,45.65 169.98,39.98 170.20,44.70 170.43,42.70 170.66,41.86 170.89,41.54 171.12,42.97 171.35,41.71 171.57,44.19 171.80,41.39 172.03,43.02 172.26,44.16 172.49,40.47 172.72,45.46 172.94,40.20 173.17,42.38 173.40,45.31 173.63,42.82 173.86,44.86 174.09,44.22 174.31,40.82 174.54,41.24 174.77,37.52 175.00,45.30 175.23,40.60 175.46,41.24 175.68,37.12 175.91,43.69 176.14,43.52 176.37,43.21 176.60,45.44 176.83,44.74 177.05,43.12 177.28,43.18 177.51,41.25 177.74,41.62 177.97,38.25 178.20,42.14 178.42,40.40 178.65,44.29 178.88,44.18 179.11,41.06 179.34,42.56 179.57,39.44 179.79,43.88 180.02,44.04 180.25,42.37 180.48,43.76 180.71,46.22 180.94,44.53 181.16,45.97 181.39,42.72 181.62,44.99 181.85,44.85 182.08,41.97 182.30,41.24 182.53,44.25 182.76,38.20 182.99,46.66 183.22,43.37 183.45,41.00 183.67,47.32 183.90,44.15 184.13,45.61 184.36,46.57 184.59,47.25 184.82,45.03 185.04,47.06 185.27,47.58 185.50,47.73 185.73,41.55 185.96,46.57 186.19,42.01 186.41,43.09 186.64,46.87 186.87,49.34 187.10,49.37 187.33,51.24 187.56,45.38 187.78,44.88 188.01,44.06 188.24,45.75 188.47,47.04 188.70,48.70 188.93,48.64 189.15,48.38 189.38,48.85 189.61,48.02 189.84,46.18 190.07,48.98 190.30,50.35 190.52,49.21 190.75,51.64 190.98,50.81 191.21,47.80 191.44,47.13 191.67,47.38 191.89,42.99 192.12,48.57 192.35,48.79 192.58,48.38 192.81,48.31 193.04,49.79 193.26,49.08 193.49,51.00 193.72,50.91 193.95,49.99 194.18,48.76 194.41,51.78 194.63,52.61 194.86,49.15 195.09,49.80 195.32,53.59 195.55,48.09 195.77,50.98 196.00,51.40 196.23,50.52 196.46,51.77 196.69,48.80 196.92,52.67 197.14,49.08 197.37,53.15 197.60,53.38 197.83,50.78 198.06,52.10 198.29,54.62 198.51,58.43 198.74,46.93 198.97,55.42 199.20,52.99 199.43,51.55 199.66,53.99 199.88,56.56 200.11,49.22 200.34,49.47 200.57,55.25 200.80,52.67 201.03,49.48 201.25,49.91 201.48,49.80 201.71,53.09 201.94,49.77 202.17,53.66 202.40,50.57 202.62,52.92 202.85,54.58 203.08,52.65 203.31,54.07 203.54,50.84 203.77,53.86 203.99,53.37 204.22,52.15 204.45,53.02 204.68,50.19 204.91,50.53 205.14,52.43 205.36,47.58 205.59,52.52 205.82,53.36 206.05,54.48 206.28,52.14 206.51,50.70 206.73,48.67 206.96,53.10 207.19,50.17 207.42,48.31 207.65,51.43 207.87,50.43 208.10,53.42 208.33,53.36 208.56,54.38 208.79,49.93 209.02,51.76 209.24,52.08 209.47,50.49 209.70,50.55 209.93,50.61 210.16,48.01 210.39,51.51 210.61,49.72 210.84,47.96 211.07,44.06 211.30,45.86 211.53,46.32 211.76,47.09 211.98,46.47 212.21,49.01 212.44,49.51 212.67,46.45 212.90,49.02 213.13,42.19 213.35,45.57 213.58,45.59 213.81,50.15 214.04,43.97 214.27,45.55 214.50,41.38 214.72,42.58 214.95,41.01 215.18,42.23 215.41,43.01 215.64,43.31 215.87,43.58 216.09,42.38 216.32,40.54 216.55,40.76 216.78,44.02 217.01,39.62 217.24,40.18 217.46,38.05 217.69,42.72 217.92,34.80 218.15,41.05 218.38,39.46 218.61,40.52 218.83,37.70 219.06,43.23 219.29,35.97 219.52,35.88 219.75,38.15 219.97,37.63 220.20,36.00 220.43,33.45 220.66,36.10 220.89,35.77 221.12,39.26 221.34,31.62 221.57,37.07 221.80,30.73 222.03,36.89 222.26,35.59 222.49,37.07 222.71,35.52 222.94,36.18 223.17,36.01 223.40,32.28 223.63,31.84 223.86,38.32 224.08,33.39 224.31,34.60 224.54,33.85 224.77,36.09 225.00,31.45 225.23,30.87 225.45,36.80 225.68,30.41 225.91,32.29 226.14,31.44 226.37,34.38 226.60,35.79 226.82,27.78 227.05,33.00 227.28,31.71 227.51,32.44 227.74,29.25 227.97,32.92 228.19,33.37 228.42,31.77 228.65,30.24 228.88,32.65 229.11,32.80 229.34,30.01 229.56,33.31 229.79,28.69 230.02,27.42 230.25,31.06 230.48,30.42 230.71,23.46 230.93,17.64 231.16,24.96 231.39,25.27 231.62,24.79 231.85,28.57 232.08,26.40 232.30,28.30 232.53,25.20 232.76,26.62 232.99,27.15 233.22,25.40 233.44,31.45 233.67,26.77 233.90,26.97 234.13,25.88 234.36,23.99 234.59,24.88 234.81,28.39 235.04,27.65 235.27,24.78 235.50,21.96 235.73,26.71 235.96,25.05 236.18,22.43 236.41,27.00 236.64,20.33 236.87,17.50 237.10,24.18 237.33,21.41 237.55,25.33 237.78,22.92 238.01,23.23 238.24,26.75 238.47,24.23 238.70,28.22 238.92,25.29 239.15,29.23 239.38,23.92 239.61,25.13 239.84,27.60 240.07,26.55 240.29,25.77 240.52,26.22 240.75,23.28 240.98,24.57 241.21,24.03 241.44,24.91 241.66,22.64 241.89,17.24 242.12,21.83 242.35,24.14 242.58,22.76 242.81,26.84 243.03,27.11 243.26,25.15 243.49,23.31 243.72,26.11 243.95,24.88 244.18,25.18 244.40,16.87 244.63,22.44 244.86,24.32 245.09,24.08 245.32,29.33 245.54,27.60 245.77,26.22 246.00,24.85 246.23,27.71 246.46,24.59 246.69,25.11 246.91,25.21 247.14,25.21 247.37,25.09 247.60,26.88 247.83,23.14 248.06,25.26 248.28,28.45 248.51,22.04 248.74,22.39 248.97,24.82 249.20,24.53 249.43,27.97 249.65,27.88 249.88,26.59 250.11,26.16 250.34,29.29 250.57,28.71 250.80,28.81 251.02,23.02 251.25,30.87 251.48,30.96 251.71,32.51 251.94,29.49 252.17,30.10 252.39,30.15 252.62,29.66 252.85,26.17 253.08,33.74 253.31,25.57 253.54,28.42 253.76,27.25 253.99,29.95 254.22,29.86 254.45,27.31 254.68,27.53 254.91,31.00 255.13,27.77 255.36,27.87 255.59,25.76 255.82,28.60 256.05,24.04 256.28,26.32 256.50,25.92 256.73,24.94 256.96,23.48 257.19,24.58 257.42,27.83 257.65,26.04 257.87,27.94 258.10,28.19 258.33,26.96 258.56,25.02 258.79,23.29 259.01,26.00 259.24,21.25 259.47,26.83 259.70,29.79 259.93,27.42 260.16,28.10 260.38,28.42 260.61,27.12 260.84,27.18 261.07,24.39 261.30,26.85 261.53,26.05 261.75,27.03 261.98,27.36 262.21,27.55 262.44,25.68 262.67,27.04 262.90,26.52 263.12,25.63 263.35,28.05 263.58,26.39 263.81,26.94 264.04,28.90 264.27,22.76 264.49,25.00 264.72,20.69 264.95,18.31 265.18,21.60 265.41,24.54 265.64,24.30 265.86,26.30 266.09,23.92 266.32,24.14 266.55,19.12 266.78,25.75 267.01,20.94 267.23,19.65 267.46,23.57 267.69,24.15 267.92,25.26 268.15,22.94 268.38,26.78 268.60,21.08 268.83,21.04 269.06,28.11 269.29,23.43 269.52,22.78 269.75,22.02 269.97,26.51 270.20,23.89 270.43,22.25 270.66,24.10 270.89,28.38 271.11,28.72 271.34,23.93 271.57,22.54 271.80,23.65 272.03,27.75 272.26,24.08 272.48,20.56 272.71,24.08 272.94,21.76 273.17,21.69 273.40,22.65 273.63,22.63 273.85,21.11 274.08,23.40 274.31,23.75 274.54,23.19 274.77,24.03 275.00,17.91 275.22,23.48 275.45,20.73 275.68,22.41 275.91,23.59 276.14,25.87 276.37,21.38 276.59,23.25 276.82,21.27 277.05,25.35 277.28,28.94 277.51,25.59 277.74,25.29 277.96,28.59 278.19,27.84 278.42,19.74 278.65,20.35 278.88,24.89 279.11,24.88 279.33,19.28 279.56,19.38 279.79,22.60 280.02,21.37 280.25,21.14 280.48,20.28 280.70,25.88 280.93,24.81 281.16,23.39 281.39,24.10 281.62,23.04 281.85,28.11 282.07,26.40 282.30,31.01 282.53,24.15 282.76,25.82 282.99,26.85 283.22,28.36 283.44,23.54 283.67,28.71 283.90,23.49 284.13,27.32 284.36,21.97 284.58,23.44 284.81,26.99 285.04,26.52 285.27,23.87 285.50,25.18 285.73,24.23 285.95,25.44 286.18,22.46 286.41,28.37 286.64,27.02 286.87,28.60 287.10,27.41 287.32,23.05 287.55,22.99 287.78,24.69 288.01,24.17 288.24,26.15 288.47,25.60 288.69,26.78 288.92,26.39 289.15,21.07 289.38,28.51 289.61,20.33 289.84,26.63 290.06,22.46 290.29,24.14 290.52,27.39 290.75,24.99 290.98,23.66 291.21,24.99 291.43,22.94 291.66,22.14 291.89,25.78 292.12,19.69 292.35,24.05 292.58,20.11 292.80,19.89 293.03,24.35 293.26,22.25 293.49,23.02 293.72,22.78 293.95,18.96 294.17,20.93 294.40,18.42 294.63,22.04 294.86,18.66 295.09,22.65 295.32,24.75 295.54,22.32 295.77,22.28 296.00,22.71" fill="none" stroke="#2F855A" stroke-width="2.2" stroke-linecap="round" stroke-linejoin="round"/>
</svg>