<svg xmlns="http://www.w3.org/2000/svg" width="300" height="64" viewBox="0 0 300 64">

<polyline points="4.00,31.44 4.23,25.05 4.46,27.34 4.68,30.16 4.91,28.40 5.14,29.16 5.37,30.06 5.60,28.94 5.83,29.58 6.05,28.87 6.28,33.21 6.51,30.61 6.74,28.36 6.97,28.07 7.20,30.32 7.42,29.90 7.65,30.19 7.88,29.85 8.11,30.30 8.34,29.23 8.57,28.04 8.79,26.94 9.02,31.07 9.25,30.96 9.48,28.46 9.71,39.11 9.94,29.06 10.16,31.63 10.39,25.59 10.62,25.44 10.85,32.54 11.08,34.34 11.31,35.04 11.53,30.35 11.76,29.76 11.99,30.34 12.22,29.53 12.45,30.33 12.68,30.32 12.90,29.91 13.13,31.15 13.36,30.40 13.59,27.64 13.82,26.82 14.05,32.75 14.27,25.03 14.50,28.00 14.73,30.65 14.96,33.35 15.19,31.81 15.42,32.40 15.64,30.02 15.87,29.06 16.10,29.12 16.33,29.16 16.56,29.73 16.78,29.19 17.01,29.37 17.24,30.04 17.47,30.14 17.70,29.81 17.93,30.80 18.15,30.09 18.38,28.34 18.61,28.81 18.84,30.10 19.07,32.29 19.30,32.60 19.52,31.72 19.75,31.60 19.98,29.57 20.21,31.17 20.44,30.59 20.67,30.01 20.89,33.82 21.12,30.31 21.35,25.76 21.58,34.03 21.81,31.31 22.04,34.82 22.26,26.88 22.49,26.76 22.72,32.14 22.95,35.06 23.18,34.96 23.41,31.73 23.63,31.83 23.86,32.46 24.09,30.19 24.32,29.20 24.55,29.29 24.78,29.15 25.00,29.74 25.23,32.80 25.46,32.12 25.69,31.68 25.92,37.65 26.15,27.11 26.37,28.55 26.60,27.81 26.83,28.35 27.06,34.04 27.29,36.32 27.52,34.90 27.74,33.49 27.97,32.00 28.20,30.03 28.43,30.65 28.66,33.97 28.89,33.65 29.11,32.59 29.34,28.75 29.57,28.07 29.80,32.02 30.03,32.00 30.25,32.46 30.48,34.79 30.71,33.31 30.94,31.81 31.17,30.41 31.40,32.07 31.62,32.83 31.85,31.39 32.08,32.39 32.31,32.40 32.54,33.28 32.77,30.44 32.99,33.64 33.22,29.84 33.45,33.56 33.68,40.81 33.91,30.19 34.14,32.13 34.36,27.30 34.59,32.05 34.82,33.01 35.05,35.30 35.28,32.67 35.51,33.80 35.73,33.57 35.96,33.48 36.19,32.25 36.42,32.91 36.65,29.17 36.88,30.85 37.10,29.81 37.33,34.06 37.56,31.27 37.79,34.93 38.02,34.30 38.25,27.33 38.47,30.78 38.70,32.60 38.93,31.92 39.16,30.77 39.39,33.39 39.62,34.44 39.84,32.53 40.07,32.04 40.30,32.76 40.53,32.75 40.76,32.11 40.99,33.47 41.21,32.97 41.44,31.65 41.67,32.11 41.90,32.70 42.13,32.88 42.35,32.59 42.58,32.11 42.81,32.17 43.04,33.16 43.27,34.50 43.50,34.42 43.72,34.39 43.95,34.78 44.18,33.44 44.41,30.51 44.64,33.29 44.87,24.48 45.09,29.54 45.32,38.70 45.55,30.76 45.78,35.21 46.01,30.99 46.24,29.57 46.46,34.49 46.69,37.22 46.92,34.29 47.15,31.04 47.38,29.83 47.61,32.03 47.83,30.86 48.06,29.92 48.29,28.21 48.52,30.92 48.75,33.93 48.98,34.17 49.20,29.86 49.43,33.32 49.66,33.09 49.89,27.17 50.12,29.39 50.35,31.79 50.57,35.49 50.80,33.29 51.03,34.19 51.26,32.45 51.49,29.69 51.72,28.81 51.94,30.95 52.17,31.12 52.40,32.99 52.63,31.02 52.86,30.45 53.09,28.37 53.31,30.86 53.54,33.41 53.77,34.71 54.00,35.24 54.23,35.80 54.46,36.29 54.68,34.90 54.91,32.41 55.14,32.30 55.37,30.05 55.60,29.74 55.82,28.50 56.05,27.33 56.28,27.93 56.51,29.92 56.74,21.53 56.97,31.72 57.19,31.36 57.42,35.43 57.65,31.62 57.88,28.57 58.11,35.94 58.34,36.53 58.56,35.76 58.79,31.06 59.02,29.16 59.25,29.42 59.48,27.84 59.71,26.63 59.93,28.61 60.16,30.90 60.39,32.35 60.62,34.04 60.85,31.53 61.08,30.89 61.30,34.30 61.53,26.63 61.76,32.17 61.99,32.02 62.22,34.70 62.45,34.28 62.67,34.51 62.90,32.34 63.13,32.99 63.36,31.04 63.59,33.06 63.82,31.52 64.04,30.90 64.27,31.84 64.50,34.71 64.73,31.34 64.96,29.97 65.19,29.16 65.41,31.32 65.64,34.14 65.87,33.98 66.10,31.70 66.33,33.45 66.56,32.29 66.78,32.34 67.01,29.39 67.24,31.98 67.47,32.68 67.70,33.34 67.92,30.24 68.15,33.14 68.38,25.56 68.61,31.45 68.84,36.77 69.07,27.81 69.29,32.86 69.52,26.77 69.75,30.78 69.98,32.28 70.21,35.78 70.44,32.33 70.66,32.04 70.89,31.74 71.12,31.65 71.35,29.15 71.58,30.33 71.81,28.42 72.03,30.25 72.26,32.00 72.49,33.36 72.72,28.93 72.95,30.81 73.18,35.06 73.40,25.18 73.63,28.26 73.86,30.70 74.09,32.13 74.32,32.40 74.55,34.48 74.77,31.98 75.00,31.48 75.23,28.67 75.46,31.42 75.69,32.26 75.92,33.81 76.14,33.40 76.37,33.01 76.60,30.93 76.83,29.70 77.06,32.16 77.29,31.91 77.51,31.97 77.74,32.99 77.97,32.34 78.20,31.60 78.43,31.45 78.66,32.53 78.88,31.67 79.11,33.16 79.34,31.90 79.57,32.96 79.80,31.38 80.03,31.07 80.25,30.19 80.48,34.04 80.71,26.28 80.94,35.27 81.17,36.26 81.39,27.45 81.62,32.53 81.85,29.07 82.08,31.72 82.31,39.08 82.54,43.49 82.76,41.11 82.99,38.62 83.22,35.64 83.45,33.56 83.68,32.72 83.91,34.43 84.13,32.75 84.36,32.92 84.59,33.86 84.82,33.24 85.05,28.60 85.28,29.47 85.50,34.93 85.73,28.69 85.96,32.38 86.19,38.08 86.42,40.42 86.65,39.78 86.87,39.96 87.10,36.12 87.33,32.81 87.56,30.96 87.79,30.48 88.02,31.06 88.24,30.09 88.47,28.68 88.70,27.55 88.93,29.27 89.16,32.79 89.39,33.26 89.61,33.47 89.84,32.23 90.07,32.38 90.30,32.16 90.53,31.87 90.76,32.68 90.98,32.82 91.21,34.41 91.44,33.82 91.67,31.36 91.90,31.80 92.13,30.44 92.35,30.41 92.58,30.91 92.81,30.16 93.04,30.99 93.27,34.60 93.49,25.55 93.72,32.27 93.95,30.30 94.18,31.76 94.41,31.54 94.64,25.85 94.86,34.80 95.09,36.69 95.32,37.26 95.55,31.28 95.78,28.77 96.01,27.80 96.23,30.24 96.46,29.73 96.69,30.35 96.92,29.53 97.15,32.61 97.38,33.71 97.60,33.58 97.83,28.34 98.06,31.67 98.29,28.98 98.52,25.32 98.75,28.69 98.97,31.44 99.20,31.58 99.43,29.12 99.66,30.90 99.89,30.92 100.12,32.14 100.34,30.35 100.57,30.44 100.80,31.51 101.03,30.98 101.26,30.95 101.49,32.55 101.71,33.17 101.94,33.07 102.17,32.51 102.40,34.04 102.63,33.49 102.86,32.05 103.08,32.98 103.31,33.73 103.54,31.81 103.77,31.48 104.00,32.66 104.23,36.30 104.45,40.33 104.68,38.88 104.91,32.47 105.14,29.95 105.37,32.35 105.60,36.51 105.82,28.29 106.05,28.65 106.28,36.01 106.51,29.06 106.74,31.93 106.96,26.66 107.19,31.02 107.42,34.99 107.65,35.84 107.88,33.94 108.11,31.53 108.33,32.24 108.56,31.11 108.79,32.29 109.02,31.89 109.25,27.16 109.48,28.02 109.70,27.77 109.93,34.97 110.16,43.07 110.39,43.06 110.62,50.89 110.85,40.16 111.07,33.61 111.30,33.21 111.53,32.91 111.76,31.03 111.99,31.30 112.22,27.29 112.44,24.53 112.67,26.54 112.90,24.89 113.13,23.59 113.36,25.78 113.59,25.85 113.81,28.26 114.04,37.28 114.27,45.04 114.50,46.46 114.73,43.87 114.96,39.72 115.18,37.80 115.41,32.55 115.64,30.09 115.87,30.48 116.10,28.85 116.33,27.87 116.55,29.89 116.78,27.86 117.01,26.25 117.24,28.77 117.47,29.87 117.70,31.02 117.92,31.91 118.15,32.92 118.38,32.33 118.61,25.80 118.84,37.90 119.06,35.86 119.29,30.86 119.52,32.86 119.75,24.17 119.98,30.27 120.21,30.32 120.43,34.26 120.66,30.58 120.89,30.49 121.12,29.69 121.35,28.59 121.58,27.78 121.80,28.16 122.03,28.52 122.26,28.59 122.49,28.42 122.72,29.92 122.95,26.36 123.17,27.63 123.40,35.86 123.63,30.27 123.86,31.04 124.09,31.34 124.32,33.70 124.54,34.46 124.77,32.42 125.00,31.27 125.23,29.92 125.46,28.30 125.69,28.02 125.91,31.62 126.14,33.84 126.37,34.35 126.60,31.79 126.83,28.98 127.06,28.54 127.28,30.28 127.51,33.04 127.74,32.24 127.97,33.76 128.20,35.94 128.43,35.79 128.65,30.73 128.88,30.63 129.11,30.49 129.34,30.67 129.57,30.60 129.80,29.58 130.02,27.76 130.25,27.94 130.48,27.76 130.71,26.19 130.94,26.30 131.16,27.38 131.39,21.54 131.62,31.53 131.85,28.84 132.08,30.09 132.31,32.25 132.53,33.09 132.76,40.47 132.99,44.37 133.22,45.39 133.45,36.66 133.68,34.75 133.90,32.90 134.13,29.76 134.36,26.33 134.59,28.99 134.82,26.52 135.05,28.93 135.27,28.69 135.50,31.10 135.73,24.17 135.96,29.66 136.19,27.47 136.42,25.99 136.64,38.74 136.87,43.14 137.10,44.64 137.33,41.33 137.56,38.75 137.79,34.42 138.01,29.83 138.24,29.23 138.47,29.63 138.70,30.21 138.93,28.04 139.16,26.95 139.38,25.25 139.61,25.72 139.84,31.05 140.07,33.27 140.30,36.42 140.53,36.14 140.75,35.81 140.98,38.42 141.21,39.04 141.44,38.16 141.67,36.87 141.90,33.95 142.12,32.34 142.35,33.05 142.58,34.28 142.81,33.52 143.04,30.95 143.27,28.49 143.49,28.53 143.72,31.86 143.95,31.00 144.18,29.43 144.41,45.85 144.63,39.35 144.86,40.53 145.09,35.67 145.32,33.94 145.55,37.84 145.78,39.50 146.00,38.00 146.23,35.63 146.46,35.32 146.69,33.05 146.92,32.21 147.15,31.61 147.37,31.78 147.60,32.24 147.83,32.81 148.06,35.27 148.29,34.99 148.52,31.86 148.74,37.58 148.97,37.10 149.20,32.18 149.43,34.42 149.66,34.14 149.89,35.18 150.11,33.51 150.34,32.11 150.57,30.40 150.80,29.50 151.03,27.07 151.26,29.33 151.48,32.63 151.71,37.26 151.94,38.78 152.17,40.44 152.40,40.00 152.63,36.10 152.85,33.82 153.08,33.56 153.31,32.43 153.54,31.03 153.77,29.85 154.00,30.67 154.22,29.95 154.45,31.92 154.68,29.02 154.91,27.48 155.14,28.98 155.37,31.72 155.59,33.39 155.82,31.96 156.05,27.68 156.28,44.85 156.51,33.07 156.73,28.82 156.96,33.14 157.19,29.05 157.42,32.89 157.65,31.01 157.88,35.41 158.10,31.24 158.33,29.66 158.56,26.51 158.79,26.21 159.02,24.77 159.25,29.65 159.47,31.82 159.70,35.32 159.93,32.59 160.16,29.66 160.39,27.44 160.62,33.59 160.84,25.66 161.07,26.97 161.30,30.74 161.53,33.87 161.76,32.04 161.99,32.42 162.21,31.10 162.44,29.45 162.67,26.17 162.90,25.33 163.13,26.78 163.36,30.28 163.58,28.72 163.81,30.06 164.04,28.38 164.27,29.18 164.50,28.22 164.73,28.06 164.95,30.22 165.18,30.83 165.41,31.52 165.64,31.59 165.87,31.05 166.10,29.78 166.32,30.58 166.55,31.81 166.78,32.09 167.01,31.18 167.24,30.28 167.47,31.62 167.69,31.35 167.92,33.86 168.15,32.19 168.38,25.66 168.61,34.32 168.84,33.70 169.06,35.37 169.29,29.64 169.52,26.05 169.75,34.51 169.98,36.22 170.20,38.67 170.43,33.16 170.66,31.58 170.89,31.45 171.12,31.90 171.35,28.99 171.57,33.78 171.80,31.38 172.03,31.88 172.26,31.84 172.49,35.66 172.72,31.95 172.94,39.64 173.17,34.39 173.40,29.03 173.63,30.70 173.86,35.17 174.09,36.47 174.31,35.78 174.54,34.60 174.77,33.02 175.00,35.37 175.23,33.40 175.46,32.79 175.68,35.52 175.91,35.52 176.14,35.77 176.37,34.49 176.60,34.75 176.83,32.90 177.05,35.46 177.28,35.50 177.51,37.67 177.74,35.85 177.97,35.07 178.20,34.62 178.42,34.17 178.65,34.32 178.88,35.62 179.11,35.86 179.34,36.22 179.57,37.79 179.79,36.72 180.02,35.39 180.25,36.13 180.48,27.38 180.71,42.13 180.94,40.62 181.16,30.49 181.39,33.35 181.62,28.34 181.85,33.41 182.08,38.92 182.30,38.75 182.53,36.13 182.76,38.66 182.99,37.25 183.22,36.66 183.45,36.00 183.67,35.77 183.90,33.11 184.13,34.58 184.36,32.93 184.59,36.49 184.82,32.26 185.04,34.51 185.27,39.90 185.50,28.58 185.73,31.31 185.96,33.76 186.19,34.60 186.41,34.05 186.64,34.66 186.87,35.78 187.10,35.09 187.33,33.86 187.56,34.01 187.78,33.70 188.01,32.89 188.24,34.49 188.47,34.89 188.70,34.18 188.93,35.80 189.15,35.62 189.38,34.24 189.61,33.83 189.84,35.39 190.07,35.23 190.30,36.50 190.52,35.80 190.75,34.08 190.98,34.04 191.21,35.40 191.44,34.41 191.67,34.32 191.89,36.55 192.12,35.45 192.35,23.38 192.58,34.14 192.81,32.12 193.04,37.74 193.26,36.69 193.49,31.82 193.72,32.86 193.95,33.07 194.18,34.22 194.41,31.48 194.63,32.18 194.86,30.97 195.09,35.15 195.32,39.51 195.55,40.89 195.77,35.63 196.00,25.39 196.23,21.09 196.46,29.16 196.69,35.57 196.92,54.79 197.14,53.45 197.37,45.29 197.60,43.53 197.83,37.28 198.06,33.77 198.29,35.23 198.51,40.64 198.74,39.87 198.97,36.04 199.20,33.32 199.43,33.93 199.66,30.73 199.88,31.25 200.11,31.31 200.34,34.03 200.57,36.40 200.80,39.04 201.03,41.03 201.25,43.13 201.48,42.67 201.71,43.16 201.94,41.89 202.17,40.34 202.40,36.92 202.62,36.72 202.85,37.84 203.08,37.07 203.31,36.07 203.54,37.61 203.77,25.79 203.99,38.22 204.22,37.93 204.45,30.20 204.68,29.18 204.91,27.37 205.14,36.26 205.36,34.46 205.59,34.50 205.82,30.29 206.05,29.95 206.28,29.72 206.51,33.02 206.73,30.27 206.96,29.78 207.19,29.38 207.42,33.94 207.65,35.53 207.87,34.54 208.10,31.20 208.33,30.90 208.56,31.53 208.79,23.68 209.02,31.95 209.24,37.79 209.47,35.22 209.70,36.50 209.93,35.56 210.16,31.86 210.39,29.17 210.61,26.84 210.84,29.51 211.07,39.45 211.30,41.04 211.53,32.82 211.76,31.23 211.98,32.28 212.21,30.48 212.44,29.00 212.67,29.25 212.90,33.93 213.13,33.63 213.35,32.53 213.58,29.45 213.81,26.22 214.04,30.10 214.27,37.46 214.50,34.14 214.72,31.76 214.95,37.17 215.18,31.51 215.41,28.74 215.64,31.51 215.87,32.55 216.09,39.66 216.32,46.34 216.55,42.77 216.78,39.62 217.01,37.88 217.24,38.14 217.46,39.44 217.69,40.09 217.92,40.20 218.15,41.17 218.38,39.84 218.61,32.58 218.83,35.64 219.06,32.51 219.29,40.97 219.52,41.68 219.75,31.95 219.97,37.20 220.20,34.62 220.43,30.82 220.66,24.08 220.89,31.41 221.12,33.16 221.34,36.21 221.57,42.34 221.80,45.41 222.03,40.08 222.26,45.21 222.49,46.76 222.71,42.25 222.94,35.61 223.17,34.49 223.40,28.14 223.63,27.62 223.86,31.05 224.08,29.42 224.31,25.32 224.54,21.24 224.77,24.14 225.00,23.46 225.23,25.84 225.45,25.98 225.68,28.90 225.91,34.52 226.14,25.65 226.37,23.09 226.60,41.30 226.82,35.92 227.05,41.55 227.28,44.04 227.51,42.21 227.74,41.44 227.97,38.83 228.19,34.06 228.42,35.44 228.65,32.64 228.88,33.55 229.11,31.33 229.34,26.41 229.56,24.62 229.79,16.50 230.02,19.73 230.25,25.28 230.48,29.60 230.71,26.96 230.93,29.32 231.16,25.24 231.39,18.52 231.62,22.72 231.85,23.58 232.08,28.42 232.30,31.39 232.53,33.48 232.76,22.86 232.99,17.03 233.22,20.01 233.44,29.71 233.67,36.31 233.90,39.52 234.13,39.80 234.36,43.59 234.59,40.73 234.81,36.91 235.04,45.05 235.27,41.18 235.50,29.94 235.73,30.23 235.96,29.52 236.18,27.09 236.41,17.46 236.64,24.03 236.87,32.71 237.10,36.64 237.33,31.67 237.55,28.99 237.78,30.19 238.01,35.22 238.24,57.44 238.47,37.27 238.70,33.98 238.92,28.01 239.15,19.88 239.38,28.49 239.61,30.43 239.84,25.22 240.07,23.10 240.29,30.41 240.52,24.09 240.75,15.21 240.98,-5.43 241.21,-3.49 241.44,9.62 241.66,22.59 241.89,31.67 242.12,31.72 242.35,22.18 242.58,27.35 242.81,25.48 243.03,24.84 243.26,37.48 243.49,38.31 243.72,39.91 243.95,40.21 244.18,38.04 244.40,31.94 244.63,37.52 244.86,29.50 245.09,18.87 245.32,31.23 245.54,42.62 245.77,45.35 246.00,35.78 246.23,25.55 246.46,25.08 246.69,28.56 246.91,29.63 247.14,25.95 247.37,28.39 247.60,30.15 247.83,24.40 248.06,25.85 248.28,22.24 248.51,21.28 248.74,20.71 248.97,25.06 249.20,26.52 249.43,32.06 249.65,28.11 249.88,19.13 250.11,36.08 250.34,29.07 250.57,38.00 250.80,25.29 251.02,28.64 251.25,32.41 251.48,35.23 251.71,31.33 251.94,37.05 252.17,41.97 252.39,45.09 252.62,41.25 252.85,49.75 253.08,57.73 253.31,61.08 253.54,51.36 253.76,45.08 253.99,43.64 254.22,47.18 254.45,44.88 254.68,25.86 254.91,22.75 255.13,22.83 255.36,13.23 255.59,14.13 255.82,21.40 256.05,22.87 256.28,19.31 256.50,13.97 256.73,12.68 256.96,18.33 257.19,17.93 257.42,18.38 257.65,22.11 257.87,28.99 258.10,32.71 258.33,36.76 258.56,40.82 258.79,40.23 259.01,44.64 259.24,52.69 259.47,61.17 259.70,58.94 259.93,50.61 260.16,38.94 260.38,32.84 260.61,29.12 260.84,14.00 261.07,22.16 261.30,15.06 261.53,12.84 261.75,13.65 261.98,7.66 262.21,9.12 262.44,13.90 262.67,18.74 262.90,16.77 263.12,16.06 263.35,12.31 263.58,12.86 263.81,13.22 264.04,11.28 264.27,9.66 264.49,10.72 264.72,20.76 264.95,36.30 265.18,44.96 265.41,54.41 265.64,51.67 265.86,42.67 266.09,45.26 266.32,39.62 266.55,30.02 266.78,26.17 267.01,17.75 267.23,12.23 267.46,18.21 267.69,22.84 267.92,18.28 268.15,19.26 268.38,34.15 268.60,46.28 268.83,52.82 269.06,50.04 269.29,54.63 269.52,53.09 269.75,54.77 269.97,60.06 270.20,65.16 270.43,58.97 270.66,56.60 270.89,54.86 271.11,49.75 271.34,47.65 271.57,48.43 271.80,39.23 272.03,29.59 272.26,36.13 272.48,32.94 272.71,39.07 272.94,41.32 273.17,39.55 273.40,37.75 273.63,32.81 273.85,32.99 274.08,38.20 274.31,44.93 274.54,40.08 274.77,32.26 275.00,31.72 275.22,32.78 275.45,38.40 275.68,35.81 275.91,28.36 276.14,17.70 276.37,9.18 276.59,9.36 276.82,1.09 277.05,-1.19 277.28,12.57 277.51,19.36 277.74,27.42 277.96,26.48 278.19,10.00 278.42,8.43 278.65,22.79 278.88,43.32 279.11,52.95 279.33,55.62 279.56,54.45 279.79,53.86 280.02,53.03 280.25,48.44 280.48,45.30 280.70,41.27 280.93,37.03 281.16,29.09 281.39,26.82 281.62,28.24 281.85,28.33 282.07,27.20 282.30,23.49 282.53,21.82 282.76,32.47 282.99,25.73 283.22,22.44 283.44,29.17 283.67,36.27 283.90,39.18 284.13,32.44 284.36,32.69 284.58,36.00 284.81,38.16 285.04,35.57 285.27,37.19 285.50,37.08 285.73,36.94 285.95,31.81 286.18,28.57 286.41,29.32 286.64,31.03 286.87,31.28 287.10,33.36 287.32,29.91 287.55,37.21 287.78,30.48 288.01,22.42 288.24,26.23 288.47,34.45 288.69,42.11 288.92,46.71 289.15,45.66 289.38,27.64 289.61,22.06 289.84,28.33 290.06,57.43 290.29,74.42 290.52,77.00 290.75,65.22 290.98,50.45 291.21,38.27 291.43,29.13 291.66,30.15 291.89,39.83 292.12,37.11 292.35,23.70 292.58,20.58 292.80,23.36 293.03,18.57 293.26,9.93 293.49,10.28 293.72,19.72 293.95,28.12 294.17,17.93 294.40,16.51 294.63,39.46 294.86,42.54 295.09,54.32 295.32,56.26 295.54,56.73 295.77,53.82 296.00,43.77" fill="none" stroke="#2F855A" stroke-width="2.2" stroke-linecap="round" stroke-linejoin="round"/>
</svg>