<svg xmlns="http://www.w3.org/2000/svg" width="300" height="64" viewBox="0 0 300 64">

<polyline points="4.00,25.70 4.23,33.36 4.46,30.35 4.68,30.91 4.91,27.99 5.14,29.33 5.37,30.98 5.60,31.58 5.83,32.08 6.05,33.79 6.28,33.92 6.51,31.76 6.74,30.61 6.97,30.02 7.20,30.40 7.42,29.26 7.65,27.76 7.88,29.28 8.11,31.32 8.34,29.73 8.57,33.39 8.79,32.67 9.02,34.84 9.25,26.25 9.48,30.63 9.71,27.88 9.94,26.94 10.16,33.44 10.39,28.87 10.62,35.63 10.85,32.72 11.08,34.02 11.31,28.59 11.53,25.85 11.76,24.93 11.99,30.79 12.22,32.02 12.45,36.06 12.68,32.52 12.90,33.85 13.13,30.65 13.36,32.26 13.59,28.31 13.82,36.06 14.05,33.15 14.27,30.24 14.50,31.06 14.73,33.38 14.96,33.39 15.19,32.03 15.42,31.71 15.64,31.53 15.87,31.15 16.10,30.06 16.33,31.57 16.56,32.30 16.78,33.37 17.01,33.98 17.24,34.33 17.47,33.46 17.70,32.40 17.93,31.96 18.15,30.40 18.38,30.57 18.61,33.10 18.84,32.99 19.07,33.72 19.30,34.47 19.52,31.58 19.75,29.31 19.98,28.34 20.21,27.46 20.44,29.74 20.67,30.64 20.89,34.41 21.12,30.86 21.35,31.20 21.58,31.84 21.81,27.33 22.04,35.97 22.26,33.24 22.49,35.52 22.72,34.60 22.95,36.26 23.18,30.01 23.41,27.47 23.63,23.84 23.86,27.57 24.09,27.78 24.32,31.40 24.55,30.83 24.78,34.35 25.00,33.19 25.23,35.51 25.46,29.50 25.69,33.32 25.92,29.37 26.15,23.71 26.37,29.55 26.60,32.58 26.83,38.35 27.06,37.72 27.29,35.83 27.52,30.27 27.74,28.95 27.97,28.85 28.20,29.29 28.43,31.34 28.66,32.88 28.89,34.32 29.11,31.84 29.34,31.33 29.57,31.76 29.80,31.99 30.03,31.62 30.25,32.66 30.48,30.93 30.71,31.09 30.94,32.14 31.17,32.05 31.40,31.24 31.62,31.52 31.85,32.04 32.08,31.38 32.31,30.67 32.54,32.30 32.77,31.67 32.99,35.28 33.22,30.72 33.45,37.94 33.68,30.45 33.91,32.59 34.14,31.56 34.36,28.56 34.59,34.94 34.82,34.72 35.05,35.33 35.28,31.13 35.51,28.86 35.73,27.90 35.96,27.62 36.19,29.03 36.42,30.42 36.65,31.77 36.88,33.70 37.10,31.67 37.33,33.97 37.56,29.94 37.79,36.74 38.02,29.46 38.25,29.38 38.47,33.12 38.70,33.81 38.93,33.57 39.16,32.49 39.39,32.04 39.62,30.83 39.84,30.16 40.07,30.87 40.30,33.09 40.53,34.82 40.76,33.37 40.99,33.00 41.21,33.06 41.44,31.51 41.67,30.72 41.90,32.32 42.13,33.38 42.35,33.12 42.58,33.88 42.81,33.17 43.04,30.66 43.27,31.13 43.50,32.13 43.72,32.84 43.95,33.39 44.18,32.72 44.41,31.59 44.64,32.87 44.87,27.95 45.09,35.94 45.32,30.61 45.55,34.95 45.78,37.21 46.01,29.54 46.24,34.40 46.46,32.43 46.69,32.70 46.92,28.23 47.15,27.87 47.38,28.32 47.61,30.97 47.83,30.36 48.06,31.03 48.29,32.26 48.52,33.34 48.75,33.30 48.98,33.26 49.20,29.88 49.43,34.98 49.66,28.08 49.89,29.47 50.12,32.65 50.35,34.50 50.57,34.13 50.80,32.78 51.03,32.04 51.26,31.00 51.49,29.06 51.72,28.60 51.94,28.92 52.17,31.69 52.40,30.79 52.63,31.50 52.86,32.40 53.09,34.21 53.31,34.03 53.54,35.16 53.77,35.72 54.00,36.64 54.23,34.21 54.46,30.60 54.68,28.20 54.91,26.72 55.14,27.48 55.37,31.32 55.60,31.78 55.82,32.41 56.05,30.95 56.28,32.84 56.51,29.94 56.74,29.98 56.97,34.82 57.19,33.76 57.42,42.56 57.65,35.79 57.88,37.35 58.11,32.73 58.34,30.70 58.56,27.70 58.79,27.11 59.02,27.98 59.25,31.14 59.48,30.65 59.71,34.68 59.93,34.78 60.16,34.52 60.39,34.35 60.62,33.51 60.85,28.59 61.08,34.15 61.30,28.14 61.53,29.90 61.76,30.60 61.99,31.23 62.22,34.75 62.45,34.31 62.67,33.62 62.90,31.42 63.13,31.66 63.36,32.11 63.59,32.16 63.82,30.51 64.04,31.82 64.27,31.18 64.50,29.46 64.73,29.32 64.96,28.88 65.19,29.45 65.41,31.69 65.64,32.21 65.87,32.53 66.10,32.58 66.33,32.86 66.56,32.82 66.78,31.12 67.01,30.36 67.24,30.89 67.47,32.33 67.70,33.11 67.92,32.36 68.15,30.67 68.38,25.85 68.61,35.69 68.84,27.46 69.07,33.64 69.29,35.71 69.52,32.99 69.75,36.63 69.98,34.45 70.21,33.63 70.44,29.03 70.66,27.45 70.89,26.30 71.12,29.20 71.35,31.08 71.58,33.04 71.81,32.86 72.03,32.97 72.26,31.38 72.49,33.45 72.72,27.96 72.95,34.22 73.18,27.80 73.40,28.00 73.63,33.28 73.86,32.79 74.09,34.96 74.32,34.21 74.55,30.06 74.77,29.07 75.00,29.23 75.23,31.17 75.46,31.12 75.69,32.27 75.92,33.82 76.14,34.26 76.37,33.63 76.60,30.15 76.83,31.53 77.06,29.97 77.29,31.80 77.51,31.87 77.74,32.87 77.97,33.72 78.20,31.95 78.43,31.20 78.66,31.91 78.88,34.03 79.11,32.96 79.34,32.14 79.57,31.25 79.80,30.32 80.03,30.12 80.25,28.07 80.48,31.56 80.71,28.72 80.94,37.00 81.17,29.89 81.39,37.42 81.62,37.08 81.85,34.35 82.08,38.52 82.31,38.59 82.54,37.54 82.76,30.96 82.99,27.82 83.22,25.33 83.45,25.21 83.68,27.29 83.91,30.66 84.13,32.10 84.36,35.18 84.59,33.42 84.82,32.38 85.05,24.77 85.28,31.16 85.50,32.02 85.73,34.65 85.96,43.17 86.19,41.41 86.42,40.14 86.65,34.79 86.87,29.82 87.10,25.34 87.33,22.53 87.56,25.69 87.79,28.61 88.02,31.05 88.24,31.53 88.47,32.88 88.70,33.05 88.93,33.16 89.16,35.59 89.39,35.76 89.61,33.83 89.84,32.60 90.07,30.55 90.30,28.70 90.53,28.90 90.76,32.14 90.98,34.14 91.21,33.63 91.44,30.34 91.67,30.68 91.90,30.10 92.13,28.52 92.35,31.02 92.58,32.28 92.81,32.01 93.04,33.87 93.27,31.59 93.49,29.82 93.72,33.53 93.95,24.82 94.18,34.80 94.41,33.01 94.64,36.61 94.86,36.17 95.09,37.11 95.32,32.26 95.55,27.65 95.78,24.62 96.01,27.94 96.23,30.22 96.46,34.07 96.69,35.41 96.92,36.05 97.15,33.36 97.38,33.47 97.60,30.87 97.83,28.52 98.06,33.11 98.29,29.40 98.52,33.43 98.75,35.23 98.97,33.88 99.20,33.34 99.43,30.39 99.66,30.99 99.89,31.40 100.12,31.02 100.34,32.11 100.57,33.16 100.80,32.28 101.03,32.12 101.26,29.43 101.49,30.42 101.71,32.57 101.94,31.29 102.17,30.74 102.40,33.18 102.63,33.20 102.86,32.61 103.08,32.85 103.31,35.32 103.54,34.46 103.77,37.18 104.00,36.29 104.23,35.32 104.45,33.72 104.68,30.37 104.91,30.20 105.14,30.30 105.37,31.71 105.60,32.28 105.82,26.38 106.05,32.23 106.28,30.66 106.51,26.78 106.74,33.41 106.96,27.09 107.19,31.92 107.42,28.49 107.65,31.72 107.88,25.86 108.11,23.94 108.33,23.89 108.56,26.79 108.79,29.97 109.02,32.95 109.25,35.90 109.48,43.04 109.70,45.24 109.93,53.83 110.16,50.15 110.39,44.74 110.62,37.52 110.85,20.90 111.07,22.34 111.30,21.44 111.53,23.62 111.76,23.28 111.99,26.59 112.22,27.97 112.44,29.25 112.67,27.34 112.90,23.44 113.13,24.06 113.36,28.66 113.59,35.62 113.81,41.89 114.04,48.17 114.27,48.04 114.50,42.35 114.73,35.10 114.96,28.44 115.18,23.87 115.41,22.08 115.64,23.53 115.87,27.17 116.10,31.76 116.33,34.60 116.55,33.18 116.78,32.08 117.01,32.04 117.24,31.23 117.47,29.50 117.70,30.77 117.92,30.55 118.15,31.34 118.38,27.91 118.61,26.14 118.84,32.85 119.06,24.06 119.29,31.80 119.52,32.24 119.75,29.11 119.98,37.08 120.21,37.71 120.43,39.25 120.66,33.15 120.89,29.38 121.12,27.46 121.35,28.87 121.58,28.43 121.80,31.78 122.03,32.80 122.26,32.82 122.49,31.95 122.72,32.80 122.95,28.53 123.17,33.20 123.40,28.71 123.63,30.34 123.86,34.81 124.09,34.90 124.32,35.60 124.54,32.43 124.77,28.57 125.00,27.17 125.23,28.76 125.46,27.42 125.69,30.21 125.91,33.14 126.14,32.87 126.37,33.16 126.60,32.59 126.83,33.63 127.06,35.38 127.28,34.65 127.51,34.71 127.74,34.68 127.97,36.27 128.20,34.55 128.43,32.34 128.65,32.09 128.88,31.14 129.11,29.01 129.34,27.89 129.57,28.74 129.80,28.11 130.02,29.38 130.25,30.02 130.48,31.33 130.71,28.85 130.94,29.78 131.16,27.48 131.39,28.53 131.62,33.12 131.85,30.08 132.08,42.53 132.31,42.94 132.53,46.41 132.76,44.43 132.99,41.41 133.22,34.04 133.45,24.94 133.68,19.65 133.90,20.68 134.13,23.08 134.36,27.15 134.59,30.81 134.82,33.58 135.05,33.54 135.27,32.65 135.50,28.36 135.73,23.99 135.96,29.67 136.19,29.01 136.42,41.75 136.64,45.34 136.87,48.06 137.10,46.09 137.33,36.30 137.56,25.30 137.79,17.24 138.01,18.67 138.24,22.28 138.47,28.77 138.70,33.76 138.93,35.36 139.16,34.71 139.38,32.24 139.61,32.30 139.84,32.60 140.07,36.39 140.30,37.69 140.53,37.59 140.75,38.70 140.98,36.22 141.21,32.68 141.44,29.60 141.67,26.09 141.90,25.06 142.12,27.70 142.35,31.20 142.58,33.51 142.81,35.73 143.04,32.42 143.27,34.96 143.49,33.42 143.72,35.68 143.95,30.44 144.18,36.73 144.41,39.97 144.63,33.02 144.86,38.52 145.09,31.76 145.32,36.21 145.55,33.73 145.78,32.90 146.00,28.93 146.23,26.28 146.46,25.90 146.69,29.28 146.92,33.95 147.15,37.70 147.37,35.53 147.60,35.88 147.83,33.31 148.06,32.26 148.29,29.22 148.52,27.43 148.74,36.64 148.97,28.63 149.20,35.50 149.43,37.29 149.66,33.98 149.89,30.55 150.11,27.70 150.34,28.26 150.57,30.86 150.80,33.37 151.03,35.59 151.26,37.61 151.48,37.65 151.71,37.51 151.94,36.47 152.17,33.35 152.40,33.58 152.63,31.21 152.85,28.31 153.08,24.85 153.31,25.12 153.54,26.27 153.77,28.07 154.00,30.39 154.22,31.92 154.45,32.79 154.68,32.24 154.91,32.97 155.14,31.91 155.37,32.23 155.59,34.30 155.82,30.34 156.05,34.20 156.28,34.35 156.51,28.98 156.73,36.46 156.96,28.03 157.19,33.26 157.42,32.62 157.65,35.23 157.88,34.11 158.10,30.25 158.33,26.66 158.56,27.49 158.79,27.20 159.02,30.78 159.25,33.71 159.47,37.14 159.70,34.15 159.93,34.24 160.16,25.36 160.39,27.94 160.62,26.17 160.84,25.08 161.07,33.63 161.30,36.08 161.53,38.81 161.76,36.02 161.99,33.58 162.21,31.06 162.44,28.84 162.67,27.89 162.90,31.00 163.13,33.03 163.36,35.06 163.58,34.93 163.81,34.24 164.04,30.98 164.27,27.33 164.50,28.48 164.73,28.87 164.95,33.98 165.18,35.42 165.41,34.52 165.64,31.95 165.87,30.84 166.10,29.96 166.32,31.61 166.55,32.17 166.78,32.54 167.01,32.12 167.24,31.17 167.47,32.28 167.69,30.35 167.92,33.85 168.15,29.81 168.38,29.27 168.61,33.99 168.84,27.75 169.06,34.39 169.29,31.61 169.52,34.86 169.75,33.77 169.98,36.97 170.20,34.12 170.43,27.70 170.66,23.94 170.89,27.66 171.12,28.63 171.35,32.92 171.57,33.04 171.80,34.05 172.03,34.58 172.26,36.90 172.49,34.70 172.72,33.39 172.94,34.34 173.17,25.51 173.40,30.04 173.63,31.89 173.86,35.58 174.09,34.39 174.31,33.31 174.54,31.43 174.77,29.13 175.00,30.66 175.23,29.91 175.46,31.94 175.68,32.31 175.91,33.18 176.14,34.59 176.37,33.95 176.60,32.91 176.83,32.20 177.05,33.18 177.28,31.12 177.51,33.78 177.74,32.64 177.97,34.47 178.20,35.29 178.42,36.36 178.65,37.08 178.88,38.28 179.11,36.51 179.34,34.47 179.57,33.43 179.79,31.77 180.02,32.78 180.25,32.77 180.48,30.94 180.71,38.64 180.94,28.58 181.16,34.87 181.39,32.63 181.62,33.31 181.85,36.99 182.08,37.73 182.30,34.86 182.53,28.99 182.76,28.76 182.99,25.06 183.22,27.41 183.45,28.09 183.67,33.51 183.90,33.01 184.13,35.69 184.36,33.90 184.59,36.19 184.82,29.18 185.04,35.18 185.27,31.79 185.50,30.68 185.73,36.94 185.96,36.38 186.19,36.65 186.41,35.42 186.64,31.99 186.87,30.98 187.10,29.89 187.33,30.40 187.56,29.92 187.78,30.35 188.01,31.26 188.24,31.92 188.47,33.75 188.70,35.02 188.93,34.77 189.15,33.10 189.38,32.75 189.61,34.83 189.84,34.46 190.07,35.92 190.30,36.33 190.52,35.11 190.75,34.60 190.98,35.36 191.21,32.03 191.44,33.57 191.67,31.56 191.89,34.88 192.12,31.28 192.35,34.25 192.58,38.84 192.81,32.38 193.04,39.85 193.26,35.89 193.49,37.08 193.72,31.81 193.95,33.01 194.18,31.35 194.41,29.98 194.63,28.12 194.86,28.64 195.09,29.29 195.32,30.72 195.55,29.67 195.77,27.20 196.00,29.03 196.23,37.54 196.46,44.33 196.69,51.57 196.92,59.54 197.14,45.89 197.37,41.48 197.60,30.37 197.83,26.62 198.06,29.00 198.29,31.26 198.51,30.47 198.74,31.57 198.97,32.30 199.20,30.31 199.43,27.80 199.66,31.74 199.88,32.18 200.11,35.13 200.34,37.69 200.57,40.44 200.80,40.51 201.03,37.34 201.25,35.27 201.48,35.18 201.71,31.42 201.94,29.03 202.17,27.92 202.40,27.28 202.62,27.58 202.85,32.91 203.08,30.16 203.31,34.61 203.54,31.16 203.77,33.43 203.99,35.43 204.22,26.65 204.45,35.92 204.68,28.83 204.91,33.64 205.14,35.67 205.36,34.84 205.59,32.49 205.82,30.09 206.05,28.13 206.28,28.95 206.51,30.82 206.73,31.49 206.96,37.84 207.19,39.93 207.42,42.40 207.65,39.21 207.87,36.26 208.10,30.73 208.33,35.31 208.56,30.46 208.79,35.48 209.02,39.52 209.24,37.11 209.47,39.37 209.70,32.79 209.93,28.41 210.16,23.17 210.39,23.28 210.61,27.09 210.84,34.51 211.07,38.29 211.30,35.84 211.53,32.71 211.76,28.80 211.98,27.10 212.21,23.41 212.44,25.36 212.67,31.44 212.90,32.83 213.13,28.35 213.35,28.29 213.58,29.65 213.81,35.63 214.04,37.04 214.27,30.87 214.50,22.42 214.72,23.39 214.95,30.33 215.18,34.33 215.41,44.82 215.64,46.60 215.87,47.99 216.09,45.89 216.32,38.90 216.55,36.38 216.78,32.44 217.01,31.20 217.24,33.57 217.46,36.29 217.69,38.95 217.92,38.48 218.15,39.77 218.38,34.29 218.61,32.41 218.83,29.81 219.06,25.07 219.29,32.06 219.52,25.29 219.75,28.74 219.97,31.95 220.20,30.67 220.43,29.96 220.66,33.53 220.89,36.61 221.12,32.70 221.34,35.30 221.57,41.17 221.80,43.49 222.03,43.66 222.26,42.64 222.49,35.58 222.71,29.80 222.94,29.47 223.17,31.24 223.40,23.46 223.63,23.12 223.86,22.60 224.08,22.94 224.31,24.38 224.54,28.86 224.77,27.52 225.00,28.70 225.23,26.17 225.45,27.70 225.68,26.47 225.91,29.52 226.14,30.71 226.37,40.95 226.60,45.11 226.82,55.14 227.05,62.38 227.28,53.61 227.51,50.79 227.74,38.57 227.97,27.50 228.19,25.17 228.42,18.96 228.65,21.29 228.88,29.47 229.11,30.67 229.34,30.69 229.56,29.37 229.79,27.63 230.02,28.31 230.25,29.05 230.48,29.81 230.71,25.77 230.93,28.49 231.16,22.13 231.39,19.08 231.62,19.57 231.85,21.62 232.08,23.78 232.30,23.79 232.53,23.13 232.76,22.27 232.99,27.33 233.22,31.52 233.44,39.97 233.67,47.36 233.90,49.63 234.13,48.52 234.36,45.69 234.59,34.97 234.81,30.43 235.04,23.80 235.27,20.00 235.50,17.61 235.73,14.95 235.96,19.62 236.18,27.95 236.41,35.40 236.64,45.95 236.87,46.21 237.10,47.73 237.33,40.17 237.55,40.92 237.78,36.47 238.01,35.72 238.24,27.15 238.47,18.63 238.70,28.67 238.92,26.83 239.15,28.01 239.38,20.66 239.61,17.39 239.84,16.91 240.07,23.76 240.29,28.70 240.52,30.96 240.75,28.64 240.98,31.50 241.21,44.11 241.44,50.47 241.66,45.93 241.89,37.39 242.12,30.57 242.35,24.37 242.58,26.60 242.81,22.38 243.03,34.69 243.26,36.06 243.49,36.91 243.72,40.64 243.95,41.06 244.18,35.45 244.40,33.95 244.63,31.54 244.86,27.69 245.09,35.88 245.32,39.30 245.54,33.81 245.77,23.26 246.00,19.23 246.23,29.07 246.46,29.88 246.69,28.60 246.91,32.62 247.14,31.40 247.37,25.27 247.60,13.75 247.83,6.69 248.06,9.78 248.28,11.78 248.51,18.54 248.74,23.03 248.97,23.00 249.20,19.43 249.43,22.77 249.65,15.98 249.88,23.35 250.11,29.82 250.34,35.74 250.57,39.84 250.80,39.90 251.02,48.43 251.25,55.85 251.48,55.36 251.71,56.28 251.94,62.40 252.17,61.28 252.39,58.61 252.62,59.08 252.85,53.97 253.08,46.70 253.31,44.02 253.54,34.60 253.76,32.50 253.99,25.38 254.22,33.15 254.45,22.17 254.68,16.94 254.91,16.06 255.13,11.78 255.36,17.60 255.59,25.17 255.82,27.03 256.05,22.89 256.28,16.07 256.50,11.05 256.73,9.08 256.96,8.58 257.19,12.95 257.42,23.12 257.65,34.97 257.87,39.73 258.10,44.73 258.33,48.90 258.56,49.38 258.79,49.23 259.01,51.84 259.24,49.01 259.47,41.61 259.70,32.02 259.93,27.39 260.16,24.93 260.38,23.91 260.61,15.75 260.84,15.12 261.07,23.39 261.30,20.14 261.53,33.74 261.75,30.73 261.98,34.18 262.21,40.13 262.44,46.01 262.67,42.29 262.90,33.06 263.12,23.35 263.35,15.80 263.58,12.28 263.81,12.13 264.04,17.54 264.27,31.37 264.49,45.14 264.72,54.75 264.95,57.84 265.18,54.70 265.41,49.25 265.64,34.21 265.86,35.02 266.09,34.28 266.32,26.37 266.55,27.33 266.78,23.34 267.01,21.17 267.23,29.84 267.46,30.56 267.69,31.13 267.92,39.35 268.15,51.16 268.38,50.33 268.60,44.48 268.83,38.71 269.06,25.61 269.29,24.05 269.52,22.36 269.75,32.03 269.97,32.31 270.20,29.12 270.43,22.96 270.66,23.69 270.89,27.01 271.11,33.39 271.34,41.76 271.57,45.10 271.80,29.53 272.03,33.99 272.26,39.28 272.48,41.13 272.71,54.79 272.94,54.61 273.17,63.51 273.40,58.38 273.63,58.79 273.85,51.64 274.08,44.06 274.31,35.77 274.54,27.60 274.77,26.15 275.00,28.77 275.22,29.51 275.45,29.10 275.68,25.07 275.91,17.61 276.14,8.58 276.37,4.08 276.59,6.43 276.82,3.17 277.05,10.14 277.28,19.63 277.51,20.28 277.74,18.15 277.96,19.80 278.19,31.32 278.42,49.99 278.65,52.83 278.88,54.62 279.11,61.27 279.33,63.82 279.56,59.89 279.79,48.78 280.02,35.01 280.25,22.96 280.48,15.16 280.70,13.60 280.93,19.65 281.16,26.67 281.39,35.24 281.62,43.32 281.85,45.67 282.07,44.98 282.30,44.08 282.53,43.86 282.76,38.28 282.99,29.60 283.22,33.81 283.44,31.77 283.67,32.90 283.90,33.72 284.13,32.08 284.36,32.13 284.58,32.13 284.81,31.85 285.04,28.49 285.27,25.93 285.50,24.28 285.73,25.86 285.95,28.43 286.18,30.06 286.41,31.92 286.64,32.01 286.87,32.19 287.10,26.94 287.32,24.27 287.55,23.94 287.78,14.42 288.01,25.56 288.24,34.00 288.47,40.26 288.69,37.23 288.92,34.45 289.15,28.73 289.38,39.65 289.61,54.76 289.84,63.72 290.06,76.52 290.29,76.99 290.52,74.24 290.75,51.95 290.98,21.68 291.21,7.97 291.43,8.17 291.66,17.09 291.89,23.98 292.12,30.53 292.35,40.88 292.58,46.70 292.80,35.28 293.03,23.80 293.26,10.93 293.49,4.42 293.72,2.89 293.95,11.25 294.17,18.01 294.40,37.01 294.63,44.19 294.86,45.24 295.09,50.54 295.32,38.95 295.54,34.94 295.77,26.85 296.00,21.16" fill="none" stroke="#2F855A" stroke-width="2.2" stroke-linecap="round" stroke-linejoin="round"/>
</svg>