<svg xmlns="http://www.w3.org/2000/svg" width="300" height="64" viewBox="0 0 300 64">

<polyline points="4.00,25.78 4.23,37.46 4.46,32.70 4.68,31.60 4.91,29.57 5.14,30.83 5.37,31.93 5.60,32.85 5.83,33.23 6.05,35.53 6.28,33.09 6.51,32.42 6.74,32.63 6.97,32.05 7.20,31.08 7.42,30.61 7.65,28.74 7.88,30.46 8.11,32.21 8.34,30.62 8.57,35.38 8.79,35.68 9.02,35.64 9.25,26.38 9.48,32.84 9.71,24.33 9.94,28.77 10.16,33.82 10.39,31.51 10.62,39.28 10.85,32.41 11.08,33.06 11.31,26.78 11.53,27.06 11.76,25.89 11.99,31.62 12.22,33.20 12.45,37.19 12.68,33.37 12.90,34.94 13.13,30.71 13.36,32.99 13.59,30.33 13.82,39.38 14.05,32.59 14.27,33.69 14.50,33.48 14.73,34.39 14.96,32.57 15.19,32.13 15.42,31.60 15.64,32.92 15.87,32.95 16.10,31.88 16.33,33.40 16.56,33.65 16.78,34.77 17.01,35.35 17.24,35.12 17.47,34.09 17.70,32.97 17.93,32.29 18.15,30.84 18.38,32.09 18.61,34.82 18.84,34.27 19.07,33.51 19.30,33.84 19.52,31.16 19.75,29.02 19.98,29.16 20.21,27.63 20.44,30.56 20.67,31.92 20.89,33.24 21.12,31.23 21.35,34.17 21.58,31.18 21.81,28.29 22.04,34.62 22.26,35.45 22.49,37.83 22.72,34.75 22.95,34.54 23.18,27.66 23.41,27.23 23.63,23.15 23.86,26.88 24.09,28.37 24.32,33.06 24.55,32.49 24.78,36.42 25.00,34.80 25.23,35.23 25.46,29.09 25.69,33.71 25.92,25.66 26.15,25.83 26.37,31.69 26.60,35.28 26.83,40.91 27.06,37.05 27.29,33.93 27.52,28.90 27.74,28.17 27.97,28.82 28.20,30.46 28.43,32.25 28.66,32.02 28.89,33.82 29.11,31.74 29.34,33.59 29.57,34.11 29.80,32.10 30.03,31.35 30.25,32.38 30.48,29.32 30.71,30.57 30.94,32.71 31.17,33.44 31.40,31.54 31.62,31.25 31.85,32.29 32.08,31.45 32.31,30.57 32.54,31.87 32.77,32.87 32.99,34.72 33.22,31.94 33.45,38.00 33.68,26.07 33.91,34.04 34.14,31.36 34.36,30.67 34.59,35.28 34.82,34.43 35.05,33.96 35.28,30.83 35.51,27.71 35.73,26.88 35.96,26.59 36.19,29.05 36.42,30.10 36.65,33.59 36.88,34.70 37.10,32.86 37.33,32.73 37.56,30.22 37.79,35.09 38.02,27.70 38.25,32.18 38.47,34.29 38.70,33.74 38.93,33.65 39.16,33.37 39.39,31.44 39.62,29.62 39.84,30.09 40.07,31.55 40.30,33.39 40.53,35.22 40.76,33.80 40.99,32.44 41.21,32.53 41.44,31.80 41.67,30.78 41.90,32.31 42.13,33.32 42.35,32.96 42.58,34.00 42.81,33.31 43.04,30.01 43.27,29.84 43.50,30.90 43.72,31.64 43.95,32.13 44.18,32.36 44.41,32.87 44.64,32.24 44.87,31.82 45.09,38.30 45.32,27.75 45.55,36.12 45.78,35.80 46.01,29.41 46.24,35.84 46.46,31.40 46.69,30.00 46.92,26.96 47.15,28.79 47.38,29.90 47.61,31.14 47.83,31.00 48.06,32.10 48.29,34.21 48.52,33.93 48.75,32.40 48.98,32.12 49.20,31.35 49.43,34.49 49.66,26.70 49.89,31.79 50.12,34.50 50.35,34.84 50.57,32.32 50.80,32.35 51.03,31.05 51.26,30.72 51.49,30.27 51.72,30.34 51.94,29.47 52.17,32.43 52.40,30.37 52.63,31.99 52.86,33.19 53.09,36.29 53.31,35.10 53.54,34.82 53.77,34.72 54.00,34.93 54.23,31.97 54.46,27.80 54.68,26.25 54.91,26.33 55.14,27.14 55.37,32.38 55.60,33.04 55.82,34.22 56.05,33.72 56.28,35.07 56.51,30.68 56.74,35.64 56.97,35.88 57.19,34.63 57.42,41.41 57.65,35.28 57.88,38.64 58.11,30.07 58.34,27.78 58.56,24.99 58.79,27.38 59.02,29.68 59.25,32.79 59.48,33.01 59.71,37.97 59.93,36.67 60.16,34.99 60.39,34.04 60.62,31.90 60.85,28.12 61.08,34.67 61.30,26.01 61.53,32.49 61.76,30.65 61.99,31.01 62.22,33.11 62.45,32.68 62.67,32.33 62.90,31.34 63.13,31.48 63.36,33.12 63.59,31.89 63.82,30.53 64.04,32.27 64.27,30.79 64.50,27.24 64.73,29.11 64.96,29.74 65.19,30.82 65.41,32.05 65.64,30.56 65.87,31.14 66.10,32.52 66.33,32.20 66.56,32.97 66.78,31.18 67.01,31.80 67.24,30.83 67.47,31.84 67.70,32.59 67.92,33.53 68.15,29.82 68.38,28.65 68.61,36.78 68.84,25.09 69.07,36.48 69.29,35.28 69.52,35.10 69.75,37.31 69.98,34.46 70.21,31.60 70.44,28.33 70.66,27.17 70.89,26.20 71.12,29.38 71.35,32.93 71.58,34.01 71.81,35.22 72.03,33.93 72.26,31.20 72.49,32.48 72.72,29.24 72.95,35.20 73.18,25.46 73.40,31.62 73.63,35.94 73.86,33.64 74.09,34.50 74.32,33.84 74.55,28.70 74.77,29.01 75.00,29.55 75.23,33.21 75.46,31.70 75.69,32.33 75.92,32.74 76.14,33.47 76.37,33.08 76.60,30.28 76.83,32.61 77.06,29.71 77.29,31.99 77.51,32.01 77.74,32.38 77.97,33.66 78.20,32.06 78.43,31.46 78.66,31.62 78.88,34.55 79.11,32.58 79.34,32.05 79.57,30.47 79.80,30.24 80.03,30.67 80.25,28.86 80.48,30.17 80.71,31.13 80.94,35.83 81.17,27.68 81.39,40.72 81.62,37.36 81.85,35.61 82.08,38.96 82.31,34.83 82.54,31.03 82.76,25.69 82.99,24.29 83.22,23.27 83.45,24.42 83.68,27.15 83.91,29.75 84.13,31.90 84.36,35.13 84.59,32.80 84.82,31.86 85.05,26.36 85.28,32.58 85.50,30.06 85.73,36.65 85.96,44.26 86.19,38.95 86.42,35.80 86.65,30.64 86.87,25.23 87.10,22.68 87.33,21.98 87.56,26.44 87.79,29.93 88.02,32.40 88.24,33.39 88.47,35.46 88.70,36.15 88.93,35.01 89.16,35.58 89.39,35.51 89.61,32.73 89.84,31.95 90.07,30.01 90.30,28.42 90.53,29.18 90.76,32.39 90.98,34.15 91.21,32.78 91.44,29.63 91.67,31.72 91.90,30.87 92.13,29.91 92.35,32.52 92.58,33.42 92.81,33.93 93.04,35.14 93.27,30.11 93.49,33.24 93.72,34.01 93.95,26.02 94.18,35.52 94.41,33.17 94.64,40.13 94.86,35.25 95.09,35.43 95.32,29.68 95.55,28.13 95.78,26.30 96.01,29.98 96.23,31.26 96.46,35.86 96.69,37.16 96.92,38.29 97.15,33.57 97.38,32.83 97.60,29.70 97.83,30.39 98.06,33.27 98.29,30.68 98.52,37.92 98.75,38.06 98.97,34.84 99.20,33.69 99.43,31.70 99.66,31.65 99.89,32.15 100.12,31.16 100.34,33.43 100.57,34.40 100.80,32.70 101.03,32.66 101.26,29.65 101.49,30.12 101.71,32.07 101.94,30.56 102.17,30.38 102.40,32.09 102.63,32.41 102.86,32.89 103.08,32.79 103.31,35.07 103.54,35.22 103.77,38.13 104.00,36.78 104.23,33.37 104.45,29.18 104.68,26.12 104.91,29.55 105.14,31.39 105.37,31.85 105.60,29.58 105.82,28.25 106.05,34.56 106.28,29.63 106.51,28.91 106.74,33.60 106.96,28.91 107.19,32.11 107.42,26.81 107.65,30.08 107.88,24.82 108.11,24.35 108.33,23.80 108.56,27.17 108.79,30.28 109.02,33.55 109.25,39.31 109.48,46.41 109.70,48.99 109.93,53.95 110.16,44.83 110.39,39.20 110.62,26.09 110.85,15.26 111.07,21.17 111.30,20.75 111.53,23.27 111.76,24.01 111.99,27.67 112.22,31.15 112.44,33.95 112.67,30.57 112.90,27.10 113.13,28.45 113.36,32.24 113.59,39.90 113.81,45.45 114.04,46.84 114.27,41.45 114.50,34.32 114.73,27.59 114.96,23.22 115.18,19.82 115.41,21.56 115.64,25.02 115.87,28.92 116.10,34.59 116.33,37.92 116.55,35.41 116.78,35.05 117.01,35.92 117.24,33.54 117.47,30.95 117.70,31.53 117.92,30.70 118.15,30.87 118.38,27.22 118.61,29.23 118.84,30.44 119.06,22.47 119.29,33.59 119.52,32.35 119.75,33.60 119.98,39.12 120.21,39.77 120.43,38.76 120.66,34.40 120.89,30.42 121.12,28.44 121.35,30.26 121.58,30.08 121.80,33.70 122.03,34.85 122.26,34.80 122.49,33.64 122.72,33.71 122.95,31.43 123.17,36.12 123.40,26.28 123.63,31.31 123.86,36.13 124.09,36.09 124.32,35.26 124.54,31.13 124.77,28.22 125.00,27.34 125.23,29.93 125.46,29.12 125.69,32.26 125.91,33.39 126.14,31.47 126.37,31.48 126.60,32.22 126.83,34.69 127.06,37.45 127.28,35.77 127.51,34.13 127.74,34.14 127.97,34.89 128.20,31.63 128.43,29.45 128.65,32.59 128.88,31.72 129.11,29.39 129.34,28.18 129.57,29.24 129.80,29.40 130.02,31.55 130.25,31.76 130.48,33.30 130.71,31.61 130.94,32.26 131.16,28.89 131.39,33.63 131.62,33.75 131.85,32.14 132.08,43.76 132.31,42.45 132.53,45.77 132.76,39.87 132.99,34.23 133.22,25.51 133.45,21.20 133.68,16.90 133.90,19.17 134.13,23.55 134.36,30.09 134.59,32.65 134.82,36.86 135.05,35.20 135.27,34.24 135.50,28.29 135.73,27.67 135.96,30.62 136.19,30.81 136.42,45.98 136.64,42.57 136.87,42.20 137.10,38.80 137.33,30.42 137.56,20.67 137.79,14.73 138.01,19.06 138.24,23.44 138.47,30.44 138.70,35.72 138.93,38.24 139.16,38.22 139.38,36.54 139.61,36.31 139.84,33.60 140.07,36.12 140.30,35.23 140.53,35.36 140.75,36.62 140.98,32.31 141.21,28.28 141.44,25.74 141.67,22.96 141.90,23.38 142.12,27.27 142.35,30.90 142.58,32.61 142.81,35.26 143.04,33.06 143.27,37.37 143.49,35.67 143.72,35.80 143.95,30.20 144.18,38.13 144.41,32.77 144.63,28.65 144.86,33.42 145.09,28.71 145.32,34.76 145.55,30.52 145.78,28.59 146.00,25.18 146.23,23.75 146.46,23.67 146.69,28.50 146.92,34.19 147.15,38.71 147.37,36.33 147.60,36.16 147.83,32.93 148.06,30.00 148.29,26.74 148.52,27.05 148.74,33.59 148.97,25.06 149.20,35.92 149.43,36.93 149.66,33.15 149.89,28.47 150.11,26.57 150.34,28.06 150.57,32.08 150.80,35.53 151.03,39.20 151.26,40.38 151.48,38.18 151.71,34.55 151.94,32.75 152.17,28.30 152.40,28.45 152.63,28.30 152.85,26.74 153.08,23.47 153.31,24.47 153.54,26.81 153.77,29.42 154.00,31.27 154.22,33.07 154.45,33.17 154.68,33.96 154.91,35.36 155.14,33.21 155.37,32.29 155.59,33.33 155.82,29.96 156.05,37.04 156.28,27.26 156.51,28.11 156.73,38.74 156.96,27.01 157.19,34.67 157.42,32.01 157.65,36.02 157.88,32.25 158.10,30.75 158.33,27.99 158.56,30.07 158.79,29.70 159.02,34.51 159.25,34.92 159.47,37.06 159.70,31.61 159.93,33.17 160.16,25.56 160.39,30.06 160.62,24.50 160.84,27.99 161.07,37.02 161.30,37.44 161.53,38.24 161.76,36.23 161.99,33.01 162.21,31.42 162.44,30.04 162.67,30.85 162.90,34.69 163.13,35.70 163.36,35.79 163.58,36.70 163.81,35.43 164.04,32.99 164.27,28.75 164.50,30.60 164.73,31.19 164.95,35.55 165.18,36.62 165.41,35.18 165.64,32.26 165.87,31.59 166.10,31.27 166.32,32.88 166.55,32.59 166.78,32.82 167.01,32.55 167.24,32.07 167.47,32.60 167.69,30.89 167.92,33.20 168.15,29.46 168.38,32.52 168.61,33.53 168.84,27.88 169.06,33.05 169.29,32.56 169.52,37.93 169.75,32.72 169.98,35.42 170.20,30.73 170.43,27.26 170.66,24.15 170.89,27.96 171.12,28.71 171.35,35.03 171.57,32.74 171.80,34.79 172.03,35.04 172.26,37.25 172.49,32.56 172.72,33.71 172.94,29.96 173.17,23.63 173.40,32.17 173.63,33.29 173.86,34.47 174.09,32.23 174.31,31.74 174.54,30.55 174.77,28.99 175.00,29.49 175.23,29.72 175.46,32.29 175.68,30.89 175.91,31.55 176.14,32.96 176.37,32.91 176.60,31.85 176.83,32.17 177.05,31.62 177.28,29.16 177.51,30.70 177.74,30.66 177.97,33.26 178.20,34.53 178.42,36.32 178.65,36.91 178.88,37.46 179.11,34.93 179.34,32.52 179.57,30.28 179.79,29.67 180.02,31.67 180.25,30.87 180.48,33.93 180.71,34.19 180.94,24.24 181.16,36.66 181.39,32.12 181.62,35.41 181.85,36.84 182.08,34.64 182.30,31.48 182.53,26.75 182.76,25.37 182.99,21.99 183.22,24.95 183.45,26.07 183.67,31.95 183.90,32.78 184.13,34.48 184.36,33.63 184.59,34.07 184.82,29.00 185.04,34.14 185.27,26.81 185.50,32.42 185.73,38.15 185.96,35.85 186.19,35.04 186.41,34.26 186.64,30.49 186.87,28.98 187.10,28.21 187.33,29.47 187.56,28.97 187.78,29.69 188.01,31.08 188.24,30.83 188.47,32.53 188.70,33.76 188.93,32.73 189.15,31.11 189.38,31.51 189.61,34.02 189.84,32.43 190.07,33.84 190.30,34.08 190.52,32.85 190.75,33.29 190.98,34.09 191.21,29.79 191.44,32.04 191.67,30.36 191.89,32.22 192.12,28.45 192.35,39.10 192.58,38.87 192.81,33.35 193.04,37.46 193.26,33.10 193.49,36.91 193.72,30.72 193.95,32.25 194.18,30.01 194.41,30.78 194.63,28.30 194.86,29.35 195.09,27.40 195.32,26.29 195.55,24.33 195.77,24.23 196.00,31.43 196.23,43.60 196.46,46.82 196.69,51.53 196.92,46.90 197.14,32.87 197.37,33.82 197.60,23.05 197.83,22.33 198.06,26.83 198.29,28.83 198.51,24.97 198.74,26.98 198.97,30.35 199.20,29.67 199.43,26.07 199.66,31.96 199.88,32.48 200.11,35.54 200.34,36.92 200.57,38.43 200.80,36.66 201.03,31.92 201.25,28.01 201.48,28.26 201.71,24.28 201.94,22.71 202.17,22.75 202.40,24.03 202.62,24.50 202.85,29.69 203.08,27.42 203.31,32.54 203.54,27.72 203.77,36.94 203.99,32.35 204.22,22.99 204.45,37.62 204.68,29.74 204.91,35.37 205.14,32.06 205.36,32.23 205.59,29.97 205.82,30.21 206.05,28.57 206.28,29.59 206.51,30.37 206.73,32.90 206.96,39.89 207.19,41.97 207.42,41.97 207.65,37.64 207.87,34.92 208.10,31.65 208.33,36.80 208.56,30.66 208.79,40.40 209.02,40.19 209.24,33.99 209.47,38.09 209.70,30.66 209.93,26.41 210.16,22.91 210.39,24.55 210.61,29.68 210.84,35.99 211.07,34.00 211.30,30.69 211.53,32.65 211.76,29.81 211.98,27.31 212.21,24.17 212.44,26.91 212.67,33.32 212.90,32.64 213.13,28.28 213.35,28.69 213.58,31.52 213.81,39.13 214.04,38.30 214.27,27.02 214.50,19.88 214.72,22.12 214.95,27.20 215.18,34.94 215.41,47.16 215.64,46.56 215.87,46.44 216.09,40.54 216.32,29.83 216.55,30.35 216.78,28.38 217.01,27.83 217.24,29.79 217.46,32.42 217.69,35.28 217.92,34.65 218.15,35.21 218.38,30.52 218.61,33.24 218.83,28.76 219.06,25.71 219.29,27.55 219.52,19.66 219.75,29.45 219.97,30.35 220.20,30.43 220.43,31.73 220.66,39.63 220.89,39.01 221.12,33.80 221.34,34.86 221.57,36.56 221.80,35.99 222.03,38.51 222.26,33.73 222.49,25.50 222.71,22.57 222.94,26.20 223.17,28.09 223.40,22.76 223.63,22.99 223.86,21.00 224.08,23.04 224.31,27.13 224.54,34.57 224.77,32.08 225.00,33.80 225.23,29.11 225.45,30.22 225.68,27.16 225.91,27.14 226.14,33.81 226.37,47.27 226.60,41.86 226.82,56.17 227.05,60.31 227.28,48.13 227.51,45.25 227.74,31.65 227.97,21.39 228.19,21.57 228.42,14.16 228.65,18.60 228.88,28.17 229.11,31.55 229.34,33.86 229.56,32.45 229.79,33.87 230.02,33.33 230.25,31.28 230.48,29.66 230.71,26.42 230.93,27.91 231.16,23.60 231.39,24.67 231.62,22.66 231.85,23.84 232.08,24.86 232.30,23.52 232.53,21.61 232.76,26.57 232.99,34.88 233.22,37.80 233.44,42.56 233.67,47.02 233.90,47.51 234.13,45.53 234.36,39.44 234.59,29.11 234.81,26.58 235.04,14.66 235.27,12.60 235.50,16.12 235.73,11.81 235.96,17.89 236.18,30.44 236.41,46.30 236.64,55.69 236.87,51.49 237.10,50.03 237.33,44.33 237.55,45.64 237.78,39.19 238.01,35.45 238.24,13.67 238.47,15.92 238.70,26.98 238.92,26.07 239.15,30.66 239.38,17.85 239.61,12.35 239.84,13.40 240.07,21.56 240.29,23.61 240.52,28.92 240.75,31.25 240.98,43.84 241.21,57.62 241.44,58.97 241.66,46.56 241.89,33.47 242.12,26.35 242.35,26.04 242.58,25.49 242.81,22.13 243.03,36.28 243.26,31.15 243.49,32.29 243.72,35.68 243.95,36.26 244.18,32.01 244.40,33.67 244.63,28.40 244.86,28.98 245.09,43.06 245.32,40.05 245.54,27.70 245.77,15.42 246.00,17.28 246.23,34.28 246.46,35.56 246.69,31.74 246.91,35.44 247.14,36.11 247.37,28.12 247.60,14.63 247.83,10.06 248.06,12.87 248.28,16.90 248.51,24.73 248.74,29.58 248.97,27.16 249.20,22.84 249.43,21.79 249.65,16.57 249.88,29.56 250.11,27.68 250.34,37.52 250.57,36.84 250.80,43.57 251.02,51.23 251.25,57.46 251.48,55.78 251.71,59.32 251.94,62.71 252.17,57.75 252.39,52.68 252.62,55.63 252.85,44.76 253.08,30.93 253.31,26.30 253.54,23.40 253.76,24.89 253.99,18.43 254.22,24.81 254.45,14.09 254.68,19.71 254.91,20.74 255.13,15.86 255.36,25.80 255.59,33.03 255.82,30.88 256.05,25.67 256.28,20.05 256.50,17.17 256.73,15.54 256.96,11.99 257.19,16.88 257.42,27.93 257.65,38.78 257.87,40.68 258.10,44.31 258.33,46.95 258.56,44.21 258.79,43.69 259.01,43.74 259.24,37.26 259.47,23.69 259.70,14.33 259.93,13.31 260.16,16.97 260.38,19.06 260.61,12.45 260.84,19.80 261.07,26.41 261.30,26.47 261.53,42.34 261.75,37.50 261.98,42.58 262.21,47.59 262.44,50.00 262.67,42.82 262.90,33.31 263.12,23.36 263.35,16.62 263.58,13.49 263.81,13.96 264.04,21.49 264.27,38.76 264.49,54.47 264.72,60.71 264.95,55.64 265.18,46.90 265.41,33.76 265.64,18.50 265.86,25.10 266.09,22.60 266.32,16.77 266.55,23.01 266.78,21.94 267.01,25.45 267.23,38.48 267.46,35.88 267.69,33.66 267.92,45.70 268.15,58.33 268.38,48.86 268.60,34.08 268.83,23.69 269.06,11.07 269.29,6.04 269.52,4.35 269.75,13.09 269.97,9.59 270.20,2.56 270.43,0.43 270.66,3.52 270.89,8.87 271.11,20.03 271.34,31.40 271.57,35.96 271.80,26.08 272.03,37.85 272.26,40.35 272.48,43.40 272.71,53.29 272.94,50.16 273.17,60.71 273.40,56.31 273.63,59.32 273.85,51.30 274.08,39.66 274.31,26.25 274.54,20.08 274.77,23.32 275.00,26.13 275.22,26.74 275.45,23.06 275.68,20.95 275.91,17.38 276.14,14.20 276.37,14.43 276.59,17.10 276.82,17.23 277.05,26.40 277.28,30.89 277.51,27.86 277.74,20.61 277.96,22.31 278.19,42.44 278.42,62.23 278.65,58.15 278.88,48.24 279.11,48.61 279.33,49.14 279.56,45.84 279.79,34.26 280.02,20.18 280.25,11.35 280.48,5.56 280.70,6.44 280.93,15.41 281.16,27.41 281.39,37.98 281.62,45.86 281.85,48.09 282.07,48.17 282.30,49.04 282.53,49.81 282.76,37.47 282.99,31.31 283.22,38.10 283.44,33.96 283.67,31.00 283.90,30.00 284.13,31.56 284.36,31.90 284.58,30.71 284.81,29.68 285.04,27.76 285.27,24.52 285.50,22.63 285.73,24.11 285.95,29.68 286.18,33.44 286.41,35.07 286.64,34.16 286.87,34.42 287.10,27.37 287.32,26.68 287.55,21.84 287.78,14.91 288.01,31.59 288.24,38.52 288.47,40.58 288.69,33.28 288.92,27.47 289.15,21.82 289.38,43.17 289.61,62.31 289.84,69.85 290.06,65.74 290.29,52.65 290.52,45.37 290.75,30.91 290.98,8.51 291.21,1.78 291.43,7.34 291.66,16.61 291.89,18.72 292.12,27.59 292.35,46.31 292.58,53.84 292.80,39.58 293.03,29.69 293.26,19.81 293.49,13.17 293.72,7.37 293.95,11.93 294.17,23.83 294.40,45.31 294.63,41.22 294.86,40.57 295.09,38.66 295.32,24.94 295.54,21.04 295.77,14.65 296.00,14.35" fill="none" stroke="#2F855A" stroke-width="2.2" stroke-linecap="round" stroke-linejoin="round"/>
</svg>