<svg xmlns="http://www.w3.org/2000/svg" width="300" height="64" viewBox="0 0 300 64">

<polyline points="4.00,33.59 4.23,33.12 4.46,33.34 4.68,33.04 4.91,33.10 5.14,32.87 5.37,33.19 5.60,32.71 5.83,33.09 6.05,33.04 6.28,31.93 6.51,29.50 6.74,25.64 6.97,25.87 7.20,30.93 7.42,33.38 7.65,36.01 7.88,35.57 8.11,34.58 8.34,18.18 8.57,-11.51 8.79,-6.47 9.02,28.65 9.25,45.42 9.48,48.65 9.71,48.52 9.94,47.88 10.16,46.16 10.39,44.40 10.62,43.17 10.85,43.47 11.08,43.50 11.31,44.04 11.53,44.00 11.76,42.85 11.99,39.40 12.22,33.85 12.45,29.35 12.68,27.73 12.90,28.46 13.13,28.94 13.36,29.92 13.59,31.21 13.82,31.56 14.05,32.76 14.27,33.32 14.50,33.53 14.73,33.49 14.96,32.84 15.19,32.26 15.42,31.62 15.64,31.65 15.87,31.87 16.10,31.61 16.33,31.70 16.56,32.32 16.78,31.56 17.01,31.56 17.24,31.39 17.47,30.79 17.70,30.89 17.93,30.53 18.15,29.49 18.38,27.51 18.61,23.32 18.84,22.86 19.07,27.67 19.30,30.41 19.52,32.60 19.75,32.31 19.98,32.60 20.21,18.71 20.44,-13.00 20.67,-11.92 20.89,20.39 21.12,39.98 21.35,44.70 21.58,44.21 21.81,44.31 22.04,41.53 22.26,40.71 22.49,39.29 22.72,39.94 22.95,39.08 23.18,40.11 23.41,40.39 23.63,40.38 23.86,38.05 24.09,33.34 24.32,28.40 24.55,27.53 24.78,26.98 25.00,28.27 25.23,29.13 25.46,30.21 25.69,31.26 25.92,32.41 26.15,31.65 26.37,32.96 26.60,32.13 26.83,32.46 27.06,32.32 27.29,32.62 27.52,32.32 27.74,33.29 27.97,33.03 28.20,32.67 28.43,32.86 28.66,33.10 28.89,32.17 29.11,32.92 29.34,32.48 29.57,32.32 29.80,31.91 30.03,32.58 30.25,30.33 30.48,28.82 30.71,24.24 30.94,26.67 31.17,31.32 31.40,34.02 31.62,35.79 31.85,36.11 32.08,33.06 32.31,13.06 32.54,-13.00 32.77,-6.32 32.99,34.70 33.22,46.89 33.45,49.43 33.68,49.50 33.91,47.18 34.14,45.51 34.36,44.42 34.59,43.32 34.82,42.40 35.05,42.86 35.28,43.89 35.51,43.59 35.73,42.58 35.96,38.54 36.19,32.38 36.42,28.38 36.65,27.08 36.88,27.61 37.10,28.07 37.33,28.20 37.56,29.06 37.79,30.10 38.02,30.90 38.25,30.87 38.47,31.58 38.70,30.61 38.93,30.21 39.16,29.97 39.39,30.08 39.62,30.46 39.84,30.88 40.07,30.31 40.30,30.11 40.53,30.32 40.76,30.13 40.99,30.70 41.21,30.54 41.44,30.24 41.67,29.92 41.90,28.13 42.13,25.66 42.35,21.63 42.58,24.83 42.81,29.07 43.04,32.67 43.27,33.91 43.50,35.59 43.72,31.47 43.95,9.59 44.18,-13.00 44.41,-0.57 44.64,36.11 44.87,46.17 45.09,49.18 45.32,48.42 45.55,46.83 45.78,45.07 46.01,44.25 46.24,42.64 46.46,43.19 46.69,43.17 46.92,44.46 47.15,44.25 47.38,42.92 47.61,38.98 47.83,32.58 48.06,28.98 48.29,27.57 48.52,28.28 48.75,29.31 48.98,29.30 49.20,30.87 49.43,31.82 49.66,32.24 49.89,32.29 50.12,32.02 50.35,31.46 50.57,32.00 50.80,31.82 51.03,31.63 51.26,31.87 51.49,32.49 51.72,32.64 51.94,32.28 52.17,31.58 52.40,32.34 52.63,31.93 52.86,32.42 53.09,32.05 53.31,32.52 53.54,31.18 53.77,29.50 54.00,25.66 54.23,24.79 54.46,30.47 54.68,32.54 54.91,35.27 55.14,34.78 55.37,34.26 55.60,22.06 55.82,-4.45 56.05,-6.09 56.28,19.38 56.51,42.78 56.74,46.04 56.97,47.32 57.19,46.63 57.42,44.65 57.65,42.89 57.88,41.99 58.11,41.72 58.34,41.30 58.56,41.70 58.79,41.29 59.02,41.17 59.25,37.99 59.48,33.22 59.71,29.84 59.93,27.57 60.16,27.25 60.39,28.42 60.62,29.25 60.85,29.40 61.08,29.70 61.30,30.02 61.53,29.97 61.76,29.76 61.99,29.17 62.22,28.78 62.45,28.35 62.67,28.24 62.90,29.02 63.13,29.03 63.36,29.12 63.59,29.03 63.82,28.74 64.04,29.24 64.27,29.55 64.50,29.33 64.73,29.64 64.96,29.49 65.19,30.46 65.41,28.48 65.64,25.61 65.87,22.07 66.10,26.24 66.33,31.07 66.56,34.21 66.78,35.30 67.01,35.98 67.24,31.87 67.47,7.45 67.70,-13.00 67.92,4.19 68.15,36.89 68.38,47.13 68.61,48.32 68.84,48.01 69.07,46.99 69.29,45.12 69.52,44.48 69.75,43.53 69.98,42.93 70.21,43.61 70.44,43.82 70.66,43.96 70.89,42.42 71.12,38.17 71.35,32.65 71.58,29.80 71.81,28.87 72.03,29.17 72.26,29.59 72.49,30.24 72.72,31.10 72.95,32.35 73.18,33.05 73.40,33.28 73.63,32.97 73.86,32.19 74.09,31.07 74.32,30.91 74.55,30.42 74.77,31.32 75.00,31.23 75.23,30.91 75.46,30.83 75.69,31.59 75.92,31.59 76.14,31.65 76.37,31.47 76.60,31.39 76.83,30.99 77.06,30.58 77.29,30.94 77.51,31.70 77.74,29.26 77.97,27.45 78.20,22.94 78.43,27.10 78.66,31.26 78.88,33.89 79.11,35.15 79.34,35.10 79.57,30.71 79.80,7.81 80.03,-13.00 80.25,-0.20 80.48,35.61 80.71,45.18 80.94,46.44 81.17,46.59 81.39,45.12 81.62,43.54 81.85,42.27 82.08,40.90 82.31,41.11 82.54,40.60 82.76,41.66 82.99,41.85 83.22,40.67 83.45,36.14 83.68,30.74 83.91,27.35 84.13,27.00 84.36,27.29 84.59,28.01 84.82,28.68 85.05,29.70 85.28,31.17 85.50,32.12 85.73,32.41 85.96,32.18 86.19,31.49 86.42,31.41 86.65,31.62 86.87,32.32 87.10,31.50 87.33,31.76 87.56,31.35 87.79,31.63 88.02,31.91 88.24,32.40 88.47,31.88 88.70,31.54 88.93,31.61 89.16,31.64 89.39,31.21 89.61,32.10 89.84,32.02 90.07,32.45 90.30,31.87 90.53,30.35 90.76,27.69 90.98,24.85 91.21,29.46 91.44,33.12 91.67,35.30 91.90,35.41 92.13,35.87 92.35,26.32 92.58,-0.71 92.81,-9.17 93.04,15.41 93.27,40.72 93.49,47.09 93.72,48.24 93.95,47.28 94.18,46.19 94.41,45.04 94.64,43.53 94.86,43.11 95.09,42.31 95.32,42.67 95.55,41.64 95.78,41.12 96.01,39.32 96.23,34.69 96.46,30.63 96.69,28.57 96.92,29.24 97.15,30.15 97.38,30.96 97.60,31.62 97.83,32.13 98.06,33.17 98.29,33.43 98.52,33.50 98.75,32.85 98.97,32.79 99.20,31.81 99.43,31.91 99.66,30.90 99.89,30.88 100.12,30.23 100.34,29.95 100.57,30.05 100.80,29.55 101.03,29.62 101.26,29.40 101.49,29.15 101.71,29.35 101.94,29.21 102.17,29.47 102.40,28.71 102.63,29.24 102.86,27.05 103.08,24.94 103.31,21.46 103.54,23.98 103.77,28.87 104.00,32.06 104.23,33.33 104.45,33.67 104.68,31.46 104.91,10.43 105.14,-13.00 105.37,-2.36 105.60,31.18 105.82,44.50 106.05,46.08 106.28,45.68 106.51,44.63 106.74,42.95 106.96,41.82 107.19,40.85 107.42,40.43 107.65,39.83 107.88,40.49 108.11,40.22 108.33,39.88 108.56,36.97 108.79,32.00 109.02,29.72 109.25,28.49 109.48,29.76 109.70,30.11 109.93,30.07 110.16,31.20 110.39,32.08 110.62,33.47 110.85,33.55 111.07,33.25 111.30,33.02 111.53,31.76 111.76,31.11 111.99,30.96 112.22,31.62 112.44,32.10 112.67,31.67 112.90,30.95 113.13,30.00 113.36,30.81 113.59,30.85 113.81,30.52 114.04,30.50 114.27,30.71 114.50,30.80 114.73,31.92 114.96,32.99 115.18,32.74 115.41,32.09 115.64,29.95 115.87,26.78 116.10,23.66 116.33,28.39 116.55,32.28 116.78,34.61 117.01,35.14 117.24,34.87 117.47,27.86 117.70,-1.35 117.92,-13.00 118.15,10.70 118.38,39.59 118.61,47.82 118.84,49.16 119.06,48.38 119.29,47.66 119.52,46.98 119.75,44.73 119.98,43.90 120.21,43.26 120.43,43.94 120.66,44.66 120.89,44.00 121.12,41.41 121.35,35.92 121.58,30.74 121.80,28.14 122.03,28.16 122.26,29.43 122.49,29.95 122.72,31.16 122.95,31.60 123.17,32.18 123.40,32.76 123.63,32.72 123.86,32.91 124.09,31.93 124.32,31.64 124.54,31.86 124.77,32.17 125.00,31.54 125.23,31.31 125.46,31.67 125.69,32.11 125.91,32.48 126.14,32.03 126.37,31.88 126.60,31.74 126.83,31.64 127.06,32.74 127.28,32.08 127.51,32.73 127.74,33.31 127.97,33.51 128.20,32.22 128.43,30.36 128.65,27.30 128.88,25.07 129.11,29.29 129.34,31.08 129.57,33.25 129.80,34.43 130.02,34.42 130.25,25.32 130.48,-2.86 130.71,-9.73 130.94,13.89 131.16,38.76 131.39,45.57 131.62,45.17 131.85,45.36 132.08,43.91 132.31,42.56 132.53,41.01 132.76,40.68 132.99,40.28 133.22,39.98 133.45,40.31 133.68,39.55 133.90,37.68 134.13,33.31 134.36,28.96 134.59,27.70 134.82,27.69 135.05,27.92 135.27,28.37 135.50,29.30 135.73,29.19 135.96,30.13 136.19,30.46 136.42,30.81 136.64,30.72 136.87,29.79 137.10,29.89 137.33,30.32 137.56,30.25 137.79,29.90 138.01,30.00 138.24,29.66 138.47,30.25 138.70,30.52 138.93,30.98 139.16,30.97 139.38,31.39 139.61,30.29 139.84,29.83 140.07,29.39 140.30,30.53 140.53,29.27 140.75,30.25 140.98,30.21 141.21,28.98 141.44,26.21 141.67,24.44 141.90,29.15 142.12,32.26 142.35,33.89 142.58,35.32 142.81,34.46 143.04,23.74 143.27,-12.84 143.49,-13.00 143.72,20.70 143.95,42.86 144.18,48.12 144.41,48.11 144.63,47.02 144.86,45.72 145.09,44.73 145.32,43.48 145.55,43.56 145.78,42.81 146.00,43.32 146.23,43.71 146.46,43.84 146.69,40.88 146.92,35.04 147.15,29.25 147.37,27.78 147.60,27.57 147.83,28.95 148.06,29.47 148.29,29.59 148.52,30.52 148.74,31.67 148.97,32.23 149.20,32.27 149.43,32.37 149.66,32.01 149.89,32.36 150.11,32.37 150.34,32.28 150.57,32.77 150.80,32.68 151.03,32.46 151.26,33.07 151.48,33.35 151.71,33.14 151.94,32.67 152.17,32.55 152.40,32.90 152.63,32.62 152.85,32.54 153.08,35.57 153.31,39.55 153.54,40.55 153.77,33.83 154.00,29.70 154.22,31.74 154.45,30.22 154.68,28.31 154.91,8.38 155.14,-13.00 155.37,-7.35 155.59,23.47 155.82,39.39 156.05,43.16 156.28,44.10 156.51,43.29 156.73,42.91 156.96,42.50 157.19,41.72 157.42,42.99 157.65,42.43 157.88,43.42 158.10,43.84 158.33,42.05 158.56,39.22 158.79,33.75 159.02,30.40 159.25,29.61 159.47,30.12 159.70,31.25 159.93,31.68 160.16,32.82 160.39,33.04 160.62,33.89 160.84,33.68 161.07,34.39 161.30,34.28 161.53,32.80 161.76,32.26 161.99,32.16 162.21,31.62 162.44,31.71 162.67,31.59 162.90,31.08 163.13,31.43 163.36,31.42 163.58,31.38 163.81,30.96 164.04,31.19 164.27,30.52 164.50,30.27 164.73,30.51 164.95,30.34 165.18,30.18 165.41,28.68 165.64,26.79 165.87,23.69 166.10,26.61 166.32,29.12 166.55,31.12 166.78,32.14 167.01,32.48 167.24,21.75 167.47,-9.69 167.69,-13.00 167.92,15.39 168.15,38.19 168.38,44.47 168.61,44.77 168.84,45.19 169.06,43.32 169.29,41.70 169.52,40.03 169.75,39.79 169.98,39.47 170.20,40.79 170.43,41.42 170.66,41.45 170.89,39.06 171.12,34.65 171.35,29.54 171.57,28.40 171.80,27.91 172.03,28.49 172.26,28.68 172.49,30.33 172.72,30.97 172.94,32.18 173.17,32.25 173.40,32.30 173.63,31.53 173.86,31.66 174.09,31.92 174.31,31.77 174.54,31.83 174.77,32.34 175.00,31.88 175.23,32.08 175.46,31.97 175.68,31.70 175.91,32.02 176.14,32.07 176.37,32.28 176.60,32.25 176.83,31.91 177.05,32.32 177.28,31.52 177.51,30.56 177.74,28.48 177.97,24.49 178.20,28.02 178.42,31.27 178.65,33.67 178.88,35.26 179.11,34.41 179.34,29.10 179.57,0.45 179.79,-13.00 180.02,5.57 180.25,37.60 180.48,45.79 180.71,47.39 180.94,46.84 181.16,44.77 181.39,43.64 181.62,42.31 181.85,41.51 182.08,40.94 182.30,40.83 182.53,42.07 182.76,42.04 182.99,40.40 183.22,36.13 183.45,30.75 183.67,28.12 183.90,28.53 184.13,29.04 184.36,30.97 184.59,30.55 184.82,32.20 185.04,34.13 185.27,34.52 185.50,34.39 185.73,34.69 185.96,33.80 186.19,34.56 186.41,33.62 186.64,34.36 186.87,34.48 187.10,34.61 187.33,34.57 187.56,34.35 187.78,34.43 188.01,35.07 188.24,34.53 188.47,34.38 188.70,33.27 188.93,33.58 189.15,32.40 189.38,31.40 189.61,28.88 189.84,26.56 190.07,30.79 190.30,32.87 190.52,34.97 190.75,35.58 190.98,34.98 191.21,23.20 191.44,-4.33 191.67,-4.90 191.89,17.47 192.12,40.11 192.35,45.27 192.58,45.76 192.81,46.43 193.04,45.31 193.26,42.08 193.49,40.50 193.72,39.25 193.95,38.48 194.18,37.93 194.41,37.65 194.63,35.59 194.86,34.44 195.09,30.75 195.32,25.55 195.55,23.47 195.77,23.12 196.00,24.05 196.23,24.85 196.46,26.11 196.69,27.99 196.92,28.88 197.14,29.31 197.37,29.53 197.60,29.39 197.83,28.52 198.06,27.74 198.29,27.41 198.51,27.60 198.74,28.06 198.97,28.94 199.20,29.12 199.43,29.60 199.66,29.61 199.88,28.91 200.11,28.43 200.34,28.52 200.57,27.96 200.80,25.45 201.03,22.28 201.25,21.54 201.48,27.30 201.71,31.30 201.94,33.25 202.17,34.97 202.40,35.43 202.62,24.95 202.85,-5.67 203.08,-13.00 203.31,21.17 203.54,45.48 203.77,51.89 203.99,53.18 204.22,52.85 204.45,51.04 204.68,49.99 204.91,48.25 205.14,47.58 205.36,48.07 205.59,46.52 205.82,46.13 206.05,44.68 206.28,41.09 206.51,35.70 206.73,32.46 206.96,31.99 207.19,33.06 207.42,34.12 207.65,34.32 207.87,34.20 208.10,34.41 208.33,35.36 208.56,35.68 208.79,36.41 209.02,35.20 209.24,33.32 209.47,32.03 209.70,31.90 209.93,30.90 210.16,30.07 210.39,30.52 210.61,30.30 210.84,30.29 211.07,29.07 211.30,28.64 211.53,28.09 211.76,26.77 211.98,23.13 212.21,21.20 212.44,25.38 212.67,28.34 212.90,31.17 213.13,32.64 213.35,32.61 213.58,22.91 213.81,-11.99 214.04,-13.00 214.27,16.07 214.50,37.22 214.72,44.56 214.95,43.92 215.18,44.88 215.41,42.47 215.64,41.36 215.87,39.82 216.09,40.17 216.32,38.60 216.55,38.91 216.78,38.06 217.01,37.54 217.24,34.98 217.46,30.56 217.69,27.91 217.92,28.06 218.15,28.67 218.38,30.29 218.61,30.48 218.83,31.44 219.06,31.87 219.29,33.12 219.52,33.23 219.75,34.54 219.97,33.40 220.20,33.52 220.43,31.80 220.66,31.99 220.89,29.12 221.12,29.32 221.34,30.49 221.57,30.29 221.80,31.29 222.03,31.99 222.26,32.49 222.49,33.29 222.71,33.72 222.94,35.18 223.17,32.90 223.40,30.94 223.63,26.78 223.86,28.32 224.08,32.37 224.31,35.57 224.54,36.64 224.77,37.75 225.00,35.69 225.23,20.51 225.45,-13.00 225.68,-13.00 225.91,30.31 226.14,44.44 226.37,48.76 226.60,46.86 226.82,47.18 227.05,44.14 227.28,44.26 227.51,42.63 227.74,42.05 227.97,40.49 228.19,41.54 228.42,41.50 228.65,41.88 228.88,37.15 229.11,31.80 229.34,28.78 229.56,28.60 229.79,28.47 230.02,30.13 230.25,29.74 230.48,30.44 230.71,30.56 230.93,31.78 231.16,31.94 231.39,32.84 231.62,33.70 231.85,33.35 232.08,33.84 232.30,34.39 232.53,34.23 232.76,34.73 232.99,34.71 233.22,35.70 233.44,35.28 233.67,33.94 233.90,31.40 234.13,30.42 234.36,28.49 234.59,28.84 234.81,26.44 235.04,24.73 235.27,20.01 235.50,20.59 235.73,25.92 235.96,28.84 236.18,31.50 236.41,32.51 236.64,30.03 236.87,13.15 237.10,-13.00 237.33,-13.00 237.55,21.89 237.78,38.57 238.01,43.70 238.24,44.23 238.47,42.90 238.70,42.52 238.92,43.95 239.15,43.98 239.38,43.10 239.61,43.93 239.84,47.24 240.07,47.93 240.29,46.96 240.52,42.68 240.75,36.12 240.98,32.32 241.21,29.33 241.44,27.33 241.66,27.75 241.89,26.83 242.12,28.14 242.35,27.21 242.58,28.88 242.81,29.78 243.03,30.31 243.26,29.71 243.49,30.52 243.72,30.23 243.95,30.76 244.18,30.07 244.40,29.18 244.63,28.52 244.86,29.63 245.09,28.50 245.32,28.94 245.54,29.55 245.77,32.43 246.00,33.29 246.23,33.49 246.46,33.35 246.69,33.84 246.91,34.34 247.14,31.24 247.37,31.92 247.60,38.13 247.83,38.44 248.06,41.88 248.28,40.26 248.51,39.59 248.74,17.27 248.97,2.49 249.20,10.47 249.43,29.90 249.65,46.58 249.88,47.09 250.11,49.01 250.34,46.53 250.57,46.00 250.80,44.44 251.02,42.31 251.25,40.87 251.48,42.07 251.71,40.92 251.94,41.16 252.17,39.68 252.39,36.51 252.62,32.29 252.85,29.91 253.08,29.61 253.31,28.98 253.54,26.63 253.76,27.61 253.99,29.37 254.22,30.11 254.45,30.79 254.68,31.30 254.91,30.23 255.13,29.25 255.36,27.63 255.59,23.72 255.82,26.14 256.05,28.56 256.28,28.23 256.50,28.20 256.73,27.41 256.96,28.46 257.19,28.36 257.42,28.11 257.65,27.30 257.87,25.33 258.10,24.33 258.33,22.86 258.56,26.43 258.79,29.22 259.01,30.98 259.24,32.91 259.47,31.97 259.70,20.95 259.93,-10.57 260.16,-7.73 260.38,24.60 260.61,42.06 260.84,46.43 261.07,45.23 261.30,46.89 261.53,43.51 261.75,42.66 261.98,41.40 262.21,40.52 262.44,40.48 262.67,39.50 262.90,39.34 263.12,39.47 263.35,37.52 263.58,34.45 263.81,31.04 264.04,30.62 264.27,32.24 264.49,33.50 264.72,33.18 264.95,31.94 265.18,31.86 265.41,34.05 265.64,34.39 265.86,34.10 266.09,33.93 266.32,31.15 266.55,31.57 266.78,31.79 267.01,28.64 267.23,29.88 267.46,29.85 267.69,30.05 267.92,29.13 268.15,29.25 268.38,27.45 268.60,27.20 268.83,25.36 269.06,24.35 269.29,21.43 269.52,21.22 269.75,25.57 269.97,29.55 270.20,31.34 270.43,32.38 270.66,29.17 270.89,15.31 271.11,-13.00 271.34,-12.24 271.57,29.26 271.80,44.67 272.03,49.57 272.26,48.85 272.48,47.28 272.71,44.00 272.94,41.94 273.17,40.38 273.40,40.95 273.63,41.61 273.85,43.36 274.08,43.79 274.31,43.44 274.54,38.55 274.77,33.01 275.00,30.70 275.22,29.91 275.45,31.42 275.68,31.89 275.91,32.23 276.14,30.61 276.37,30.46 276.59,32.35 276.82,33.12 277.05,34.55 277.28,36.48 277.51,35.92 277.74,34.37 277.96,34.66 278.19,34.28 278.42,33.74 278.65,33.66 278.88,32.61 279.11,32.47 279.33,31.57 279.56,30.97 279.79,30.97 280.02,30.87 280.25,29.47 280.48,25.92 280.70,28.04 280.93,33.31 281.16,35.67 281.39,38.19 281.62,37.22 281.85,37.96 282.07,14.14 282.30,-1.26 282.53,11.41 282.76,31.86 282.99,47.93 283.22,46.35 283.44,48.03 283.67,45.49 283.90,43.46 284.13,39.81 284.36,39.29 284.58,38.52 284.81,38.70 285.04,37.94 285.27,38.71 285.50,37.20 285.73,34.89 285.95,31.27 286.18,30.25 286.41,29.27 286.64,29.78 286.87,30.97 287.10,31.56 287.32,31.55 287.55,32.12 287.78,32.42 288.01,32.31 288.24,32.39 288.47,31.92 288.69,32.11 288.92,31.31 289.15,32.65 289.38,32.75 289.61,32.04 289.84,33.02 290.06,33.70 290.29,33.44 290.52,31.69 290.75,31.71 290.98,31.03 291.21,31.71 291.43,29.85 291.66,28.53 291.89,25.88 292.12,30.19 292.35,32.83 292.58,35.29 292.80,36.11 293.03,34.64 293.26,25.73 293.49,-13.00 293.72,-13.00 293.95,16.96 294.17,37.59 294.40,42.96 294.63,41.85 294.86,40.47 295.09,39.53 295.32,39.52 295.54,37.48 295.77,36.93 296.00,36.02" fill="none" stroke="#2F855A" stroke-width="2.2" stroke-linecap="round" stroke-linejoin="round"/>
</svg>