<svg xmlns="http://www.w3.org/2000/svg" width="300" height="64" viewBox="0 0 300 64">

<polyline points="4.00,32.87 4.23,45.02 4.46,32.22 4.68,30.59 4.91,26.87 5.14,31.62 5.37,32.63 5.60,36.09 5.83,35.76 6.05,19.94 6.28,39.10 6.51,29.66 6.74,34.57 6.97,30.71 7.20,32.21 7.42,29.59 7.65,33.49 7.88,32.61 8.11,47.26 8.34,4.96 8.57,20.91 8.79,77.00 9.02,12.39 9.25,23.54 9.48,29.46 9.71,39.50 9.94,30.66 10.16,34.35 10.39,30.95 10.62,31.73 10.85,25.55 11.08,40.47 11.31,31.79 11.53,26.62 11.76,34.19 11.99,31.45 12.22,34.38 12.45,31.64 12.68,29.85 12.90,31.96 13.13,31.35 13.36,35.77 13.59,30.77 13.82,30.02 14.05,33.63 14.27,28.64 14.50,32.05 14.73,39.76 14.96,26.23 15.19,31.47 15.42,34.85 15.64,26.50 15.87,34.67 16.10,32.85 16.33,36.43 16.56,27.08 16.78,30.70 17.01,31.44 17.24,33.86 17.47,33.38 17.70,34.32 17.93,27.73 18.15,28.48 18.38,38.27 18.61,31.16 18.84,30.51 19.07,31.25 19.30,30.44 19.52,36.22 19.75,29.97 19.98,42.84 20.21,19.06 20.44,6.14 20.67,77.00 20.89,18.05 21.12,21.11 21.35,31.53 21.58,33.73 21.81,34.45 22.04,34.46 22.26,29.11 22.49,32.96 22.72,30.52 22.95,33.28 23.18,28.28 23.41,38.48 23.63,26.80 23.86,33.49 24.09,32.05 24.32,33.05 24.55,31.19 24.78,31.73 25.00,30.83 25.23,34.39 25.46,29.18 25.69,34.14 25.92,32.21 26.15,31.29 26.37,31.43 26.60,30.97 26.83,33.75 27.06,32.81 27.29,30.91 27.52,30.35 27.74,33.44 27.97,32.74 28.20,30.70 28.43,34.08 28.66,28.51 28.89,33.41 29.11,32.35 29.34,34.29 29.57,27.50 29.80,34.64 30.03,29.86 30.25,36.75 30.48,28.76 30.71,30.42 30.94,33.17 31.17,31.56 31.40,32.10 31.62,31.70 31.85,37.70 32.08,40.48 32.31,-3.16 32.54,43.10 32.77,65.52 32.99,9.90 33.22,26.16 33.45,34.71 33.68,34.26 33.91,29.96 34.14,36.19 34.36,31.11 34.59,32.13 34.82,27.64 35.05,33.35 35.28,35.12 35.51,32.92 35.73,26.41 35.96,32.97 36.19,35.36 36.42,34.13 36.65,26.36 36.88,31.28 37.10,35.32 37.33,33.25 37.56,27.85 37.79,36.76 38.02,29.16 38.25,28.70 38.47,38.04 38.70,27.76 38.93,34.14 39.16,33.66 39.39,28.56 39.62,31.55 39.84,34.85 40.07,26.52 40.30,40.41 40.53,30.00 40.76,26.62 40.99,34.17 41.21,32.18 41.44,32.38 41.67,33.84 41.90,31.93 42.13,31.08 42.35,27.16 42.58,35.19 42.81,35.47 43.04,26.88 43.27,34.27 43.50,35.51 43.72,44.62 43.95,-9.59 44.18,47.91 44.41,64.02 44.64,10.98 44.87,29.55 45.09,25.38 45.32,38.25 45.55,35.20 45.78,32.48 46.01,26.99 46.24,37.44 46.46,26.68 46.69,36.05 46.92,27.89 47.15,35.62 47.38,30.05 47.61,32.02 47.83,34.41 48.06,28.96 48.29,31.22 48.52,36.65 48.75,28.98 48.98,30.28 49.20,34.84 49.43,31.96 49.66,28.24 49.89,36.86 50.12,30.01 50.35,30.30 50.57,34.71 50.80,29.31 51.03,34.01 51.26,30.40 51.49,35.57 51.72,28.46 51.94,32.55 52.17,30.62 52.40,31.92 52.63,37.84 52.86,26.56 53.09,35.51 53.31,24.39 53.54,39.29 53.77,29.26 54.00,35.33 54.23,27.74 54.46,34.55 54.68,27.59 54.91,34.72 55.14,32.95 55.37,41.32 55.60,24.41 55.82,1.28 56.05,77.00 56.28,22.22 56.51,21.62 56.74,31.75 56.97,35.21 57.19,31.10 57.42,31.85 57.65,34.94 57.88,30.56 58.11,32.45 58.34,32.36 58.56,23.91 58.79,38.60 59.02,37.53 59.25,25.55 59.48,30.93 59.71,35.15 59.93,28.82 60.16,36.51 60.39,24.37 60.62,40.12 60.85,30.48 61.08,30.87 61.30,27.16 61.53,35.34 61.76,35.26 61.99,30.18 62.22,32.00 62.45,30.50 62.67,31.47 62.90,31.98 63.13,35.21 63.36,29.42 63.59,33.14 63.82,30.68 64.04,34.54 64.27,27.48 64.50,34.51 64.73,32.45 64.96,31.12 65.19,33.17 65.41,34.55 65.64,24.07 65.87,38.98 66.10,25.19 66.33,37.42 66.56,32.73 66.78,27.81 67.01,37.97 67.24,41.36 67.47,-4.24 67.70,47.22 67.92,64.06 68.15,0.65 68.38,41.32 68.61,26.34 68.84,34.30 69.07,32.14 69.29,30.91 69.52,37.31 69.75,30.77 69.98,27.82 70.21,33.77 70.44,30.42 70.66,35.71 70.89,25.98 71.12,39.50 71.35,27.93 71.58,33.23 71.81,28.43 72.03,36.52 72.26,29.06 72.49,34.57 72.72,27.69 72.95,37.00 73.18,28.43 73.40,33.71 73.63,33.70 73.86,24.83 74.09,39.07 74.32,30.31 74.55,33.17 74.77,26.79 75.00,37.05 75.23,30.17 75.46,32.72 75.69,29.81 75.92,33.63 76.14,34.31 76.37,26.66 76.60,36.52 76.83,30.29 77.06,30.09 77.29,36.90 77.51,26.96 77.74,34.13 77.97,30.38 78.20,34.87 78.43,32.84 78.66,28.48 78.88,26.89 79.11,41.14 79.34,31.86 79.57,43.30 79.80,-4.65 80.03,46.87 80.25,60.76 80.48,9.82 80.71,28.77 80.94,30.75 81.17,41.94 81.39,25.12 81.62,36.26 81.85,28.06 82.08,35.31 82.31,29.05 82.54,34.31 82.76,32.28 82.99,28.85 83.22,34.38 83.45,28.88 83.68,37.71 83.91,27.32 84.13,35.72 84.36,28.38 84.59,32.33 84.82,31.85 85.05,33.94 85.28,32.28 85.50,31.19 85.73,32.05 85.96,27.08 86.19,37.12 86.42,35.43 86.65,27.23 86.87,30.31 87.10,30.76 87.33,38.84 87.56,31.67 87.79,24.72 88.02,37.52 88.24,28.80 88.47,34.71 88.70,29.77 88.93,35.49 89.16,28.23 89.39,33.57 89.61,32.06 89.84,29.03 90.07,36.45 90.30,31.03 90.53,31.31 90.76,31.57 90.98,30.46 91.21,31.70 91.44,36.49 91.67,28.83 91.90,29.84 92.13,44.04 92.35,28.25 92.58,-2.99 92.81,73.15 93.04,33.78 93.27,11.14 93.49,39.29 93.72,28.08 93.95,38.94 94.18,25.16 94.41,37.72 94.64,30.83 94.86,29.98 95.09,33.54 95.32,32.17 95.55,27.21 95.78,38.32 96.01,29.12 96.23,32.82 96.46,30.97 96.69,34.19 96.92,30.30 97.15,29.08 97.38,34.35 97.60,36.68 97.83,25.97 98.06,32.78 98.29,35.05 98.52,26.63 98.75,37.71 98.97,27.19 99.20,38.72 99.43,24.24 99.66,37.00 99.89,26.31 100.12,38.41 100.34,29.61 100.57,32.98 100.80,31.22 101.03,28.32 101.26,36.83 101.49,29.31 101.71,34.51 101.94,30.30 102.17,32.38 102.40,31.53 102.63,29.85 102.86,36.65 103.08,29.66 103.31,32.59 103.54,30.21 103.77,32.28 104.00,30.97 104.23,33.21 104.45,38.29 104.68,36.68 104.91,3.06 105.14,39.30 105.37,64.09 105.60,12.57 105.82,25.88 106.05,33.14 106.28,35.26 106.51,31.37 106.74,34.44 106.96,30.99 107.19,30.81 107.42,33.01 107.65,28.57 107.88,35.05 108.11,32.16 108.33,32.62 108.56,29.40 108.79,34.02 109.02,30.66 109.25,31.28 109.48,35.02 109.70,29.68 109.93,32.62 110.16,31.47 110.39,32.12 110.62,32.38 110.85,32.62 111.07,28.37 111.30,37.37 111.53,28.17 111.76,34.51 111.99,28.60 112.22,32.74 112.44,37.32 112.67,24.78 112.90,36.87 113.13,27.76 113.36,34.45 113.59,33.15 113.81,30.81 114.04,31.35 114.27,31.99 114.50,32.13 114.73,34.02 114.96,29.28 115.18,29.67 115.41,37.83 115.64,30.58 115.87,31.97 116.10,29.27 116.33,29.20 116.55,38.56 116.78,28.09 117.01,34.08 117.24,38.96 117.47,32.74 117.70,-5.46 117.92,64.30 118.15,46.96 118.38,12.47 118.61,29.97 118.84,31.30 119.06,34.53 119.29,34.20 119.52,34.86 119.75,27.73 119.98,27.90 120.21,41.11 120.43,26.46 120.66,32.23 120.89,33.66 121.12,27.98 121.35,34.47 121.58,36.23 121.80,27.57 122.03,33.16 122.26,28.41 122.49,34.41 122.72,34.82 122.95,29.99 123.17,30.87 123.40,32.04 123.63,33.86 123.86,29.75 124.09,34.67 124.32,27.15 124.54,36.80 124.77,29.48 125.00,34.73 125.23,30.18 125.46,30.02 125.69,33.88 125.91,30.90 126.14,34.82 126.37,31.16 126.60,26.10 126.83,40.56 127.06,28.84 127.28,29.69 127.51,31.72 127.74,36.25 127.97,27.99 128.20,35.09 128.43,29.72 128.65,34.57 128.88,26.93 129.11,36.66 129.34,27.22 129.57,35.50 129.80,33.21 130.02,38.33 130.25,26.89 130.48,1.42 130.71,71.72 130.94,34.47 131.16,10.84 131.39,33.15 131.62,40.96 131.85,28.36 132.08,26.80 132.31,41.50 132.53,27.89 132.76,32.11 132.99,30.23 133.22,33.52 133.45,31.90 133.68,30.98 133.90,32.49 134.13,33.04 134.36,31.82 134.59,30.73 134.82,32.49 135.05,31.65 135.27,33.42 135.50,29.67 135.73,34.76 135.96,29.31 136.19,31.49 136.42,35.42 136.64,32.33 136.87,28.10 137.10,32.81 137.33,28.86 137.56,41.89 137.79,25.65 138.01,32.53 138.24,28.27 138.47,35.74 138.70,35.40 138.93,26.31 139.16,32.95 139.38,33.10 139.61,31.35 139.84,34.81 140.07,32.09 140.30,23.92 140.53,36.80 140.75,32.96 140.98,35.43 141.21,32.05 141.44,22.63 141.67,35.24 141.90,35.63 142.12,29.65 142.35,35.67 142.58,24.55 142.81,51.52 143.04,14.03 143.27,9.02 143.49,72.09 143.72,27.87 143.95,20.19 144.18,29.71 144.41,33.97 144.63,33.32 144.86,33.86 145.09,32.10 145.32,31.07 145.55,31.34 145.78,30.88 146.00,32.94 146.23,33.04 146.46,30.05 146.69,36.33 146.92,26.62 147.15,31.60 147.37,36.71 147.60,30.47 147.83,31.90 148.06,31.12 148.29,30.18 148.52,31.98 148.74,37.37 148.97,27.84 149.20,34.31 149.43,29.40 149.66,32.04 149.89,30.17 150.11,37.43 150.34,29.39 150.57,32.37 150.80,30.51 151.03,31.46 151.26,35.54 151.48,29.20 151.71,31.98 151.94,29.81 152.17,37.62 152.40,29.66 152.63,31.27 152.85,31.28 153.08,32.03 153.31,32.76 153.54,33.95 153.77,26.59 154.00,33.89 154.22,36.01 154.45,27.55 154.68,50.96 154.91,-0.97 155.14,27.91 155.37,75.50 155.59,11.08 155.82,25.76 156.05,32.09 156.28,32.30 156.51,35.27 156.73,34.78 156.96,28.07 157.19,34.66 157.42,27.24 157.65,34.36 157.88,33.19 158.10,29.83 158.33,35.46 158.56,27.70 158.79,35.94 159.02,30.92 159.25,27.33 159.47,34.42 159.70,37.15 159.93,30.38 160.16,26.59 160.39,35.01 160.62,29.63 160.84,35.45 161.07,33.89 161.30,29.24 161.53,28.49 161.76,37.01 161.99,28.75 162.21,32.50 162.44,35.18 162.67,28.78 162.90,34.39 163.13,28.56 163.36,34.20 163.58,29.66 163.81,35.63 164.04,30.76 164.27,32.44 164.50,29.54 164.73,31.36 164.95,34.14 165.18,36.62 165.41,24.08 165.64,35.77 165.87,30.32 166.10,31.03 166.32,36.62 166.55,27.32 166.78,32.46 167.01,43.61 167.24,24.38 167.47,1.08 167.69,75.99 167.92,25.75 168.15,17.73 168.38,33.75 168.61,34.74 168.84,30.58 169.06,34.83 169.29,33.79 169.52,25.26 169.75,35.58 169.98,34.47 170.20,28.59 170.43,32.18 170.66,31.33 170.89,33.54 171.12,32.71 171.35,31.07 171.57,32.00 171.80,31.40 172.03,32.26 172.26,31.34 172.49,32.83 172.72,32.14 172.94,33.32 173.17,28.13 173.40,34.63 173.63,31.73 173.86,32.71 174.09,29.26 174.31,34.64 174.54,29.84 174.77,35.99 175.00,26.52 175.23,35.58 175.46,30.03 175.68,34.30 175.91,29.24 176.14,37.34 176.37,22.41 176.60,40.47 176.83,26.11 177.05,37.92 177.28,28.69 177.51,34.43 177.74,25.92 177.97,36.62 178.20,29.79 178.42,36.22 178.65,25.35 178.88,35.80 179.11,37.96 179.34,36.00 179.57,-4.03 179.79,59.22 180.02,48.16 180.25,12.53 180.48,29.63 180.71,31.10 180.94,41.02 181.16,30.55 181.39,27.24 181.62,32.03 181.85,36.89 182.08,28.35 182.30,34.58 182.53,27.48 182.76,35.41 182.99,31.37 183.22,31.21 183.45,34.54 183.67,28.91 183.90,32.64 184.13,33.93 184.36,28.25 184.59,36.36 184.82,28.38 185.04,32.98 185.27,31.94 185.50,35.73 185.73,28.19 185.96,29.20 186.19,36.42 186.41,28.43 186.64,38.81 186.87,28.00 187.10,28.68 187.33,33.89 187.56,32.93 187.78,31.25 188.01,37.89 188.24,22.70 188.47,34.65 188.70,33.85 188.93,33.30 189.15,28.77 189.38,33.75 189.61,29.84 189.84,36.37 190.07,28.02 190.30,31.23 190.52,32.04 190.75,34.99 190.98,40.68 191.21,24.89 191.44,-0.25 191.67,77.00 191.89,23.99 192.12,20.61 192.35,29.60 192.58,38.35 192.81,29.72 193.04,33.17 193.26,34.01 193.49,28.70 193.72,32.34 193.95,33.96 194.18,31.27 194.41,29.31 194.63,34.75 194.86,30.52 195.09,34.77 195.32,26.46 195.55,38.56 195.77,29.65 196.00,28.76 196.23,35.08 196.46,30.82 196.69,31.26 196.92,35.01 197.14,32.59 197.37,25.35 197.60,36.08 197.83,32.41 198.06,32.67 198.29,30.87 198.51,33.14 198.74,26.06 198.97,40.66 199.20,26.32 199.43,36.00 199.66,25.96 199.88,38.95 200.11,25.01 200.34,37.08 200.57,31.94 200.80,29.93 201.03,33.49 201.25,28.28 201.48,36.35 201.71,29.29 201.94,29.32 202.17,39.86 202.40,35.46 202.62,27.52 202.85,-0.71 203.08,75.56 203.31,30.30 203.54,14.93 203.77,33.48 203.99,32.65 204.22,35.51 204.45,30.52 204.68,32.98 204.91,33.02 205.14,29.33 205.36,32.19 205.59,31.76 205.82,33.22 206.05,33.72 206.28,28.01 206.51,33.20 206.73,32.02 206.96,34.53 207.19,30.28 207.42,30.53 207.65,33.24 207.87,31.57 208.10,30.97 208.33,35.29 208.56,30.16 208.79,30.36 209.02,33.30 209.24,32.20 209.47,32.74 209.70,30.62 209.93,30.16 210.16,35.73 210.39,31.93 210.61,29.51 210.84,33.08 211.07,28.83 211.30,36.06 211.53,31.41 211.76,35.05 211.98,26.31 212.21,30.89 212.44,37.95 212.67,24.56 212.90,38.51 213.13,29.75 213.35,40.95 213.58,27.96 213.81,-2.45 214.04,72.91 214.27,34.67 214.50,14.26 214.72,31.74 214.95,33.72 215.18,35.27 215.41,31.75 215.64,33.64 215.87,23.57 216.09,41.57 216.32,29.02 216.55,29.71 216.78,37.56 217.01,20.51 217.24,40.37 217.46,32.73 217.69,34.61 217.92,22.43 218.15,38.78 218.38,28.26 218.61,36.12 218.83,28.77 219.06,32.02 219.29,35.38 219.52,29.51 219.75,29.44 219.97,35.31 220.20,32.58 220.43,29.37 220.66,34.00 220.89,30.58 221.12,33.68 221.34,26.80 221.57,40.52 221.80,26.69 222.03,32.54 222.26,32.07 222.49,29.83 222.71,34.70 222.94,32.51 223.17,32.61 223.40,29.56 223.63,33.89 223.86,26.32 224.08,38.41 224.31,28.85 224.54,33.43 224.77,31.04 225.00,44.62 225.23,17.23 225.45,7.58 225.68,76.08 225.91,25.60 226.14,18.03 226.37,29.80 226.60,34.16 226.82,38.25 227.05,29.08 227.28,34.60 227.51,29.69 227.74,25.09 227.97,41.32 228.19,34.00 228.42,21.05 228.65,39.70 228.88,31.68 229.11,28.28 229.34,35.67 229.56,27.96 229.79,38.22 230.02,27.62 230.25,28.81 230.48,40.84 230.71,24.49 230.93,31.68 231.16,39.50 231.39,26.80 231.62,30.01 231.85,31.37 232.08,39.91 232.30,24.88 232.53,35.77 232.76,29.51 232.99,30.51 233.22,35.09 233.44,32.61 233.67,29.99 233.90,30.91 234.13,35.20 234.36,28.65 234.59,30.82 234.81,40.91 235.04,24.97 235.27,28.38 235.50,40.47 235.73,23.31 235.96,37.26 236.18,33.46 236.41,26.14 236.64,49.40 236.87,11.59 237.10,18.18 237.33,66.02 237.55,25.61 237.78,26.03 238.01,22.94 238.24,37.68 238.47,36.13 238.70,28.94 238.92,34.04 239.15,33.26 239.38,24.79 239.61,38.21 239.84,32.03 240.07,31.18 240.29,26.59 240.52,35.25 240.75,36.35 240.98,30.95 241.21,29.91 241.44,29.06 241.66,32.05 241.89,37.79 242.12,29.89 242.35,32.02 242.58,26.07 242.81,40.60 243.03,26.44 243.26,34.79 243.49,28.90 243.72,34.93 243.95,34.58 244.18,22.66 244.40,38.68 244.63,33.53 244.86,28.35 245.09,33.88 245.32,30.09 245.54,31.13 245.77,34.75 246.00,33.25 246.23,29.34 246.46,30.84 246.69,31.72 246.91,36.97 247.14,31.75 247.37,23.18 247.60,39.62 247.83,25.19 248.06,42.24 248.28,27.54 248.51,42.37 248.74,6.12 248.97,28.86 249.20,74.74 249.43,8.54 249.65,24.95 249.88,33.55 250.11,37.09 250.34,27.73 250.57,39.58 250.80,26.39 251.02,32.96 251.25,27.73 251.48,41.91 251.71,25.40 251.94,29.57 252.17,34.11 252.39,35.81 252.62,26.81 252.85,38.02 253.08,27.55 253.31,31.16 253.54,30.64 253.76,35.32 253.99,35.79 254.22,28.29 254.45,26.16 254.68,38.38 254.91,32.03 255.13,30.02 255.36,33.49 255.59,28.98 255.82,34.93 256.05,30.96 256.28,35.33 256.50,25.71 256.73,33.10 256.96,34.67 257.19,33.73 257.42,27.91 257.65,35.46 257.87,26.87 258.10,37.04 258.33,28.75 258.56,32.04 258.79,35.64 259.01,28.80 259.24,27.55 259.47,49.71 259.70,21.13 259.93,2.48 260.16,77.00 260.38,21.94 260.61,21.87 260.84,26.44 261.07,44.05 261.30,27.85 261.53,33.18 261.75,30.68 261.98,34.01 262.21,24.13 262.44,40.67 262.67,34.86 262.90,25.10 263.12,29.72 263.35,33.43 263.58,34.54 263.81,36.50 264.04,28.67 264.27,28.01 264.49,29.32 264.72,41.03 264.95,26.74 265.18,33.88 265.41,31.96 265.64,33.69 265.86,24.96 266.09,34.62 266.32,39.13 266.55,24.87 266.78,33.40 267.01,35.52 267.23,23.87 267.46,39.07 267.69,29.67 267.92,32.72 268.15,32.39 268.38,28.55 268.60,34.61 268.83,34.09 269.06,28.50 269.29,33.22 269.52,30.46 269.75,35.29 269.97,27.21 270.20,34.78 270.43,33.01 270.66,42.28 270.89,14.97 271.11,14.19 271.34,73.81 271.57,21.35 271.80,21.54 272.03,27.40 272.26,39.25 272.48,33.59 272.71,31.37 272.94,31.28 273.17,31.87 273.40,27.57 273.63,40.17 273.85,29.89 274.08,26.76 274.31,34.16 274.54,32.15 274.77,32.95 275.00,36.73 275.22,27.02 275.45,29.20 275.68,31.89 275.91,36.73 276.14,30.07 276.37,37.70 276.59,19.76 276.82,40.13 277.05,28.84 277.28,35.93 277.51,31.96 277.74,23.92 277.96,39.90 278.19,28.98 278.42,34.99 278.65,27.55 278.88,33.44 279.11,35.73 279.33,26.82 279.56,32.50 279.79,34.72 280.02,32.69 280.25,27.94 280.48,35.05 280.70,28.79 280.93,33.93 281.16,34.84 281.39,27.07 281.62,33.65 281.85,46.33 282.07,2.53 282.30,38.16 282.53,58.83 282.76,13.34 282.99,32.20 283.22,28.74 283.44,36.74 283.67,31.60 283.90,35.48 284.13,25.11 284.36,35.56 284.58,30.81 284.81,32.30 285.04,34.02 285.27,32.79 285.50,26.26 285.73,33.00 285.95,34.74 286.18,37.44 286.41,21.94 286.64,34.88 286.87,31.92 287.10,37.71 287.32,24.89 287.55,35.04 287.78,28.31 288.01,36.76 288.24,33.11 288.47,28.09 288.69,30.54 288.92,35.48 289.15,29.93 289.38,35.12 289.61,29.24 289.84,32.48 290.06,30.84 290.29,31.76 290.52,38.50 290.75,23.02 290.98,36.89 291.21,28.57 291.43,37.09 291.66,28.22 291.89,36.07 292.12,23.79 292.35,36.49 292.58,32.91 292.80,30.44 293.03,46.07 293.26,18.35 293.49,5.23 293.72,71.29 293.95,32.25 294.17,18.78 294.40,29.66 294.63,29.83 294.86,40.79 295.09,20.62 295.32,43.42 295.54,36.03 295.77,30.69 296.00,19.81" fill="none" stroke="#2F855A" stroke-width="2.2" stroke-linecap="round" stroke-linejoin="round"/>
</svg>