<svg xmlns="http://www.w3.org/2000/svg" width="300" height="64" viewBox="0 0 300 64">

<polyline points="4.00,30.17 4.23,31.19 4.46,32.78 4.68,34.48 4.91,32.94 5.14,31.67 5.37,32.72 5.60,35.37 5.83,33.70 6.05,33.49 6.28,34.52 6.51,33.22 6.74,31.52 6.97,32.38 7.20,33.38 7.42,29.59 7.65,30.19 7.88,31.16 8.11,32.38 8.34,35.88 8.57,34.46 8.79,31.19 9.02,31.80 9.25,32.68 9.48,29.61 9.71,26.66 9.94,27.78 10.16,32.00 10.39,36.56 10.62,33.88 10.85,32.99 11.08,30.83 11.31,31.41 11.53,26.74 11.76,30.46 11.99,32.50 12.22,33.78 12.45,33.21 12.68,33.24 12.90,33.99 13.13,34.71 13.36,33.79 13.59,33.09 13.82,31.07 14.05,34.15 14.27,34.03 14.50,30.13 14.73,31.33 14.96,33.66 15.19,32.56 15.42,31.50 15.64,30.00 15.87,30.65 16.10,29.61 16.33,30.28 16.56,31.98 16.78,34.27 17.01,34.12 17.24,35.82 17.47,36.14 17.70,37.29 17.93,34.89 18.15,36.06 18.38,35.27 18.61,33.23 18.84,31.34 19.07,33.69 19.30,35.93 19.52,36.36 19.75,34.76 19.98,34.26 20.21,32.19 20.44,30.94 20.67,30.40 20.89,34.80 21.12,35.72 21.35,35.24 21.58,28.81 21.81,25.36 22.04,32.85 22.26,37.26 22.49,38.26 22.72,32.27 22.95,34.52 23.18,36.46 23.41,32.99 23.63,33.85 23.86,33.32 24.09,33.19 24.32,31.22 24.55,30.71 24.78,29.98 25.00,30.53 25.23,33.07 25.46,33.63 25.69,31.50 25.92,34.79 26.15,31.97 26.37,29.24 26.60,29.89 26.83,31.91 27.06,31.97 27.29,30.32 27.52,29.59 27.74,30.41 27.97,31.02 28.20,30.33 28.43,30.97 28.66,31.08 28.89,30.52 29.11,30.72 29.34,28.55 29.57,30.92 29.80,31.56 30.03,34.23 30.25,32.95 30.48,32.28 30.71,30.44 30.94,29.13 31.17,28.70 31.40,29.55 31.62,30.74 31.85,33.13 32.08,29.99 32.31,30.85 32.54,30.47 32.77,29.87 32.99,31.46 33.22,31.71 33.45,28.33 33.68,26.20 33.91,29.55 34.14,33.00 34.36,34.10 34.59,31.28 34.82,31.86 35.05,30.62 35.28,31.46 35.51,31.82 35.73,31.31 35.96,31.58 36.19,29.69 36.42,30.24 36.65,30.46 36.88,30.65 37.10,32.54 37.33,34.05 37.56,32.34 37.79,34.70 38.02,34.22 38.25,29.39 38.47,29.38 38.70,31.49 38.93,33.00 39.16,31.26 39.39,31.21 39.62,30.60 39.84,29.74 40.07,26.55 40.30,27.58 40.53,27.83 40.76,29.52 40.99,30.99 41.21,32.99 41.44,31.55 41.67,30.81 41.90,29.88 42.13,30.04 42.35,31.89 42.58,32.09 42.81,31.42 43.04,31.81 43.27,31.17 43.50,31.58 43.72,31.93 43.95,30.88 44.18,29.58 44.41,28.89 44.64,32.28 44.87,31.83 45.09,26.68 45.32,24.55 45.55,30.41 45.78,32.27 46.01,36.20 46.24,33.11 46.46,29.87 46.69,30.90 46.92,30.33 47.15,27.17 47.38,27.54 47.61,30.58 47.83,31.47 48.06,32.56 48.29,33.59 48.52,33.24 48.75,31.77 48.98,32.55 49.20,29.27 49.43,32.09 49.66,35.80 49.89,33.45 50.12,29.79 50.35,32.14 50.57,32.41 50.80,30.72 51.03,30.74 51.26,32.12 51.49,31.26 51.72,30.69 51.94,31.02 52.17,30.46 52.40,30.87 52.63,32.53 52.86,33.14 53.09,33.02 53.31,30.35 53.54,30.79 53.77,30.51 54.00,33.97 54.23,34.30 54.46,34.43 54.68,32.80 54.91,30.84 55.14,31.32 55.37,32.21 55.60,32.29 55.82,33.56 56.05,30.26 56.28,33.01 56.51,34.24 56.74,31.26 56.97,26.92 57.19,29.58 57.42,31.98 57.65,39.24 57.88,39.51 58.11,36.03 58.34,34.34 58.56,34.62 58.79,31.66 59.02,29.13 59.25,30.37 59.48,31.05 59.71,31.39 59.93,33.73 60.16,34.83 60.39,34.54 60.62,36.62 60.85,35.90 61.08,34.27 61.30,36.37 61.53,33.90 61.76,30.66 61.99,33.64 62.22,34.81 62.45,36.07 62.67,32.42 62.90,31.28 63.13,29.52 63.36,28.96 63.59,30.19 63.82,33.41 64.04,33.63 64.27,35.54 64.50,36.27 64.73,35.19 64.96,32.71 65.19,32.50 65.41,32.51 65.64,35.80 65.87,34.72 66.10,34.42 66.33,31.80 66.56,30.54 66.78,30.10 67.01,31.65 67.24,32.32 67.47,33.46 67.70,31.33 67.92,31.18 68.15,33.35 68.38,34.35 68.61,28.07 68.84,27.33 69.07,29.39 69.29,33.99 69.52,38.39 69.75,34.87 69.98,32.45 70.21,32.72 70.44,34.55 70.66,31.94 70.89,31.15 71.12,31.06 71.35,29.91 71.58,32.71 71.81,30.06 72.03,33.05 72.26,33.42 72.49,34.84 72.72,33.26 72.95,31.12 73.18,34.59 73.40,31.02 73.63,28.57 73.86,31.91 74.09,36.80 74.32,34.61 74.55,31.22 74.77,31.42 75.00,30.70 75.23,30.58 75.46,29.98 75.69,31.16 75.92,33.85 76.14,33.71 76.37,33.26 76.60,34.92 76.83,33.54 77.06,32.65 77.29,31.24 77.51,31.50 77.74,32.45 77.97,32.42 78.20,33.23 78.43,32.46 78.66,32.32 78.88,31.04 79.11,30.99 79.34,33.61 79.57,33.77 79.80,34.78 80.03,31.11 80.25,32.00 80.48,33.90 80.71,36.25 80.94,29.68 81.17,29.44 81.39,29.58 81.62,30.89 81.85,36.27 82.08,33.89 82.31,33.38 82.54,33.92 82.76,32.11 82.99,28.44 83.22,29.00 83.45,28.08 83.68,27.87 83.91,28.35 84.13,30.87 84.36,30.77 84.59,30.08 84.82,31.42 85.05,30.59 85.28,31.69 85.50,34.72 85.73,32.68 85.96,28.70 86.19,29.71 86.42,32.66 86.65,31.47 86.87,31.55 87.10,31.45 87.33,27.93 87.56,27.59 87.79,26.98 88.02,25.66 88.24,26.12 88.47,27.34 88.70,28.21 88.93,30.50 89.16,31.28 89.39,31.06 89.61,35.41 89.84,36.51 90.07,34.12 90.30,32.10 90.53,29.25 90.76,27.78 90.98,30.11 91.21,29.44 91.44,29.25 91.67,26.58 91.90,26.51 92.13,26.55 92.35,27.31 92.58,28.62 92.81,25.68 93.04,28.04 93.27,32.55 93.49,32.04 93.72,28.40 93.95,26.39 94.18,29.37 94.41,33.50 94.64,33.84 94.86,29.95 95.09,27.44 95.32,29.72 95.55,29.51 95.78,28.90 96.01,32.13 96.23,31.06 96.46,29.62 96.69,28.13 96.92,28.18 97.15,29.12 97.38,30.83 97.60,34.01 97.83,31.65 98.06,33.22 98.29,33.56 98.52,26.96 98.75,26.77 98.97,28.55 99.20,32.31 99.43,33.68 99.66,31.47 99.89,31.02 100.12,30.27 100.34,29.52 100.57,30.26 100.80,31.53 101.03,32.76 101.26,33.73 101.49,31.52 101.71,31.65 101.94,33.08 102.17,32.31 102.40,32.65 102.63,32.75 102.86,30.58 103.08,29.29 103.31,28.89 103.54,28.85 103.77,30.39 104.00,28.37 104.23,30.58 104.45,31.50 104.68,34.00 104.91,34.35 105.14,31.85 105.37,29.74 105.60,33.91 105.82,30.55 106.05,28.58 106.28,22.19 106.51,25.66 106.74,32.21 106.96,37.77 107.19,34.94 107.42,30.61 107.65,28.36 107.88,28.74 108.11,26.78 108.33,27.74 108.56,30.48 108.79,27.85 109.02,28.92 109.25,29.18 109.48,29.76 109.70,29.42 109.93,29.97 110.16,32.43 110.39,31.75 110.62,35.99 110.85,33.88 111.07,29.28 111.30,26.64 111.53,26.58 111.76,26.09 111.99,24.11 112.22,25.47 112.44,25.85 112.67,27.93 112.90,28.81 113.13,28.76 113.36,29.13 113.59,27.55 113.81,26.88 114.04,27.92 114.27,31.98 114.50,33.54 114.73,38.22 114.96,36.50 115.18,33.89 115.41,28.65 115.64,24.16 115.87,22.77 116.10,23.90 116.33,26.15 116.55,25.03 116.78,27.40 117.01,26.79 117.24,28.11 117.47,28.96 117.70,30.31 117.92,30.79 118.15,31.90 118.38,33.61 118.61,31.85 118.84,25.53 119.06,23.04 119.29,23.53 119.52,27.87 119.75,29.22 119.98,27.16 120.21,27.15 120.43,30.61 120.66,29.55 120.89,29.48 121.12,32.14 121.35,34.30 121.58,35.30 121.80,33.71 122.03,31.95 122.26,32.15 122.49,34.49 122.72,34.66 122.95,31.81 123.17,29.13 123.40,32.69 123.63,31.42 123.86,28.11 124.09,27.91 124.32,29.81 124.54,32.04 124.77,31.48 125.00,31.62 125.23,30.52 125.46,32.33 125.69,32.42 125.91,32.77 126.14,35.54 126.37,35.76 126.60,36.25 126.83,37.72 127.06,33.06 127.28,32.64 127.51,33.88 127.74,36.77 127.97,37.35 128.20,38.69 128.43,37.96 128.65,34.08 128.88,33.24 129.11,34.22 129.34,33.44 129.57,32.72 129.80,30.57 130.02,32.13 130.25,34.83 130.48,34.82 130.71,33.56 130.94,35.89 131.16,37.77 131.39,34.47 131.62,30.02 131.85,28.93 132.08,36.50 132.31,40.46 132.53,39.44 132.76,36.24 132.99,36.01 133.22,38.58 133.45,36.93 133.68,34.73 133.90,33.81 134.13,33.15 134.36,30.83 134.59,30.45 134.82,31.29 135.05,33.54 135.27,34.47 135.50,34.77 135.73,32.03 135.96,33.53 136.19,35.62 136.42,30.70 136.64,31.39 136.87,34.73 137.10,38.07 137.33,37.92 137.56,34.89 137.79,33.14 138.01,30.97 138.24,29.74 138.47,27.94 138.70,26.18 138.93,29.04 139.16,28.47 139.38,27.86 139.61,28.24 139.84,29.30 140.07,31.53 140.30,34.97 140.53,34.36 140.75,35.23 140.98,36.30 141.21,35.51 141.44,33.86 141.67,32.12 141.90,33.14 142.12,31.93 142.35,29.98 142.58,30.40 142.81,31.69 143.04,32.28 143.27,30.70 143.49,30.65 143.72,34.21 143.95,37.15 144.18,35.21 144.41,29.42 144.63,33.70 144.86,36.96 145.09,39.04 145.32,37.32 145.55,32.41 145.78,33.02 146.00,33.36 146.23,33.10 146.46,31.94 146.69,32.48 146.92,30.82 147.15,29.67 147.37,29.38 147.60,31.51 147.83,32.60 148.06,35.70 148.29,36.76 148.52,33.54 148.74,33.84 148.97,35.63 149.20,30.61 149.43,27.77 149.66,30.76 149.89,33.74 150.11,32.23 150.34,31.47 150.57,29.38 150.80,27.33 151.03,27.77 151.26,25.75 151.48,28.96 151.71,34.90 151.94,33.48 152.17,34.58 152.40,37.12 152.63,36.44 152.85,34.55 153.08,32.41 153.31,31.80 153.54,29.34 153.77,29.11 154.00,30.43 154.22,32.32 154.45,30.41 154.68,32.10 154.91,33.58 155.14,35.15 155.37,33.22 155.59,35.19 155.82,34.25 156.05,30.56 156.28,31.08 156.51,31.53 156.73,31.25 156.96,32.95 157.19,34.85 157.42,33.55 157.65,32.49 157.88,33.15 158.10,31.01 158.33,29.10 158.56,33.17 158.79,34.36 159.02,33.27 159.25,34.00 159.47,36.42 159.70,38.31 159.93,38.94 160.16,36.65 160.39,32.96 160.62,35.07 160.84,32.55 161.07,28.57 161.30,29.84 161.53,32.48 161.76,32.91 161.99,35.77 162.21,33.07 162.44,32.21 162.67,31.87 162.90,31.26 163.13,34.48 163.36,35.71 163.58,34.34 163.81,32.82 164.04,31.75 164.27,30.74 164.50,30.21 164.73,29.41 164.95,29.25 165.18,30.22 165.41,30.96 165.64,31.81 165.87,30.22 166.10,30.73 166.32,28.60 166.55,30.24 166.78,30.35 167.01,32.74 167.24,32.38 167.47,31.88 167.69,30.28 167.92,30.51 168.15,32.91 168.38,32.66 168.61,26.98 168.84,21.55 169.06,29.57 169.29,34.55 169.52,35.44 169.75,30.83 169.98,28.58 170.20,30.59 170.43,28.58 170.66,28.03 170.89,30.21 171.12,30.37 171.35,29.71 171.57,27.78 171.80,30.66 172.03,30.92 172.26,33.20 172.49,34.30 172.72,31.07 172.94,33.71 173.17,32.69 173.40,27.79 173.63,27.29 173.86,29.25 174.09,30.85 174.31,28.92 174.54,27.70 174.77,27.72 175.00,26.22 175.23,26.82 175.46,26.42 175.68,28.40 175.91,30.38 176.14,30.13 176.37,30.84 176.60,29.28 176.83,29.02 177.05,30.16 177.28,31.86 177.51,32.38 177.74,31.28 177.97,29.91 178.20,28.82 178.42,25.90 178.65,26.63 178.88,26.46 179.11,30.28 179.34,30.40 179.57,32.11 179.79,27.88 180.02,26.93 180.25,29.39 180.48,29.17 180.71,24.73 180.94,24.96 181.16,27.40 181.39,30.68 181.62,32.92 181.85,30.16 182.08,28.88 182.30,30.18 182.53,30.26 182.76,27.58 182.99,29.58 183.22,28.59 183.45,28.71 183.67,28.88 183.90,30.33 184.13,32.54 184.36,31.75 184.59,31.40 184.82,31.38 185.04,30.94 185.27,35.79 185.50,32.84 185.73,28.95 185.96,31.34 186.19,35.97 186.41,34.16 186.64,32.52 186.87,30.80 187.10,31.03 187.33,30.73 187.56,30.15 187.78,29.27 188.01,29.79 188.24,30.05 188.47,30.43 188.70,34.24 188.93,33.21 189.15,32.55 189.38,32.84 189.61,32.27 189.84,34.57 190.07,36.26 190.30,32.55 190.52,34.78 190.75,34.91 190.98,34.99 191.21,34.88 191.44,34.50 191.67,31.60 191.89,34.43 192.12,38.29 192.35,32.48 192.58,26.70 192.81,24.68 193.04,29.80 193.26,35.22 193.49,37.13 193.72,36.57 193.95,34.36 194.18,32.61 194.41,27.71 194.63,28.02 194.86,29.80 195.09,31.72 195.32,32.99 195.55,32.81 195.77,37.01 196.00,38.89 196.23,34.54 196.46,31.85 196.69,28.17 196.92,33.93 197.14,37.87 197.37,36.16 197.60,35.88 197.83,39.48 198.06,39.05 198.29,36.71 198.51,35.46 198.74,32.95 198.97,29.97 199.20,30.93 199.43,34.80 199.66,35.91 199.88,33.30 200.11,33.97 200.34,32.59 200.57,33.14 200.80,35.22 201.03,36.46 201.25,39.62 201.48,39.06 201.71,37.06 201.94,35.45 202.17,33.26 202.40,33.40 202.62,33.28 202.85,32.12 203.08,30.61 203.31,31.93 203.54,33.90 203.77,32.84 203.99,30.68 204.22,31.06 204.45,29.73 204.68,34.90 204.91,38.97 205.14,42.87 205.36,42.30 205.59,40.70 205.82,37.42 206.05,35.31 206.28,35.34 206.51,30.94 206.73,28.85 206.96,29.59 207.19,32.40 207.42,33.00 207.65,32.90 207.87,34.05 208.10,28.30 208.33,27.66 208.56,31.99 208.79,31.55 209.02,31.63 209.24,33.65 209.47,32.32 209.70,29.74 209.93,30.54 210.16,30.02 210.39,29.77 210.61,31.24 210.84,33.16 211.07,35.52 211.30,33.90 211.53,29.91 211.76,26.33 211.98,26.95 212.21,28.32 212.44,29.41 212.67,29.55 212.90,26.17 213.13,23.98 213.35,25.05 213.58,27.76 213.81,31.99 214.04,33.59 214.27,37.43 214.50,37.12 214.72,37.93 214.95,33.23 215.18,31.05 215.41,35.49 215.64,41.58 215.87,48.45 216.09,44.90 216.32,40.07 216.55,32.92 216.78,30.40 217.01,32.20 217.24,35.23 217.46,31.71 217.69,28.56 217.92,29.00 218.15,30.75 218.38,28.04 218.61,24.08 218.83,23.31 219.06,21.72 219.29,27.15 219.52,29.03 219.75,25.65 219.97,21.93 220.20,22.12 220.43,22.65 220.66,19.22 220.89,18.87 221.12,18.96 221.34,19.22 221.57,26.10 221.80,35.17 222.03,41.09 222.26,45.25 222.49,43.42 222.71,40.99 222.94,39.83 223.17,44.41 223.40,47.40 223.63,45.18 223.86,42.50 224.08,37.19 224.31,34.40 224.54,31.04 224.77,27.42 225.00,26.82 225.23,32.10 225.45,35.64 225.68,36.65 225.91,38.43 226.14,33.88 226.37,26.55 226.60,23.03 226.82,19.19 227.05,20.74 227.28,30.49 227.51,38.14 227.74,45.33 227.97,45.96 228.19,45.98 228.42,46.13 228.65,43.34 228.88,34.36 229.11,27.84 229.34,30.99 229.56,37.43 229.79,43.32 230.02,40.63 230.25,41.07 230.48,41.63 230.71,43.92 230.93,44.98 231.16,42.13 231.39,35.80 231.62,38.96 231.85,42.84 232.08,34.70 232.30,32.09 232.53,33.26 232.76,31.14 232.99,31.84 233.22,32.92 233.44,27.10 233.67,24.16 233.90,24.97 234.13,28.91 234.36,35.41 234.59,39.34 234.81,39.55 235.04,39.40 235.27,42.07 235.50,43.49 235.73,51.98 235.96,47.45 236.18,31.62 236.41,8.84 236.64,-6.52 236.87,-9.34 237.10,-0.60 237.33,3.95 237.55,13.08 237.78,21.95 238.01,21.47 238.24,15.40 238.47,22.33 238.70,35.01 238.92,49.53 239.15,55.39 239.38,58.28 239.61,63.68 239.84,70.43 240.07,71.56 240.29,68.95 240.52,70.46 240.75,69.22 240.98,66.39 241.21,60.98 241.44,61.23 241.66,65.89 241.89,61.49 242.12,60.08 242.35,52.68 242.58,53.84 242.81,52.77 243.03,49.01 243.26,47.16 243.49,41.47 243.72,39.77 243.95,36.87 244.18,34.35 244.40,35.59 244.63,32.69 244.86,30.30 245.09,33.38 245.32,33.90 245.54,32.95 245.77,28.61 246.00,24.02 246.23,17.07 246.46,15.90 246.69,20.60 246.91,21.14 247.14,21.05 247.37,21.80 247.60,22.63 247.83,22.19 248.06,20.20 248.28,20.31 248.51,19.82 248.74,22.87 248.97,23.76 249.20,21.68 249.43,34.48 249.65,34.08 249.88,31.69 250.11,30.50 250.34,32.65 250.57,33.46 250.80,36.49 251.02,34.38 251.25,30.97 251.48,27.80 251.71,25.24 251.94,23.89 252.17,28.75 252.39,31.58 252.62,30.61 252.85,31.83 253.08,37.48 253.31,35.54 253.54,30.49 253.76,32.61 253.99,30.55 254.22,28.59 254.45,31.42 254.68,28.52 254.91,24.07 255.13,26.71 255.36,33.96 255.59,38.54 255.82,42.23 256.05,42.40 256.28,42.37 256.50,42.42 256.73,42.89 256.96,45.48 257.19,45.51 257.42,44.03 257.65,44.25 257.87,41.42 258.10,38.76 258.33,35.31 258.56,40.52 258.79,45.64 259.01,45.18 259.24,34.25 259.47,34.90 259.70,41.20 259.93,51.21 260.16,56.08 260.38,57.55 260.61,56.85 260.84,54.29 261.07,43.39 261.30,42.49 261.53,42.38 261.75,50.00 261.98,58.80 262.21,62.97 262.44,71.93 262.67,75.96 262.90,77.00 263.12,77.00 263.35,77.00 263.58,75.20 263.81,71.22 264.04,66.56 264.27,58.07 264.49,50.07 264.72,44.88 264.95,42.33 265.18,43.17 265.41,51.53 265.64,59.02 265.86,58.49 266.09,59.00 266.32,64.00 266.55,64.74 266.78,58.40 267.01,48.20 267.23,42.05 267.46,45.09 267.69,48.32 267.92,42.71 268.15,39.99 268.38,43.26 268.60,50.39 268.83,52.44 269.06,55.54 269.29,59.12 269.52,63.85 269.75,66.17 269.97,67.46 270.20,69.75 270.43,68.16 270.66,64.27 270.89,59.26 271.11,52.42 271.34,43.89 271.57,34.22 271.80,25.22 272.03,13.82 272.26,8.21 272.48,15.78 272.71,24.20 272.94,35.97 273.17,35.29 273.40,36.20 273.63,38.18 273.85,40.57 274.08,43.68 274.31,47.87 274.54,49.86 274.77,48.31 275.00,49.64 275.22,47.61 275.45,47.36 275.68,43.13 275.91,40.26 276.14,31.98 276.37,21.74 276.59,21.06 276.82,18.34 277.05,14.07 277.28,13.80 277.51,17.51 277.74,24.67 277.96,28.84 278.19,33.00 278.42,41.10 278.65,41.33 278.88,40.17 279.11,43.33 279.33,44.90 279.56,45.31 279.79,47.31 280.02,48.93 280.25,42.12 280.48,38.13 280.70,36.90 280.93,36.35 281.16,35.90 281.39,34.76 281.62,35.16 281.85,36.65 282.07,35.41 282.30,36.38 282.53,35.67 282.76,39.80 282.99,42.76 283.22,39.11 283.44,28.00 283.67,28.51 283.90,30.80 284.13,34.37 284.36,31.52 284.58,25.96 284.81,22.11 285.04,20.36 285.27,16.88 285.50,18.16 285.73,21.10 285.95,21.41 286.18,19.84 286.41,19.27 286.64,20.04 286.87,18.08 287.10,20.38 287.32,17.78 287.55,21.55 287.78,24.37 288.01,21.84 288.24,23.12 288.47,24.01 288.69,20.28 288.92,20.71 289.15,22.07 289.38,29.00 289.61,28.57 289.84,19.60 290.06,10.66 290.29,18.58 290.52,29.01 290.75,39.59 290.98,44.16 291.21,39.21 291.43,36.84 291.66,35.22 291.89,34.27 292.12,31.86 292.35,30.73 292.58,33.29 292.80,36.85 293.03,36.29 293.26,35.87 293.49,31.36 293.72,28.93 293.95,31.78 294.17,34.98 294.40,34.22 294.63,29.18 294.86,27.53 295.09,27.93 295.32,29.30 295.54,25.38 295.77,22.33 296.00,27.38" fill="none" stroke="#2F855A" stroke-width="2.2" stroke-linecap="round" stroke-linejoin="round"/>
</svg>