<svg xmlns="http://www.w3.org/2000/svg" width="300" height="64" viewBox="0 0 300 64">

<polyline points="4.00,33.25 4.11,33.21 4.22,32.46 4.34,31.17 4.45,29.78 4.56,28.17 4.67,26.65 4.79,26.03 4.90,25.87 5.01,25.10 5.12,24.16 5.24,24.33 5.35,26.35 5.46,29.94 5.57,33.02 5.69,33.56 5.80,32.32 5.91,30.96 6.02,29.51 6.13,28.36 6.25,28.39 6.36,28.64 6.47,27.82 6.58,26.33 6.70,24.73 6.81,23.59 6.92,23.70 7.03,22.74 7.15,16.69 7.26,5.80 7.37,-4.49 7.48,-3.14 7.60,19.47 7.71,48.51 7.82,53.05 7.93,33.61 8.04,19.79 8.16,19.61 8.27,20.22 8.38,20.02 8.49,22.35 8.61,23.59 8.72,22.83 8.83,23.17 8.94,25.25 9.06,27.63 9.17,28.46 9.28,27.58 9.39,27.16 9.51,27.72 9.62,28.33 9.73,29.29 9.84,30.19 9.95,30.48 10.07,31.39 10.18,32.61 10.29,32.81 10.40,34.06 10.52,37.25 10.63,38.69 10.74,37.32 10.85,36.47 10.97,37.65 11.08,40.59 11.19,45.17 11.30,48.74 11.42,48.56 11.53,46.77 11.64,46.46 11.75,46.75 11.86,46.07 11.98,44.86 12.09,43.41 12.20,41.50 12.31,39.57 12.43,38.42 12.54,38.40 12.65,38.55 12.76,37.43 12.88,35.79 12.99,35.30 13.10,35.17 13.21,34.71 13.33,35.48 13.44,36.85 13.55,36.22 13.66,34.40 13.77,33.57 13.89,32.94 14.00,31.80 14.11,31.03 14.22,30.15 14.34,28.71 14.45,27.91 14.56,27.73 14.67,27.23 14.79,26.94 14.90,27.30 15.01,27.64 15.12,27.54 15.24,26.80 15.35,25.62 15.46,25.38 15.57,26.42 15.68,27.16 15.80,26.72 15.91,25.64 16.02,24.93 16.13,25.43 16.25,25.39 16.36,21.01 16.47,11.91 16.58,2.14 16.70,1.01 16.81,20.42 16.92,51.89 17.03,63.29 17.15,46.28 17.26,30.77 17.37,32.41 17.48,36.36 17.59,35.29 17.71,35.39 17.82,36.32 17.93,35.22 18.04,34.57 18.16,35.96 18.27,38.31 18.38,40.96 18.49,42.45 18.61,41.40 18.72,39.02 18.83,36.87 18.94,35.40 19.06,35.03 19.17,35.02 19.28,33.80 19.39,31.67 19.50,29.70 19.62,28.27 19.73,28.47 19.84,30.38 19.95,31.70 20.07,31.63 20.18,31.55 20.29,32.31 20.40,34.84 20.52,39.15 20.63,42.23 20.74,42.44 20.85,41.62 20.96,40.81 21.08,40.56 21.19,42.35 21.30,44.38 21.41,43.24 21.53,40.08 21.64,38.09 21.75,37.36 21.86,36.84 21.98,36.23 22.09,35.07 22.20,33.30 22.31,31.63 22.43,30.56 22.54,30.28 22.65,30.51 22.76,30.20 22.87,28.79 22.99,27.19 23.10,26.29 23.21,26.04 23.32,26.72 23.44,28.33 23.55,28.76 23.66,26.85 23.77,25.12 23.89,25.85 24.00,28.46 24.11,31.33 24.22,32.53 24.34,31.55 24.45,30.55 24.56,30.34 24.67,29.67 24.78,29.78 24.90,32.04 25.01,33.68 25.12,32.62 25.23,31.07 25.35,30.70 25.46,30.69 25.57,29.39 25.68,24.49 25.80,15.62 25.91,6.30 26.02,5.07 26.13,23.53 26.25,55.78 26.36,70.62 26.47,55.45 26.58,37.92 26.69,36.25 26.81,37.38 26.92,34.89 27.03,35.96 27.14,38.86 27.26,38.39 27.37,36.78 27.48,36.57 27.59,37.63 27.71,39.30 27.82,39.69 27.93,38.01 28.04,35.93 28.16,34.24 28.27,32.57 28.38,31.26 28.49,30.46 28.60,29.73 28.72,28.61 28.83,26.83 28.94,25.58 29.05,26.75 29.17,29.38 29.28,30.71 29.39,30.48 29.50,30.32 29.62,30.88 29.73,32.14 29.84,33.94 29.95,35.21 30.07,35.28 30.18,34.85 30.29,34.09 30.40,32.73 30.51,32.24 30.63,33.76 30.74,34.97 30.85,33.62 30.96,31.32 31.08,30.49 31.19,30.96 31.30,31.27 31.41,30.69 31.53,29.31 31.64,27.43 31.75,26.22 31.86,27.49 31.98,30.28 32.09,31.36 32.20,31.39 32.31,33.12 32.42,34.84 32.54,34.26 32.65,33.45 32.76,33.46 32.87,32.17 32.99,29.45 33.10,27.48 33.21,27.29 33.32,28.09 33.44,28.49 33.55,27.85 33.66,26.90 33.77,26.55 33.89,27.15 34.00,29.00 34.11,31.99 34.22,34.47 34.33,34.74 34.45,33.84 34.56,34.20 34.67,35.64 34.78,36.42 34.90,35.69 35.01,31.73 35.12,23.27 35.23,13.42 35.35,9.32 35.46,21.18 35.57,50.89 35.68,74.86 35.80,68.50 35.91,46.70 36.02,37.89 36.13,39.43 36.24,37.48 36.36,34.68 36.47,34.97 36.58,34.57 36.69,33.00 36.81,33.13 36.92,34.95 37.03,36.08 37.14,35.09 37.26,33.06 37.37,31.64 37.48,30.52 37.59,29.16 37.71,28.28 37.82,28.31 37.93,28.57 38.04,27.99 38.15,26.49 38.27,25.40 38.38,25.19 38.49,24.79 38.60,24.42 38.72,25.15 38.83,26.34 38.94,27.91 39.05,31.32 39.17,35.32 39.28,36.78 39.39,36.31 39.50,37.12 39.62,39.97 39.73,42.49 39.84,42.61 39.95,41.18 40.06,39.91 40.18,38.48 40.29,36.56 40.40,35.23 40.51,34.68 40.63,34.08 40.74,33.42 40.85,32.48 40.96,30.75 41.08,29.10 41.19,28.65 41.30,29.20 41.41,30.53 41.53,32.22 41.64,32.64 41.75,31.68 41.86,32.05 41.97,34.35 42.09,35.37 42.20,33.79 42.31,31.56 42.42,29.52 42.54,27.86 42.65,27.84 42.76,28.86 42.87,28.66 42.99,27.31 43.10,26.58 43.21,27.33 43.32,29.37 43.44,31.26 43.55,31.44 43.66,30.35 43.77,29.25 43.88,29.01 44.00,30.91 44.11,34.56 44.22,37.58 44.33,38.51 44.45,35.63 44.56,27.76 44.67,19.28 44.78,17.36 44.90,28.60 45.01,54.43 45.12,76.50 45.23,71.30 45.35,49.61 45.46,39.65 45.57,40.68 45.68,37.92 45.79,33.66 45.91,32.94 46.02,32.24 46.13,31.04 46.24,31.16 46.36,30.67 46.47,28.73 46.58,26.96 46.69,25.89 46.81,25.96 46.92,28.00 47.03,30.07 47.14,29.32 47.26,26.55 47.37,24.40 47.48,23.64 47.59,24.02 47.70,24.94 47.82,24.99 47.93,23.94 48.04,23.28 48.15,23.82 48.27,25.19 48.38,26.73 48.49,27.91 48.60,29.59 48.72,32.54 48.83,34.82 48.94,34.91 49.05,34.52 49.17,34.51 49.28,33.80 49.39,33.07 49.50,33.01 49.61,32.87 49.73,33.49 49.84,35.28 49.95,35.54 50.06,33.86 50.18,32.87 50.29,32.46 50.40,31.26 50.51,30.23 50.63,29.84 50.74,29.31 50.85,28.76 50.96,28.14 51.08,27.19 51.19,26.71 51.30,26.70 51.41,26.28 51.52,25.79 51.64,25.49 51.75,24.81 51.86,24.73 51.97,26.88 52.09,30.60 52.20,34.08 52.31,36.30 52.42,37.06 52.54,37.68 52.65,39.84 52.76,42.63 52.87,43.78 52.98,43.52 53.10,43.61 53.21,44.29 53.32,44.84 53.43,44.90 53.55,44.18 53.66,42.88 53.77,41.35 53.88,38.12 54.00,31.27 54.11,21.97 54.22,15.83 54.33,23.10 54.45,48.30 54.56,72.76 54.67,72.19 54.78,54.46 54.89,44.28 55.01,43.04 55.12,39.82 55.23,35.73 55.34,34.38 55.46,33.94 55.57,33.37 55.68,32.49 55.79,31.46 55.91,31.53 56.02,31.55 56.13,29.91 56.24,28.37 56.36,27.98 56.47,26.82 56.58,24.23 56.69,21.57 56.80,20.00 56.92,19.77 57.03,19.60 57.14,18.34 57.25,17.21 57.37,17.05 57.48,17.34 57.59,19.44 57.70,23.86 57.82,26.95 57.93,26.94 58.04,26.74 58.15,28.02 58.27,29.58 58.38,30.63 58.49,30.90 58.60,30.17 58.71,29.17 58.83,28.66 58.94,28.64 59.05,28.73 59.16,28.22 59.28,26.82 59.39,25.86 59.50,26.77 59.61,28.58 59.73,29.43 59.84,29.36 59.95,28.99 60.06,28.27 60.18,27.39 60.29,26.87 60.40,28.03 60.51,31.94 60.62,35.53 60.74,34.94 60.85,32.35 60.96,31.69 61.07,32.38 61.19,32.95 61.30,33.45 61.41,33.61 61.52,33.31 61.64,33.15 61.75,34.33 61.86,37.82 61.97,41.59 62.09,42.81 62.20,42.76 62.31,43.45 62.42,43.91 62.53,44.34 62.65,46.01 62.76,47.20 62.87,46.50 62.98,45.38 63.10,43.19 63.21,36.35 63.32,25.06 63.43,18.69 63.55,30.83 63.66,57.96 63.77,72.76 63.88,60.93 64.00,43.04 64.11,37.32 64.22,36.16 64.33,32.33 64.44,30.02 64.56,29.58 64.67,28.10 64.78,26.84 64.89,26.82 65.01,26.83 65.12,26.42 65.23,25.27 65.34,23.50 65.46,23.45 65.57,25.90 65.68,27.32 65.79,25.22 65.91,21.91 66.02,19.96 66.13,19.20 66.24,18.92 66.35,18.76 66.47,18.28 66.58,18.14 66.69,19.74 66.80,22.85 66.92,25.75 67.03,27.61 67.14,29.00 67.25,30.14 67.37,30.36 67.48,30.26 67.59,31.83 67.70,34.58 67.82,35.49 67.93,33.93 68.04,31.84 68.15,30.48 68.26,31.49 68.38,35.60 68.49,38.83 68.60,37.51 68.71,34.51 68.83,33.18 68.94,32.43 69.05,31.79 69.16,33.07 69.28,35.77 69.39,36.75 69.50,35.20 69.61,33.86 69.73,34.36 69.84,34.60 69.95,32.87 70.06,30.51 70.17,29.94 70.29,32.45 70.40,37.20 70.51,41.38 70.62,42.76 70.74,41.67 70.85,39.95 70.96,39.28 71.07,40.23 71.19,41.82 71.30,42.83 71.41,43.16 71.52,43.11 71.64,42.84 71.75,42.43 71.86,40.51 71.97,34.20 72.08,22.25 72.20,11.63 72.31,18.19 72.42,45.83 72.53,69.02 72.65,64.12 72.76,45.47 72.87,37.43 72.98,37.06 73.10,33.53 73.21,30.59 73.32,32.31 73.43,34.21 73.55,33.45 73.66,32.01 73.77,31.28 73.88,31.00 73.99,31.08 74.11,31.13 74.22,30.20 74.33,28.54 74.44,27.11 74.56,25.54 74.67,23.51 74.78,21.93 74.89,20.87 75.01,19.68 75.12,18.82 75.23,18.56 75.34,18.45 75.46,18.91 75.57,20.33 75.68,21.89 75.79,23.18 75.90,24.33 76.02,25.31 76.13,27.08 76.24,30.41 76.35,33.32 76.47,34.38 76.58,35.69 76.69,38.01 76.80,39.40 76.92,40.20 77.03,41.47 77.14,41.33 77.25,39.04 77.37,37.04 77.48,36.62 77.59,37.15 77.70,37.86 77.81,37.76 77.93,36.43 78.04,34.69 78.15,33.52 78.26,33.85 78.38,35.56 78.49,36.33 78.60,35.08 78.71,33.69 78.83,32.77 78.94,31.42 79.05,31.04 79.16,32.29 79.28,32.37 79.39,30.24 79.50,28.61 79.61,29.19 79.72,30.81 79.84,31.76 79.95,31.40 80.06,30.22 80.17,28.89 80.29,28.35 80.40,29.37 80.51,29.68 80.62,25.34 80.74,16.77 80.85,11.20 80.96,19.89 81.07,45.36 81.19,67.78 81.30,65.31 81.41,47.52 81.52,38.16 81.63,38.04 81.75,36.17 81.86,34.22 81.97,36.53 82.08,38.39 82.20,36.41 82.31,33.72 82.42,32.52 82.53,31.98 82.65,31.58 82.76,30.90 82.87,29.42 82.98,27.73 83.10,26.26 83.21,25.04 83.32,25.51 83.43,27.64 83.54,27.92 83.66,25.14 83.77,23.00 83.88,24.23 83.99,27.59 84.11,30.32 84.22,30.76 84.33,30.21 84.44,30.90 84.56,32.36 84.67,33.62 84.78,35.36 84.89,36.75 85.01,36.34 85.12,35.54 85.23,35.48 85.34,35.28 85.45,36.04 85.57,38.39 85.68,38.82 85.79,36.38 85.90,35.02 86.02,35.50 86.13,35.71 86.24,36.25 86.35,37.23 86.47,36.54 86.58,34.48 86.69,32.66 86.80,31.06 86.91,29.89 87.03,29.86 87.14,30.43 87.25,30.67 87.36,30.26 87.48,29.40 87.59,28.85 87.70,28.78 87.81,28.72 87.93,28.74 88.04,28.62 88.15,27.53 88.26,26.28 88.38,26.82 88.49,28.81 88.60,30.10 88.71,29.52 88.82,26.16 88.94,19.14 89.05,10.10 89.16,5.55 89.27,16.13 89.39,42.38 89.50,61.89 89.61,55.80 89.72,39.17 89.84,33.67 89.95,34.98 90.06,33.60 90.17,32.75 90.29,33.61 90.40,32.94 90.51,32.44 90.62,33.43 90.73,33.26 90.85,31.44 90.96,29.85 91.07,29.45 91.18,30.88 91.30,33.77 91.41,36.04 91.52,36.56 91.63,35.44 91.75,33.08 91.86,31.26 91.97,31.57 92.08,32.51 92.20,31.85 92.31,29.94 92.42,28.52 92.53,29.37 92.64,33.21 92.76,37.52 92.87,38.90 92.98,38.03 93.09,37.71 93.21,38.52 93.32,39.61 93.43,40.15 93.54,39.54 93.66,38.27 93.77,37.07 93.88,36.26 93.99,37.06 94.11,39.54 94.22,40.45 94.33,38.08 94.44,35.05 94.55,33.48 94.67,32.82 94.78,32.31 94.89,31.43 95.00,29.89 95.12,28.58 95.23,28.32 95.34,28.53 95.45,28.73 95.57,29.59 95.68,31.04 95.79,31.59 95.90,30.83 96.02,30.11 96.13,30.21 96.24,30.53 96.35,30.30 96.46,29.72 96.58,29.26 96.69,28.72 96.80,28.49 96.91,28.65 97.03,25.69 97.14,16.23 97.25,5.21 97.36,5.85 97.48,26.43 97.59,52.96 97.70,58.54 97.81,41.48 97.93,27.01 98.04,25.25 98.15,24.56 98.26,21.44 98.37,21.55 98.49,23.74 98.60,24.26 98.71,24.06 98.82,25.18 98.94,27.69 99.05,30.33 99.16,32.19 99.27,33.83 99.39,35.28 99.50,35.38 99.61,34.73 99.72,35.49 99.84,37.67 99.95,38.86 100.06,37.90 100.17,36.10 100.28,34.71 100.40,33.87 100.51,33.84 100.62,34.85 100.73,36.20 100.85,37.10 100.96,37.47 101.07,38.23 101.18,40.58 101.30,43.87 101.41,45.75 101.52,45.71 101.63,44.76 101.75,43.32 101.86,42.96 101.97,45.15 102.08,46.96 102.19,45.15 102.31,41.83 102.42,39.62 102.53,37.86 102.64,36.90 102.76,38.05 102.87,39.25 102.98,37.93 103.09,35.29 103.21,33.82 103.32,34.05 103.43,34.93 103.54,34.91 103.66,33.65 103.77,32.33 103.88,31.55 103.99,31.37 104.10,32.05 104.22,32.64 104.33,31.84 104.44,30.18 104.55,28.79 104.67,28.47 104.78,30.14 104.89,32.32 105.00,30.33 105.12,22.20 105.23,10.99 105.34,2.31 105.45,6.73 105.57,30.74 105.68,55.59 105.79,54.35 105.90,34.54 106.01,23.42 106.13,23.83 106.24,24.31 106.35,25.58 106.46,29.11 106.58,29.71 106.69,27.80 106.80,28.16 106.91,30.53 107.03,31.87 107.14,30.95 107.25,28.62 107.36,26.70 107.48,25.83 107.59,24.96 107.70,23.48 107.81,22.07 107.92,21.53 108.04,21.70 108.15,21.67 108.26,21.44 108.37,21.63 108.49,22.10 108.60,22.97 108.71,25.09 108.82,28.02 108.94,31.03 109.05,34.54 109.16,37.77 109.27,39.45 109.39,40.86 109.50,42.63 109.61,43.30 109.72,44.16 109.83,47.51 109.95,51.20 110.06,52.40 110.17,51.72 110.28,50.20 110.40,48.10 110.51,46.29 110.62,44.99 110.73,43.61 110.85,41.94 110.96,39.79 111.07,37.53 111.18,36.30 111.30,36.20 111.41,36.32 111.52,36.00 111.63,34.95 111.74,33.62 111.86,33.13 111.97,33.52 112.08,33.73 112.19,33.38 112.31,32.49 112.42,30.93 112.53,29.97 112.64,31.32 112.76,33.87 112.87,34.78 112.98,32.23 113.09,25.46 113.21,15.40 113.32,6.13 113.43,6.92 113.54,27.31 113.65,56.50 113.77,64.65 113.88,46.57 113.99,30.82 114.10,30.56 114.22,31.54 114.33,27.84 114.44,25.85 114.55,25.50 114.67,24.68 114.78,25.93 114.89,28.59 115.00,28.60 115.12,26.14 115.23,24.03 115.34,22.72 115.45,21.89 115.56,21.69 115.68,21.08 115.79,19.29 115.90,17.14 116.01,15.37 116.13,14.53 116.24,15.03 116.35,15.86 116.46,15.75 116.58,15.25 116.69,15.57 116.80,17.08 116.91,19.64 117.03,23.04 117.14,27.35 117.25,32.01 117.36,34.91 117.47,35.97 117.59,38.89 117.70,44.54 117.81,48.33 117.92,48.08 118.04,47.11 118.15,47.86 118.26,49.07 118.37,49.18 118.49,47.97 118.60,46.00 118.71,44.21 118.82,43.13 118.93,42.32 119.05,41.38 119.16,40.50 119.27,39.56 119.38,38.56 119.50,38.19 119.61,38.53 119.72,38.93 119.83,39.18 119.95,38.90 120.06,37.81 120.17,36.69 120.28,35.94 120.40,35.63 120.51,36.78 120.62,38.54 120.73,38.45 120.84,38.23 120.96,40.69 121.07,41.76 121.18,35.93 121.29,24.94 121.41,16.40 121.52,21.92 121.63,45.60 121.74,66.39 121.86,60.76 121.97,40.94 122.08,31.88 122.19,31.71 122.31,29.24 122.42,26.91 122.53,27.62 122.64,28.62 122.75,29.32 122.87,29.69 122.98,28.64 123.09,26.84 123.20,25.18 123.32,23.69 123.43,22.76 123.54,22.19 123.65,21.17 123.77,19.51 123.88,17.58 123.99,16.02 124.10,15.47 124.22,15.45 124.33,15.49 124.44,16.44 124.55,18.36 124.66,19.77 124.78,20.80 124.89,22.96 125.00,25.77 125.11,27.48 125.23,27.91 125.34,28.24 125.45,30.14 125.56,33.89 125.68,36.75 125.79,36.92 125.90,36.39 126.01,36.46 126.13,36.76 126.24,38.39 126.35,40.67 126.46,40.40 126.57,38.46 126.69,38.14 126.80,38.99 126.91,39.83 127.02,41.04 127.14,41.23 127.25,39.47 127.36,37.59 127.47,37.23 127.59,39.19 127.70,43.17 127.81,45.51 127.92,44.30 128.04,43.47 128.15,44.83 128.26,45.33 128.37,45.27 128.48,47.10 128.60,48.37 128.71,46.45 128.82,43.65 128.93,42.28 129.05,41.96 129.16,41.45 129.27,38.06 129.38,29.45 129.50,17.19 129.61,8.54 129.72,16.53 129.83,43.34 129.95,63.54 130.06,55.15 130.17,35.53 130.28,29.01 130.39,30.28 130.51,29.07 130.62,28.85 130.73,29.64 130.84,27.49 130.96,25.16 131.07,25.01 131.18,24.75 131.29,23.77 131.41,22.80 131.52,21.42 131.63,20.57 131.74,21.34 131.86,21.94 131.97,20.92 132.08,19.37 132.19,17.97 132.30,16.43 132.42,15.28 132.53,15.02 132.64,15.38 132.75,16.13 132.87,17.19 132.98,18.53 133.09,19.86 133.20,21.18 133.32,23.83 133.43,28.03 133.54,30.99 133.65,31.55 133.77,31.88 133.88,32.37 133.99,32.39 134.10,33.40 134.21,35.09 134.33,34.87 134.44,33.56 134.55,33.72 134.66,34.53 134.78,34.40 134.89,33.87 135.00,33.44 135.11,32.97 135.23,33.19 135.34,34.91 135.45,38.18 135.56,42.07 135.68,44.77 135.79,46.08 135.90,48.12 136.01,50.56 136.12,50.82 136.24,49.82 136.35,49.85 136.46,49.58 136.57,47.62 136.69,45.39 136.80,43.91 136.91,42.97 137.02,42.44 137.14,41.82 137.25,40.78 137.36,39.08 137.47,34.92 137.59,26.91 137.70,16.81 137.81,10.27 137.92,18.26 138.03,43.51 138.15,63.16 138.26,56.25 138.37,39.29 138.48,35.00 138.60,35.79 138.71,31.15 138.82,28.22 138.93,30.25 139.05,31.48 139.16,30.76 139.27,30.01 139.38,28.66 139.50,26.31 139.61,24.05 139.72,23.04 139.83,23.18 139.94,22.69 140.06,20.67 140.17,18.34 140.28,16.44 140.39,14.99 140.51,14.83 140.62,15.79 140.73,16.24 140.84,15.59 140.96,14.71 141.07,15.12 141.18,18.26 141.29,22.99 141.41,25.98 141.52,26.37 141.63,26.34 141.74,27.39 141.85,29.79 141.97,33.16 142.08,35.47 142.19,34.92 142.30,33.00 142.42,32.68 142.53,34.43 142.64,36.10 142.75,36.42 142.87,36.49 142.98,36.82 143.09,36.68 143.20,37.65 143.32,41.87 143.43,46.73 143.54,48.00 143.65,46.49 143.76,45.79 143.88,46.73 143.99,47.88 144.10,48.32 144.21,47.90 144.33,46.95 144.44,46.22 144.55,45.64 144.66,44.55 144.78,43.41 144.89,42.75 145.00,41.80 145.11,40.41 145.23,39.34 145.34,38.18 145.45,36.88 145.56,36.15 145.67,34.04 145.79,27.65 145.90,17.57 146.01,8.63 146.12,12.45 146.24,37.86 146.35,66.54 146.46,68.08 146.57,47.66 146.69,34.87 146.80,33.99 146.91,31.72 147.02,28.49 147.14,28.69 147.25,28.46 147.36,26.10 147.47,24.27 147.58,23.49 147.70,22.91 147.81,22.37 147.92,21.50 148.03,20.03 148.15,18.20 148.26,16.48 148.37,15.72 148.48,16.16 148.60,16.50 148.71,15.50 148.82,13.68 148.93,12.54 149.05,13.59 149.16,16.90 149.27,19.99 149.38,20.91 149.49,20.78 149.61,21.64 149.72,25.00 149.83,30.84 149.94,35.60 150.06,36.33 150.17,35.14 150.28,34.33 150.39,33.75 150.51,35.26 150.62,40.08 150.73,43.91 150.84,43.45 150.95,41.81 151.07,42.45 151.18,44.81 151.29,46.80 151.40,46.63 151.52,44.18 151.63,41.84 151.74,41.38 151.85,42.20 151.97,43.34 152.08,44.26 152.19,44.15 152.30,42.89 152.42,41.70 152.53,41.75 152.64,42.65 152.75,43.06 152.86,42.43 152.98,41.16 153.09,39.61 153.20,38.71 153.31,39.39 153.43,40.45 153.54,40.06 153.65,38.74 153.76,37.81 153.88,36.96 153.99,34.89 154.10,30.28 154.21,22.10 154.33,13.19 154.44,15.87 154.55,39.00 154.66,63.71 154.77,62.09 154.89,41.98 155.00,31.01 155.11,30.62 155.22,28.14 155.34,25.11 155.45,25.40 155.56,25.21 155.67,23.57 155.79,22.62 155.90,21.99 156.01,21.03 156.12,20.26 156.24,20.06 156.35,20.18 156.46,19.81 156.57,18.60 156.68,17.12 156.80,15.87 156.91,15.44 157.02,16.02 157.13,16.24 157.25,15.52 157.36,15.11 157.47,15.44 157.58,16.76 157.70,19.99 157.81,23.97 157.92,27.30 158.03,31.14 158.15,34.84 158.26,35.84 158.37,35.40 158.48,36.01 158.59,36.76 158.71,36.55 158.82,35.77 158.93,35.33 159.04,37.57 159.16,42.52 159.27,45.43 159.38,44.12 159.49,41.91 159.61,40.63 159.72,39.72 159.83,39.93 159.94,41.38 160.06,42.38 160.17,42.51 160.28,42.15 160.39,40.97 160.50,39.96 160.62,40.80 160.73,42.31 160.84,42.18 160.95,40.86 161.07,40.02 161.18,39.99 161.29,40.45 161.40,40.94 161.52,40.92 161.63,40.03 161.74,38.14 161.85,37.02 161.97,38.89 162.08,41.45 162.19,40.78 162.30,38.23 162.41,35.59 162.53,29.92 162.64,20.38 162.75,11.10 162.86,9.33 162.98,24.42 163.09,50.85 163.20,61.29 163.31,45.95 163.43,29.97 163.54,28.07 163.65,27.66 163.76,23.26 163.88,21.47 163.99,21.98 164.10,22.27 164.21,23.78 164.32,25.05 164.44,23.68 164.55,21.52 164.66,20.91 164.77,21.96 164.89,23.66 165.00,24.08 165.11,22.17 165.22,19.70 165.34,19.37 165.45,21.76 165.56,24.34 165.67,24.33 165.79,22.59 165.90,21.65 166.01,21.88 166.12,22.60 166.23,24.00 166.35,25.59 166.46,26.44 166.57,27.09 166.68,28.41 166.80,30.37 166.91,33.93 167.02,39.62 167.13,43.80 167.25,43.37 167.36,41.53 167.47,41.27 167.58,40.55 167.70,39.18 167.81,39.92 167.92,41.81 168.03,42.33 168.14,42.31 168.26,42.79 168.37,42.99 168.48,42.58 168.59,41.83 168.71,40.89 168.82,40.09 168.93,39.35 169.04,38.43 169.16,37.53 169.27,36.85 169.38,36.78 169.49,37.06 169.61,36.59 169.72,36.26 169.83,38.16 169.94,40.80 170.05,41.02 170.17,39.39 170.28,38.00 170.39,36.86 170.50,35.80 170.62,35.24 170.73,34.74 170.84,33.76 170.95,32.73 171.07,31.43 171.18,27.70 171.29,20.46 171.40,12.15 171.52,7.42 171.63,14.68 171.74,38.52 171.85,61.39 171.96,59.95 172.08,42.72 172.19,33.73 172.30,33.20 172.41,30.27 172.53,26.83 172.64,26.62 172.75,27.58 172.86,29.30 172.98,31.39 173.09,31.05 173.20,28.47 173.31,26.81 173.43,26.74 173.54,26.41 173.65,24.93 173.76,22.83 173.87,20.48 173.99,18.35 174.10,17.42 174.21,17.49 174.32,17.04 174.44,15.93 174.55,15.26 174.66,15.76 174.77,18.65 174.89,24.59 175.00,31.05 175.11,35.12 175.22,36.89 175.34,37.79 175.45,38.83 175.56,40.21 175.67,41.02 175.78,41.06 175.90,41.22 176.01,41.69 176.12,42.66 176.23,44.32 176.35,45.02 176.46,43.51 176.57,41.46 176.68,40.36 176.80,39.84 176.91,39.70 177.02,39.93 177.13,39.85 177.25,39.09 177.36,37.82 177.47,36.51 177.58,36.55 177.69,38.54 177.81,40.00 177.92,38.65 178.03,36.23 178.14,35.00 178.26,34.22 178.37,33.24 178.48,33.20 178.59,34.31 178.71,35.34 178.82,35.48 178.93,35.18 179.04,35.26 179.16,35.38 179.27,34.32 179.38,32.47 179.49,31.36 179.60,31.04 179.72,31.34 179.83,32.87 179.94,34.44 180.05,33.86 180.17,31.30 180.28,27.55 180.39,21.80 180.50,14.05 180.62,11.01 180.73,25.25 180.84,53.05 180.95,65.59 181.07,50.00 181.18,31.39 181.29,27.85 181.40,27.83 181.51,23.97 181.63,22.33 181.74,22.52 181.85,20.90 181.96,19.59 182.08,19.83 182.19,20.46 182.30,21.65 182.41,22.36 182.53,21.33 182.64,21.11 182.75,23.22 182.86,24.51 182.97,23.15 183.09,20.99 183.20,19.62 183.31,20.19 183.42,23.29 183.54,26.44 183.65,26.98 183.76,25.98 183.87,25.76 183.99,27.44 184.10,31.49 184.21,36.68 184.32,40.62 184.44,42.74 184.55,43.69 184.66,43.73 184.77,43.85 184.88,45.11 185.00,46.38 185.11,45.93 185.22,43.89 185.33,41.63 185.45,40.87 185.56,42.30 185.67,44.05 185.78,44.22 185.90,43.61 186.01,42.74 186.12,41.08 186.23,39.94 186.35,40.05 186.46,39.37 186.57,37.12 186.68,34.89 186.79,33.51 186.91,33.06 187.02,33.36 187.13,33.12 187.24,31.64 187.36,29.73 187.47,27.94 187.58,27.20 187.69,29.17 187.81,32.68 187.92,34.01 188.03,32.38 188.14,30.48 188.26,30.54 188.37,33.05 188.48,36.28 188.59,37.06 188.70,34.97 188.82,32.72 188.93,31.80 189.04,31.50 189.15,31.21 189.27,30.62 189.38,28.68 189.49,23.72 189.60,15.03 189.72,5.98 189.83,7.56 189.94,28.98 190.05,55.54 190.17,58.95 190.28,40.38 190.39,27.41 190.50,27.94 190.61,28.89 190.73,26.61 190.84,25.38 190.95,24.63 191.06,23.48 191.18,23.82 191.29,25.92 191.40,27.77 191.51,28.26 191.63,28.16 191.74,27.90 191.85,27.04 191.96,25.91 192.08,25.10 192.19,24.60 192.30,24.77 192.41,25.59 192.52,26.29 192.64,27.17 192.75,28.59 192.86,29.71 192.97,30.90 193.09,33.25 193.20,35.61 193.31,37.47 193.42,40.60 193.54,44.19 193.65,45.38 193.76,44.83 193.87,44.58 193.99,44.12 194.10,43.12 194.21,42.48 194.32,42.06 194.43,41.08 194.55,39.45 194.66,37.61 194.77,36.07 194.88,35.03 195.00,35.27 195.11,37.44 195.22,39.23 195.33,38.23 195.45,37.19 195.56,39.15 195.67,41.31 195.78,40.59 195.90,38.55 196.01,36.81 196.12,35.08 196.23,34.02 196.34,34.06 196.46,33.66 196.57,32.68 196.68,32.75 196.79,33.09 196.91,31.97 197.02,30.74 197.13,30.83 197.24,30.66 197.36,29.22 197.47,27.76 197.58,27.27 197.69,27.72 197.81,28.28 197.92,28.05 198.03,27.28 198.14,26.41 198.25,25.65 198.37,26.32 198.48,28.41 198.59,29.22 198.70,27.94 198.82,25.00 198.93,18.71 199.04,10.12 199.15,4.57 199.27,8.52 199.38,27.67 199.49,53.00 199.60,59.30 199.72,42.81 199.83,29.57 199.94,29.58 200.05,29.02 200.16,25.35 200.28,26.02 200.39,29.19 200.50,31.04 200.61,32.77 200.73,34.37 200.84,34.57 200.95,33.87 201.06,33.19 201.18,33.64 201.29,35.40 201.40,36.09 201.51,34.31 201.63,32.05 201.74,30.76 201.85,30.25 201.96,31.21 202.07,33.02 202.19,32.74 202.30,30.71 202.41,31.17 202.52,35.08 202.64,38.76 202.75,39.95 202.86,39.79 202.97,39.77 203.09,40.30 203.20,41.28 203.31,42.87 203.42,45.15 203.54,46.40 203.65,45.01 203.76,43.30 203.87,43.94 203.98,44.99 204.10,44.06 204.21,42.13 204.32,40.45 204.43,38.79 204.55,37.08 204.66,35.45 204.77,34.01 204.88,32.94 205.00,31.92 205.11,30.88 205.22,30.08 205.33,29.16 205.45,28.01 205.56,27.41 205.67,27.41 205.78,27.50 205.89,27.46 206.01,26.66 206.12,25.38 206.23,25.53 206.34,27.06 206.46,27.74 206.57,27.30 206.68,26.86 206.79,26.07 206.91,25.10 207.02,25.34 207.13,26.38 207.24,26.38 207.36,25.54 207.47,25.64 207.58,26.96 207.69,28.04 207.80,28.13 207.92,28.13 208.03,29.04 208.14,29.61 208.25,27.27 208.37,22.73 208.48,18.71 208.59,15.78 208.70,20.28 208.82,42.14 208.93,68.19 209.04,70.21 209.15,51.70 209.27,40.32 209.38,40.01 209.49,37.83 209.60,34.02 209.71,33.40 209.83,34.42 209.94,36.13 210.05,37.58 210.16,36.35 210.28,33.69 210.39,32.25 210.50,31.83 210.61,31.48 210.73,30.66 210.84,28.79 210.95,26.80 211.06,26.71 211.18,28.84 211.29,31.34 211.40,31.87 211.51,30.13 211.62,27.97 211.74,26.68 211.85,26.37 211.96,27.30 212.07,28.92 212.19,29.78 212.30,29.77 212.41,29.98 212.52,30.78 212.64,32.03 212.75,33.18 212.86,33.27 212.97,32.19 213.09,30.87 213.20,30.06 213.31,29.95 213.42,30.10 213.53,29.87 213.65,29.25 213.76,28.45 213.87,27.38 213.98,26.89 214.10,28.28 214.21,30.43 214.32,30.65 214.43,28.95 214.55,27.93 214.66,28.86 214.77,30.85 214.88,32.36 214.99,32.18 215.11,30.83 215.22,29.88 215.33,29.48 215.44,28.92 215.56,28.51 215.67,28.05 215.78,26.74 215.89,25.56 216.01,25.68 216.12,26.79 216.23,29.72 216.34,34.78 216.46,38.71 216.57,39.58 216.68,39.41 216.79,39.21 216.90,38.32 217.02,37.50 217.13,38.46 217.24,41.44 217.35,44.16 217.47,44.78 217.58,44.65 217.69,43.24 217.80,37.02 217.92,27.00 218.03,19.86 218.14,25.43 218.25,49.51 218.37,75.02 218.48,74.35 218.59,53.46 218.70,41.60 218.81,41.86 218.93,39.59 219.04,36.26 219.15,38.11 219.26,40.26 219.38,38.85 219.49,36.52 219.60,34.65 219.71,32.80 219.83,31.69 219.94,31.34 220.05,30.42 220.16,28.55 220.28,26.41 220.39,24.36 220.50,22.76 220.61,22.08 220.72,21.66 220.84,20.40 220.95,18.68 221.06,17.50 221.17,17.28 221.29,18.38 221.40,20.66 221.51,22.75 221.62,23.63 221.74,23.83 221.85,25.20 221.96,29.29 222.07,34.18 222.19,35.98 222.30,34.73 222.41,33.33 222.52,32.57 222.63,32.29 222.75,32.76 222.86,32.74 222.97,31.18 223.08,29.29 223.20,28.06 223.31,27.47 223.42,27.66 223.53,27.88 223.65,27.18 223.76,25.96 223.87,24.80 223.98,24.94 224.10,28.67 224.21,34.40 224.32,36.65 224.43,34.39 224.54,32.32 224.66,33.51 224.77,36.64 224.88,38.49 224.99,37.23 225.11,34.93 225.22,34.58 225.33,35.66 225.44,36.64 225.56,38.00 225.67,39.29 225.78,39.07 225.89,38.50 226.01,39.27 226.12,40.51 226.23,41.56 226.34,42.59 226.45,42.64 226.57,41.63 226.68,41.18 226.79,41.64 226.90,41.68 227.02,39.46 227.13,32.56 227.24,21.34 227.35,15.40 227.47,28.99 227.58,57.75 227.69,72.57 227.80,59.24 227.92,40.54 228.03,35.57 228.14,35.22 228.25,31.48 228.36,29.61 228.48,30.30 228.59,29.32 228.70,27.62 228.81,27.30 228.93,26.91 229.04,25.73 229.15,25.61 229.26,26.76 229.38,27.13 229.49,26.03 229.60,24.33 229.71,22.78 229.83,22.14 229.94,22.36 230.05,22.12 230.16,21.10 230.27,20.10 230.39,19.31 230.50,19.40 230.61,21.25 230.72,23.68 230.84,25.15 230.95,26.20 231.06,27.46 231.17,28.56 231.29,29.82 231.40,31.53 231.51,32.53 231.62,32.20 231.74,31.47 231.85,30.91 231.96,30.90 232.07,32.59 232.18,35.24 232.30,35.84 232.41,33.76 232.52,31.35 232.63,30.24 232.75,30.71 232.86,32.03 232.97,32.31 233.08,30.78 233.20,28.89 233.31,28.94 233.42,32.47 233.53,37.17 233.65,38.19 233.76,35.49 233.87,33.34 233.98,32.64 234.09,32.08 234.21,32.62 234.32,34.55 234.43,35.81 234.54,35.45 234.66,34.75 234.77,35.79 234.88,39.27 234.99,42.52 235.11,42.92 235.22,42.20 235.33,42.79 235.44,43.88 235.56,44.39 235.67,44.35 235.78,43.44 235.89,41.94 236.00,39.74 236.12,34.55 236.23,25.40 236.34,15.87 236.45,14.80 236.57,32.06 236.68,59.46 236.79,68.99 236.90,53.41 237.02,38.28 237.13,36.45 237.24,35.35 237.35,30.70 237.47,29.01 237.58,29.71 237.69,30.61 237.80,32.44 237.91,32.72 238.03,30.14 238.14,28.12 238.25,27.74 238.36,27.00 238.48,25.89 238.59,24.90 238.70,23.15 238.81,21.04 238.93,19.63 239.04,18.65 239.15,17.73 239.26,16.95 239.38,16.68 239.49,18.48 239.60,22.40 239.71,25.22 239.82,25.63 239.94,26.59 240.05,29.56 240.16,32.49 240.27,33.66 240.39,33.82 240.50,35.67 240.61,40.17 240.72,43.60 240.84,43.16 240.95,41.40 241.06,40.41 241.17,39.09 241.29,37.49 241.40,36.60 241.51,35.90 241.62,34.86 241.73,33.43 241.85,31.74 241.96,30.73 242.07,30.56 242.18,30.44 242.30,30.47 242.41,30.43 242.52,29.33 242.63,28.47 242.75,29.96 242.86,32.18 242.97,32.18 243.08,30.19 243.20,28.10 243.31,27.06 243.42,28.09 243.53,31.23 243.64,34.47 243.76,35.77 243.87,35.11 243.98,33.95 244.09,34.14 244.21,36.07 244.32,37.90 244.43,38.51 244.54,38.93 244.66,39.23 244.77,39.10 244.88,39.78 244.99,40.09 245.11,35.77 245.22,25.77 245.33,13.98 245.44,10.02 245.55,27.17 245.67,59.26 245.78,73.66 245.89,57.66 246.00,38.63 246.12,34.69 246.23,34.42 246.34,31.50 246.45,30.85 246.57,30.57 246.68,28.00 246.79,27.42 246.90,30.52 247.02,33.23 247.13,33.45 247.24,33.12 247.35,33.06 247.46,31.98 247.58,30.32 247.69,29.53 247.80,28.74 247.91,26.69 248.03,24.10 248.14,21.72 248.25,20.16 248.36,21.53 248.48,26.01 248.59,29.40 248.70,29.13 248.81,28.01 248.92,28.75 249.04,30.53 249.15,32.12 249.26,33.21 249.37,33.50 249.49,33.22 249.60,33.05 249.71,33.22 249.82,33.56 249.94,33.63 250.05,33.04 250.16,32.06 250.27,31.21 250.39,30.58 250.50,30.66 250.61,31.86 250.72,33.27 250.83,34.15 250.95,34.65 251.06,34.34 251.17,33.59 251.28,34.34 251.40,35.95 251.51,35.48 251.62,33.34 251.73,32.21 251.85,31.84 251.96,30.80 252.07,29.47 252.18,28.53 252.30,28.09 252.41,28.10 252.52,28.09 252.63,28.57 252.74,31.01 252.86,34.47 252.97,36.24 253.08,35.98 253.19,35.14 253.31,34.26 253.42,33.67 253.53,33.99 253.64,34.98 253.76,36.08 253.87,36.82 253.98,35.10 254.09,28.75 254.21,19.84 254.32,15.59 254.43,26.45 254.54,54.04 254.65,76.70 254.77,71.66 254.88,51.31 254.99,41.68 255.10,41.52 255.22,38.53 255.33,35.10 255.44,35.22 255.55,36.26 255.67,37.49 255.78,38.39 255.89,36.69 256.00,33.66 256.12,31.82 256.23,30.75 256.34,29.76 256.45,28.97 256.56,27.71 256.68,25.53 256.79,23.02 256.90,21.08 257.01,20.50 257.13,20.80 257.24,20.39 257.35,19.03 257.46,17.95 257.58,18.27 257.69,20.75 257.80,24.82 257.91,28.63 258.03,31.68 258.14,34.07 258.25,35.30 258.36,36.86 258.47,40.28 258.59,42.58 258.70,41.11 258.81,38.43 258.92,37.01 259.04,36.29 259.15,35.89 259.26,35.50 259.37,34.05 259.49,31.80 259.60,29.92 259.71,28.94 259.82,29.01 259.94,29.32 260.05,28.42 260.16,26.67 260.27,25.51 260.38,25.47 260.50,27.27 260.61,30.67 260.72,32.54 260.83,31.31 260.95,29.37 261.06,28.11 261.17,27.55 261.28,28.93 261.40,31.27 261.51,32.10 261.62,33.09 261.73,35.95 261.85,37.64 261.96,36.76 262.07,35.77 262.18,35.37 262.29,35.07 262.41,35.46 262.52,35.95 262.63,35.48 262.74,34.75 262.86,34.40 262.97,33.81 263.08,31.31 263.19,25.19 263.31,17.11 263.42,14.52 263.53,27.78 263.64,55.91 263.76,75.28 263.87,66.56 263.98,46.08 264.09,38.06 264.20,38.40 264.32,35.56 264.43,32.81 264.54,32.92 264.65,31.90 264.77,29.95 264.88,29.32 264.99,28.69 265.10,27.71 265.22,28.19 265.33,29.18 265.44,28.81 265.55,28.60 265.67,29.84 265.78,30.47 265.89,29.09 266.00,26.84 266.11,24.76 266.23,23.63 266.34,24.10 266.45,25.02 266.56,25.08 266.68,24.73 266.79,24.59 266.90,25.39 267.01,28.40 267.13,32.55 267.24,34.86 267.35,34.93 267.46,34.50 267.58,34.10 267.69,33.88 267.80,34.40 267.91,34.87 268.02,34.07 268.14,32.16 268.25,30.52 268.36,31.02 268.47,33.71 268.59,35.36 268.70,34.11 268.81,32.56 268.92,33.10 269.04,35.26 269.15,38.02 269.26,39.72 269.37,38.69 269.49,36.17 269.60,34.24 269.71,32.94 269.82,32.18 269.93,32.09 270.05,31.48 270.16,29.86 270.27,28.22 270.38,26.70 270.50,25.38 270.61,25.34 270.72,26.08 270.83,25.98 270.95,25.29 271.06,24.95 271.17,25.69 271.28,28.57 271.40,32.03 271.51,32.46 271.62,30.52 271.73,30.17 271.84,31.75 271.96,32.93 272.07,33.04 272.18,32.57 272.29,31.70 272.41,29.99 272.52,26.15 272.63,19.82 272.74,14.11 272.86,18.35 272.97,40.67 273.08,67.19 273.19,70.23 273.31,51.57 273.42,40.06 273.53,42.18 273.64,42.00 273.75,37.61 273.87,36.39 273.98,36.67 274.09,36.50 274.20,38.03 274.32,39.11 274.43,37.14 274.54,34.87 274.65,34.09 274.77,33.15 274.88,31.88 274.99,30.88 275.10,29.29 275.22,27.28 275.33,25.86 275.44,24.64 275.55,23.56 275.66,23.28 275.78,23.04 275.89,22.38 276.00,22.99 276.11,26.04 276.23,30.30 276.34,33.99 276.45,37.26 276.56,41.17 276.68,44.47 276.79,44.92 276.90,43.75 277.01,43.39 277.13,43.14 277.24,42.00 277.35,40.87 277.46,39.60 277.57,37.58 277.69,36.00 277.80,35.41 277.91,34.53 278.02,33.15 278.14,31.92 278.25,30.55 278.36,29.12 278.47,28.49 278.59,28.55 278.70,28.78 278.81,28.87 278.92,27.97 279.04,26.76 279.15,27.99 279.26,31.23 279.37,32.35 279.48,30.53 279.60,29.31 279.71,29.98 279.82,30.66 279.93,30.80 280.05,31.10 280.16,30.84 280.27,29.47 280.38,28.19 280.50,28.03 280.61,28.70 280.72,29.17 280.83,28.74 280.94,28.07 281.06,28.17 281.17,28.89 281.28,30.07 281.39,31.51 281.51,32.07 281.62,31.33 281.73,28.75 281.84,22.99 281.96,16.15 282.07,13.54 282.18,21.32 282.29,43.70 282.41,68.12 282.52,69.71 282.63,50.40 282.74,37.68 282.85,37.70 282.97,36.01 283.08,31.42 283.19,30.72 283.30,32.39 283.42,33.54 283.53,34.05 283.64,33.11 283.75,30.78 283.87,28.87 283.98,29.57 284.09,33.42 284.20,36.93 284.32,36.34 284.43,33.13 284.54,30.60 284.65,28.92 284.76,27.32 284.88,26.17 284.99,25.24 285.10,23.82 285.21,22.47 285.33,22.10 285.44,22.63 285.55,23.69 285.66,25.12 285.78,26.32 285.89,26.89 286.00,27.50 286.11,28.54 286.23,29.45 286.34,29.89 286.45,29.89 286.56,29.62 286.67,29.53 286.79,29.93 286.90,31.34 287.01,34.18 287.12,36.43 287.24,35.75 287.35,33.74 287.46,32.69 287.57,31.92 287.69,30.97 287.80,30.53 287.91,29.95 288.02,28.86 288.14,28.27 288.25,28.05 288.36,27.45 288.47,26.95 288.58,26.69 288.70,26.38 288.81,26.07 288.92,25.22 289.03,23.94 289.15,23.93 289.26,25.37 289.37,26.51 289.48,26.96 289.60,27.12 289.71,27.06 289.82,28.53 289.93,32.87 290.05,37.28 290.16,38.61 290.27,37.55 290.38,36.60 290.49,37.69 290.61,41.03 290.72,44.34 290.83,44.69 290.94,40.67 291.06,32.19 291.17,21.62 291.28,18.83 291.39,37.30 291.51,69.42 291.62,77.00 291.73,66.42 291.84,48.37 291.96,47.12 292.07,50.64 292.18,49.36 292.29,46.93 292.40,44.88 292.52,42.31 292.63,40.73 292.74,40.82 292.85,40.92 292.97,39.52 293.08,36.92 293.19,34.25 293.30,32.52 293.42,32.86 293.53,34.63 293.64,34.61 293.75,31.60 293.87,28.28 293.98,26.75 294.09,26.83 294.20,27.65 294.31,28.34 294.43,28.61 294.54,28.53 294.65,28.05 294.76,29.23 294.88,34.34 294.99,40.22 295.10,41.94 295.21,40.59 295.33,39.78 295.44,39.91 295.55,40.27 295.66,40.55 295.78,39.67 295.89,37.53 296.00,35.61" fill="none" stroke="#2F855A" stroke-width="2.2" stroke-linecap="round" stroke-linejoin="round"/>
</svg>