<svg xmlns="http://www.w3.org/2000/svg" width="300" height="64" viewBox="0 0 300 64">

<polyline points="4.00,28.56 4.59,24.62 5.17,20.48 5.76,16.78 6.34,14.94 6.93,14.98 7.51,14.95 8.10,13.63 8.68,11.39 9.27,8.99 9.85,7.12 10.44,5.95 11.02,5.76 11.61,7.34 12.19,9.80 12.78,12.29 13.36,17.82 13.95,27.54 14.53,37.84 15.12,47.70 15.70,58.06 16.29,66.48 16.87,71.02 17.46,72.54 18.04,71.82 18.63,69.18 19.21,64.79 19.80,58.30 20.38,50.61 20.97,43.41 21.56,36.83 22.14,30.65 22.73,25.76 23.31,21.90 23.90,17.82 24.48,14.02 25.07,11.68 25.65,10.25 26.24,8.70 26.82,7.49 27.41,7.82 27.99,10.09 28.58,13.68 29.16,17.78 29.75,21.92 30.33,25.88 30.92,29.43 31.50,32.45 32.09,34.87 32.67,36.54 33.26,37.90 33.84,40.11 34.43,42.99 35.01,44.43 35.60,43.34 36.18,40.65 36.77,37.33 37.35,34.08 37.94,31.75 38.53,30.50 39.11,29.75 39.70,29.19 40.28,29.19 40.87,29.70 41.45,29.79 42.04,29.76 42.62,31.52 43.21,34.93 43.79,37.56 44.38,38.10 44.96,36.85 45.55,34.36 46.13,31.50 46.72,28.98 47.30,26.77 47.89,24.85 48.47,23.46 49.06,22.48 49.64,21.32 50.23,20.09 50.81,20.39 51.40,23.18 51.98,26.61 52.57,29.00 53.15,31.44 53.74,34.35 54.32,36.45 54.91,37.97 55.49,39.85 56.08,41.21 56.67,41.04 57.25,39.72 57.84,37.52 58.42,34.42 59.01,31.69 59.59,31.23 60.18,32.81 60.76,34.31 61.35,34.60 61.93,33.96 62.52,32.86 63.10,31.84 63.69,31.31 64.27,30.76 64.86,29.63 65.44,28.13 66.03,26.25 66.61,23.99 67.20,23.11 67.78,25.19 68.37,28.66 68.95,31.01 69.54,32.00 70.12,32.28 70.71,32.06 71.29,31.77 71.88,31.75 72.46,31.51 73.05,30.65 73.64,29.38 74.22,27.51 74.81,25.52 75.39,25.59 75.98,28.50 76.56,31.92 77.15,33.92 77.73,34.62 78.32,34.49 78.90,34.02 79.49,33.87 80.07,33.92 80.66,33.45 81.24,32.38 81.83,30.85 82.41,28.66 83.00,27.18 83.58,28.57 84.17,31.85 84.75,34.25 85.34,35.18 85.92,35.27 86.51,34.64 87.09,33.91 87.68,33.75 88.26,33.60 88.85,32.75 89.43,31.41 90.02,29.52 90.61,27.09 91.19,26.10 91.78,28.20 92.36,31.53 92.95,33.53 93.53,34.07 94.12,33.82 94.70,33.08 95.29,32.53 95.87,32.45 96.46,32.08 97.04,30.95 97.63,29.50 98.21,27.67 98.80,25.37 99.38,24.53 99.97,26.85 100.55,30.44 101.14,32.62 101.72,33.21 102.31,32.94 102.89,32.32 103.48,32.02 104.06,32.08 104.65,31.74 105.23,30.82 105.82,29.75 106.40,28.40 106.99,26.70 107.58,26.39 108.16,28.89 108.75,32.44 109.33,34.59 109.92,35.15 110.50,34.89 111.09,34.31 111.67,33.95 112.26,33.94 112.84,33.62 113.43,32.53 114.01,31.08 114.60,29.38 115.18,27.32 115.77,26.55 116.35,28.61 116.94,31.81 117.52,33.70 118.11,34.13 118.69,33.89 119.28,33.37 119.86,33.03 120.45,33.01 121.03,32.71 121.62,31.73 122.20,30.40 122.79,28.81 123.37,26.90 123.96,26.00 124.55,27.59 125.13,30.54 125.72,32.61 126.30,33.36 126.89,33.34 127.47,32.90 128.06,32.64 128.64,32.74 129.23,32.64 129.81,31.87 130.40,30.70 130.98,29.45 131.57,27.86 132.15,26.39 132.74,26.88 133.32,29.51 133.91,32.00 134.49,33.13 135.08,33.51 135.66,33.48 136.25,33.21 136.83,33.20 137.42,33.40 138.00,33.20 138.59,32.39 139.17,31.37 139.76,30.21 140.34,28.63 140.93,27.53 141.52,28.38 142.10,30.70 142.69,32.80 143.27,33.88 143.86,33.63 144.44,32.65 145.03,32.39 145.61,32.73 146.20,32.46 146.78,31.54 147.37,30.58 147.95,29.73 148.54,28.62 149.12,27.20 149.71,26.80 150.29,28.42 150.88,30.78 151.46,32.25 152.05,32.82 152.63,32.87 153.22,32.63 153.80,32.72 154.39,33.22 154.97,33.30 155.56,32.59 156.14,31.56 156.73,30.69 157.31,29.94 157.90,28.85 158.48,27.76 159.07,28.04 159.66,29.92 160.24,31.93 160.83,33.02 161.41,33.33 162.00,33.24 162.58,33.16 163.17,33.34 163.75,33.55 164.34,33.38 164.92,32.68 165.51,31.61 166.09,30.48 166.68,29.48 167.26,28.33 167.85,27.11 168.43,27.15 169.02,28.96 169.60,31.10 170.19,32.28 170.77,32.67 171.36,32.68 171.94,32.61 172.53,32.73 173.11,32.91 173.70,32.80 174.28,32.34 174.87,31.57 175.45,30.63 176.04,29.73 176.63,28.65 177.21,27.42 177.80,27.27 178.38,28.95 178.97,31.20 179.55,32.58 180.14,33.08 180.72,33.15 181.31,33.06 181.89,33.13 182.48,33.36 183.06,33.33 183.65,32.88 184.23,32.08 184.82,31.07 185.40,30.02 185.99,28.81 186.57,27.42 187.16,26.97 187.74,28.52 188.33,30.95 188.91,32.55 189.50,33.08 190.08,33.04 190.67,32.92 191.25,33.09 191.84,33.44 192.42,33.47 193.01,33.03 193.60,32.22 194.18,31.16 194.77,30.11 195.35,28.86 195.94,27.26 196.52,26.76 197.11,28.59 197.69,31.26 198.28,32.93 198.86,33.50 199.45,33.35 200.03,33.02 200.62,33.19 201.20,33.57 201.79,33.49 202.37,32.89 202.96,31.88 203.54,30.60 204.13,29.21 204.71,27.49 205.30,26.21 205.88,27.13 206.47,29.97 207.05,32.43 207.64,33.47 208.22,33.51 208.81,33.10 209.39,32.92 209.98,33.21 210.57,33.33 211.15,32.82 211.74,31.78 212.32,30.42 212.91,28.93 213.49,27.13 214.08,25.36 214.66,25.55 215.25,28.48 215.83,31.81 216.42,33.47 217.00,33.75 217.59,33.47 218.17,33.18 218.76,33.26 219.34,33.46 219.93,33.20 220.51,32.30 221.10,31.01 221.68,29.66 222.27,27.90 222.85,25.88 223.44,25.71 224.02,28.60 224.61,32.27 225.19,34.41 225.78,35.13 226.36,35.07 226.95,34.64 227.54,34.51 228.12,34.64 228.71,34.29 229.29,33.13 229.88,31.51 230.46,29.88 231.05,28.03 231.63,25.61 232.22,24.26 232.80,26.16 233.39,30.14 233.97,33.15 234.56,34.43 235.14,34.74 235.73,34.48 236.31,34.24 236.90,34.41 237.48,34.35 238.07,33.49 238.65,32.01 239.24,30.19 239.82,28.31 240.41,26.26 240.99,23.74 241.58,22.31 242.16,24.18 242.75,28.13 243.33,31.19 243.92,32.75 244.51,33.57 245.09,33.96 245.68,34.42 246.26,35.25 246.85,35.76 247.43,35.40 248.02,34.36 248.60,32.95 249.19,31.39 249.77,29.46 250.36,27.03 250.94,25.78 251.53,27.65 252.11,31.23 252.70,33.77 253.28,34.77 253.87,34.81 254.45,34.37 255.04,34.22 255.62,34.44 256.21,34.33 256.79,33.60 257.38,32.35 257.96,30.74 258.55,29.07 259.13,27.19 259.72,25.12 260.30,24.74 260.89,27.26 261.47,30.67 262.06,32.61 262.65,33.04 263.23,32.84 263.82,32.62 264.40,32.78 264.99,33.28 265.57,33.33 266.16,31.92 266.74,29.64 267.33,27.70 267.91,25.96 268.50,25.19 269.08,27.19 269.67,30.90 270.25,33.48 270.84,34.35 271.42,34.40 272.01,34.19 272.59,34.28 273.18,34.66 273.76,34.56 274.35,33.59 274.93,32.03 275.52,30.37 276.10,28.55 276.69,26.26 277.27,24.92 277.86,26.52 278.44,30.03 279.03,32.75 279.62,33.98 280.20,34.33 280.79,34.16 281.37,34.03 281.96,34.17 282.54,34.04 283.13,33.17 283.71,31.71 284.30,30.08 284.88,28.43 285.47,26.44 286.05,24.57 286.64,24.89 287.22,28.07 287.81,31.69 288.39,33.88 288.98,34.95 289.56,35.36 290.15,35.43 290.73,35.75 291.32,36.10 291.90,35.82 292.49,34.94 293.07,33.70 293.66,32.23 294.24,30.71 294.83,32.00 295.41,32.00 296.00,32.00" fill="none" stroke="#2563EB" stroke-width="2.2" stroke-linecap="round" stroke-linejoin="round"/>
</svg>