<svg xmlns="http://www.w3.org/2000/svg" width="300" height="64" viewBox="0 0 300 64">

<polyline points="4.00,32.84 4.59,31.67 5.17,31.00 5.76,31.96 6.34,30.62 6.93,31.62 7.51,33.46 8.10,29.99 8.68,29.53 9.27,31.46 9.85,30.16 10.44,25.76 11.02,25.85 11.61,30.83 12.19,29.74 12.78,17.56 13.36,14.13 13.95,14.00 14.53,8.77 15.12,10.74 15.70,2.58 16.29,14.97 16.87,14.05 17.46,-8.39 18.04,-2.28 18.63,-0.81 19.21,0.82 19.80,11.49 20.38,13.46 20.97,10.07 21.56,21.08 22.14,26.43 22.73,29.11 23.31,10.61 23.90,25.30 24.48,28.78 25.07,13.92 25.65,15.59 26.24,23.80 26.82,21.83 27.41,9.90 27.99,9.82 28.58,15.13 29.16,13.08 29.75,7.68 30.33,7.68 30.92,-1.90 31.50,2.54 32.09,14.51 32.67,17.18 33.26,11.16 33.84,14.63 34.43,34.22 35.01,28.11 35.60,26.68 36.18,31.50 36.77,40.87 37.35,40.04 37.94,30.41 38.53,41.54 39.11,39.24 39.70,34.89 40.28,37.15 40.87,29.32 41.45,34.93 42.04,42.25 42.62,32.67 43.21,29.11 43.79,38.19 44.38,48.45 44.96,41.58 45.55,30.74 46.13,42.88 46.72,43.89 47.30,33.34 47.89,3.08 48.47,25.97 49.06,0.11 49.64,8.61 50.23,24.93 50.81,30.24 51.40,33.13 51.98,17.02 52.57,8.90 53.15,38.91 53.74,25.09 54.32,12.79 54.91,14.97 55.49,24.55 56.08,31.46 56.67,32.17 57.25,28.57 57.84,29.36 58.42,29.20 59.01,32.17 59.59,28.74 60.18,28.28 60.76,30.12 61.35,31.87 61.93,29.49 62.52,32.13 63.10,25.43 63.69,29.53 64.27,29.24 64.86,27.69 65.44,30.37 66.03,33.59 66.61,33.72 67.20,31.87 67.78,31.92 68.37,33.17 68.95,33.80 69.54,30.62 70.12,31.37 70.71,30.62 71.29,30.79 71.88,31.08 72.46,32.54 73.05,33.26 73.64,31.20 74.22,31.46 74.81,34.01 75.39,32.54 75.98,34.47 76.56,34.13 77.15,32.21 77.73,34.18 78.32,33.67 78.90,32.08 79.49,29.66 80.07,33.00 80.66,32.04 81.24,32.21 81.83,31.20 82.41,30.49 83.00,31.54 83.58,31.37 84.17,33.97 84.75,32.33 85.34,31.20 85.92,32.59 86.51,31.71 87.09,29.20 87.68,31.75 88.26,32.17 88.85,32.92 89.43,32.04 90.02,31.75 90.61,31.71 91.19,32.67 91.78,34.13 92.36,33.59 92.95,32.17 93.53,32.13 94.12,31.62 94.70,32.54 95.29,32.46 95.87,31.58 96.46,32.67 97.04,34.05 97.63,31.16 98.21,32.92 98.80,31.71 99.38,32.08 99.97,32.71 100.55,33.00 101.14,33.30 101.72,31.62 102.31,33.67 102.89,31.96 103.48,34.30 104.06,30.24 104.65,31.87 105.23,32.67 105.82,33.26 106.40,30.95 106.99,31.87 107.58,31.54 108.16,32.29 108.75,32.29 109.33,31.75 109.92,33.51 110.50,31.67 111.09,32.08 111.67,32.21 112.26,32.59 112.84,32.17 113.43,32.75 114.01,32.63 114.60,32.17 115.18,31.79 115.77,32.21 116.35,31.75 116.94,32.71 117.52,31.75 118.11,32.59 118.69,32.67 119.28,31.33 119.86,33.46 120.45,32.17 121.03,32.67 121.62,32.29 122.20,31.62 122.79,30.95 123.37,32.00 123.96,33.21 124.55,32.17 125.13,32.71 125.72,32.00 126.30,32.80 126.89,31.96 127.47,32.80 128.06,31.62 128.64,32.75 129.23,33.13 129.81,31.87 130.40,32.21 130.98,31.67 131.57,31.25 132.15,32.46 132.74,32.17 133.32,32.54 133.91,31.87 134.49,32.88 135.08,33.13 135.66,33.00 136.25,32.00 136.83,32.42 137.42,32.38 138.00,32.46 138.59,31.87 139.17,33.00 139.76,33.13 140.34,32.29 140.93,31.67 141.52,33.17 142.10,32.08 142.69,32.08 143.27,34.09 143.86,32.84 144.44,31.25 145.03,32.67 145.61,32.92 146.20,31.58 146.78,33.21 147.37,32.29 147.95,33.13 148.54,31.50 149.12,31.96 149.71,32.42 150.29,33.55 150.88,31.50 151.46,34.05 152.05,30.66 152.63,33.00 153.22,32.00 153.80,32.50 154.39,32.63 154.97,32.00 155.56,33.63 156.14,30.95 156.73,32.54 157.31,31.08 157.90,31.20 158.48,32.54 159.07,32.08 159.66,33.05 160.24,31.20 160.83,32.96 161.41,31.41 162.00,31.96 162.58,32.50 163.17,31.79 163.75,32.38 164.34,31.46 164.92,33.17 165.51,31.41 166.09,32.21 166.68,32.00 167.26,31.62 167.85,32.54 168.43,33.72 169.02,32.25 169.60,31.33 170.19,32.46 170.77,31.33 171.36,33.97 171.94,31.87 172.53,32.25 173.11,31.79 173.70,31.41 174.28,30.95 174.87,31.96 175.45,31.50 176.04,33.21 176.63,32.42 177.21,31.87 177.80,31.96 178.38,32.88 178.97,30.91 179.55,33.17 180.14,31.54 180.72,33.17 181.31,32.33 181.89,32.08 182.48,31.46 183.06,32.25 183.65,31.20 184.23,31.96 184.82,32.63 185.40,31.67 185.99,31.25 186.57,32.50 187.16,31.92 187.74,32.67 188.33,32.04 188.91,31.87 189.50,31.79 190.08,32.25 190.67,31.29 191.25,32.13 191.84,31.75 192.42,31.75 193.01,32.59 193.60,31.75 194.18,32.59 194.77,32.25 195.35,32.54 195.94,32.04 196.52,31.71 197.11,31.04 197.69,32.42 198.28,31.54 198.86,32.54 199.45,32.38 200.03,33.26 200.62,31.83 201.20,31.75 201.79,31.71 202.37,33.55 202.96,32.25 203.54,32.17 204.13,32.71 204.71,33.80 205.30,32.50 205.88,31.54 206.47,33.30 207.05,32.00 207.64,32.13 208.22,32.54 208.81,32.33 209.39,32.13 209.98,30.58 210.57,31.62 211.15,32.33 211.74,32.08 212.32,32.84 212.91,31.75 213.49,30.70 214.08,32.59 214.66,32.50 215.25,30.54 215.83,32.84 216.42,31.41 217.00,32.00 217.59,31.62 218.17,32.92 218.76,33.05 219.34,31.04 219.93,32.42 220.51,31.62 221.10,32.25 221.68,32.04 222.27,33.21 222.85,32.84 223.44,32.17 224.02,32.08 224.61,30.70 225.19,32.08 225.78,31.12 226.36,32.42 226.95,32.25 227.54,30.79 228.12,31.00 228.71,31.46 229.29,31.67 229.88,32.54 230.46,32.25 231.05,31.58 231.63,31.46 232.22,30.95 232.80,32.67 233.39,31.25 233.97,32.92 234.56,31.04 235.14,32.21 235.73,31.54 236.31,32.13 236.90,32.13 237.48,31.79 238.07,32.13 238.65,31.96 239.24,31.00 239.82,32.04 240.41,31.46 240.99,32.59 241.58,32.75 242.16,31.92 242.75,31.58 243.33,32.13 243.92,30.79 244.51,32.46 245.09,30.95 245.68,30.33 246.26,31.33 246.85,31.08 247.43,32.42 248.02,31.46 248.60,32.21 249.19,31.58 249.77,31.41 250.36,32.00 250.94,31.37 251.53,32.50 252.11,31.83 252.70,31.58 253.28,32.25 253.87,33.09 254.45,31.75 255.04,31.87 255.62,32.88 256.21,31.92 256.79,33.38 257.38,32.42 257.96,33.97 258.55,31.75 259.13,33.51 259.72,32.17 260.30,31.67 260.89,31.71 261.47,32.21 262.06,32.25 262.65,32.63 263.23,31.75 263.82,30.87 264.40,30.87 264.99,32.96 265.57,32.29 266.16,33.00 266.74,32.75 267.33,31.16 267.91,32.71 268.50,31.41 269.08,31.46 269.67,31.25 270.25,32.59 270.84,32.08 271.42,33.30 272.01,31.79 272.59,32.50 273.18,33.13 273.76,33.09 274.35,32.08 274.93,33.51 275.52,32.96 276.10,32.84 276.69,31.92 277.27,32.29 277.86,32.21 278.44,32.80 279.03,32.88 279.62,31.79 280.20,31.54 280.79,32.63 281.37,33.05 281.96,31.04 282.54,32.88 283.13,32.92 283.71,30.74 284.30,32.96 284.88,32.17 285.47,30.70 286.05,31.75 286.64,32.17 287.22,32.50 287.81,31.67 288.39,33.09 288.98,32.13 289.56,32.63 290.15,31.79 290.73,31.37 291.32,31.46 291.90,31.96 292.49,31.50 293.07,32.13 293.66,32.13 294.24,31.92 294.83,32.00 295.41,32.00 296.00,32.00" fill="none" stroke="#F97316" stroke-width="2.2" stroke-linecap="round" stroke-linejoin="round"/>
</svg>