<svg xmlns="http://www.w3.org/2000/svg" width="300" height="64" viewBox="0 0 300 64">

<polyline points="4.00,31.37 4.59,32.50 5.17,32.00 5.76,31.62 6.34,29.61 6.93,31.25 7.51,29.99 8.10,27.79 8.68,25.84 9.27,30.18 9.85,23.32 10.44,25.71 11.02,33.26 11.61,26.09 12.19,23.07 12.78,16.21 13.36,22.69 13.95,15.90 14.53,-0.77 15.12,12.75 15.70,6.72 16.29,5.77 16.87,13.13 17.46,5.96 18.04,-11.58 18.63,2.63 19.21,1.69 19.80,3.82 20.38,4.33 20.97,5.08 21.56,12.00 22.14,17.79 22.73,5.27 23.31,17.91 23.90,17.85 24.48,13.76 25.07,15.58 25.65,8.60 26.24,4.14 26.82,14.20 27.41,17.03 27.99,13.70 28.58,18.54 29.16,19.30 29.75,15.96 30.33,6.40 30.92,8.29 31.50,11.56 32.09,10.43 32.67,14.83 33.26,27.79 33.84,24.83 34.43,16.34 35.01,30.49 35.60,28.35 36.18,31.31 36.77,27.79 37.35,33.64 37.94,46.03 38.53,33.70 39.11,35.84 39.70,35.71 40.28,17.03 40.87,40.99 41.45,45.27 42.04,36.15 42.62,34.70 43.21,36.59 43.79,34.64 44.38,44.45 44.96,39.67 45.55,21.81 46.13,14.01 46.72,46.84 47.30,26.53 47.89,34.08 48.47,21.62 49.06,6.15 49.64,17.03 50.23,27.79 50.81,15.02 51.40,13.38 51.98,14.77 52.57,11.69 53.15,17.22 53.74,23.01 54.32,18.04 54.91,19.48 55.49,24.96 56.08,22.63 56.67,23.07 57.25,27.53 57.84,27.85 58.42,26.91 59.01,27.79 59.59,27.16 60.18,27.91 60.76,29.17 61.35,28.86 61.93,29.99 62.52,26.53 63.10,25.84 63.69,27.41 64.27,25.33 64.86,26.15 65.44,34.45 66.03,32.75 66.61,29.61 67.20,29.42 67.78,31.25 68.37,35.14 68.95,32.13 69.54,33.38 70.12,29.48 70.71,32.38 71.29,29.04 71.88,29.99 72.46,34.64 73.05,31.12 73.64,31.62 74.22,30.05 74.81,34.39 75.39,33.19 75.98,35.27 76.56,34.33 77.15,33.51 77.73,34.39 78.32,34.70 78.90,30.74 79.49,31.43 80.07,32.19 80.66,33.57 81.24,29.61 81.83,29.99 82.41,32.00 83.00,32.44 83.58,32.63 84.17,31.18 84.75,33.32 85.34,30.43 85.92,31.94 86.51,33.38 87.09,31.75 87.68,32.69 88.26,33.82 88.85,32.38 89.43,33.89 90.02,32.31 90.61,31.87 91.19,33.95 91.78,33.57 92.36,34.52 92.95,33.07 93.53,32.44 94.12,32.88 94.70,33.07 95.29,32.00 95.87,31.75 96.46,33.76 97.04,34.01 97.63,32.25 98.21,33.64 98.80,32.13 99.38,34.64 99.97,33.32 100.55,32.88 101.14,31.87 101.72,32.88 102.31,34.58 102.89,32.31 103.48,34.01 104.06,33.19 104.65,31.18 105.23,34.08 105.82,32.06 106.40,32.63 106.99,30.49 107.58,32.94 108.16,33.32 108.75,32.13 109.33,33.51 109.92,32.31 110.50,32.82 111.09,33.89 111.67,31.06 112.26,32.13 112.84,32.00 113.43,32.75 114.01,33.19 114.60,30.99 115.18,32.69 115.77,32.38 116.35,34.33 116.94,33.82 117.52,33.64 118.11,30.93 118.69,31.50 119.28,31.94 119.86,32.69 120.45,32.00 121.03,32.88 121.62,34.64 122.20,33.13 122.79,33.13 123.37,32.00 123.96,32.82 124.55,32.69 125.13,32.50 125.72,32.94 126.30,32.31 126.89,33.26 127.47,31.94 128.06,32.82 128.64,31.25 129.23,32.06 129.81,33.26 130.40,32.44 130.98,32.25 131.57,31.18 132.15,32.50 132.74,31.69 133.32,33.32 133.91,32.31 134.49,31.18 135.08,33.89 135.66,32.82 136.25,31.43 136.83,32.63 137.42,32.06 138.00,30.68 138.59,34.01 139.17,32.13 139.76,32.06 140.34,33.01 140.93,33.82 141.52,32.57 142.10,31.25 142.69,31.06 143.27,33.70 143.86,30.99 144.44,32.06 145.03,32.44 145.61,31.31 146.20,32.19 146.78,34.52 147.37,32.94 147.95,31.94 148.54,31.56 149.12,31.81 149.71,36.03 150.29,32.06 150.88,33.13 151.46,31.94 152.05,31.75 152.63,35.21 153.22,32.94 153.80,33.51 154.39,30.55 154.97,31.31 155.56,34.52 156.14,32.25 156.73,35.14 157.31,30.62 157.90,28.92 158.48,34.26 159.07,32.50 159.66,31.37 160.24,32.50 160.83,33.64 161.41,31.25 162.00,34.14 162.58,33.64 163.17,30.81 163.75,31.31 164.34,32.69 164.92,31.69 165.51,29.61 166.09,33.07 166.68,33.70 167.26,31.62 167.85,34.08 168.43,32.50 169.02,31.62 169.60,31.69 170.19,31.56 170.77,31.25 171.36,33.01 171.94,31.87 172.53,32.88 173.11,31.06 173.70,32.69 174.28,31.37 174.87,29.42 175.45,32.94 176.04,31.81 176.63,32.19 177.21,32.50 177.80,32.06 178.38,30.62 178.97,32.94 179.55,31.62 180.14,32.25 180.72,33.13 181.31,31.50 181.89,32.38 182.48,30.18 183.06,32.38 183.65,31.94 184.23,31.75 184.82,33.76 185.40,32.88 185.99,30.99 186.57,32.31 187.16,31.25 187.74,31.94 188.33,32.88 188.91,32.31 189.50,33.38 190.08,33.01 190.67,30.99 191.25,32.69 191.84,32.44 192.42,31.94 193.01,31.62 193.60,30.87 194.18,32.13 194.77,30.62 195.35,32.82 195.94,32.19 196.52,33.82 197.11,33.89 197.69,32.82 198.28,32.50 198.86,31.25 199.45,31.43 200.03,33.19 200.62,32.00 201.20,31.75 201.79,32.82 202.37,32.00 202.96,32.44 203.54,32.63 204.13,32.75 204.71,31.62 205.30,31.06 205.88,31.75 206.47,33.13 207.05,31.25 207.64,32.00 208.22,32.38 208.81,33.70 209.39,31.37 209.98,31.06 210.57,32.38 211.15,31.37 211.74,32.82 212.32,35.02 212.91,31.81 213.49,32.63 214.08,31.18 214.66,32.50 215.25,30.74 215.83,32.57 216.42,32.31 217.00,31.69 217.59,32.38 218.17,32.94 218.76,30.05 219.34,31.06 219.93,30.87 220.51,31.62 221.10,33.32 221.68,32.06 222.27,31.81 222.85,30.49 223.44,32.19 224.02,32.13 224.61,31.81 225.19,32.13 225.78,32.50 226.36,31.62 226.95,32.50 227.54,32.25 228.12,32.25 228.71,31.12 229.29,31.43 229.88,31.87 230.46,33.07 231.05,30.49 231.63,32.25 232.22,31.81 232.80,32.00 233.39,33.76 233.97,31.56 234.56,32.69 235.14,31.31 235.73,32.13 236.31,32.25 236.90,31.06 237.48,32.31 238.07,31.69 238.65,32.63 239.24,32.13 239.82,32.44 240.41,30.36 240.99,32.50 241.58,31.56 242.16,32.25 242.75,32.63 243.33,30.81 243.92,31.18 244.51,32.50 245.09,31.25 245.68,30.74 246.26,31.56 246.85,30.62 247.43,31.81 248.02,32.25 248.60,33.70 249.19,31.37 249.77,30.99 250.36,32.19 250.94,32.31 251.53,32.57 252.11,32.63 252.70,33.76 253.28,33.51 253.87,33.64 254.45,32.75 255.04,30.55 255.62,31.94 256.21,32.82 256.79,31.75 257.38,33.13 257.96,32.25 258.55,32.31 259.13,32.63 259.72,31.25 260.30,31.75 260.89,31.81 261.47,31.75 262.06,32.75 262.65,33.76 263.23,32.25 263.82,32.06 264.40,31.75 264.99,30.36 265.57,31.43 266.16,31.87 266.74,31.94 267.33,32.82 267.91,31.87 268.50,32.44 269.08,32.13 269.67,31.43 270.25,31.37 270.84,31.56 271.42,31.81 272.01,30.81 272.59,30.81 273.18,32.38 273.76,30.68 274.35,31.62 274.93,32.06 275.52,32.31 276.10,31.56 276.69,32.50 277.27,30.93 277.86,31.75 278.44,31.81 279.03,28.86 279.62,31.50 280.20,34.01 280.79,32.69 281.37,31.18 281.96,32.25 282.54,31.69 283.13,30.62 283.71,30.81 284.30,32.75 284.88,31.69 285.47,31.31 286.05,30.93 286.64,30.62 287.22,32.63 287.81,32.13 288.39,29.48 288.98,33.64 289.56,30.30 290.15,31.37 290.73,30.99 291.32,30.43 291.90,29.99 292.49,31.31 293.07,32.31 293.66,32.25 294.24,32.50 294.83,32.00 295.41,32.00 296.00,32.00" fill="none" stroke="#2563EB" stroke-width="2.2" stroke-linecap="round" stroke-linejoin="round"/>
</svg>