<svg xmlns="http://www.w3.org/2000/svg" width="300" height="64" viewBox="0 0 300 64">

<polyline points="4.00,32.10 4.46,32.17 4.91,32.27 5.37,32.41 5.83,32.59 6.28,32.79 6.74,33.01 7.20,33.24 7.66,33.47 8.11,33.73 8.57,34.05 9.03,34.46 9.48,34.98 9.94,35.62 10.40,36.37 10.85,37.15 11.31,37.88 11.77,38.40 12.23,38.59 12.68,38.35 13.14,37.66 13.60,36.55 14.05,35.16 14.51,33.66 14.97,32.22 15.42,30.99 15.88,30.03 16.34,29.37 16.79,28.97 17.25,28.78 17.71,28.74 18.17,28.80 18.62,28.92 19.08,29.06 19.54,29.21 19.99,29.34 20.45,29.42 20.91,29.46 21.36,29.46 21.82,29.43 22.28,29.42 22.74,29.46 23.19,29.59 23.65,29.85 24.11,30.24 24.56,30.75 25.02,31.37 25.48,32.04 25.93,32.74 26.39,33.43 26.85,34.13 27.31,34.86 27.76,35.67 28.22,36.59 28.68,37.64 29.13,38.75 29.59,39.82 30.05,40.70 30.50,41.26 30.96,41.39 31.42,41.07 31.87,40.32 32.33,39.25 32.79,37.98 33.25,36.64 33.70,35.34 34.16,34.13 34.62,33.07 35.07,32.15 35.53,31.35 35.99,30.60 36.44,29.85 36.90,28.99 37.36,27.97 37.82,26.80 38.27,25.54 38.73,24.31 39.19,23.26 39.64,22.51 40.10,22.11 40.56,22.00 41.01,22.09 41.47,22.26 41.93,22.44 42.38,22.66 42.84,23.05 43.30,23.79 43.76,25.03 44.21,26.81 44.67,29.01 45.13,31.34 45.58,33.40 46.04,34.81 46.50,35.27 46.95,34.73 47.41,33.41 47.87,31.79 48.33,30.57 48.78,30.44 49.24,31.89 49.70,34.97 50.15,39.23 50.61,43.78 51.07,47.63 51.52,49.99 51.98,50.50 52.44,49.32 52.90,46.97 53.35,44.15 53.81,41.45 54.27,39.25 54.72,37.70 55.18,36.75 55.64,36.25 56.09,36.00 56.55,35.79 57.01,35.42 57.46,34.68 57.92,33.37 58.38,31.38 58.84,28.71 59.29,25.51 59.75,22.03 60.21,18.60 60.66,15.47 61.12,12.82 61.58,10.68 62.03,8.96 62.49,7.53 62.95,6.31 63.41,5.31 63.86,4.63 64.32,4.45 64.78,4.96 65.23,6.26 65.69,8.36 66.15,11.16 66.60,14.48 67.06,18.12 67.52,21.87 67.97,25.58 68.43,29.09 68.89,32.26 69.35,34.95 69.80,37.04 70.26,38.46 70.72,39.21 71.17,39.40 71.63,39.21 72.09,38.87 72.54,38.55 73.00,38.40 73.46,38.42 73.92,38.60 74.37,38.84 74.83,39.07 75.29,39.26 75.74,39.42 76.20,39.57 76.66,39.77 77.11,40.05 77.57,40.43 78.03,40.90 78.49,41.46 78.94,42.10 79.40,42.84 79.86,43.67 80.31,44.60 80.77,45.59 81.23,46.60 81.68,47.57 82.14,48.45 82.60,49.21 83.05,49.87 83.51,50.45 83.97,50.98 84.43,51.48 84.88,51.94 85.34,52.29 85.80,52.43 86.25,52.23 86.71,51.60 87.17,50.43 87.62,48.72 88.08,46.52 88.54,43.94 89.00,41.13 89.45,38.25 89.91,35.42 90.37,32.71 90.82,30.16 91.28,27.82 91.74,25.70 92.19,23.86 92.65,22.33 93.11,21.14 93.56,20.24 94.02,19.57 94.48,18.97 94.94,18.32 95.39,17.48 95.85,16.37 96.31,15.00 96.76,13.44 97.22,11.82 97.68,10.35 98.13,9.23 98.59,8.62 99.05,8.63 99.51,9.29 99.96,10.49 100.42,12.06 100.88,13.80 101.33,15.51 101.79,17.06 102.25,18.42 102.70,19.65 103.16,20.84 103.62,22.08 104.08,23.44 104.53,24.87 104.99,26.34 105.45,27.74 105.90,29.03 106.36,30.16 106.82,31.12 107.27,31.94 107.73,32.62 108.19,33.17 108.64,33.60 109.10,33.94 109.56,34.24 110.02,34.53 110.47,34.87 110.93,35.25 111.39,35.66 111.84,36.05 112.30,36.35 112.76,36.56 113.21,36.68 113.67,36.76 114.13,36.87 114.59,37.08 115.04,37.41 115.50,37.80 115.96,38.19 116.41,38.49 116.87,38.65 117.33,38.69 117.78,38.72 118.24,38.88 118.70,39.28 119.15,40.00 119.61,41.00 120.07,42.11 120.53,43.12 120.98,43.79 121.44,43.97 121.90,43.56 122.35,42.59 122.81,41.20 123.27,39.55 123.72,37.83 124.18,36.20 124.64,34.79 125.10,33.65 125.55,32.79 126.01,32.17 126.47,31.71 126.92,31.31 127.38,30.88 127.84,30.35 128.29,29.69 128.75,28.88 129.21,27.97 129.67,27.00 130.12,26.06 130.58,25.23 131.04,24.58 131.49,24.16 131.95,24.00 132.41,24.09 132.86,24.37 133.32,24.79 133.78,25.28 134.23,25.79 134.69,26.33 135.15,26.95 135.61,27.70 136.06,28.65 136.52,29.81 136.98,31.13 137.43,32.50 137.89,33.75 138.35,34.70 138.80,35.23 139.26,35.25 139.72,34.77 140.18,33.87 140.63,32.69 141.09,31.42 141.55,30.21 142.00,29.20 142.46,28.49 142.92,28.09 143.37,28.00 143.83,28.14 144.29,28.45 144.74,28.81 145.20,29.15 145.66,29.41 146.12,29.57 146.57,29.67 147.03,29.76 147.49,29.87 147.94,30.03 148.40,30.22 148.86,30.40 149.31,30.56 149.77,30.72 150.23,30.92 150.69,31.27 151.14,31.85 151.60,32.72 152.06,33.89 152.51,35.29 152.97,36.78 153.43,38.18 153.88,39.31 154.34,40.00 154.80,40.14 155.26,39.72 155.71,38.81 156.17,37.53 156.63,36.06 157.08,34.57 157.54,33.20 158.00,32.05 158.45,31.18 158.91,30.59 159.37,30.27 159.82,30.20 160.28,30.32 160.74,30.56 161.20,30.86 161.65,31.17 162.11,31.43 162.57,31.65 163.02,31.84 163.48,32.03 163.94,32.24 164.39,32.49 164.85,32.77 165.31,33.06 165.77,33.34 166.22,33.63 166.68,33.97 167.14,34.43 167.59,35.09 168.05,36.00 168.51,37.12 168.96,38.37 169.42,39.54 169.88,40.40 170.33,40.72 170.79,40.31 171.25,39.10 171.71,37.13 172.16,34.55 172.62,31.61 173.08,28.58 173.53,25.73 173.99,23.28 174.45,21.36 174.90,20.04 175.36,19.29 175.82,19.05 176.28,19.23 176.73,19.73 177.19,20.44 177.65,21.27 178.10,22.12 178.56,22.93 179.02,23.66 179.47,24.29 179.93,24.85 180.39,25.39 180.85,25.96 181.30,26.61 181.76,27.35 182.22,28.18 182.67,29.12 183.13,30.19 183.59,31.43 184.04,32.86 184.50,34.45 184.96,36.12 185.41,37.73 185.87,39.10 186.33,40.07 186.79,40.54 187.24,40.47 187.70,39.91 188.16,38.95 188.61,37.70 189.07,36.26 189.53,34.73 189.98,33.22 190.44,31.84 190.90,30.72 191.36,29.96 191.81,29.62 192.27,29.67 192.73,30.04 193.18,30.58 193.64,31.17 194.10,31.73 194.55,32.22 195.01,32.67 195.47,33.11 195.92,33.59 196.38,34.09 196.84,34.56 197.30,34.96 197.75,35.22 198.21,35.35 198.67,35.38 199.12,35.38 199.58,35.44 200.04,35.60 200.49,35.88 200.95,36.19 201.41,36.39 201.87,36.34 202.32,35.87 202.78,34.88 203.24,33.39 203.69,31.46 204.15,29.27 204.61,27.00 205.06,24.86 205.52,23.01 205.98,21.56 206.44,20.58 206.89,20.13 207.35,20.19 207.81,20.73 208.26,21.63 208.72,22.77 209.18,23.97 209.63,25.09 210.09,26.04 210.55,26.84 211.00,27.54 211.46,28.24 211.92,29.05 212.38,29.99 212.83,31.03 213.29,32.10 213.75,33.11 214.20,34.01 214.66,34.80 215.12,35.56 215.57,36.37 216.03,37.32 216.49,38.46 216.95,39.73 217.40,41.01 217.86,42.10 218.32,42.79 218.77,42.92 219.23,42.40 219.69,41.26 220.14,39.63 220.60,37.69 221.06,35.68 221.51,33.75 221.97,32.06 222.43,30.68 222.89,29.64 223.34,28.95 223.80,28.60 224.26,28.53 224.71,28.66 225.17,28.91 225.63,29.15 226.08,29.31 226.54,29.34 227.00,29.25 227.46,29.11 227.91,28.99 228.37,28.99 228.83,29.13 229.28,29.43 229.74,29.86 230.20,30.38 230.65,30.98 231.11,31.64 231.57,32.41 232.03,33.31 232.48,34.39 232.94,35.63 233.40,36.98 233.85,38.33 234.31,39.52 234.77,40.39 235.22,40.79 235.68,40.63 236.14,39.90 236.59,38.66 237.05,37.04 237.51,35.20 237.97,33.30 238.42,31.47 238.88,29.81 239.34,28.42 239.79,27.36 240.25,26.65 240.71,26.29 241.16,26.22 241.62,26.35 242.08,26.56 242.54,26.75 242.99,26.84 243.45,26.84 243.91,26.79 244.36,26.79 244.82,26.89 245.28,27.12 245.73,27.48 246.19,27.91 246.65,28.36 247.10,28.83 247.56,29.34 248.02,29.98 248.48,30.83 248.93,31.97 249.39,33.38 249.85,34.98 250.30,36.59 250.76,37.99 251.22,38.93 251.67,39.25 252.13,38.86 252.59,37.81 253.05,36.24 253.50,34.34 253.96,32.34 254.42,30.40 254.87,28.67 255.33,27.22 255.79,26.09 256.24,25.33 256.70,24.95 257.16,24.92 257.62,25.19 258.07,25.65 258.53,26.17 258.99,26.64 259.44,26.98 259.90,27.21 260.36,27.37 260.81,27.56 261.27,27.86 261.73,28.29 262.18,28.83 262.64,29.44 263.10,30.08 263.56,30.73 264.01,31.44 264.47,32.25 264.93,33.26 265.38,34.49 265.84,35.93 266.30,37.48 266.75,38.99 267.21,40.23 267.67,41.02 268.13,41.19 268.58,40.68 269.04,39.53 269.50,37.91 269.95,36.01 270.41,34.05 270.87,32.20 271.32,30.57 271.78,29.21 272.24,28.13 272.69,27.34 273.15,26.84 273.61,26.64 274.07,26.69 274.52,26.91 274.98,27.19 275.44,27.45 275.89,27.60 276.35,27.66 276.81,27.67 277.26,27.72 277.72,27.90 278.18,28.23 278.64,28.70 279.09,29.26 279.55,29.83 280.01,30.37 280.46,30.86 280.92,31.36 281.38,31.94 281.83,32.70 282.29,33.69 282.75,34.91 283.21,36.30 283.66,37.69 284.12,38.90 284.58,39.69 285.03,39.90 285.49,39.43 285.95,38.28 286.40,36.58 286.86,34.52 287.32,32.34 287.77,30.30 288.23,28.61 288.69,27.44 289.15,26.88 289.60,26.92 290.06,27.51 290.52,28.48 290.97,29.64 291.43,30.79 291.89,31.77 292.34,32.47 292.80,32.88 293.26,33.07 293.72,33.10 294.17,33.07 294.63,32.99 295.09,32.87 295.54,32.67 296.00,32.33" fill="none" stroke="#2F855A" stroke-width="2.2" stroke-linecap="round" stroke-linejoin="round"/>
</svg>