<svg xmlns="http://www.w3.org/2000/svg" width="300" height="64" viewBox="0 0 300 64">

<polyline points="4.00,31.71 4.59,27.67 5.17,31.80 5.76,30.92 6.34,34.36 6.93,28.95 7.51,28.95 8.10,29.44 8.68,35.93 9.27,25.61 9.85,26.30 10.44,37.60 11.02,30.62 11.61,37.80 12.19,27.58 12.78,23.84 13.36,20.01 13.95,24.92 14.53,21.68 15.12,22.66 15.70,13.03 16.29,20.01 16.87,46.55 17.46,27.58 18.04,41.44 18.63,39.47 19.21,26.49 19.80,42.13 20.38,49.40 20.97,41.14 21.56,63.46 22.14,64.44 22.73,53.73 23.31,38.19 23.90,49.99 24.48,26.00 25.07,32.00 25.65,39.77 26.24,21.09 26.82,32.10 27.41,25.81 27.99,19.91 28.58,24.63 29.16,20.40 29.75,12.73 30.33,4.08 30.92,-9.78 31.50,-13.00 32.09,-9.78 32.67,-4.47 33.26,8.60 33.84,13.81 34.43,22.56 35.01,25.51 35.60,32.59 36.18,39.77 36.77,27.77 37.35,18.04 37.94,26.10 38.53,47.14 39.11,13.71 39.70,24.23 40.28,45.47 40.87,46.16 41.45,55.10 42.04,43.70 42.62,31.21 43.21,38.78 43.79,55.30 44.38,74.08 44.96,41.54 45.55,39.57 46.13,25.71 46.72,11.95 47.30,29.84 47.89,38.29 48.47,50.19 49.06,64.15 49.64,61.30 50.23,40.75 50.81,50.58 51.40,63.56 51.98,55.69 52.57,44.88 53.15,25.22 53.74,42.91 54.32,41.83 54.91,35.05 55.49,35.05 56.08,55.89 56.67,54.81 57.25,42.32 57.84,43.99 58.42,43.60 59.01,42.42 59.59,41.73 60.18,42.13 60.76,43.60 61.35,44.88 61.93,43.40 62.52,44.98 63.10,47.34 63.69,43.80 64.27,46.25 64.86,42.22 65.44,38.00 66.03,38.68 66.61,42.13 67.20,36.42 67.78,39.57 68.37,39.77 68.95,38.00 69.54,36.33 70.12,39.08 70.71,36.03 71.29,39.96 71.88,32.00 72.46,37.41 73.05,34.56 73.64,32.00 74.22,30.82 74.81,38.49 75.39,31.02 75.98,32.20 76.56,35.93 77.15,32.59 77.73,30.92 78.32,35.24 78.90,40.26 79.49,38.19 80.07,35.83 80.66,34.06 81.24,32.29 81.83,35.44 82.41,38.29 83.00,34.06 83.58,32.39 84.17,28.07 84.75,35.83 85.34,38.98 85.92,37.31 86.51,34.36 87.09,35.64 87.68,28.76 88.26,30.43 88.85,29.94 89.43,30.03 90.02,27.97 90.61,28.36 91.19,31.80 91.78,33.97 92.36,32.79 92.95,34.16 93.53,31.80 94.12,29.84 94.70,27.77 95.29,29.94 95.87,31.02 96.46,30.72 97.04,30.43 97.63,31.80 98.21,32.00 98.80,30.23 99.38,28.66 99.97,29.15 100.55,31.90 101.14,31.12 101.72,30.62 102.31,30.62 102.89,29.94 103.48,30.53 104.06,31.71 104.65,32.20 105.23,33.47 105.82,30.03 106.40,31.12 106.99,32.10 107.58,28.85 108.16,31.80 108.75,32.49 109.33,31.71 109.92,31.80 110.50,30.23 111.09,31.90 111.67,33.47 112.26,31.21 112.84,36.72 113.43,27.48 114.01,30.92 114.60,27.38 115.18,29.35 115.77,30.92 116.35,31.12 116.94,33.08 117.52,32.20 118.11,29.25 118.69,29.25 119.28,28.85 119.86,29.15 120.45,30.92 121.03,31.21 121.62,30.03 122.20,33.08 122.79,30.82 123.37,30.92 123.96,30.82 124.55,32.29 125.13,32.00 125.72,32.59 126.30,30.53 126.89,33.18 127.47,29.54 128.06,30.33 128.64,32.10 129.23,30.33 129.81,29.74 130.40,30.62 130.98,30.43 131.57,32.79 132.15,30.53 132.74,31.12 133.32,31.90 133.91,30.92 134.49,30.53 135.08,30.53 135.66,32.29 136.25,30.43 136.83,33.87 137.42,30.43 138.00,31.90 138.59,31.71 139.17,32.69 139.76,30.82 140.34,32.69 140.93,30.53 141.52,32.79 142.10,31.02 142.69,35.05 143.27,32.59 143.86,28.95 144.44,33.08 145.03,31.71 145.61,32.59 146.20,33.28 146.78,33.28 147.37,29.05 147.95,31.90 148.54,33.47 149.12,30.53 149.71,27.28 150.29,30.53 150.88,33.97 151.46,34.06 152.05,31.51 152.63,32.69 153.22,32.88 153.80,32.49 154.39,33.67 154.97,33.77 155.56,31.90 156.14,32.49 156.73,28.76 157.31,32.69 157.90,32.69 158.48,30.13 159.07,29.94 159.66,32.49 160.24,34.16 160.83,35.15 161.41,32.98 162.00,33.47 162.58,32.59 163.17,30.33 163.75,31.51 164.34,33.47 164.92,30.82 165.51,29.05 166.09,32.79 166.68,34.95 167.26,32.79 167.85,30.72 168.43,30.82 169.02,31.61 169.60,28.95 170.19,32.69 170.77,31.61 171.36,32.49 171.94,32.88 172.53,32.88 173.11,34.56 173.70,31.41 174.28,31.21 174.87,29.94 175.45,33.08 176.04,29.74 176.63,28.95 177.21,30.82 177.80,30.43 178.38,32.39 178.97,31.71 179.55,31.90 180.14,31.61 180.72,30.33 181.31,32.39 181.89,31.02 182.48,29.64 183.06,32.79 183.65,30.03 184.23,30.53 184.82,29.74 185.40,32.98 185.99,29.84 186.57,32.20 187.16,33.28 187.74,32.20 188.33,32.00 188.91,35.05 189.50,32.88 190.08,32.59 190.67,31.41 191.25,31.12 191.84,31.71 192.42,31.21 193.01,29.94 193.60,32.20 194.18,30.13 194.77,30.82 195.35,32.10 195.94,31.12 196.52,30.62 197.11,35.05 197.69,32.49 198.28,32.29 198.86,31.12 199.45,33.57 200.03,34.75 200.62,31.61 201.20,31.71 201.79,31.31 202.37,32.88 202.96,31.61 203.54,31.51 204.13,32.59 204.71,31.02 205.30,28.17 205.88,33.18 206.47,33.47 207.05,31.21 207.64,32.69 208.22,32.39 208.81,33.87 209.39,32.10 209.98,32.20 210.57,32.88 211.15,32.20 211.74,31.41 212.32,32.39 212.91,34.65 213.49,30.92 214.08,32.10 214.66,33.28 215.25,33.47 215.83,34.65 216.42,34.16 217.00,29.15 217.59,31.41 218.17,32.49 218.76,32.29 219.34,29.35 219.93,32.88 220.51,28.17 221.10,32.49 221.68,34.75 222.27,30.03 222.85,29.64 223.44,33.08 224.02,32.20 224.61,30.62 225.19,36.62 225.78,31.31 226.36,32.20 226.95,32.29 227.54,32.88 228.12,31.31 228.71,32.49 229.29,32.69 229.88,32.98 230.46,34.26 231.05,31.02 231.63,31.80 232.22,30.72 232.80,34.36 233.39,32.49 233.97,33.18 234.56,32.69 235.14,32.00 235.73,30.62 236.31,31.51 236.90,29.84 237.48,30.82 238.07,31.02 238.65,30.82 239.24,31.02 239.82,33.28 240.41,31.61 240.99,30.33 241.58,30.62 242.16,34.95 242.75,33.67 243.33,34.85 243.92,31.61 244.51,32.20 245.09,30.03 245.68,30.92 246.26,31.51 246.85,33.77 247.43,33.28 248.02,32.98 248.60,34.75 249.19,35.74 249.77,28.46 250.36,30.72 250.94,29.25 251.53,33.87 252.11,33.67 252.70,35.05 253.28,30.53 253.87,29.84 254.45,31.51 255.04,29.44 255.62,30.92 256.21,33.57 256.79,29.84 257.38,33.47 257.96,31.80 258.55,32.39 259.13,32.39 259.72,31.51 260.30,32.49 260.89,31.90 261.47,30.23 262.06,30.43 262.65,32.39 263.23,31.71 263.82,29.25 264.40,30.72 264.99,33.97 265.57,31.61 266.16,31.90 266.74,29.94 267.33,33.87 267.91,31.21 268.50,28.66 269.08,30.62 269.67,32.20 270.25,32.20 270.84,30.03 271.42,32.59 272.01,30.92 272.59,33.87 273.18,29.64 273.76,33.28 274.35,31.51 274.93,34.56 275.52,32.49 276.10,34.16 276.69,29.25 277.27,33.77 277.86,31.41 278.44,31.41 279.03,32.29 279.62,31.80 280.20,31.80 280.79,35.24 281.37,33.47 281.96,34.85 282.54,29.44 283.13,30.82 283.71,32.49 284.30,33.77 284.88,31.51 285.47,27.87 286.05,30.13 286.64,32.29 287.22,34.06 287.81,30.33 288.39,31.31 288.98,34.65 289.56,32.69 290.15,33.47 290.73,33.57 291.32,32.69 291.90,33.38 292.49,32.39 293.07,31.71 293.66,31.02 294.24,34.65 294.83,32.00 295.41,32.00 296.00,32.00" fill="none" stroke="#111827" stroke-width="2.2" stroke-linecap="round" stroke-linejoin="round"/>
</svg>